<?xml version="1.0" encoding="UTF-8" standalone="no"?>
<!DOCTYPE svg PUBLIC "-//W3C//DTD SVG 1.1//EN"
 "http://www.w3.org/Graphics/SVG/1.1/DTD/svg11.dtd">
<!-- Generated by graphviz version 2.40.1 (20161225.0304)
 -->
<!-- Title: dependencies Pages: 1 -->
<svg width="1428pt" height="211pt"
 viewBox="0.00 0.00 1428.00 211.00" xmlns="http://www.w3.org/2000/svg" xmlns:xlink="http://www.w3.org/1999/xlink">
<g id="graph0" class="graph" transform="scale(1 1) rotate(0) translate(4 207)">
<title>dependencies</title>
<polygon fill="#ffffff" stroke="transparent" points="-4,4 -4,-207 1424,-207 1424,4 -4,4"/>
<text text-anchor="start" x="689.0091" y="-42.4" font-family="sans-serif" font-weight="bold" font-size="14.00" fill="#000000">Legend</text>
<polygon fill="#ffffb3" stroke="transparent" points="476,-10 476,-30 496,-30 496,-10 476,-10"/>
<text text-anchor="start" x="499.629" y="-15.4" font-family="sans-serif" font-size="14.00" fill="#000000"> &#160;Declarations</text>
<polygon fill="#8dd3c7" stroke="transparent" points="589,-10 589,-30 609,-30 609,-10 589,-10"/>
<text text-anchor="start" x="612.7251" y="-15.4" font-family="sans-serif" font-size="14.00" fill="#000000"> &#160;Module</text>
<polygon fill="#80b1d3" stroke="transparent" points="675,-10 675,-30 695,-30 695,-10 675,-10"/>
<text text-anchor="start" x="698.7812" y="-15.4" font-family="sans-serif" font-size="14.00" fill="#000000"> &#160;Bootstrap</text>
<polygon fill="#fdb462" stroke="transparent" points="772,-10 772,-30 792,-30 792,-10 772,-10"/>
<text text-anchor="start" x="795.6732" y="-15.4" font-family="sans-serif" font-size="14.00" fill="#000000"> &#160;Providers</text>
<polygon fill="#fb8072" stroke="transparent" points="868,-10 868,-30 888,-30 888,-10 868,-10"/>
<text text-anchor="start" x="891.7258" y="-15.4" font-family="sans-serif" font-size="14.00" fill="#000000"> &#160;Exports</text>
<g id="clust1" class="cluster">
<title>cluster_EthereumModule</title>
<polygon fill="none" stroke="#000000" stroke-dasharray="1,5" points="8,-70 8,-195 1412,-195 1412,-70 8,-70"/>
</g>
<g id="clust2" class="cluster">
<title>cluster_EthereumModule_declarations</title>
<polygon fill="none" stroke="#000000" points="790,-78 790,-130 1404,-130 1404,-78 790,-78"/>
</g>
<g id="clust7" class="cluster">
<title>cluster_EthereumModule_imports</title>
<polygon fill="none" stroke="#000000" points="361,-78 361,-130 782,-130 782,-78 361,-78"/>
</g>
<g id="clust10" class="cluster">
<title>cluster_EthereumModule_providers</title>
<polygon fill="none" stroke="#000000" points="16,-78 16,-130 353,-130 353,-78 16,-78"/>
</g>
<!-- EthereumComponent -->
<g id="node1" class="node">
<title>EthereumComponent</title>
<polygon fill="#ffffb3" stroke="#000000" points="1395.7562,-122 1260.2438,-122 1260.2438,-86 1395.7562,-86 1395.7562,-122"/>
<text text-anchor="middle" x="1328" y="-99.8" font-family="Times,serif" font-size="14.00" fill="#000000">EthereumComponent</text>
</g>
<!-- EthereumModule -->
<g id="node5" class="node">
<title>EthereumModule</title>
<polygon fill="#8dd3c7" stroke="#000000" points="774.9734,-187 771.9734,-191 750.9734,-191 747.9734,-187 661.0266,-187 661.0266,-151 774.9734,-151 774.9734,-187"/>
<text text-anchor="middle" x="718" y="-164.8" font-family="Times,serif" font-size="14.00" fill="#000000">EthereumModule</text>
</g>
<!-- EthereumComponent&#45;&gt;EthereumModule -->
<g id="edge1" class="edge">
<title>EthereumComponent&#45;&gt;EthereumModule</title>
<path fill="none" stroke="#000000" d="M1328,-122.0109C1328,-144.4852 1328,-180 1328,-180 1328,-180 785.1132,-180 785.1132,-180"/>
<polygon fill="#000000" stroke="#000000" points="785.1132,-176.5001 775.1132,-180 785.1131,-183.5001 785.1132,-176.5001"/>
</g>
<!-- WalletComponent -->
<g id="node2" class="node">
<title>WalletComponent</title>
<polygon fill="#ffffb3" stroke="#000000" points="1242.1485,-122 1123.8515,-122 1123.8515,-86 1242.1485,-86 1242.1485,-122"/>
<text text-anchor="middle" x="1183" y="-99.8" font-family="Times,serif" font-size="14.00" fill="#000000">WalletComponent</text>
</g>
<!-- WalletComponent&#45;&gt;EthereumModule -->
<g id="edge2" class="edge">
<title>WalletComponent&#45;&gt;EthereumModule</title>
<path fill="none" stroke="#000000" d="M1183,-122.1289C1183,-142.5724 1183,-173 1183,-173 1183,-173 785.0181,-173 785.0181,-173"/>
<polygon fill="#000000" stroke="#000000" points="785.0182,-169.5001 775.0181,-173 785.0181,-176.5001 785.0182,-169.5001"/>
</g>
<!-- TransactionComponent -->
<g id="node3" class="node">
<title>TransactionComponent</title>
<polygon fill="#ffffb3" stroke="#000000" points="1105.9158,-122 958.0842,-122 958.0842,-86 1105.9158,-86 1105.9158,-122"/>
<text text-anchor="middle" x="1032" y="-99.8" font-family="Times,serif" font-size="14.00" fill="#000000">TransactionComponent</text>
</g>
<!-- TransactionComponent&#45;&gt;EthereumModule -->
<g id="edge3" class="edge">
<title>TransactionComponent&#45;&gt;EthereumModule</title>
<path fill="none" stroke="#000000" d="M1032,-122.2667C1032,-140.5552 1032,-166 1032,-166 1032,-166 785.2273,-166 785.2273,-166"/>
<polygon fill="#000000" stroke="#000000" points="785.2274,-162.5001 775.2273,-166 785.2273,-169.5001 785.2274,-162.5001"/>
</g>
<!-- WalletInfoComponent -->
<g id="node4" class="node">
<title>WalletInfoComponent</title>
<polygon fill="#ffffb3" stroke="#000000" points="939.9692,-122 798.0308,-122 798.0308,-86 939.9692,-86 939.9692,-122"/>
<text text-anchor="middle" x="869" y="-99.8" font-family="Times,serif" font-size="14.00" fill="#000000">WalletInfoComponent</text>
</g>
<!-- WalletInfoComponent&#45;&gt;EthereumModule -->
<g id="edge4" class="edge">
<title>WalletInfoComponent&#45;&gt;EthereumModule</title>
<path fill="none" stroke="#000000" d="M869,-122.0091C869,-138.0494 869,-159 869,-159 869,-159 785.0866,-159 785.0866,-159"/>
<polygon fill="#000000" stroke="#000000" points="785.0867,-155.5001 775.0866,-159 785.0866,-162.5001 785.0867,-155.5001"/>
</g>
<!-- CommonModule -->
<g id="node6" class="node">
<title>CommonModule</title>
<polygon fill="#8dd3c7" stroke="#000000" points="773.6681,-122 770.6681,-126 749.6681,-126 746.6681,-122 662.3319,-122 662.3319,-86 773.6681,-86 773.6681,-122"/>
<text text-anchor="middle" x="718" y="-99.8" font-family="Times,serif" font-size="14.00" fill="#000000">CommonModule</text>
</g>
<!-- CommonModule&#45;&gt;EthereumModule -->
<g id="edge5" class="edge">
<title>CommonModule&#45;&gt;EthereumModule</title>
<path fill="none" stroke="#000000" d="M718,-122.1061C718,-122.1061 718,-140.991 718,-140.991"/>
<polygon fill="#000000" stroke="#000000" points="714.5001,-140.9909 718,-150.991 721.5001,-140.991 714.5001,-140.9909"/>
</g>
<!-- EthereumRoutingModule -->
<g id="node7" class="node">
<title>EthereumRoutingModule</title>
<polygon fill="#8dd3c7" stroke="#000000" points="644.5912,-122 641.5912,-126 620.5912,-126 617.5912,-122 485.4088,-122 485.4088,-86 644.5912,-86 644.5912,-122"/>
<text text-anchor="middle" x="565" y="-99.8" font-family="Times,serif" font-size="14.00" fill="#000000">EthereumRoutingModule</text>
</g>
<!-- EthereumRoutingModule&#45;&gt;EthereumModule -->
<g id="edge6" class="edge">
<title>EthereumRoutingModule&#45;&gt;EthereumModule</title>
<path fill="none" stroke="#000000" d="M565,-122.0091C565,-138.0494 565,-159 565,-159 565,-159 650.5931,-159 650.5931,-159"/>
<polygon fill="#000000" stroke="#000000" points="650.5932,-162.5001 660.5931,-159 650.5931,-155.5001 650.5932,-162.5001"/>
</g>
<!-- SharedModule -->
<g id="node8" class="node">
<title>SharedModule</title>
<polygon fill="#8dd3c7" stroke="#000000" points="467.4231,-122 464.4231,-126 443.4231,-126 440.4231,-122 368.5769,-122 368.5769,-86 467.4231,-86 467.4231,-122"/>
<text text-anchor="middle" x="418" y="-99.8" font-family="Times,serif" font-size="14.00" fill="#000000">SharedModule</text>
</g>
<!-- SharedModule&#45;&gt;EthereumModule -->
<g id="edge7" class="edge">
<title>SharedModule&#45;&gt;EthereumModule</title>
<path fill="none" stroke="#000000" d="M418,-122.2667C418,-140.5552 418,-166 418,-166 418,-166 650.8662,-166 650.8662,-166"/>
<polygon fill="#000000" stroke="#000000" points="650.8662,-169.5001 660.8662,-166 650.8661,-162.5001 650.8662,-169.5001"/>
</g>
<!-- WalletService -->
<g id="node9" class="node">
<title>WalletService</title>
<ellipse fill="#fdb462" stroke="#000000" cx="279" cy="-104" rx="65.9638" ry="18"/>
<text text-anchor="middle" x="279" y="-99.8" font-family="Times,serif" font-size="14.00" fill="#000000">WalletService</text>
</g>
<!-- WalletService&#45;&gt;EthereumModule -->
<g id="edge8" class="edge">
<title>WalletService&#45;&gt;EthereumModule</title>
<path fill="none" stroke="#000000" d="M279,-122.1289C279,-142.5724 279,-173 279,-173 279,-173 650.6084,-173 650.6084,-173"/>
<polygon fill="#000000" stroke="#000000" points="650.6085,-176.5001 660.6084,-173 650.6084,-169.5001 650.6085,-176.5001"/>
</g>
<!-- TransactionService -->
<g id="node10" class="node">
<title>TransactionService</title>
<ellipse fill="#fdb462" stroke="#000000" cx="110" cy="-104" rx="85.6493" ry="18"/>
<text text-anchor="middle" x="110" y="-99.8" font-family="Times,serif" font-size="14.00" fill="#000000">TransactionService</text>
</g>
<!-- TransactionService&#45;&gt;EthereumModule -->
<g id="edge9" class="edge">
<title>TransactionService&#45;&gt;EthereumModule</title>
<path fill="none" stroke="#000000" d="M110,-122.0109C110,-144.4852 110,-180 110,-180 110,-180 650.8008,-180 650.8008,-180"/>
<polygon fill="#000000" stroke="#000000" points="650.8009,-183.5001 660.8008,-180 650.8008,-176.5001 650.8009,-183.5001"/>
</g>
</g>
</svg>
