<?xml version="1.0" encoding="UTF-8" standalone="no"?>
<!DOCTYPE svg PUBLIC "-//W3C//DTD SVG 1.1//EN"
 "http://www.w3.org/Graphics/SVG/1.1/DTD/svg11.dtd">
<!-- Generated by graphviz version 2.40.1 (20161225.0304)
 -->
<!-- Title: dependencies Pages: 1 -->
<svg width="1299pt" height="211pt"
 viewBox="0.00 0.00 1299.00 211.00" xmlns="http://www.w3.org/2000/svg" xmlns:xlink="http://www.w3.org/1999/xlink">
<g id="graph0" class="graph" transform="scale(1 1) rotate(0) translate(4 207)">
<title>dependencies</title>
<polygon fill="#ffffff" stroke="transparent" points="-4,4 -4,-207 1295,-207 1295,4 -4,4"/>
<text text-anchor="start" x="624.5091" y="-42.4" font-family="sans-serif" font-weight="bold" font-size="14.00" fill="#000000">Legend</text>
<polygon fill="#ffffb3" stroke="transparent" points="411.5,-10 411.5,-30 431.5,-30 431.5,-10 411.5,-10"/>
<text text-anchor="start" x="435.129" y="-15.4" font-family="sans-serif" font-size="14.00" fill="#000000"> &#160;Declarations</text>
<polygon fill="#8dd3c7" stroke="transparent" points="524.5,-10 524.5,-30 544.5,-30 544.5,-10 524.5,-10"/>
<text text-anchor="start" x="548.2251" y="-15.4" font-family="sans-serif" font-size="14.00" fill="#000000"> &#160;Module</text>
<polygon fill="#80b1d3" stroke="transparent" points="610.5,-10 610.5,-30 630.5,-30 630.5,-10 610.5,-10"/>
<text text-anchor="start" x="634.2812" y="-15.4" font-family="sans-serif" font-size="14.00" fill="#000000"> &#160;Bootstrap</text>
<polygon fill="#fdb462" stroke="transparent" points="707.5,-10 707.5,-30 727.5,-30 727.5,-10 707.5,-10"/>
<text text-anchor="start" x="731.1732" y="-15.4" font-family="sans-serif" font-size="14.00" fill="#000000"> &#160;Providers</text>
<polygon fill="#fb8072" stroke="transparent" points="803.5,-10 803.5,-30 823.5,-30 823.5,-10 803.5,-10"/>
<text text-anchor="start" x="827.2258" y="-15.4" font-family="sans-serif" font-size="14.00" fill="#000000"> &#160;Exports</text>
<g id="clust1" class="cluster">
<title>cluster_EthereumModule</title>
<polygon fill="none" stroke="#000000" stroke-dasharray="1,5" points="8,-70 8,-195 1283,-195 1283,-70 8,-70"/>
</g>
<g id="clust2" class="cluster">
<title>cluster_EthereumModule_declarations</title>
<polygon fill="none" stroke="#000000" points="661,-78 661,-130 1275,-130 1275,-78 661,-78"/>
</g>
<g id="clust7" class="cluster">
<title>cluster_EthereumModule_imports</title>
<polygon fill="none" stroke="#000000" points="361,-78 361,-130 653,-130 653,-78 361,-78"/>
</g>
<g id="clust10" class="cluster">
<title>cluster_EthereumModule_providers</title>
<polygon fill="none" stroke="#000000" points="16,-78 16,-130 353,-130 353,-78 16,-78"/>
</g>
<!-- EthereumComponent -->
<g id="node1" class="node">
<title>EthereumComponent</title>
<polygon fill="#ffffb3" stroke="#000000" points="1266.7562,-122 1131.2438,-122 1131.2438,-86 1266.7562,-86 1266.7562,-122"/>
<text text-anchor="middle" x="1199" y="-99.8" font-family="Times,serif" font-size="14.00" fill="#000000">EthereumComponent</text>
</g>
<!-- EthereumModule -->
<g id="node5" class="node">
<title>EthereumModule</title>
<polygon fill="#8dd3c7" stroke="#000000" points="708.9734,-187 705.9734,-191 684.9734,-191 681.9734,-187 595.0266,-187 595.0266,-151 708.9734,-151 708.9734,-187"/>
<text text-anchor="middle" x="652" y="-164.8" font-family="Times,serif" font-size="14.00" fill="#000000">EthereumModule</text>
</g>
<!-- EthereumComponent&#45;&gt;EthereumModule -->
<g id="edge1" class="edge">
<title>EthereumComponent&#45;&gt;EthereumModule</title>
<path fill="none" stroke="#000000" d="M1199,-122.2921C1199,-144.2057 1199,-178 1199,-178 1199,-178 718.9906,-178 718.9906,-178"/>
<polygon fill="#000000" stroke="#000000" points="718.9906,-174.5001 708.9906,-178 718.9906,-181.5001 718.9906,-174.5001"/>
</g>
<!-- WalletComponent -->
<g id="node2" class="node">
<title>WalletComponent</title>
<polygon fill="#ffffb3" stroke="#000000" points="1113.1485,-122 994.8515,-122 994.8515,-86 1113.1485,-86 1113.1485,-122"/>
<text text-anchor="middle" x="1054" y="-99.8" font-family="Times,serif" font-size="14.00" fill="#000000">WalletComponent</text>
</g>
<!-- WalletComponent&#45;&gt;EthereumModule -->
<g id="edge2" class="edge">
<title>WalletComponent&#45;&gt;EthereumModule</title>
<path fill="none" stroke="#000000" d="M1054,-122.1061C1054,-141.3391 1054,-169 1054,-169 1054,-169 719.1699,-169 719.1699,-169"/>
<polygon fill="#000000" stroke="#000000" points="719.1699,-165.5001 709.1699,-169 719.1698,-172.5001 719.1699,-165.5001"/>
</g>
<!-- TransactionComponent -->
<g id="node3" class="node">
<title>TransactionComponent</title>
<polygon fill="#ffffb3" stroke="#000000" points="976.9158,-122 829.0842,-122 829.0842,-86 976.9158,-86 976.9158,-122"/>
<text text-anchor="middle" x="903" y="-99.8" font-family="Times,serif" font-size="14.00" fill="#000000">TransactionComponent</text>
</g>
<!-- TransactionComponent&#45;&gt;EthereumModule -->
<g id="edge3" class="edge">
<title>TransactionComponent&#45;&gt;EthereumModule</title>
<path fill="none" stroke="#000000" d="M903,-122.027C903,-138.3976 903,-160 903,-160 903,-160 719.2699,-160 719.2699,-160"/>
<polygon fill="#000000" stroke="#000000" points="719.2699,-156.5001 709.2699,-160 719.2698,-163.5001 719.2699,-156.5001"/>
</g>
<!-- WalletInfoComponent -->
<g id="node4" class="node">
<title>WalletInfoComponent</title>
<polygon fill="#ffffb3" stroke="#000000" points="810.9692,-122 669.0308,-122 669.0308,-86 810.9692,-86 810.9692,-122"/>
<text text-anchor="middle" x="740" y="-99.8" font-family="Times,serif" font-size="14.00" fill="#000000">WalletInfoComponent</text>
</g>
<!-- WalletInfoComponent&#45;&gt;EthereumModule -->
<g id="edge4" class="edge">
<title>WalletInfoComponent&#45;&gt;EthereumModule</title>
<path fill="none" stroke="#000000" d="M689.0011,-122.1061C689.0011,-122.1061 689.0011,-140.991 689.0011,-140.991"/>
<polygon fill="#000000" stroke="#000000" points="685.5011,-140.9909 689.0011,-150.991 692.5011,-140.991 685.5011,-140.9909"/>
</g>
<!-- EthereumRoutingModule -->
<g id="node6" class="node">
<title>EthereumRoutingModule</title>
<polygon fill="#8dd3c7" stroke="#000000" points="644.5912,-122 641.5912,-126 620.5912,-126 617.5912,-122 485.4088,-122 485.4088,-86 644.5912,-86 644.5912,-122"/>
<text text-anchor="middle" x="565" y="-99.8" font-family="Times,serif" font-size="14.00" fill="#000000">EthereumRoutingModule</text>
</g>
<!-- EthereumRoutingModule&#45;&gt;EthereumModule -->
<g id="edge5" class="edge">
<title>EthereumRoutingModule&#45;&gt;EthereumModule</title>
<path fill="none" stroke="#000000" d="M619.7795,-122.1061C619.7795,-122.1061 619.7795,-140.991 619.7795,-140.991"/>
<polygon fill="#000000" stroke="#000000" points="616.2795,-140.9909 619.7795,-150.991 623.2795,-140.991 616.2795,-140.9909"/>
</g>
<!-- SharedModule -->
<g id="node7" class="node">
<title>SharedModule</title>
<polygon fill="#8dd3c7" stroke="#000000" points="467.4231,-122 464.4231,-126 443.4231,-126 440.4231,-122 368.5769,-122 368.5769,-86 467.4231,-86 467.4231,-122"/>
<text text-anchor="middle" x="418" y="-99.8" font-family="Times,serif" font-size="14.00" fill="#000000">SharedModule</text>
</g>
<!-- SharedModule&#45;&gt;EthereumModule -->
<g id="edge6" class="edge">
<title>SharedModule&#45;&gt;EthereumModule</title>
<path fill="none" stroke="#000000" d="M418,-122.027C418,-138.3976 418,-160 418,-160 418,-160 584.7572,-160 584.7572,-160"/>
<polygon fill="#000000" stroke="#000000" points="584.7572,-163.5001 594.7572,-160 584.7571,-156.5001 584.7572,-163.5001"/>
</g>
<!-- WalletService -->
<g id="node8" class="node">
<title>WalletService</title>
<ellipse fill="#fdb462" stroke="#000000" cx="279" cy="-104" rx="65.9638" ry="18"/>
<text text-anchor="middle" x="279" y="-99.8" font-family="Times,serif" font-size="14.00" fill="#000000">WalletService</text>
</g>
<!-- WalletService&#45;&gt;EthereumModule -->
<g id="edge7" class="edge">
<title>WalletService&#45;&gt;EthereumModule</title>
<path fill="none" stroke="#000000" d="M279,-122.1061C279,-141.3391 279,-169 279,-169 279,-169 584.9433,-169 584.9433,-169"/>
<polygon fill="#000000" stroke="#000000" points="584.9433,-172.5001 594.9433,-169 584.9433,-165.5001 584.9433,-172.5001"/>
</g>
<!-- TransactionService -->
<g id="node9" class="node">
<title>TransactionService</title>
<ellipse fill="#fdb462" stroke="#000000" cx="110" cy="-104" rx="85.6493" ry="18"/>
<text text-anchor="middle" x="110" y="-99.8" font-family="Times,serif" font-size="14.00" fill="#000000">TransactionService</text>
</g>
<!-- TransactionService&#45;&gt;EthereumModule -->
<g id="edge8" class="edge">
<title>TransactionService&#45;&gt;EthereumModule</title>
<path fill="none" stroke="#000000" d="M110,-122.2921C110,-144.2057 110,-178 110,-178 110,-178 585.0209,-178 585.0209,-178"/>
<polygon fill="#000000" stroke="#000000" points="585.0209,-181.5001 595.0209,-178 585.0209,-174.5001 585.0209,-181.5001"/>
</g>
</g>
</svg>
