<?xml version="1.0" encoding="UTF-8" standalone="no"?>
<!DOCTYPE svg PUBLIC "-//W3C//DTD SVG 1.1//EN"
 "http://www.w3.org/Graphics/SVG/1.1/DTD/svg11.dtd">
<!-- Generated by graphviz version 2.40.1 (20161225.0304)
 -->
<!-- Title: dependencies Pages: 1 -->
<svg width="1180pt" height="284pt"
 viewBox="0.00 0.00 1180.00 284.00" xmlns="http://www.w3.org/2000/svg" xmlns:xlink="http://www.w3.org/1999/xlink">
<g id="graph0" class="graph" transform="scale(1 1) rotate(0) translate(4 280)">
<title>dependencies</title>
<polygon fill="#ffffff" stroke="transparent" points="-4,4 -4,-280 1176,-280 1176,4 -4,4"/>
<text text-anchor="start" x="565.0091" y="-42.4" font-family="sans-serif" font-weight="bold" font-size="14.00" fill="#000000">Legend</text>
<polygon fill="#ffffb3" stroke="transparent" points="352,-10 352,-30 372,-30 372,-10 352,-10"/>
<text text-anchor="start" x="375.629" y="-15.4" font-family="sans-serif" font-size="14.00" fill="#000000"> &#160;Declarations</text>
<polygon fill="#8dd3c7" stroke="transparent" points="465,-10 465,-30 485,-30 485,-10 465,-10"/>
<text text-anchor="start" x="488.7251" y="-15.4" font-family="sans-serif" font-size="14.00" fill="#000000"> &#160;Module</text>
<polygon fill="#80b1d3" stroke="transparent" points="551,-10 551,-30 571,-30 571,-10 551,-10"/>
<text text-anchor="start" x="574.7812" y="-15.4" font-family="sans-serif" font-size="14.00" fill="#000000"> &#160;Bootstrap</text>
<polygon fill="#fdb462" stroke="transparent" points="648,-10 648,-30 668,-30 668,-10 648,-10"/>
<text text-anchor="start" x="671.6732" y="-15.4" font-family="sans-serif" font-size="14.00" fill="#000000"> &#160;Providers</text>
<polygon fill="#fb8072" stroke="transparent" points="744,-10 744,-30 764,-30 764,-10 744,-10"/>
<text text-anchor="start" x="767.7258" y="-15.4" font-family="sans-serif" font-size="14.00" fill="#000000"> &#160;Exports</text>
<g id="clust1" class="cluster">
<title>cluster_AppModule</title>
<polygon fill="none" stroke="#000000" stroke-dasharray="1,5" points="8,-70 8,-268 1164,-268 1164,-70 8,-70"/>
</g>
<g id="clust2" class="cluster">
<title>cluster_AppModule_declarations</title>
<polygon fill="none" stroke="#000000" points="901,-78 901,-130 1156,-130 1156,-78 901,-78"/>
</g>
<g id="clust5" class="cluster">
<title>cluster_AppModule_imports</title>
<polygon fill="none" stroke="#000000" points="16,-78 16,-130 893,-130 893,-78 16,-78"/>
</g>
<g id="clust7" class="cluster">
<title>cluster_AppModule_bootstrap</title>
<polygon fill="none" stroke="#000000" points="562,-208 562,-260 686,-260 686,-208 562,-208"/>
</g>
<!-- AppComponent -->
<g id="node1" class="node">
<title>AppComponent</title>
<polygon fill="#ffffb3" stroke="#000000" points="1147.9399,-122 1042.0601,-122 1042.0601,-86 1147.9399,-86 1147.9399,-122"/>
<text text-anchor="middle" x="1095" y="-99.8" font-family="Times,serif" font-size="14.00" fill="#000000">AppComponent</text>
</g>
<!-- AppModule -->
<g id="node3" class="node">
<title>AppModule</title>
<polygon fill="#8dd3c7" stroke="#000000" points="665.6571,-187 662.6571,-191 641.6571,-191 638.6571,-187 582.3429,-187 582.3429,-151 665.6571,-151 665.6571,-187"/>
<text text-anchor="middle" x="624" y="-164.8" font-family="Times,serif" font-size="14.00" fill="#000000">AppModule</text>
</g>
<!-- AppComponent&#45;&gt;AppModule -->
<g id="edge1" class="edge">
<title>AppComponent&#45;&gt;AppModule</title>
<path fill="none" stroke="#000000" d="M1095,-122.2921C1095,-144.2057 1095,-178 1095,-178 1095,-178 675.7981,-178 675.7981,-178"/>
<polygon fill="#000000" stroke="#000000" points="675.7981,-174.5001 665.7981,-178 675.7981,-181.5001 675.7981,-174.5001"/>
</g>
<!-- HomeComponent -->
<g id="node2" class="node">
<title>HomeComponent</title>
<polygon fill="#ffffb3" stroke="#000000" points="1024.5451,-122 909.4549,-122 909.4549,-86 1024.5451,-86 1024.5451,-122"/>
<text text-anchor="middle" x="967" y="-99.8" font-family="Times,serif" font-size="14.00" fill="#000000">HomeComponent</text>
</g>
<!-- HomeComponent&#45;&gt;AppModule -->
<g id="edge2" class="edge">
<title>HomeComponent&#45;&gt;AppModule</title>
<path fill="none" stroke="#000000" d="M967,-122.1061C967,-141.3391 967,-169 967,-169 967,-169 675.7156,-169 675.7156,-169"/>
<polygon fill="#000000" stroke="#000000" points="675.7157,-165.5001 665.7156,-169 675.7156,-172.5001 675.7157,-165.5001"/>
</g>
<!-- AppComponent  -->
<g id="node10" class="node">
<title>AppComponent </title>
<polygon fill="#80b1d3" stroke="#000000" points="678.439,-252 569.561,-252 569.561,-216 678.439,-216 678.439,-252"/>
<text text-anchor="middle" x="624" y="-229.8" font-family="Times,serif" font-size="14.00" fill="#000000">AppComponent </text>
</g>
<!-- AppModule&#45;&gt;AppComponent  -->
<g id="edge9" class="edge">
<title>AppModule&#45;&gt;AppComponent </title>
<path fill="none" stroke="#000000" stroke-dasharray="1,5" d="M624,-187.1061C624,-187.1061 624,-205.991 624,-205.991"/>
<polygon fill="#000000" stroke="#000000" points="620.5001,-205.9909 624,-215.991 627.5001,-205.991 620.5001,-205.9909"/>
</g>
<!-- BrowserModule -->
<g id="node4" class="node">
<title>BrowserModule</title>
<polygon fill="#8dd3c7" stroke="#000000" points="885.4734,-122 882.4734,-126 861.4734,-126 858.4734,-122 778.5266,-122 778.5266,-86 885.4734,-86 885.4734,-122"/>
<text text-anchor="middle" x="832" y="-99.8" font-family="Times,serif" font-size="14.00" fill="#000000">BrowserModule</text>
</g>
<!-- BrowserModule&#45;&gt;AppModule -->
<g id="edge3" class="edge">
<title>BrowserModule&#45;&gt;AppModule</title>
<path fill="none" stroke="#000000" d="M832,-122.027C832,-138.3976 832,-160 832,-160 832,-160 676.0919,-160 676.0919,-160"/>
<polygon fill="#000000" stroke="#000000" points="676.0919,-156.5001 666.0919,-160 676.0919,-163.5001 676.0919,-156.5001"/>
</g>
<!-- CoreModule -->
<g id="node5" class="node">
<title>CoreModule</title>
<polygon fill="#8dd3c7" stroke="#000000" points="760.2619,-122 757.2619,-126 736.2619,-126 733.2619,-122 673.7381,-122 673.7381,-86 760.2619,-86 760.2619,-122"/>
<text text-anchor="middle" x="717" y="-99.8" font-family="Times,serif" font-size="14.00" fill="#000000">CoreModule</text>
</g>
<!-- CoreModule&#45;&gt;AppModule -->
<g id="edge4" class="edge">
<title>CoreModule&#45;&gt;AppModule</title>
<path fill="none" stroke="#000000" d="M673.6413,-104C666.0611,-104 660.5483,-104 660.5483,-104 660.5483,-104 660.5483,-140.8939 660.5483,-140.8939"/>
<polygon fill="#000000" stroke="#000000" points="657.0483,-140.8938 660.5483,-150.8939 664.0483,-140.8939 657.0483,-140.8938"/>
</g>
<!-- InMemoryWebApiModule.forRoot(args) -->
<g id="node6" class="node">
<title>InMemoryWebApiModule.forRoot(args)</title>
<polygon fill="#8dd3c7" stroke="#000000" points="655.037,-122 652.037,-126 631.037,-126 628.037,-122 408.963,-122 408.963,-86 655.037,-86 655.037,-122"/>
<text text-anchor="middle" x="532" y="-99.8" font-family="Times,serif" font-size="14.00" fill="#000000">InMemoryWebApiModule.forRoot(args)</text>
</g>
<!-- InMemoryWebApiModule.forRoot(args)&#45;&gt;AppModule -->
<g id="edge5" class="edge">
<title>InMemoryWebApiModule.forRoot(args)&#45;&gt;AppModule</title>
<path fill="none" stroke="#000000" d="M618.72,-122.1061C618.72,-122.1061 618.72,-140.991 618.72,-140.991"/>
<polygon fill="#000000" stroke="#000000" points="615.2201,-140.9909 618.72,-150.991 622.2201,-140.991 615.2201,-140.9909"/>
</g>
<!-- AppRoutingModule -->
<g id="node7" class="node">
<title>AppRoutingModule</title>
<polygon fill="#8dd3c7" stroke="#000000" points="390.2744,-122 387.2744,-126 366.2744,-126 363.2744,-122 261.7256,-122 261.7256,-86 390.2744,-86 390.2744,-122"/>
<text text-anchor="middle" x="326" y="-99.8" font-family="Times,serif" font-size="14.00" fill="#000000">AppRoutingModule</text>
</g>
<!-- AppRoutingModule&#45;&gt;AppModule -->
<g id="edge6" class="edge">
<title>AppRoutingModule&#45;&gt;AppModule</title>
<path fill="none" stroke="#000000" d="M326,-122.027C326,-138.3976 326,-160 326,-160 326,-160 572.2506,-160 572.2506,-160"/>
<polygon fill="#000000" stroke="#000000" points="572.2506,-163.5001 582.2506,-160 572.2506,-156.5001 572.2506,-163.5001"/>
</g>
<!-- AuthModule -->
<g id="node8" class="node">
<title>AuthModule</title>
<polygon fill="#8dd3c7" stroke="#000000" points="243.5482,-122 240.5482,-126 219.5482,-126 216.5482,-122 156.4518,-122 156.4518,-86 243.5482,-86 243.5482,-122"/>
<text text-anchor="middle" x="200" y="-99.8" font-family="Times,serif" font-size="14.00" fill="#000000">AuthModule</text>
</g>
<!-- AuthModule&#45;&gt;AppModule -->
<g id="edge7" class="edge">
<title>AuthModule&#45;&gt;AppModule</title>
<path fill="none" stroke="#000000" d="M200,-122.1061C200,-141.3391 200,-169 200,-169 200,-169 572.1849,-169 572.1849,-169"/>
<polygon fill="#000000" stroke="#000000" points="572.1849,-172.5001 582.1849,-169 572.1848,-165.5001 572.1849,-172.5001"/>
</g>
<!-- EthereumModule -->
<g id="node9" class="node">
<title>EthereumModule</title>
<polygon fill="#8dd3c7" stroke="#000000" points="137.9734,-122 134.9734,-126 113.9734,-126 110.9734,-122 24.0266,-122 24.0266,-86 137.9734,-86 137.9734,-122"/>
<text text-anchor="middle" x="81" y="-99.8" font-family="Times,serif" font-size="14.00" fill="#000000">EthereumModule</text>
</g>
<!-- EthereumModule&#45;&gt;AppModule -->
<g id="edge8" class="edge">
<title>EthereumModule&#45;&gt;AppModule</title>
<path fill="none" stroke="#000000" d="M81,-122.2921C81,-144.2057 81,-178 81,-178 81,-178 572.2933,-178 572.2933,-178"/>
<polygon fill="#000000" stroke="#000000" points="572.2934,-181.5001 582.2933,-178 572.2933,-174.5001 572.2934,-181.5001"/>
</g>
</g>
</svg>
