<?xml version="1.0" encoding="UTF-8"?>
<svg width="212px" height="50px" viewBox="0 0 212 50" version="1.1" xmlns="http://www.w3.org/2000/svg" xmlns:xlink="http://www.w3.org/1999/xlink">
    <!-- Generator: Sketch 39.1 (31720) - http://www.bohemiancoding.com/sketch -->
    <title>Group 2</title>
    <desc>Created with Sketch.</desc>
    <defs>
        <path d="M3,42.5 L38,47.5" id="path-1"></path>
        <filter x="-50%" y="-50%" width="200%" height="200%" filterUnits="objectBoundingBox" id="filter-2">
            <feMorphology radius="0.5" operator="dilate" in="SourceAlpha" result="shadowSpreadOuter1"></feMorphology>
            <feOffset dx="0" dy="1" in="shadowSpreadOuter1" result="shadowOffsetOuter1"></feOffset>
            <feMorphology radius="1" operator="erode" in="SourceAlpha" result="shadowInner"></feMorphology>
            <feOffset dx="0" dy="1" in="shadowInner" result="shadowInner"></feOffset>
            <feComposite in="shadowOffsetOuter1" in2="shadowInner" operator="out" result="shadowOffsetOuter1"></feComposite>
            <feGaussianBlur stdDeviation="0.5" in="shadowOffsetOuter1" result="shadowBlurOuter1"></feGaussianBlur>
            <feColorMatrix values="0 0 0 0 0   0 0 0 0 0   0 0 0 0 0  0 0 0 0.818048007 0" type="matrix" in="shadowBlurOuter1"></feColorMatrix>
        </filter>
        <path d="M38.5,47.5 L46.25,34.75" id="path-3"></path>
        <filter x="-50%" y="-50%" width="200%" height="200%" filterUnits="objectBoundingBox" id="filter-4">
            <feMorphology radius="0.5" operator="dilate" in="SourceAlpha" result="shadowSpreadOuter1"></feMorphology>
            <feOffset dx="0" dy="1" in="shadowSpreadOuter1" result="shadowOffsetOuter1"></feOffset>
            <feMorphology radius="1" operator="erode" in="SourceAlpha" result="shadowInner"></feMorphology>
            <feOffset dx="0" dy="1" in="shadowInner" result="shadowInner"></feOffset>
            <feComposite in="shadowOffsetOuter1" in2="shadowInner" operator="out" result="shadowOffsetOuter1"></feComposite>
            <feGaussianBlur stdDeviation="0.5" in="shadowOffsetOuter1" result="shadowBlurOuter1"></feGaussianBlur>
            <feColorMatrix values="0 0 0 0 0   0 0 0 0 0   0 0 0 0 0  0 0 0 1 0" type="matrix" in="shadowBlurOuter1"></feColorMatrix>
        </filter>
        <linearGradient x1="50%" y1="-2.48949813e-15%" x2="50%" y2="100%" id="linearGradient-5">
            <stop stop-color="#B3B3B3" offset="0%"></stop>
            <stop stop-color="#727374" offset="100%"></stop>
        </linearGradient>
        <linearGradient x1="1.80203172%" y1="63.9373434%" x2="81.9085941%" y2="100%" id="linearGradient-6">
            <stop stop-color="#F0F4F9" offset="0%"></stop>
            <stop stop-color="#D7D9DD" offset="100%"></stop>
        </linearGradient>
        <linearGradient x1="50%" y1="100%" x2="50%" y2="2.29612048%" id="linearGradient-7">
            <stop stop-color="#C6C6C9" offset="0%"></stop>
            <stop stop-color="#EBEDF3" offset="100%"></stop>
        </linearGradient>
        <polygon id="path-8" points="0 4.5 40 6.5 38.5 48 2.24724735 42.9618276"></polygon>
        <filter x="-50%" y="-50%" width="200%" height="200%" filterUnits="objectBoundingBox" id="filter-9">
            <feOffset dx="0" dy="1" in="SourceAlpha" result="shadowOffsetInner1"></feOffset>
            <feComposite in="shadowOffsetInner1" in2="SourceAlpha" operator="arithmetic" k2="-1" k3="1" result="shadowInnerInner1"></feComposite>
            <feColorMatrix values="0 0 0 0 1   0 0 0 0 1   0 0 0 0 1  0 0 0 0.454653533 0" type="matrix" in="shadowInnerInner1"></feColorMatrix>
        </filter>
        <path d="M13.6483443,26.8925419 C13.7478542,26.8560434 13.8177868,26.8401369 13.8778813,26.8069676 C16.0192242,25.6240938 18.2301865,24.5877691 20.5356455,23.75157 C20.7155529,23.6863411 20.7585402,23.5910873 20.7476367,23.4062517 C20.6419858,21.6136917 22.1543734,20.2270549 23.8338224,20.3126292 C25.5445406,20.3998065 26.903841,21.9517966 26.6200372,23.6143305 C26.4153776,24.813234 25.7164271,25.6461656 24.5213056,25.981866 C23.3212963,26.3189844 22.26886,26.0020881 21.4467753,25.066751 C21.2619801,24.8564527 21.1194829,24.8232218 20.8676376,24.916811 C18.6088003,25.7567093 16.435123,26.7713939 14.3340728,27.9417521 C14.0518356,28.0989672 13.966425,28.2622242 14.0993347,28.5520548 C14.1673874,28.7004535 14.1983433,28.8650052 14.2514194,29.0206173 C14.4219899,29.5206845 14.3288717,29.4589699 14.8721031,29.4507084 C16.3745899,29.4278352 17.6285526,30.451521 17.8461208,31.9138677 C17.8884188,32.1979645 17.9924405,32.2480884 18.2473563,32.2131928 C18.8759356,32.1273719 19.5101546,32.0784811 20.1364153,31.9797747 C21.2564657,31.8030773 22.372255,31.6007939 23.4897362,31.4087449 C23.6650065,31.3786583 23.7500411,31.2970914 23.7522344,31.0997403 C23.7702188,29.4924475 25.2061568,28.1257862 26.881282,28.2820148 C27.1900886,28.3108067 27.3175465,28.2098192 27.39738,27.9172759 C27.9005693,26.074777 28.3516224,24.2208723 28.5725118,22.323564 C28.7477821,20.8184918 28.8649632,19.3068227 29.0119095,17.7984829 C29.0337164,17.5753609 28.9602119,17.4134602 28.7908947,17.2587729 C27.2932957,15.8901387 25.5565094,14.9480197 23.5848597,14.4293333 C23.4379134,14.3906769 23.2284287,14.4272988 23.0975243,14.5073243 C20.1132924,16.3312657 17.3994542,18.4880714 14.9316336,20.9476548 C14.7433292,21.135388 14.7155692,21.2553647 14.8843851,21.4823093 C15.9645815,22.9341133 15.5371526,24.8484995 13.9488792,25.7472148 C13.4050212,26.0549247 13.4049586,26.0549864 13.5832994,26.67614 C13.5997799,26.7341555 13.6178897,26.7915544 13.6483443,26.8925419 L13.6483443,26.8925419 Z M20.5343296,38.3551229 C21.2030763,38.2742342 21.9990302,38.1849607 22.7917883,38.0741087 C22.9074028,38.0578939 23.0555397,37.9631333 23.1086158,37.8635021 C23.8051225,36.5541781 24.4864019,35.2370242 25.1740104,33.9231995 C25.2565384,33.7653062 25.2055302,33.6807184 25.0715553,33.5661672 C24.7747174,33.3121569 24.4842087,33.0434117 24.2366872,32.7440865 C24.0919968,32.5691771 23.9748784,32.5389671 23.7633258,32.5817543 C22.9478835,32.7467992 22.1316265,32.9149885 21.3085392,33.0346569 C20.176332,33.1992087 19.0384225,33.3273236 17.9010769,33.454267 C17.7038743,33.4762771 17.6269233,33.5747369 17.5225883,33.7147508 C17.2902941,34.0264065 17.0407047,34.330294 16.7627286,34.6023069 C16.6077614,34.7540348 16.5726071,34.8626674 16.6747488,35.0497225 C17.1830765,35.9809288 17.6873311,36.914478 18.1809328,37.8533911 C18.2942914,38.0690531 18.4542717,38.1765142 18.6890098,38.1967981 C19.2598759,38.2461204 19.8306166,38.2947646 20.5343296,38.3551229 L20.5343296,38.3551229 Z M30.3227081,18.8944877 C30.2787809,18.908298 30.2348536,18.9220466 30.1908637,18.9359185 C30.1556468,19.2975131 30.128764,19.6602175 30.0835835,20.0207024 C29.9283656,21.2601736 29.8285424,22.5103725 29.592363,23.7349237 C29.2820525,25.344436 28.8657778,26.9344043 28.4854093,28.5304763 C28.4416074,28.7141404 28.4681141,28.8326374 28.6111753,28.9626635 C28.8013595,29.1354768 28.9792617,29.3277107 29.1294665,29.5347414 C29.2489661,29.6996014 29.3616354,29.738936 29.5485611,29.6618082 C30.4522966,29.2884378 31.3572226,28.9178418 32.2660338,28.5566788 C32.4675602,28.4765916 32.5536601,28.3465038 32.5794775,28.1447753 C32.6915201,27.2705363 32.7706017,26.401661 32.72304,25.5121937 C32.6269766,23.7149481 32.1442783,22.0360145 31.2949976,20.4556641 C31.0057421,19.9171254 30.6487472,19.4137906 30.3227081,18.8944877 L30.3227081,18.8944877 Z M21.4017201,14.0898105 C21.2538338,14.0646561 21.2040162,14.0536818 21.153572,14.0478864 C20.107214,13.9283413 19.0747047,14.0478864 18.0489631,14.2380858 C15.9657094,14.6244033 14.1185098,15.5070272 12.4985286,16.8463145 C12.3841047,16.9409518 12.2921145,17.1369466 12.2962503,17.2828792 C12.3208771,18.1532341 12.3799063,19.0226026 12.4205123,19.8925876 C12.4348623,20.2001742 12.5537353,20.359917 12.8973828,20.3367972 C13.0566112,20.3260696 13.2284977,20.378043 13.3820863,20.4345788 C13.5802915,20.5076375 13.7044909,20.4493138 13.8455468,20.3065872 C16.0417831,18.0850459 18.4332794,16.0915589 21.0474824,14.3593572 C21.146679,14.2936968 21.2372906,14.2155825 21.4017201,14.0898105 L21.4017201,14.0898105 Z M32.0504081,29.9920215 C31.9047778,30.0431934 31.7979989,30.0770409 31.6940398,30.1178552 C31.2290754,30.3005945 30.7731972,30.5100297 30.2982066,30.6620659 C29.8678325,30.7997986 29.5218664,30.956952 29.635225,31.4946892 C29.6411154,31.5224947 29.6251988,31.5548625 29.6192457,31.5850724 C29.3256665,33.0837327 28.2595068,33.9940387 26.6739906,34.070735 C26.470459,34.0805995 26.4085473,34.1671603 26.3362961,34.3134011 C25.857483,35.2825857 25.3725915,36.248811 24.8917732,37.2170091 C24.8586868,37.283656 24.8427075,37.3585644 24.8138822,37.4443853 C27.2872799,37.1268109 31.7719935,32.5213344 32.0504081,29.9920215 L32.0504081,29.9920215 Z M11.0745594,18.3176626 C9.31703142,19.4314234 7.44326237,25.2041138 8.15480834,27.2493276 C8.20531525,27.2097464 8.26190055,27.1825575 8.29342037,27.1381673 C8.82493362,26.3903169 9.35864009,25.6438844 9.87523939,24.8861695 C9.93483254,24.7986839 9.9431668,24.6228497 9.89497844,24.5271026 C9.14082118,23.0289972 9.80323883,21.3871171 11.0737447,20.6799576 C11.1623512,20.6306352 11.2600438,20.4912995 11.2540908,20.4001764 C11.2094116,19.7173698 11.1397296,19.0361662 11.0745594,18.3176626 L11.0745594,18.3176626 Z M8.73895907,30.1107034 C8.8037533,30.1055862 8.81659935,30.1084839 8.823931,30.10349 C10.0174859,29.2987339 11.2123568,28.4958889 12.3993947,27.6819465 C12.469954,27.6336106 12.5233434,27.4865066 12.5057349,27.4011172 C12.4292852,27.0305213 12.3368563,26.6615899 12.2197379,26.3016599 C12.1874035,26.2023986 12.0628908,26.106035 11.9574278,26.0609667 C11.6914832,25.947217 11.3955227,25.8937022 11.1435521,25.7584973 C10.9239786,25.6406785 10.8166357,25.6803213 10.6899298,25.8686095 C10.0402955,26.8340949 9.40964832,27.8137605 8.71652547,28.7482962 C8.34229804,29.2528024 8.56030494,29.6588488 8.73895907,30.1107034 L8.73895907,30.1107034 Z M16.5894636,37.7141787 C16.5974845,37.6323035 16.6126492,37.5973463 16.6014324,37.5754595 C16.2229438,36.8343292 15.8468364,36.0919658 15.4534339,35.3585422 C15.416713,35.2900457 15.2663202,35.2438676 15.1713848,35.2479367 C14.1558573,35.2915254 13.2651559,34.9729645 12.6761174,34.1680234 C12.3223183,33.6845408 11.9755376,33.4489032 11.382238,33.5193726 C11.1486278,33.5470547 10.9043648,33.4871897 10.6648643,33.4671525 C10.6528329,33.5032195 10.6408014,33.5392865 10.62877,33.5752918 C12.1808238,35.5400485 14.1548547,36.9187938 16.5894636,37.7141787 L16.5894636,37.7141787 Z M12.901456,28.8318359 C12.7463007,28.918705 12.6346967,28.9700002 12.5353122,29.0385583 C11.5381452,29.7266671 10.5396623,30.4130496 9.55176952,31.1137972 C9.43753365,31.1948091 9.28657687,31.4076968 9.3215432,31.4777963 C9.45307424,31.7414243 9.46053122,32.1340304 9.88438828,32.1683095 C10.4643405,32.2152274 11.04705,32.2381623 11.6238691,32.3086933 C11.8851139,32.3406912 11.9911409,32.2668926 12.0143891,32.0265693 C12.0914654,31.2295814 12.4700166,30.5946792 13.0787315,30.074883 C13.1551812,30.0095309 13.2160276,29.8559534 13.194534,29.7633506 C13.1259172,29.4672931 13.0150652,29.1806684 12.901456,28.8318359 L12.901456,28.8318359 Z" id="path-10"></path>
        <filter x="-50%" y="-50%" width="200%" height="200%" filterUnits="objectBoundingBox" id="filter-11">
            <feOffset dx="0" dy="1" in="SourceAlpha" result="shadowOffsetInner1"></feOffset>
            <feComposite in="shadowOffsetInner1" in2="SourceAlpha" operator="arithmetic" k2="-1" k3="1" result="shadowInnerInner1"></feComposite>
            <feColorMatrix values="0 0 0 0 0   0 0 0 0 0   0 0 0 0 0  0 0 0 0.592193161 0" type="matrix" in="shadowInnerInner1"></feColorMatrix>
        </filter>
    </defs>
    <g id="mobile-version" stroke="none" stroke-width="1" fill="none" fill-rule="evenodd">
        <g id="Mobile-Portrait" transform="translate(-133.000000, -25.000000)">
            <g id="Group-5" transform="translate(92.000000, -73.000000)">
                <g id="Group-2" transform="translate(41.000000, 98.000000)">
                    <path d="M75.0097656,28.8310547 C75.0859379,28.8369141 75.1665035,28.8413086 75.2514648,28.8442383 C75.3364262,28.847168 75.4638663,28.8486328 75.6337891,28.8486328 C76.5595749,28.8486328 77.2348612,28.666994 77.659668,28.3037109 C78.0844748,27.9404279 78.296875,27.3662149 78.296875,26.5810547 C78.296875,25.8486292 78.065432,25.2963886 77.6025391,24.9243164 C77.1396461,24.5522442 76.4599654,24.3662109 75.5634766,24.3662109 C75.4169915,24.3662109 75.3041996,24.3676758 75.2250977,24.3706055 C75.1459957,24.3735352 75.0712894,24.3808593 75.0009766,24.3925781 L75.0097656,28.8310547 Z M75.0009766,23.1621094 L75.3261719,23.1621094 C76.1464885,23.1621094 76.7441388,22.9907244 77.1191406,22.6479492 C77.4941425,22.3051741 77.6816406,21.7617225 77.6816406,21.0175781 C77.6816406,20.3613248 77.498537,19.8735368 77.1323242,19.5541992 C76.7661115,19.2348617 76.2080116,19.0751953 75.4580078,19.0751953 C75.3349603,19.0751953 75.2426761,19.0766601 75.1811523,19.0795898 C75.1196286,19.0825195 75.0625003,19.086914 75.0097656,19.0927734 L75.0009766,23.1621094 Z M70.4482422,17.9238281 L76.9082031,17.9238281 C78.2265691,17.9238281 79.2314419,18.156736 79.9228516,18.6225586 C80.6142613,19.0883812 80.9599609,19.7665971 80.9599609,20.6572266 C80.9599609,21.3720739 80.7314476,21.9755835 80.2744141,22.4677734 C79.8173805,22.9599634 79.1464888,23.323241 78.2617188,23.5576172 C79.3398491,23.5927736 80.1704072,23.863767 80.753418,24.3706055 C81.3364287,24.8774439 81.6279297,25.5790971 81.6279297,26.4755859 C81.6279297,27.6123104 81.2353555,28.4838837 80.4501953,29.090332 C79.6650351,29.6967804 78.5341871,30 77.0576172,30 L70.4482422,30 L70.4482422,28.9541016 L71.5820312,28.8837891 L71.8720703,28.5410156 L71.8720703,19.3037109 L71.5820312,19.0400391 L70.4482422,18.9697266 L70.4482422,17.9238281 Z M82.9375,30 L82.9375,28.9541016 L84.0185547,28.8837891 L84.3613281,28.5410156 L84.3613281,19.3037109 L84.1328125,19.0400391 L82.9375,18.9697266 L82.9375,17.9238281 L89.0810547,17.9238281 L89.0810547,18.9697266 L87.8769531,19.0400391 L87.5693359,19.3037109 L87.5693359,28.7607422 L90.6279297,28.7607422 L90.8388672,28.453125 L91.09375,26.203125 L92.8779297,26.203125 L92.8779297,30 L82.9375,30 Z M100.568359,19.0224609 C99.6249953,19.0224609 98.8779324,19.4780228 98.3271484,20.3891602 C97.7763644,21.3002975 97.5009766,22.5410078 97.5009766,24.1113281 C97.5009766,25.5820386 97.7895479,26.7714798 98.3666992,27.6796875 C98.9438505,28.5878952 99.6835892,29.0419922 100.585938,29.0419922 C101.488286,29.0419922 102.214841,28.5791062 102.765625,27.6533203 C103.316409,26.7275344 103.591797,25.4824297 103.591797,23.9179688 C103.591797,22.4296801 103.314944,21.2417037 102.76123,20.3540039 C102.207517,19.4663042 101.476567,19.0224609 100.568359,19.0224609 L100.568359,19.0224609 Z M93.9238281,23.8476562 C93.9238281,21.9902251 94.5317322,20.4960994 95.7475586,19.3652344 C96.963385,18.2343693 98.5761618,17.6689453 100.585938,17.6689453 C101.406254,17.6689453 102.17236,17.7788075 102.884277,17.9985352 C103.596195,18.2182628 104.221677,18.5361307 104.760742,18.9521484 C105.545902,19.5556671 106.146482,20.2822223 106.5625,21.1318359 C106.978518,21.9814496 107.186523,22.9042919 107.186523,23.9003906 C107.186523,25.7754 106.558112,27.3120057 105.30127,28.5102539 C104.044427,29.7085021 102.422861,30.3076172 100.436523,30.3076172 C98.473623,30.3076172 96.8974669,29.7158262 95.7080078,28.5322266 C94.5185487,27.3486269 93.9238281,25.7871191 93.9238281,23.8476562 L93.9238281,23.8476562 Z M119.394531,29.5693359 C118.744137,29.7978527 118.07471,29.9692377 117.38623,30.0834961 C116.69775,30.1977545 115.987308,30.2548828 115.254883,30.2548828 C114.563473,30.2548828 113.9043,30.175782 113.277344,30.0175781 C112.650387,29.8593742 112.090823,29.6308609 111.598633,29.3320312 C110.655269,28.7695284 109.921389,28.0151415 109.396973,27.0688477 C108.872556,26.1225539 108.610352,25.08399 108.610352,23.953125 C108.610352,23.097652 108.774412,22.2876015 109.102539,21.5229492 C109.430666,20.758297 109.902341,20.0800811 110.517578,19.4882812 C111.121097,18.9023408 111.833004,18.4584976 112.65332,18.1567383 C113.473637,17.854979 114.381831,17.7041016 115.37793,17.7041016 C116.168949,17.7041016 116.895505,17.7626947 117.557617,17.8798828 C118.21973,17.9970709 118.832028,18.1728504 119.394531,18.4072266 L119.394531,21.6679688 L117.750977,21.6679688 L117.302734,19.453125 L116.995117,19.1630859 C116.860351,19.1337889 116.712403,19.1118165 116.55127,19.097168 C116.390136,19.0825195 116.209962,19.0751953 116.010742,19.0751953 C114.833002,19.0751953 113.889652,19.5190385 113.180664,20.4067383 C112.471676,21.294438 112.117188,22.4882738 112.117188,23.9882812 C112.117188,25.4589917 112.473141,26.6425736 113.185059,27.5390625 C113.896976,28.4355514 114.827143,28.8837891 115.975586,28.8837891 C116.174806,28.8837891 116.357909,28.8779297 116.524902,28.8662109 C116.691895,28.8544921 116.848632,28.8369142 116.995117,28.8134766 L117.285156,28.5410156 L117.750977,26.203125 L119.394531,26.203125 L119.394531,29.5693359 Z M120.633789,30 L120.633789,28.9541016 L121.837891,28.8837891 L122.12793,28.5410156 L122.12793,19.3037109 L121.837891,19.0400391 L120.633789,18.9697266 L120.633789,17.9238281 L126.680664,17.9238281 L126.680664,18.9697266 L125.617188,19.0576172 L125.335938,19.3037109 L125.335938,23.8300781 L125.731445,23.8300781 L129.72168,19.2685547 L129.633789,19.0576172 L128.552734,18.9697266 L128.552734,17.9238281 L133.052734,17.9238281 L133.052734,18.9697266 L131.69043,19.0576172 L128.464844,22.7314453 L132.226562,28.8486328 L133.5625,28.9541016 L133.5625,30 L128.930664,30 L128.930664,29.296875 L126.179688,24.796875 L125.335938,24.796875 L125.335938,28.5410156 L125.617188,28.8837891 L126.680664,28.9541016 L126.680664,30 L120.633789,30 Z M144.540039,20.7626953 L143.116211,24.7441406 L145.990234,24.7441406 L144.540039,20.7626953 Z M144.06543,17.8359375 L146.658203,17.8359375 L150.833008,28.8134766 L151.931641,28.9541016 L151.931641,30 L146.104492,30 L146.104492,28.9541016 L147.326172,28.8662109 L147.466797,28.6289062 L146.517578,25.9482422 L142.685547,25.9482422 L141.780273,28.6113281 L141.964844,28.8310547 L143.116211,28.9541016 L143.116211,30 L138.774414,30 L138.774414,28.9541016 L139.943359,28.8837891 L144.06543,17.8359375 Z M163.19043,29.5693359 C162.540036,29.7978527 161.870609,29.9692377 161.182129,30.0834961 C160.493649,30.1977545 159.783207,30.2548828 159.050781,30.2548828 C158.359372,30.2548828 157.700198,30.175782 157.073242,30.0175781 C156.446286,29.8593742 155.886721,29.6308609 155.394531,29.3320312 C154.451167,28.7695284 153.717288,28.0151415 153.192871,27.0688477 C152.668454,26.1225539 152.40625,25.08399 152.40625,23.953125 C152.40625,23.097652 152.570311,22.2876015 152.898438,21.5229492 C153.226564,20.758297 153.698239,20.0800811 154.313477,19.4882812 C154.916995,18.9023408 155.628902,18.4584976 156.449219,18.1567383 C157.269535,17.854979 158.177729,17.7041016 159.173828,17.7041016 C159.964848,17.7041016 160.691403,17.7626947 161.353516,17.8798828 C162.015628,17.9970709 162.627927,18.1728504 163.19043,18.4072266 L163.19043,21.6679688 L161.546875,21.6679688 L161.098633,19.453125 L160.791016,19.1630859 C160.656249,19.1337889 160.508302,19.1118165 160.347168,19.097168 C160.186034,19.0825195 160.00586,19.0751953 159.806641,19.0751953 C158.6289,19.0751953 157.68555,19.5190385 156.976562,20.4067383 C156.267575,21.294438 155.913086,22.4882738 155.913086,23.9882812 C155.913086,25.4589917 156.269039,26.6425736 156.980957,27.5390625 C157.692875,28.4355514 158.623041,28.8837891 159.771484,28.8837891 C159.970704,28.8837891 160.153808,28.8779297 160.320801,28.8662109 C160.487794,28.8544921 160.644531,28.8369142 160.791016,28.8134766 L161.081055,28.5410156 L161.546875,26.203125 L163.19043,26.203125 L163.19043,29.5693359 Z M164.253906,17.9238281 L175.319336,17.9238281 L175.319336,21.5361328 L173.807617,21.5361328 L173.429688,19.3652344 L173.104492,19.1455078 L171.399414,19.1455078 L171.399414,28.5410156 L171.742188,28.8837891 L172.928711,28.9541016 L172.928711,30 L166.626953,30 L166.626953,28.9541016 L167.831055,28.8837891 L168.173828,28.5410156 L168.173828,19.1455078 L166.433594,19.1455078 L166.125977,19.3652344 L165.765625,21.5361328 L164.253906,21.5361328 L164.253906,17.9238281 Z M176.057617,30 L176.057617,28.9541016 L177.358398,28.8837891 L177.639648,28.5410156 L177.639648,19.3037109 L177.358398,19.0400391 L176.057617,18.9697266 L176.057617,17.9238281 L182.482422,17.9238281 L182.482422,18.9697266 L181.155273,19.0400391 L180.865234,19.3037109 L180.865234,28.5410156 L181.155273,28.8837891 L182.482422,28.9541016 L182.482422,30 L176.057617,30 Z M190.339844,19.0224609 C189.39648,19.0224609 188.649417,19.4780228 188.098633,20.3891602 C187.547849,21.3002975 187.272461,22.5410078 187.272461,24.1113281 C187.272461,25.5820386 187.561032,26.7714798 188.138184,27.6796875 C188.715335,28.5878952 189.455074,29.0419922 190.357422,29.0419922 C191.25977,29.0419922 191.986325,28.5791062 192.537109,27.6533203 C193.087893,26.7275344 193.363281,25.4824297 193.363281,23.9179688 C193.363281,22.4296801 193.086429,21.2417037 192.532715,20.3540039 C191.979001,19.4663042 191.248051,19.0224609 190.339844,19.0224609 L190.339844,19.0224609 Z M183.695312,23.8476562 C183.695312,21.9902251 184.303217,20.4960994 185.519043,19.3652344 C186.734869,18.2343693 188.347646,17.6689453 190.357422,17.6689453 C191.177738,17.6689453 191.943844,17.7788075 192.655762,17.9985352 C193.367679,18.2182628 193.993161,18.5361307 194.532227,18.9521484 C195.317387,19.5556671 195.917967,20.2822223 196.333984,21.1318359 C196.750002,21.9814496 196.958008,22.9042919 196.958008,23.9003906 C196.958008,25.7754 196.329596,27.3120057 195.072754,28.5102539 C193.815912,29.7085021 192.194346,30.3076172 190.208008,30.3076172 C188.245107,30.3076172 186.668951,29.7158262 185.479492,28.5322266 C184.290033,27.3486269 183.695312,25.7871191 183.695312,23.8476562 L183.695312,23.8476562 Z M198.074219,30 L198.074219,28.9892578 L199.172852,28.8837891 L199.515625,28.5410156 L199.515625,19.3037109 L199.27832,19.0400391 L198.074219,18.9697266 L198.074219,17.9238281 L203.154297,17.9238281 L203.154297,18.4072266 L208.313477,26.4140625 L208.313477,19.3828125 L207.99707,19.0400391 L206.819336,18.8730469 L206.819336,17.9238281 L211.380859,17.9238281 L211.380859,18.8730469 L210.317383,19.0400391 L209.974609,19.3828125 L209.974609,30 L207.109375,30 L201.150391,20.8242188 L201.150391,28.5410156 L201.405273,28.8837891 L202.609375,28.9892578 L202.609375,30 L198.074219,30 Z" id="BLOCK-ACTION" fill="#FFFFFF"></path>
                    <g id="Group">
                        <g id="Line">
                            <use fill="black" fill-opacity="1" filter="url(#filter-2)" xlink:href="#path-1"></use>
                            <use stroke="#979797" stroke-width="1" stroke-linecap="square" xlink:href="#path-1"></use>
                        </g>
                        <g id="Line">
                            <use fill="black" fill-opacity="1" filter="url(#filter-4)" xlink:href="#path-3"></use>
                            <use stroke="#979797" stroke-width="1" stroke-linecap="square" xlink:href="#path-3"></use>
                        </g>
                        <polygon id="Rectangle-3" fill="url(#linearGradient-5)" points="40 6.50000004 47.9999999 1.5 46.7427441 34.7873575 38.5 48"></polygon>
                        <polygon id="Rectangle" fill="url(#linearGradient-6)" points="15.1801806 0.476125611 48 1.50000001 40 6.49999989 0 4.50000002"></polygon>
                        <g id="Rectangle-2">
                            <use fill="url(#linearGradient-7)" fill-rule="evenodd" xlink:href="#path-8"></use>
                            <use fill="black" fill-opacity="1" filter="url(#filter-9)" xlink:href="#path-8"></use>
                        </g>
                        <g id="Shape">
                            <use fill="#9B9B9B" fill-rule="evenodd" xlink:href="#path-10"></use>
                            <use fill="black" fill-opacity="1" filter="url(#filter-11)" xlink:href="#path-10"></use>
                        </g>
                    </g>
                </g>
            </g>
        </g>
    </g>
</svg>