<?xml version="1.0" encoding="utf-8"?>
<!-- Generator: Adobe Illustrator 21.1.0, SVG Export Plug-In . SVG Version: 6.00 Build 0)  -->
<svg version="1.1" id="Layer_1" xmlns="http://www.w3.org/2000/svg" xmlns:xlink="http://www.w3.org/1999/xlink" x="0px" y="0px"
	 viewBox="0 0 212 50" style="enable-background:new 0 0 212 50;" xml:space="preserve">
<style type="text/css">
	.st0{filter:url(#filter-2);}
	.st1{fill:none;stroke:#979797;stroke-linecap:square;}
	.st2{filter:url(#filter-4);}
	.st3{fill:url(#Rectangle-3_1_);}
	.st4{fill:url(#Rectangle_1_);}
	.st5{fill:url(#path-8_2_);}
	.st6{filter:url(#filter-9);}
	.st7{fill:#9B9B9B;}
	.st8{filter:url(#filter-11);}
</style>
<filter  filterUnits="objectBoundingBox" height="200%" id="filter-9" width="200%" x="-50%" y="-50%">
	<feOffset  dx="0" dy="1" in="SourceAlpha" result="shadowOffsetInner1"></feOffset>
	<feComposite  in="shadowOffsetInner1" in2="SourceAlpha" k2="-1" k3="1" operator="arithmetic" result="shadowInnerInner1">
		</feComposite>
	<feColorMatrix  in="shadowInnerInner1" type="matrix" values="0 0 0 0 1   0 0 0 0 1   0 0 0 0 1  0 0 0 0.454653533 0">
		</feColorMatrix>
</filter>
<filter  filterUnits="objectBoundingBox" height="200%" id="filter-4" width="200%" x="-50%" y="-50%">
	<feMorphology  in="SourceAlpha" operator="dilate" radius="0.5" result="shadowSpreadOuter1"></feMorphology>
	<feOffset  dx="0" dy="1" in="shadowSpreadOuter1" result="shadowOffsetOuter1"></feOffset>
	<feMorphology  in="SourceAlpha" operator="erode" radius="1" result="shadowInner"></feMorphology>
	<feOffset  dx="0" dy="1" in="shadowInner" result="shadowInner"></feOffset>
	<feComposite  in="shadowOffsetOuter1" in2="shadowInner" operator="out" result="shadowOffsetOuter1"></feComposite>
	<feGaussianBlur  in="shadowOffsetOuter1" result="shadowBlurOuter1" stdDeviation="0.5"></feGaussianBlur>
	<feColorMatrix  in="shadowBlurOuter1" type="matrix" values="0 0 0 0 0   0 0 0 0 0   0 0 0 0 0  0 0 0 1 0"></feColorMatrix>
</filter>
<filter  filterUnits="objectBoundingBox" height="200%" id="filter-2" width="200%" x="-50%" y="-50%">
	<feMorphology  in="SourceAlpha" operator="dilate" radius="0.5" result="shadowSpreadOuter1"></feMorphology>
	<feOffset  dx="0" dy="1" in="shadowSpreadOuter1" result="shadowOffsetOuter1"></feOffset>
	<feMorphology  in="SourceAlpha" operator="erode" radius="1" result="shadowInner"></feMorphology>
	<feOffset  dx="0" dy="1" in="shadowInner" result="shadowInner"></feOffset>
	<feComposite  in="shadowOffsetOuter1" in2="shadowInner" operator="out" result="shadowOffsetOuter1"></feComposite>
	<feGaussianBlur  in="shadowOffsetOuter1" result="shadowBlurOuter1" stdDeviation="0.5"></feGaussianBlur>
	<feColorMatrix  in="shadowBlurOuter1" type="matrix" values="0 0 0 0 0   0 0 0 0 0   0 0 0 0 0  0 0 0 0.818048007 0">
		</feColorMatrix>
</filter>
<filter  filterUnits="objectBoundingBox" height="200%" id="filter-11" width="200%" x="-50%" y="-50%">
	<feOffset  dx="0" dy="1" in="SourceAlpha" result="shadowOffsetInner1"></feOffset>
	<feComposite  in="shadowOffsetInner1" in2="SourceAlpha" k2="-1" k3="1" operator="arithmetic" result="shadowInnerInner1">
		</feComposite>
	<feColorMatrix  in="shadowInnerInner1" type="matrix" values="0 0 0 0 0   0 0 0 0 0   0 0 0 0 0  0 0 0 0.592193161 0">
		</feColorMatrix>
</filter>
<title>Group 2</title>
<desc>Created with Sketch.</desc>
<g id="mobile-version">
	<g id="Mobile-Portrait" transform="translate(-133.000000, -25.000000)">
		<g id="Group-5" transform="translate(92.000000, -73.000000)">
			<g id="Group-2" transform="translate(41.000000, 98.000000)">
				<path id="BLOCK-ACTION" d="M75,28.8c0.1,0,0.2,0,0.2,0s0.2,0,0.4,0c0.9,0,1.6-0.2,2-0.5s0.6-0.9,0.6-1.7c0-0.7-0.2-1.3-0.7-1.7
					s-1.1-0.6-2-0.6c-0.1,0-0.3,0-0.3,0s-0.2,0-0.2,0L75,28.8z M75,23.2h0.3c0.8,0,1.4-0.2,1.8-0.5s0.6-0.9,0.6-1.6
					c0-0.7-0.2-1.1-0.5-1.5s-0.9-0.5-1.7-0.5c-0.1,0-0.2,0-0.3,0s-0.1,0-0.2,0L75,23.2z M70.4,17.9h6.5c1.3,0,2.3,0.2,3,0.7
					s1,1.1,1,2c0,0.7-0.2,1.3-0.7,1.8s-1.1,0.9-2,1.1c1.1,0,1.9,0.3,2.5,0.8s0.9,1.2,0.9,2.1c0,1.1-0.4,2-1.2,2.6S78.5,30,77.1,30
					h-6.6v-1l1.1-0.1l0.3-0.3v-9.2L71.6,19L70.4,19V17.9z M82.9,30v-1l1.1-0.1l0.3-0.3v-9.2L84.1,19L82.9,19v-1h6.1v1L87.9,19
					l-0.3,0.3v9.5h3.1l0.2-0.3l0.3-2.3h1.8V30H82.9z M100.6,19c-0.9,0-1.7,0.5-2.2,1.4s-0.8,2.2-0.8,3.7c0,1.5,0.3,2.7,0.9,3.6
					s1.3,1.4,2.2,1.4s1.6-0.5,2.2-1.4s0.8-2.2,0.8-3.7c0-1.5-0.3-2.7-0.8-3.6S101.5,19,100.6,19L100.6,19z M93.9,23.8
					c0-1.9,0.6-3.4,1.8-4.5s2.8-1.7,4.8-1.7c0.8,0,1.6,0.1,2.3,0.3s1.3,0.5,1.9,1c0.8,0.6,1.4,1.3,1.8,2.2s0.6,1.8,0.6,2.8
					c0,1.9-0.6,3.4-1.9,4.6s-2.9,1.8-4.9,1.8c-2,0-3.5-0.6-4.7-1.8S93.9,25.8,93.9,23.8L93.9,23.8z M119.4,29.6
					c-0.7,0.2-1.3,0.4-2,0.5c-0.7,0.1-1.4,0.2-2.1,0.2c-0.7,0-1.4-0.1-2-0.2s-1.2-0.4-1.7-0.7c-0.9-0.6-1.7-1.3-2.2-2.3
					c-0.5-0.9-0.8-2-0.8-3.1c0-0.9,0.2-1.7,0.5-2.4s0.8-1.4,1.4-2c0.6-0.6,1.3-1,2.1-1.3c0.8-0.3,1.7-0.5,2.7-0.5
					c0.8,0,1.5,0.1,2.2,0.2s1.3,0.3,1.8,0.5v3.3h-1.6l-0.4-2.2l-0.3-0.3c-0.1,0-0.3-0.1-0.4-0.1s-0.3,0-0.5,0
					c-1.2,0-2.1,0.4-2.8,1.3s-1.1,2.1-1.1,3.6c0,1.5,0.4,2.7,1.1,3.6s1.6,1.3,2.8,1.3c0.2,0,0.4,0,0.5,0s0.3,0,0.5-0.1l0.3-0.3
					l0.5-2.3h1.6V29.6z M120.6,30v-1l1.2-0.1l0.3-0.3v-9.2l-0.3-0.3l-1.2-0.1v-1h6v1l-1.1,0.1l-0.3,0.2v4.5h0.4l4-4.6l-0.1-0.2
					l-1.1-0.1v-1h4.5v1l-1.4,0.1l-3.2,3.7l3.8,6.1l1.3,0.1v1h-4.6v-0.7l-2.8-4.5h-0.8v3.7l0.3,0.3l1.1,0.1v1H120.6z M144.5,20.8
					l-1.4,4h2.9L144.5,20.8z M144.1,17.8h2.6l4.2,11l1.1,0.1v1h-5.8v-1l1.2-0.1l0.1-0.2l-0.9-2.7h-3.8l-0.9,2.7l0.2,0.2l1.2,0.1v1
					h-4.3v-1l1.2-0.1L144.1,17.8z M163.2,29.6c-0.7,0.2-1.3,0.4-2,0.5s-1.4,0.2-2.1,0.2c-0.7,0-1.4-0.1-2-0.2s-1.2-0.4-1.7-0.7
					c-0.9-0.6-1.7-1.3-2.2-2.3c-0.5-0.9-0.8-2-0.8-3.1c0-0.9,0.2-1.7,0.5-2.4s0.8-1.4,1.4-2c0.6-0.6,1.3-1,2.1-1.3s1.7-0.5,2.7-0.5
					c0.8,0,1.5,0.1,2.2,0.2s1.3,0.3,1.8,0.5v3.3h-1.6l-0.4-2.2l-0.3-0.3c-0.1,0-0.3-0.1-0.4-0.1s-0.3,0-0.5,0
					c-1.2,0-2.1,0.4-2.8,1.3s-1.1,2.1-1.1,3.6c0,1.5,0.4,2.7,1.1,3.6s1.6,1.3,2.8,1.3c0.2,0,0.4,0,0.5,0s0.3,0,0.5-0.1l0.3-0.3
					l0.5-2.3h1.6V29.6z M164.3,17.9h11.1v3.6h-1.5l-0.4-2.2l-0.3-0.2h-1.7v9.4l0.3,0.3l1.2,0.1v1h-6.3v-1l1.2-0.1l0.3-0.3v-9.4h-1.7
					l-0.3,0.2l-0.4,2.2h-1.5V17.9z M176.1,30v-1l1.3-0.1l0.3-0.3v-9.2l-0.3-0.3l-1.3-0.1v-1h6.4v1l-1.3,0.1l-0.3,0.3v9.2l0.3,0.3
					l1.3,0.1v1H176.1z M190.3,19c-0.9,0-1.7,0.5-2.2,1.4s-0.8,2.2-0.8,3.7c0,1.5,0.3,2.7,0.9,3.6s1.3,1.4,2.2,1.4s1.6-0.5,2.2-1.4
					s0.8-2.2,0.8-3.7c0-1.5-0.3-2.7-0.8-3.6S191.2,19,190.3,19L190.3,19z M183.7,23.8c0-1.9,0.6-3.4,1.8-4.5s2.8-1.7,4.8-1.7
					c0.8,0,1.6,0.1,2.3,0.3s1.3,0.5,1.9,1c0.8,0.6,1.4,1.3,1.8,2.2s0.6,1.8,0.6,2.8c0,1.9-0.6,3.4-1.9,4.6s-2.9,1.8-4.9,1.8
					c-2,0-3.5-0.6-4.7-1.8S183.7,25.8,183.7,23.8L183.7,23.8z M198.1,30v-1l1.1-0.1l0.3-0.3v-9.2l-0.2-0.3l-1.2-0.1v-1h5.1v0.5
					l5.2,8v-7L208,19l-1.2-0.2v-0.9h4.6v0.9l-1.1,0.2l-0.3,0.3V30h-2.9l-6-9.2v7.7l0.3,0.3l1.2,0.1v1H198.1z"/>
				<g id="Group">
					<g id="Line">
						<g class="st0">
							<path id="path-1_2_" d="M3,42.5l35,5"/>
						</g>
						<g>
							<path id="path-1_1_" class="st1" d="M3,42.5l35,5"/>
						</g>
					</g>
					<g id="Line_1_">
						<g class="st2">
							<path id="path-3_2_" d="M38.5,47.5l7.8-12.8"/>
						</g>
						<g>
							<path id="path-3_1_" class="st1" d="M38.5,47.5l7.8-12.8"/>
						</g>
					</g>
					
						<linearGradient id="Rectangle-3_1_" gradientUnits="userSpaceOnUse" x1="77.4474" y1="45.1075" x2="77.4474" y2="44.1075" gradientTransform="matrix(9.5 0 0 -46.5 -692.5 2099)">
						<stop  offset="0" style="stop-color:#B3B3B3"/>
						<stop  offset="1" style="stop-color:#727374"/>
					</linearGradient>
					<polygon id="Rectangle-3" class="st3" points="40,6.5 48,1.5 46.7,34.8 38.5,48 					"/>
					
						<linearGradient id="Rectangle_1_" gradientUnits="userSpaceOnUse" x1="84.3901" y1="45.5543" x2="85.1911" y2="45.1937" gradientTransform="matrix(48 0 0 -6.0239 -4042 276.5505)">
						<stop  offset="0" style="stop-color:#F0F4F9"/>
						<stop  offset="1" style="stop-color:#D7D9DD"/>
					</linearGradient>
					<polygon id="Rectangle" class="st4" points="15.2,0.5 48,1.5 40,6.5 0,4.5 					"/>
					<g id="Rectangle-2">
						<g>
							
								<linearGradient id="path-8_2_" gradientUnits="userSpaceOnUse" x1="84.35" y1="44.1149" x2="84.35" y2="45.092" gradientTransform="matrix(40 0 0 -43.5 -3354 1967)">
								<stop  offset="0" style="stop-color:#C6C6C9"/>
								<stop  offset="1" style="stop-color:#EBEDF3"/>
							</linearGradient>
							<polygon id="path-8" class="st5" points="0,4.5 40,6.5 38.5,48 2.2,43 							"/>
						</g>
						<g class="st6">
							<polygon id="path-8_3_" points="0,4.5 40,6.5 38.5,48 2.2,43 							"/>
						</g>
					</g>
					<g id="Shape">
						<g>
							<path id="path-10" class="st7" d="M13.6,26.9c0.1,0,0.2-0.1,0.2-0.1c2.1-1.2,4.4-2.2,6.7-3.1c0.2-0.1,0.2-0.2,0.2-0.3
								c-0.1-1.8,1.4-3.2,3.1-3.1c1.7,0.1,3.1,1.6,2.8,3.3c-0.2,1.2-0.9,2-2.1,2.4c-1.2,0.3-2.3,0-3.1-0.9c-0.2-0.2-0.3-0.2-0.6-0.1
								c-2.3,0.8-4.4,1.9-6.5,3c-0.3,0.2-0.4,0.3-0.2,0.6c0.1,0.1,0.1,0.3,0.2,0.5c0.2,0.5,0.1,0.4,0.6,0.4c1.5,0,2.8,1,3,2.5
								c0,0.3,0.1,0.3,0.4,0.3c0.6-0.1,1.3-0.1,1.9-0.2c1.1-0.2,2.2-0.4,3.4-0.6c0.2,0,0.3-0.1,0.3-0.3c0-1.6,1.5-3,3.1-2.8
								c0.3,0,0.4-0.1,0.5-0.4c0.5-1.8,1-3.7,1.2-5.6c0.2-1.5,0.3-3,0.4-4.5c0-0.2-0.1-0.4-0.2-0.5c-1.5-1.4-3.2-2.3-5.2-2.8
								c-0.1,0-0.4,0-0.5,0.1c-3,1.8-5.7,4-8.2,6.4c-0.2,0.2-0.2,0.3,0,0.5c1.1,1.5,0.7,3.4-0.9,4.3c-0.5,0.3-0.5,0.3-0.4,0.9
								C13.6,26.7,13.6,26.8,13.6,26.9L13.6,26.9z M20.5,38.4c0.7-0.1,1.5-0.2,2.3-0.3c0.1,0,0.3-0.1,0.3-0.2
								c0.7-1.3,1.4-2.6,2.1-3.9c0.1-0.2,0-0.2-0.1-0.4c-0.3-0.3-0.6-0.5-0.8-0.8c-0.1-0.2-0.3-0.2-0.5-0.2
								c-0.8,0.2-1.6,0.3-2.5,0.5c-1.1,0.2-2.3,0.3-3.4,0.4c-0.2,0-0.3,0.1-0.4,0.3c-0.2,0.3-0.5,0.6-0.8,0.9
								c-0.2,0.2-0.2,0.3-0.1,0.4c0.5,0.9,1,1.9,1.5,2.8c0.1,0.2,0.3,0.3,0.5,0.3C19.3,38.2,19.8,38.3,20.5,38.4L20.5,38.4z
								 M30.3,18.9c0,0-0.1,0-0.1,0c0,0.4-0.1,0.7-0.1,1.1c-0.2,1.2-0.3,2.5-0.5,3.7c-0.3,1.6-0.7,3.2-1.1,4.8c0,0.2,0,0.3,0.1,0.4
								c0.2,0.2,0.4,0.4,0.5,0.6c0.1,0.2,0.2,0.2,0.4,0.1c0.9-0.4,1.8-0.7,2.7-1.1c0.2-0.1,0.3-0.2,0.3-0.4c0.1-0.9,0.2-1.7,0.1-2.6
								c-0.1-1.8-0.6-3.5-1.4-5.1C31,19.9,30.6,19.4,30.3,18.9L30.3,18.9z M21.4,14.1c-0.1,0-0.2,0-0.2,0c-1-0.1-2.1,0-3.1,0.2
								c-2.1,0.4-3.9,1.3-5.6,2.6c-0.1,0.1-0.2,0.3-0.2,0.4c0,0.9,0.1,1.7,0.1,2.6c0,0.3,0.1,0.5,0.5,0.4c0.2,0,0.3,0,0.5,0.1
								c0.2,0.1,0.3,0,0.5-0.1c2.2-2.2,4.6-4.2,7.2-5.9C21.1,14.3,21.2,14.2,21.4,14.1L21.4,14.1z M32.1,30
								c-0.1,0.1-0.3,0.1-0.4,0.1c-0.5,0.2-0.9,0.4-1.4,0.5c-0.4,0.1-0.8,0.3-0.7,0.8c0,0,0,0.1,0,0.1c-0.3,1.5-1.4,2.4-2.9,2.5
								c-0.2,0-0.3,0.1-0.3,0.2c-0.5,1-1,1.9-1.4,2.9c0,0.1,0,0.1-0.1,0.2C27.3,37.1,31.8,32.5,32.1,30L32.1,30z M11.1,18.3
								c-1.8,1.1-3.6,6.9-2.9,8.9c0.1,0,0.1-0.1,0.1-0.1c0.5-0.7,1.1-1.5,1.6-2.3c0.1-0.1,0.1-0.3,0-0.4c-0.8-1.5-0.1-3.1,1.2-3.8
								c0.1,0,0.2-0.2,0.2-0.3C11.2,19.7,11.1,19,11.1,18.3L11.1,18.3z M8.7,30.1C8.8,30.1,8.8,30.1,8.7,30.1
								c1.3-0.8,2.5-1.6,3.7-2.4c0.1,0,0.1-0.2,0.1-0.3c-0.1-0.4-0.2-0.7-0.3-1.1c0-0.1-0.2-0.2-0.3-0.2c-0.3-0.1-0.6-0.2-0.8-0.3
								c-0.2-0.1-0.3-0.1-0.5,0.1c-0.6,1-1.3,1.9-2,2.9C8.3,29.3,8.6,29.7,8.7,30.1L8.7,30.1z M16.6,37.7c0-0.1,0-0.1,0-0.1
								c-0.4-0.7-0.8-1.5-1.1-2.2c0-0.1-0.2-0.1-0.3-0.1c-1,0-1.9-0.3-2.5-1.1c-0.4-0.5-0.7-0.7-1.3-0.6c-0.2,0-0.5,0-0.7-0.1
								c0,0,0,0.1,0,0.1C12.2,35.5,14.2,36.9,16.6,37.7L16.6,37.7z M12.9,28.8c-0.2,0.1-0.3,0.1-0.4,0.2c-1,0.7-2,1.4-3,2.1
								c-0.1,0.1-0.3,0.3-0.2,0.4c0.1,0.3,0.1,0.7,0.6,0.7c0.6,0,1.2,0.1,1.7,0.1c0.3,0,0.4,0,0.4-0.3c0.1-0.8,0.5-1.4,1.1-2
								c0.1-0.1,0.1-0.2,0.1-0.3C13.1,29.5,13,29.2,12.9,28.8L12.9,28.8z"/>
						</g>
						<g class="st8">
							<path id="path-10_2_" d="M13.6,26.9c0.1,0,0.2-0.1,0.2-0.1c2.1-1.2,4.4-2.2,6.7-3.1c0.2-0.1,0.2-0.2,0.2-0.3
								c-0.1-1.8,1.4-3.2,3.1-3.1c1.7,0.1,3.1,1.6,2.8,3.3c-0.2,1.2-0.9,2-2.1,2.4c-1.2,0.3-2.3,0-3.1-0.9c-0.2-0.2-0.3-0.2-0.6-0.1
								c-2.3,0.8-4.4,1.9-6.5,3c-0.3,0.2-0.4,0.3-0.2,0.6c0.1,0.1,0.1,0.3,0.2,0.5c0.2,0.5,0.1,0.4,0.6,0.4c1.5,0,2.8,1,3,2.5
								c0,0.3,0.1,0.3,0.4,0.3c0.6-0.1,1.3-0.1,1.9-0.2c1.1-0.2,2.2-0.4,3.4-0.6c0.2,0,0.3-0.1,0.3-0.3c0-1.6,1.5-3,3.1-2.8
								c0.3,0,0.4-0.1,0.5-0.4c0.5-1.8,1-3.7,1.2-5.6c0.2-1.5,0.3-3,0.4-4.5c0-0.2-0.1-0.4-0.2-0.5c-1.5-1.4-3.2-2.3-5.2-2.8
								c-0.1,0-0.4,0-0.5,0.1c-3,1.8-5.7,4-8.2,6.4c-0.2,0.2-0.2,0.3,0,0.5c1.1,1.5,0.7,3.4-0.9,4.3c-0.5,0.3-0.5,0.3-0.4,0.9
								C13.6,26.7,13.6,26.8,13.6,26.9L13.6,26.9z M20.5,38.4c0.7-0.1,1.5-0.2,2.3-0.3c0.1,0,0.3-0.1,0.3-0.2
								c0.7-1.3,1.4-2.6,2.1-3.9c0.1-0.2,0-0.2-0.1-0.4c-0.3-0.3-0.6-0.5-0.8-0.8c-0.1-0.2-0.3-0.2-0.5-0.2
								c-0.8,0.2-1.6,0.3-2.5,0.5c-1.1,0.2-2.3,0.3-3.4,0.4c-0.2,0-0.3,0.1-0.4,0.3c-0.2,0.3-0.5,0.6-0.8,0.9
								c-0.2,0.2-0.2,0.3-0.1,0.4c0.5,0.9,1,1.9,1.5,2.8c0.1,0.2,0.3,0.3,0.5,0.3C19.3,38.2,19.8,38.3,20.5,38.4L20.5,38.4z
								 M30.3,18.9c0,0-0.1,0-0.1,0c0,0.4-0.1,0.7-0.1,1.1c-0.2,1.2-0.3,2.5-0.5,3.7c-0.3,1.6-0.7,3.2-1.1,4.8c0,0.2,0,0.3,0.1,0.4
								c0.2,0.2,0.4,0.4,0.5,0.6c0.1,0.2,0.2,0.2,0.4,0.1c0.9-0.4,1.8-0.7,2.7-1.1c0.2-0.1,0.3-0.2,0.3-0.4c0.1-0.9,0.2-1.7,0.1-2.6
								c-0.1-1.8-0.6-3.5-1.4-5.1C31,19.9,30.6,19.4,30.3,18.9L30.3,18.9z M21.4,14.1c-0.1,0-0.2,0-0.2,0c-1-0.1-2.1,0-3.1,0.2
								c-2.1,0.4-3.9,1.3-5.6,2.6c-0.1,0.1-0.2,0.3-0.2,0.4c0,0.9,0.1,1.7,0.1,2.6c0,0.3,0.1,0.5,0.5,0.4c0.2,0,0.3,0,0.5,0.1
								c0.2,0.1,0.3,0,0.5-0.1c2.2-2.2,4.6-4.2,7.2-5.9C21.1,14.3,21.2,14.2,21.4,14.1L21.4,14.1z M32.1,30
								c-0.1,0.1-0.3,0.1-0.4,0.1c-0.5,0.2-0.9,0.4-1.4,0.5c-0.4,0.1-0.8,0.3-0.7,0.8c0,0,0,0.1,0,0.1c-0.3,1.5-1.4,2.4-2.9,2.5
								c-0.2,0-0.3,0.1-0.3,0.2c-0.5,1-1,1.9-1.4,2.9c0,0.1,0,0.1-0.1,0.2C27.3,37.1,31.8,32.5,32.1,30L32.1,30z M11.1,18.3
								c-1.8,1.1-3.6,6.9-2.9,8.9c0.1,0,0.1-0.1,0.1-0.1c0.5-0.7,1.1-1.5,1.6-2.3c0.1-0.1,0.1-0.3,0-0.4c-0.8-1.5-0.1-3.1,1.2-3.8
								c0.1,0,0.2-0.2,0.2-0.3C11.2,19.7,11.1,19,11.1,18.3L11.1,18.3z M8.7,30.1C8.8,30.1,8.8,30.1,8.7,30.1
								c1.3-0.8,2.5-1.6,3.7-2.4c0.1,0,0.1-0.2,0.1-0.3c-0.1-0.4-0.2-0.7-0.3-1.1c0-0.1-0.2-0.2-0.3-0.2c-0.3-0.1-0.6-0.2-0.8-0.3
								c-0.2-0.1-0.3-0.1-0.5,0.1c-0.6,1-1.3,1.9-2,2.9C8.3,29.3,8.6,29.7,8.7,30.1L8.7,30.1z M16.6,37.7c0-0.1,0-0.1,0-0.1
								c-0.4-0.7-0.8-1.5-1.1-2.2c0-0.1-0.2-0.1-0.3-0.1c-1,0-1.9-0.3-2.5-1.1c-0.4-0.5-0.7-0.7-1.3-0.6c-0.2,0-0.5,0-0.7-0.1
								c0,0,0,0.1,0,0.1C12.2,35.5,14.2,36.9,16.6,37.7L16.6,37.7z M12.9,28.8c-0.2,0.1-0.3,0.1-0.4,0.2c-1,0.7-2,1.4-3,2.1
								c-0.1,0.1-0.3,0.3-0.2,0.4c0.1,0.3,0.1,0.7,0.6,0.7c0.6,0,1.2,0.1,1.7,0.1c0.3,0,0.4,0,0.4-0.3c0.1-0.8,0.5-1.4,1.1-2
								c0.1-0.1,0.1-0.2,0.1-0.3C13.1,29.5,13,29.2,12.9,28.8L12.9,28.8z"/>
						</g>
					</g>
				</g>
			</g>
		</g>
	</g>
</g>
</svg>
