<?xml version="1.0" encoding="UTF-8"?>
<svg width="48px" height="37px" viewBox="0 0 48 37" version="1.1" xmlns="http://www.w3.org/2000/svg" xmlns:xlink="http://www.w3.org/1999/xlink">
    <!-- Generator: Sketch 39.1 (31720) - http://www.bohemiancoding.com/sketch -->
    <title>Group 2</title>
    <desc>Created with Sketch.</desc>
    <defs></defs>
    <g id="logo" stroke="none" stroke-width="1" fill="none" fill-rule="evenodd">
        <g id="Group-14">
            <g id="Group-13">
                <g id="Group-2">
                    <g id="Group" transform="translate(0.000000, 8.000000)" fill="#4A4A4A">
                        <polygon id="Rectangle" points="22 0 32 0 32 10 22 9.99999996"></polygon>
                        <polygon id="Rectangle-Copy-5" points="5 22.0645161 5 10 15 10 15 22.0645161 20.0640698 22.1011783 9.73262032 29 2.5381155e-09 22.0645161"></polygon>
                        <polygon id="Rectangle-Copy-2" points="5 -1.9226718e-09 21 -1.9226718e-09 21 9.99999995 5 10"></polygon>
                    </g>
                    <g id="Group-Copy" transform="translate(31.971696, 14.610558) rotate(-180.000000) translate(-31.971696, -14.610558) translate(15.971696, 0.110558)" fill="#37D4B1">
                        <polygon id="Rectangle" points="22 -3.55271368e-15 32 -3.55271368e-15 32 10 22 9.99999996"></polygon>
                        <polygon id="Rectangle-Copy-5" points="5 22.0645161 5 10 15 10 15 22.0645161 20.0640698 22.1011783 9.73262032 29 2.53816523e-09 22.0645161"></polygon>
                        <polygon id="Rectangle-Copy-2" points="5 -1.92267535e-09 21 -1.92267535e-09 21 9.99999995 5 10"></polygon>
                    </g>
                </g>
            </g>
        </g>
    </g>
</svg>