<?xml version="1.0" encoding="UTF-8"?>
<svg width="328px" height="54px" viewBox="0 0 328 54" version="1.1" xmlns="http://www.w3.org/2000/svg" xmlns:xlink="http://www.w3.org/1999/xlink">
    <!-- Generator: Sketch 39.1 (31720) - http://www.bohemiancoding.com/sketch -->
    <title>logo</title>
    <desc>Created with Sketch.</desc>
    <defs></defs>
    <g id="home" stroke="none" stroke-width="1" fill="none" fill-rule="evenodd">
        <g id="Desktop-HD" transform="translate(-173.000000, -85.000000)">
            <g id="Group" transform="translate(-68.000000, 67.000000)">
                <g id="logo" transform="translate(241.000000, 18.000000)">
                    <path d="M42.85965,51.2236111 L42.9944264,51.3583874 L73.873106,20.4797077 L78.3847763,24.991378 L79.7989899,5.19238816 L60,6.60660172 L64.3743687,10.9809704 L45.0814755,30.2738636 L34.6464466,19.8388348 L23,31.4852814 L42.7989899,51.2842712 L42.85965,51.2236111 Z" id="Combined-Shape" fill="#1ED6E5"></path>
                    <path d="M15.4662518,39.85965 L34.759145,20.5667568 L44.6923882,30.5 L55.8388348,19.3535534 L37.4852814,1 L37.4203102,1.06497116 L36.5278048,0.17246571 L6.1534361,30.5468344 L1.60660172,26 L0.192388155,45.7989899 L19.991378,44.3847763 L15.4662518,39.85965 Z" id="Combined-Shape" fill="#000000"></path>
                    <path d="M190.464,25.52 L190.104,24.08 C189.879999,23.2959961 189.664001,22.4640044 189.456,21.584 C189.247999,20.7039956 189.040001,19.8560041 188.832,19.04 L188.736,19.04 C188.543999,19.8720042 188.348001,20.7239956 188.148,21.596 C187.947999,22.4680044 187.736001,23.2959961 187.512,24.08 L187.128,25.52 L190.464,25.52 Z M191.184,28.28 L186.408,28.28 L185.448,32 L181.848,32 L186.744,16.352 L190.992,16.352 L195.888,32 L192.144,32 L191.184,28.28 Z M196.848,24.272 C196.848,22.9759935 197.047998,21.8200051 197.448,20.804 C197.848002,19.7879949 198.387997,18.9280035 199.068,18.224 C199.748003,17.5199965 200.539995,16.9840018 201.444,16.616 C202.348005,16.2479982 203.303995,16.064 204.312,16.064 C205.288005,16.064 206.171996,16.267998 206.964,16.676 C207.756004,17.084002 208.415997,17.5599973 208.944,18.104 L207,20.288 C206.599998,19.9199982 206.196002,19.632001 205.788,19.424 C205.379998,19.215999 204.904003,19.112 204.36,19.112 C203.815997,19.112 203.308002,19.2279988 202.836,19.46 C202.363998,19.6920012 201.952002,20.0239978 201.6,20.456 C201.247998,20.8880022 200.972001,21.4159969 200.772,22.04 C200.571999,22.6640031 200.472,23.3679961 200.472,24.152 C200.472,25.7680081 200.815997,27.0199956 201.504,27.908 C202.192003,28.7960044 203.111994,29.24 204.264,29.24 C204.904003,29.24 205.463998,29.1120013 205.944,28.856 C206.424002,28.5999987 206.855998,28.2640021 207.24,27.848 L209.184,29.984 C208.527997,30.7520038 207.780004,31.3279981 206.94,31.712 C206.099996,32.0960019 205.192005,32.288 204.216,32.288 C203.207995,32.288 202.256004,32.1160017 201.36,31.772 C200.463996,31.4279983 199.680003,30.9200034 199.008,30.248 C198.335997,29.5759966 197.808002,28.740005 197.424,27.74 C197.039998,26.739995 196.848,25.5840066 196.848,24.272 L196.848,24.272 Z M214.608,19.328 L210.312,19.328 L210.312,16.352 L222.456,16.352 L222.456,19.328 L218.16,19.328 L218.16,32 L214.608,32 L214.608,19.328 Z M224.904,16.352 L228.432,16.352 L228.432,32 L224.904,32 L224.904,16.352 Z M238.488,32.288 C237.431995,32.288 236.468004,32.1000019 235.596,31.724 C234.723996,31.3479981 233.976003,30.8080035 233.352,30.104 C232.727997,29.3999965 232.244002,28.544005 231.9,27.536 C231.555998,26.527995 231.384,25.3840064 231.384,24.104 C231.384,22.8239936 231.555998,21.684005 231.9,20.684 C232.244002,19.683995 232.727997,18.8440034 233.352,18.164 C233.976003,17.4839966 234.723996,16.9640018 235.596,16.604 C236.468004,16.2439982 237.431995,16.064 238.488,16.064 C239.544005,16.064 240.507996,16.2439982 241.38,16.604 C242.252004,16.9640018 242.999997,17.4879966 243.624,18.176 C244.248003,18.8640034 244.731998,19.707995 245.076,20.708 C245.420002,21.708005 245.592,22.8399937 245.592,24.104 C245.592,25.3840064 245.420002,26.527995 245.076,27.536 C244.731998,28.544005 244.248003,29.3999965 243.624,30.104 C242.999997,30.8080035 242.252004,31.3479981 241.38,31.724 C240.507996,32.1000019 239.544005,32.288 238.488,32.288 L238.488,32.288 Z M238.488,29.24 C239.560005,29.24 240.407997,28.7800046 241.032,27.86 C241.656003,26.9399954 241.968,25.6880079 241.968,24.104 C241.968,22.5359922 241.656003,21.3120044 241.032,20.432 C240.407997,19.5519956 239.560005,19.112 238.488,19.112 C237.415995,19.112 236.568003,19.5519956 235.944,20.432 C235.319997,21.3120044 235.008,22.5359922 235.008,24.104 C235.008,25.6880079 235.319997,26.9399954 235.944,27.86 C236.568003,28.7800046 237.415995,29.24 238.488,29.24 L238.488,29.24 Z M248.544,16.352 L252.168,16.352 L256.248,24.128 L257.784,27.584 L257.88,27.584 C257.8,26.7519958 257.708001,25.8240051 257.604,24.8 C257.499999,23.7759949 257.448,22.8000046 257.448,21.872 L257.448,16.352 L260.808,16.352 L260.808,32 L257.184,32 L253.104,24.2 L251.568,20.792 L251.472,20.792 C251.552,21.6560043 251.643999,22.583995 251.748,23.576 C251.852001,24.568005 251.904,25.5279954 251.904,26.456 L251.904,32 L248.544,32 L248.544,16.352 Z" id="ACTION" fill="#000000"></path>
                    <path d="M108.848,16.352 L114.2,16.352 C115.016004,16.352 115.771997,16.4119994 116.468,16.532 C117.164003,16.6520006 117.771997,16.8639985 118.292,17.168 C118.812003,17.4720015 119.219999,17.8719975 119.516,18.368 C119.812001,18.8640025 119.96,19.4879962 119.96,20.24 C119.96,20.5920018 119.908001,20.9439982 119.804,21.296 C119.699999,21.6480018 119.544001,21.9759985 119.336,22.28 C119.127999,22.5840015 118.856002,22.8559988 118.52,23.096 C118.183998,23.3360012 117.792002,23.5119994 117.344,23.624 L117.344,23.72 C118.464006,23.928001 119.307997,24.327997 119.876,24.92 C120.444003,25.512003 120.728,26.3359947 120.728,27.392 C120.728,28.192004 120.572002,28.8799971 120.26,29.456 C119.947998,30.0320029 119.516003,30.5079981 118.964,30.884 C118.411997,31.2600019 117.768004,31.5399991 117.032,31.724 C116.295996,31.9080009 115.504004,32 114.656,32 L108.848,32 L108.848,16.352 Z M114.032,22.664 C114.896004,22.664 115.523998,22.4920017 115.916,22.148 C116.308002,21.8039983 116.504,21.336003 116.504,20.744 C116.504,20.151997 116.304002,19.7280013 115.904,19.472 C115.503998,19.2159987 114.888004,19.088 114.056,19.088 L112.376,19.088 L112.376,22.664 L114.032,22.664 Z M114.368,29.264 C116.30401,29.264 117.272,28.5520071 117.272,27.128 C117.272,26.4399966 117.032002,25.9400016 116.552,25.628 C116.071998,25.3159984 115.344005,25.16 114.368,25.16 L112.376,25.16 L112.376,29.264 L114.368,29.264 Z M123.368,16.352 L126.896,16.352 L126.896,29.024 L133.088,29.024 L133.088,32 L123.368,32 L123.368,16.352 Z M142.16,32.288 C141.103995,32.288 140.140004,32.1000019 139.268,31.724 C138.395996,31.3479981 137.648003,30.8080035 137.024,30.104 C136.399997,29.3999965 135.916002,28.544005 135.572,27.536 C135.227998,26.527995 135.056,25.3840064 135.056,24.104 C135.056,22.8239936 135.227998,21.684005 135.572,20.684 C135.916002,19.683995 136.399997,18.8440034 137.024,18.164 C137.648003,17.4839966 138.395996,16.9640018 139.268,16.604 C140.140004,16.2439982 141.103995,16.064 142.16,16.064 C143.216005,16.064 144.179996,16.2439982 145.052,16.604 C145.924004,16.9640018 146.671997,17.4879966 147.296,18.176 C147.920003,18.8640034 148.403998,19.707995 148.748,20.708 C149.092002,21.708005 149.264,22.8399937 149.264,24.104 C149.264,25.3840064 149.092002,26.527995 148.748,27.536 C148.403998,28.544005 147.920003,29.3999965 147.296,30.104 C146.671997,30.8080035 145.924004,31.3479981 145.052,31.724 C144.179996,32.1000019 143.216005,32.288 142.16,32.288 L142.16,32.288 Z M142.16,29.24 C143.232005,29.24 144.079997,28.7800046 144.704,27.86 C145.328003,26.9399954 145.64,25.6880079 145.64,24.104 C145.64,22.5359922 145.328003,21.3120044 144.704,20.432 C144.079997,19.5519956 143.232005,19.112 142.16,19.112 C141.087995,19.112 140.240003,19.5519956 139.616,20.432 C138.991997,21.3120044 138.68,22.5359922 138.68,24.104 C138.68,25.6880079 138.991997,26.9399954 139.616,27.86 C140.240003,28.7800046 141.087995,29.24 142.16,29.24 L142.16,29.24 Z M151.472,24.272 C151.472,22.9759935 151.671998,21.8200051 152.072,20.804 C152.472002,19.7879949 153.011997,18.9280035 153.692,18.224 C154.372003,17.5199965 155.163995,16.9840018 156.068,16.616 C156.972005,16.2479982 157.927995,16.064 158.936,16.064 C159.912005,16.064 160.795996,16.267998 161.588,16.676 C162.380004,17.084002 163.039997,17.5599973 163.568,18.104 L161.624,20.288 C161.223998,19.9199982 160.820002,19.632001 160.412,19.424 C160.003998,19.215999 159.528003,19.112 158.984,19.112 C158.439997,19.112 157.932002,19.2279988 157.46,19.46 C156.987998,19.6920012 156.576002,20.0239978 156.224,20.456 C155.871998,20.8880022 155.596001,21.4159969 155.396,22.04 C155.195999,22.6640031 155.096,23.3679961 155.096,24.152 C155.096,25.7680081 155.439997,27.0199956 156.128,27.908 C156.816003,28.7960044 157.735994,29.24 158.888,29.24 C159.528003,29.24 160.087998,29.1120013 160.568,28.856 C161.048002,28.5999987 161.479998,28.2640021 161.864,27.848 L163.808,29.984 C163.151997,30.7520038 162.404004,31.3279981 161.564,31.712 C160.723996,32.0960019 159.816005,32.288 158.84,32.288 C157.831995,32.288 156.880004,32.1160017 155.984,31.772 C155.087996,31.4279983 154.304003,30.9200034 153.632,30.248 C152.959997,29.5759966 152.432002,28.740005 152.048,27.74 C151.663998,26.739995 151.472,25.5840066 151.472,24.272 L151.472,24.272 Z M166.184,16.352 L169.712,16.352 L169.712,22.76 L169.808,22.76 L174.464,16.352 L178.352,16.352 L173.624,22.592 L179.216,32 L175.352,32 L171.536,25.4 L169.712,27.8 L169.712,32 L166.184,32 L166.184,16.352 Z" id="BLOCK" fill="#1ED6E5"></path>
                    <path d="M109.476,39.456 L112.324,39.456 C113.390672,39.456 114.238664,39.6613313 114.868,40.072 C115.497336,40.4826687 115.812,41.1306622 115.812,42.016 C115.812,42.5706694 115.654668,43.0533313 115.34,43.464 C115.025332,43.8746687 114.55867,44.1599992 113.94,44.32 L113.94,44.384 C114.718671,44.5013339 115.331998,44.7706646 115.78,45.192 C116.228002,45.6133354 116.452,46.1919963 116.452,46.928 C116.452,47.4400026 116.358668,47.8879981 116.172,48.272 C115.985332,48.6560019 115.721335,48.9759987 115.38,49.232 C115.038665,49.4880013 114.628002,49.6799994 114.148,49.808 C113.667998,49.9360006 113.129336,50 112.532,50 L109.476,50 L109.476,39.456 Z M112.036,44.096 C113.124005,44.096 113.902664,43.9226684 114.372,43.576 C114.841336,43.2293316 115.076,42.7040035 115.076,42 C115.076,41.3173299 114.825336,40.8240015 114.324,40.52 C113.822664,40.2159985 113.086672,40.064 112.116,40.064 L110.212,40.064 L110.212,44.096 L112.036,44.096 Z M112.34,49.392 C113.396005,49.392 114.22533,49.1946686 114.828,48.8 C115.43067,48.4053314 115.732,47.7813376 115.732,46.928 C115.732,46.1706629 115.43867,45.6080018 114.852,45.24 C114.26533,44.8719982 113.428005,44.688 112.34,44.688 L110.212,44.688 L110.212,49.392 L112.34,49.392 Z M118.644,38.496 L119.348,38.496 L119.348,49.072 C119.348,49.2426675 119.38,49.3679996 119.444,49.448 C119.508,49.5280004 119.588,49.568 119.684,49.568 L119.788,49.568 C119.825334,49.568 119.886666,49.5573334 119.972,49.536 L120.1,50.112 C120.025333,50.1333334 119.950667,50.1519999 119.876,50.168 C119.801333,50.1840001 119.705334,50.192 119.588,50.192 C118.958664,50.192 118.644,49.7866707 118.644,48.976 L118.644,38.496 Z M121.796,46.176 C121.796,45.5359968 121.889332,44.9626692 122.076,44.456 C122.262668,43.9493308 122.513332,43.525335 122.828,43.184 C123.142668,42.842665 123.507998,42.5813342 123.924,42.4 C124.340002,42.2186658 124.777331,42.128 125.236,42.128 C125.694669,42.128 126.134665,42.2186658 126.556,42.4 C126.977335,42.5813342 127.345332,42.842665 127.66,43.184 C127.974668,43.525335 128.225332,43.9493308 128.412,44.456 C128.598668,44.9626692 128.692,45.5359968 128.692,46.176 C128.692,46.8160032 128.598668,47.3839975 128.412,47.88 C128.225332,48.3760025 127.974668,48.794665 127.66,49.136 C127.345332,49.477335 126.977335,49.7386658 126.556,49.92 C126.134665,50.1013342 125.694669,50.192 125.236,50.192 C124.777331,50.192 124.340002,50.1013342 123.924,49.92 C123.507998,49.7386658 123.142668,49.477335 122.828,49.136 C122.513332,48.794665 122.262668,48.3760025 122.076,47.88 C121.889332,47.3839975 121.796,46.8160032 121.796,46.176 L121.796,46.176 Z M122.532,46.176 C122.532,46.6773358 122.601333,47.1359979 122.74,47.552 C122.878667,47.9680021 123.067999,48.3253318 123.308,48.624 C123.548001,48.9226682 123.833332,49.1546658 124.164,49.32 C124.494668,49.4853342 124.851998,49.568 125.236,49.568 C125.620002,49.568 125.979998,49.4853342 126.316,49.32 C126.652002,49.1546658 126.939999,48.9226682 127.18,48.624 C127.420001,48.3253318 127.609333,47.9680021 127.748,47.552 C127.886667,47.1359979 127.956,46.6773358 127.956,46.176 C127.956,45.6639974 127.886667,45.2000021 127.748,44.784 C127.609333,44.3679979 127.420001,44.0080015 127.18,43.704 C126.939999,43.3999985 126.652002,43.1653342 126.316,43 C125.979998,42.8346658 125.620002,42.752 125.236,42.752 C124.851998,42.752 124.494668,42.8346658 124.164,43 C123.833332,43.1653342 123.548001,43.3999985 123.308,43.704 C123.067999,44.0080015 122.878667,44.3679979 122.74,44.784 C122.601333,45.2000021 122.532,45.6639974 122.532,46.176 L122.532,46.176 Z M130.356,46.176 C130.356,45.5359968 130.451999,44.9626692 130.644,44.456 C130.836001,43.9493308 131.091998,43.525335 131.412,43.184 C131.732002,42.842665 132.102665,42.5813342 132.524,42.4 C132.945335,42.2186658 133.390664,42.128 133.86,42.128 C134.393336,42.128 134.838665,42.223999 135.196,42.416 C135.553335,42.608001 135.859999,42.8266654 136.116,43.072 L135.7,43.568 C135.454665,43.3333322 135.182668,43.1386674 134.884,42.984 C134.585332,42.8293326 134.249335,42.752 133.876,42.752 C133.481331,42.752 133.116002,42.8346658 132.78,43 C132.443998,43.1653342 132.150668,43.3999985 131.9,43.704 C131.649332,44.0080015 131.452001,44.3679979 131.308,44.784 C131.163999,45.2000021 131.092,45.6639974 131.092,46.176 C131.092,46.6773358 131.158666,47.1359979 131.292,47.552 C131.425334,47.9680021 131.611999,48.3253318 131.852,48.624 C132.092001,48.9226682 132.385332,49.1546658 132.732,49.32 C133.078668,49.4853342 133.459998,49.568 133.876,49.568 C134.281335,49.568 134.657332,49.4826675 135.004,49.312 C135.350668,49.1413325 135.657332,48.9333346 135.924,48.688 L136.292,49.168 C135.961332,49.4666682 135.593335,49.711999 135.188,49.904 C134.782665,50.096001 134.334669,50.192 133.844,50.192 C133.342664,50.192 132.881335,50.1013342 132.46,49.92 C132.038665,49.7386658 131.670668,49.477335 131.356,49.136 C131.041332,48.794665 130.796001,48.3760025 130.62,47.88 C130.443999,47.3839975 130.356,46.8160032 130.356,46.176 L130.356,46.176 Z M138.18,38.496 L138.884,38.496 L138.884,46.976 L138.916,46.976 L142.708,42.32 L143.524,42.32 L141.028,45.36 L143.94,50 L143.156,50 L140.612,45.888 L138.884,47.904 L138.884,50 L138.18,50 L138.18,38.496 Z M144.964,46.176 C144.964,45.5359968 145.059999,44.9626692 145.252,44.456 C145.444001,43.9493308 145.699998,43.525335 146.02,43.184 C146.340002,42.842665 146.710665,42.5813342 147.132,42.4 C147.553335,42.2186658 147.998664,42.128 148.468,42.128 C149.001336,42.128 149.446665,42.223999 149.804,42.416 C150.161335,42.608001 150.467999,42.8266654 150.724,43.072 L150.308,43.568 C150.062665,43.3333322 149.790668,43.1386674 149.492,42.984 C149.193332,42.8293326 148.857335,42.752 148.484,42.752 C148.089331,42.752 147.724002,42.8346658 147.388,43 C147.051998,43.1653342 146.758668,43.3999985 146.508,43.704 C146.257332,44.0080015 146.060001,44.3679979 145.916,44.784 C145.771999,45.2000021 145.7,45.6639974 145.7,46.176 C145.7,46.6773358 145.766666,47.1359979 145.9,47.552 C146.033334,47.9680021 146.219999,48.3253318 146.46,48.624 C146.700001,48.9226682 146.993332,49.1546658 147.34,49.32 C147.686668,49.4853342 148.067998,49.568 148.484,49.568 C148.889335,49.568 149.265332,49.4826675 149.612,49.312 C149.958668,49.1413325 150.265332,48.9333346 150.532,48.688 L150.9,49.168 C150.569332,49.4666682 150.201335,49.711999 149.796,49.904 C149.390665,50.096001 148.942669,50.192 148.452,50.192 C147.950664,50.192 147.489335,50.1013342 147.068,49.92 C146.646665,49.7386658 146.278668,49.477335 145.964,49.136 C145.649332,48.794665 145.404001,48.3760025 145.228,47.88 C145.051999,47.3839975 144.964,46.8160032 144.964,46.176 L144.964,46.176 Z M152.788,38.496 L153.492,38.496 L153.492,41.824 L153.492,43.52 C153.897335,43.1146646 154.307998,42.7813346 154.724,42.52 C155.140002,42.2586654 155.614664,42.128 156.148,42.128 C156.948004,42.128 157.534665,42.3679976 157.908,42.848 C158.281335,43.3280024 158.468,44.0693283 158.468,45.072 L158.468,50 L157.764,50 L157.764,45.168 C157.764,44.3466626 157.628001,43.7413353 157.356,43.352 C157.083999,42.9626647 156.633336,42.768 156.004,42.768 C155.545331,42.768 155.129335,42.8879988 154.756,43.128 C154.382665,43.3680012 153.961336,43.7279976 153.492,44.208 L153.492,50 L152.788,50 L152.788,38.496 Z M160.804,48.08 C160.804,47.2373291 161.203996,46.5920022 162.004,46.144 C162.804004,45.6959978 164.057325,45.376001 165.764,45.184 C165.774667,44.8959986 165.756,44.6053348 165.708,44.312 C165.66,44.0186652 165.569334,43.7573345 165.436,43.528 C165.302666,43.2986655 165.116001,43.1120007 164.876,42.968 C164.635999,42.8239993 164.329335,42.752 163.956,42.752 C163.433331,42.752 162.958669,42.8533323 162.532,43.056 C162.105331,43.2586677 161.764001,43.455999 161.508,43.648 L161.188,43.12 C161.326667,43.0239995 161.494666,42.9173339 161.692,42.8 C161.889334,42.6826661 162.107999,42.5760005 162.348,42.48 C162.588001,42.3839995 162.851999,42.3013337 163.14,42.232 C163.428001,42.1626663 163.726665,42.128 164.036,42.128 C164.494669,42.128 164.878665,42.2053326 165.188,42.36 C165.497335,42.5146674 165.747999,42.725332 165.94,42.992 C166.132001,43.258668 166.268,43.5706649 166.348,43.928 C166.428,44.2853351 166.468,44.6719979 166.468,45.088 L166.468,50 L165.876,50 L165.796,49.008 L165.764,49.008 C165.369331,49.3173349 164.945336,49.5919988 164.492,49.832 C164.038664,50.0720012 163.556003,50.192 163.044,50.192 C162.734665,50.192 162.446668,50.1493338 162.18,50.064 C161.913332,49.9786662 161.676001,49.8506675 161.468,49.68 C161.259999,49.5093325 161.097334,49.290668 160.98,49.024 C160.862666,48.757332 160.804,48.4426685 160.804,48.08 L160.804,48.08 Z M161.54,48.048 C161.54,48.6026694 161.699998,48.9973322 162.02,49.232 C162.340002,49.4666678 162.718664,49.584 163.156,49.584 C163.604002,49.584 164.030665,49.4773344 164.436,49.264 C164.841335,49.0506656 165.283998,48.7413354 165.764,48.336 L165.764,45.728 C164.974663,45.8240005 164.310669,45.9413326 163.772,46.08 C163.233331,46.2186674 162.798668,46.383999 162.468,46.576 C162.137332,46.768001 161.900001,46.9866654 161.756,47.232 C161.611999,47.4773346 161.54,47.7493318 161.54,48.048 L161.54,48.048 Z M169.588,40.464 C169.406666,40.464 169.254667,40.4053339 169.132,40.288 C169.009333,40.1706661 168.948,40.0213342 168.948,39.84 C168.948,39.6373323 169.009333,39.4800006 169.132,39.368 C169.254667,39.2559994 169.406666,39.2 169.588,39.2 C169.769334,39.2 169.921333,39.2559994 170.044,39.368 C170.166667,39.4800006 170.228,39.6373323 170.228,39.84 C170.228,40.0213342 170.166667,40.1706661 170.044,40.288 C169.921333,40.4053339 169.769334,40.464 169.588,40.464 L169.588,40.464 Z M169.22,42.32 L169.924,42.32 L169.924,50 L169.22,50 L169.22,42.32 Z M172.884,42.32 L173.492,42.32 L173.556,43.504 L173.604,43.504 C173.998669,43.1093314 174.403998,42.7813346 174.82,42.52 C175.236002,42.2586654 175.710664,42.128 176.244,42.128 C177.044004,42.128 177.630665,42.3679976 178.004,42.848 C178.377335,43.3280024 178.564,44.0693283 178.564,45.072 L178.564,50 L177.86,50 L177.86,45.168 C177.86,44.3466626 177.724001,43.7413353 177.452,43.352 C177.179999,42.9626647 176.729336,42.768 176.1,42.768 C175.641331,42.768 175.225335,42.8879988 174.852,43.128 C174.478665,43.3680012 174.057336,43.7279976 173.588,44.208 L173.588,50 L172.884,50 L172.884,42.32 Z M186.932,40.096 L183.572,40.096 L183.572,39.456 L191.028,39.456 L191.028,40.096 L187.668,40.096 L187.668,50 L186.932,50 L186.932,40.096 Z M192.964,42.32 L193.572,42.32 L193.636,43.744 L193.684,43.744 C193.940001,43.2639976 194.251998,42.8746682 194.62,42.576 C194.988002,42.2773318 195.401331,42.128 195.86,42.128 C196.009334,42.128 196.142666,42.1386666 196.26,42.16 C196.377334,42.1813334 196.499999,42.2239997 196.628,42.288 L196.468,42.928 C196.339999,42.8746664 196.228,42.8400001 196.132,42.824 C196.036,42.8079999 195.913334,42.8 195.764,42.8 C195.422665,42.8 195.062669,42.9466652 194.684,43.24 C194.305331,43.5333348 193.966668,44.042663 193.668,44.768 L193.668,50 L192.964,50 L192.964,42.32 Z M197.604,48.08 C197.604,47.2373291 198.003996,46.5920022 198.804,46.144 C199.604004,45.6959978 200.857325,45.376001 202.564,45.184 C202.574667,44.8959986 202.556,44.6053348 202.508,44.312 C202.46,44.0186652 202.369334,43.7573345 202.236,43.528 C202.102666,43.2986655 201.916001,43.1120007 201.676,42.968 C201.435999,42.8239993 201.129335,42.752 200.756,42.752 C200.233331,42.752 199.758669,42.8533323 199.332,43.056 C198.905331,43.2586677 198.564001,43.455999 198.308,43.648 L197.988,43.12 C198.126667,43.0239995 198.294666,42.9173339 198.492,42.8 C198.689334,42.6826661 198.907999,42.5760005 199.148,42.48 C199.388001,42.3839995 199.651999,42.3013337 199.94,42.232 C200.228001,42.1626663 200.526665,42.128 200.836,42.128 C201.294669,42.128 201.678665,42.2053326 201.988,42.36 C202.297335,42.5146674 202.547999,42.725332 202.74,42.992 C202.932001,43.258668 203.068,43.5706649 203.148,43.928 C203.228,44.2853351 203.268,44.6719979 203.268,45.088 L203.268,50 L202.676,50 L202.596,49.008 L202.564,49.008 C202.169331,49.3173349 201.745336,49.5919988 201.292,49.832 C200.838664,50.0720012 200.356003,50.192 199.844,50.192 C199.534665,50.192 199.246668,50.1493338 198.98,50.064 C198.713332,49.9786662 198.476001,49.8506675 198.268,49.68 C198.059999,49.5093325 197.897334,49.290668 197.78,49.024 C197.662666,48.757332 197.604,48.4426685 197.604,48.08 L197.604,48.08 Z M198.34,48.048 C198.34,48.6026694 198.499998,48.9973322 198.82,49.232 C199.140002,49.4666678 199.518664,49.584 199.956,49.584 C200.404002,49.584 200.830665,49.4773344 201.236,49.264 C201.641335,49.0506656 202.083998,48.7413354 202.564,48.336 L202.564,45.728 C201.774663,45.8240005 201.110669,45.9413326 200.572,46.08 C200.033331,46.2186674 199.598668,46.383999 199.268,46.576 C198.937332,46.768001 198.700001,46.9866654 198.556,47.232 C198.411999,47.4773346 198.34,47.7493318 198.34,48.048 L198.34,48.048 Z M206.02,42.32 L206.628,42.32 L206.692,43.504 L206.74,43.504 C207.134669,43.1093314 207.539998,42.7813346 207.956,42.52 C208.372002,42.2586654 208.846664,42.128 209.38,42.128 C210.180004,42.128 210.766665,42.3679976 211.14,42.848 C211.513335,43.3280024 211.7,44.0693283 211.7,45.072 L211.7,50 L210.996,50 L210.996,45.168 C210.996,44.3466626 210.860001,43.7413353 210.588,43.352 C210.315999,42.9626647 209.865336,42.768 209.236,42.768 C208.777331,42.768 208.361335,42.8879988 207.988,43.128 C207.614665,43.3680012 207.193336,43.7279976 206.724,44.208 L206.724,50 L206.02,50 L206.02,42.32 Z M213.988,48.608 C214.318668,48.8853347 214.670665,49.1173324 215.044,49.304 C215.417335,49.4906676 215.881331,49.584 216.436,49.584 C217.044003,49.584 217.499998,49.4320015 217.804,49.128 C218.108002,48.8239985 218.26,48.4693354 218.26,48.064 C218.26,47.8293322 218.204001,47.6213342 218.092,47.44 C217.979999,47.2586658 217.833334,47.1040006 217.652,46.976 C217.470666,46.8479994 217.270668,46.7360005 217.052,46.64 C216.833332,46.5439995 216.612001,46.4533338 216.388,46.368 C216.099999,46.2613328 215.809335,46.1493339 215.516,46.032 C215.222665,45.9146661 214.958668,45.7733342 214.724,45.608 C214.489332,45.4426658 214.300001,45.2453345 214.156,45.016 C214.011999,44.7866655 213.94,44.5066683 213.94,44.176 C213.94,43.8986653 213.993333,43.6346679 214.1,43.384 C214.206667,43.1333321 214.366666,42.9146676 214.58,42.728 C214.793334,42.5413324 215.051998,42.3946672 215.356,42.288 C215.660002,42.1813328 216.014665,42.128 216.42,42.128 C216.825335,42.128 217.222665,42.2026659 217.612,42.352 C218.001335,42.5013341 218.334665,42.6933322 218.612,42.928 L218.228,43.424 C217.971999,43.231999 217.700001,43.069334 217.412,42.936 C217.123999,42.802666 216.782669,42.736 216.388,42.736 C216.089332,42.736 215.833334,42.7759996 215.62,42.856 C215.406666,42.9360004 215.228001,43.0399994 215.084,43.168 C214.939999,43.2960006 214.833334,43.4453325 214.764,43.616 C214.694666,43.7866675 214.66,43.9573325 214.66,44.128 C214.66,44.3520011 214.710666,44.5413326 214.812,44.696 C214.913334,44.8506674 215.049332,44.9866661 215.22,45.104 C215.390668,45.2213339 215.585332,45.3253329 215.804,45.416 C216.022668,45.5066671 216.243999,45.5946662 216.468,45.68 C216.766668,45.7973339 217.065332,45.9146661 217.364,46.032 C217.662668,46.1493339 217.931999,46.2933325 218.172,46.464 C218.412001,46.6346675 218.606666,46.8453321 218.756,47.096 C218.905334,47.3466679 218.98,47.6586648 218.98,48.032 C218.98,48.3200014 218.924001,48.5946654 218.812,48.856 C218.699999,49.1173346 218.532001,49.3466657 218.308,49.544 C218.083999,49.7413343 217.812002,49.8986661 217.492,50.016 C217.171998,50.1333339 216.804002,50.192 216.388,50.192 C215.811997,50.192 215.284002,50.088001 214.804,49.88 C214.323998,49.671999 213.913335,49.4240014 213.572,49.136 L213.988,48.608 Z M220.58,48.08 C220.58,47.2373291 220.979996,46.5920022 221.78,46.144 C222.580004,45.6959978 223.833325,45.376001 225.54,45.184 C225.550667,44.8959986 225.532,44.6053348 225.484,44.312 C225.436,44.0186652 225.345334,43.7573345 225.212,43.528 C225.078666,43.2986655 224.892001,43.1120007 224.652,42.968 C224.411999,42.8239993 224.105335,42.752 223.732,42.752 C223.209331,42.752 222.734669,42.8533323 222.308,43.056 C221.881331,43.2586677 221.540001,43.455999 221.284,43.648 L220.964,43.12 C221.102667,43.0239995 221.270666,42.9173339 221.468,42.8 C221.665334,42.6826661 221.883999,42.5760005 222.124,42.48 C222.364001,42.3839995 222.627999,42.3013337 222.916,42.232 C223.204001,42.1626663 223.502665,42.128 223.812,42.128 C224.270669,42.128 224.654665,42.2053326 224.964,42.36 C225.273335,42.5146674 225.523999,42.725332 225.716,42.992 C225.908001,43.258668 226.044,43.5706649 226.124,43.928 C226.204,44.2853351 226.244,44.6719979 226.244,45.088 L226.244,50 L225.652,50 L225.572,49.008 L225.54,49.008 C225.145331,49.3173349 224.721336,49.5919988 224.268,49.832 C223.814664,50.0720012 223.332003,50.192 222.82,50.192 C222.510665,50.192 222.222668,50.1493338 221.956,50.064 C221.689332,49.9786662 221.452001,49.8506675 221.244,49.68 C221.035999,49.5093325 220.873334,49.290668 220.756,49.024 C220.638666,48.757332 220.58,48.4426685 220.58,48.08 L220.58,48.08 Z M221.316,48.048 C221.316,48.6026694 221.475998,48.9973322 221.796,49.232 C222.116002,49.4666678 222.494664,49.584 222.932,49.584 C223.380002,49.584 223.806665,49.4773344 224.212,49.264 C224.617335,49.0506656 225.059998,48.7413354 225.54,48.336 L225.54,45.728 C224.750663,45.8240005 224.086669,45.9413326 223.548,46.08 C223.009331,46.2186674 222.574668,46.383999 222.244,46.576 C221.913332,46.768001 221.676001,46.9866654 221.532,47.232 C221.387999,47.4773346 221.316,47.7493318 221.316,48.048 L221.316,48.048 Z M228.356,46.176 C228.356,45.5359968 228.451999,44.9626692 228.644,44.456 C228.836001,43.9493308 229.091998,43.525335 229.412,43.184 C229.732002,42.842665 230.102665,42.5813342 230.524,42.4 C230.945335,42.2186658 231.390664,42.128 231.86,42.128 C232.393336,42.128 232.838665,42.223999 233.196,42.416 C233.553335,42.608001 233.859999,42.8266654 234.116,43.072 L233.7,43.568 C233.454665,43.3333322 233.182668,43.1386674 232.884,42.984 C232.585332,42.8293326 232.249335,42.752 231.876,42.752 C231.481331,42.752 231.116002,42.8346658 230.78,43 C230.443998,43.1653342 230.150668,43.3999985 229.9,43.704 C229.649332,44.0080015 229.452001,44.3679979 229.308,44.784 C229.163999,45.2000021 229.092,45.6639974 229.092,46.176 C229.092,46.6773358 229.158666,47.1359979 229.292,47.552 C229.425334,47.9680021 229.611999,48.3253318 229.852,48.624 C230.092001,48.9226682 230.385332,49.1546658 230.732,49.32 C231.078668,49.4853342 231.459998,49.568 231.876,49.568 C232.281335,49.568 232.657332,49.4826675 233.004,49.312 C233.350668,49.1413325 233.657332,48.9333346 233.924,48.688 L234.292,49.168 C233.961332,49.4666682 233.593335,49.711999 233.188,49.904 C232.782665,50.096001 232.334669,50.192 231.844,50.192 C231.342664,50.192 230.881335,50.1013342 230.46,49.92 C230.038665,49.7386658 229.670668,49.477335 229.356,49.136 C229.041332,48.794665 228.796001,48.3760025 228.62,47.88 C228.443999,47.3839975 228.356,46.8160032 228.356,46.176 L228.356,46.176 Z M236.356,42.928 L235.156,42.928 L235.156,42.384 L236.372,42.32 L236.468,40.096 L237.076,40.096 L237.076,42.32 L239.3,42.32 L239.3,42.928 L237.076,42.928 L237.076,47.936 C237.076,48.1813346 237.094666,48.4026657 237.132,48.6 C237.169334,48.7973343 237.236,48.9679993 237.332,49.112 C237.428,49.2560007 237.558666,49.3679996 237.724,49.448 C237.889334,49.5280004 238.105332,49.568 238.372,49.568 C238.521334,49.568 238.683999,49.5440002 238.86,49.496 C239.036001,49.4479998 239.193333,49.3920003 239.332,49.328 L239.524,49.904 C239.299999,49.9893338 239.076001,50.0586664 238.852,50.112 C238.627999,50.1653336 238.436001,50.192 238.276,50.192 C237.902665,50.192 237.593335,50.1360006 237.348,50.024 C237.102665,49.9119994 236.905334,49.7546677 236.756,49.552 C236.606666,49.3493323 236.502667,49.1040014 236.444,48.816 C236.385333,48.5279986 236.356,48.213335 236.356,47.872 L236.356,42.928 Z M241.54,40.464 C241.358666,40.464 241.206667,40.4053339 241.084,40.288 C240.961333,40.1706661 240.9,40.0213342 240.9,39.84 C240.9,39.6373323 240.961333,39.4800006 241.084,39.368 C241.206667,39.2559994 241.358666,39.2 241.54,39.2 C241.721334,39.2 241.873333,39.2559994 241.996,39.368 C242.118667,39.4800006 242.18,39.6373323 242.18,39.84 C242.18,40.0213342 242.118667,40.1706661 241.996,40.288 C241.873333,40.4053339 241.721334,40.464 241.54,40.464 L241.54,40.464 Z M241.172,42.32 L241.876,42.32 L241.876,50 L241.172,50 L241.172,42.32 Z M244.196,46.176 C244.196,45.5359968 244.289332,44.9626692 244.476,44.456 C244.662668,43.9493308 244.913332,43.525335 245.228,43.184 C245.542668,42.842665 245.907998,42.5813342 246.324,42.4 C246.740002,42.2186658 247.177331,42.128 247.636,42.128 C248.094669,42.128 248.534665,42.2186658 248.956,42.4 C249.377335,42.5813342 249.745332,42.842665 250.06,43.184 C250.374668,43.525335 250.625332,43.9493308 250.812,44.456 C250.998668,44.9626692 251.092,45.5359968 251.092,46.176 C251.092,46.8160032 250.998668,47.3839975 250.812,47.88 C250.625332,48.3760025 250.374668,48.794665 250.06,49.136 C249.745332,49.477335 249.377335,49.7386658 248.956,49.92 C248.534665,50.1013342 248.094669,50.192 247.636,50.192 C247.177331,50.192 246.740002,50.1013342 246.324,49.92 C245.907998,49.7386658 245.542668,49.477335 245.228,49.136 C244.913332,48.794665 244.662668,48.3760025 244.476,47.88 C244.289332,47.3839975 244.196,46.8160032 244.196,46.176 L244.196,46.176 Z M244.932,46.176 C244.932,46.6773358 245.001333,47.1359979 245.14,47.552 C245.278667,47.9680021 245.467999,48.3253318 245.708,48.624 C245.948001,48.9226682 246.233332,49.1546658 246.564,49.32 C246.894668,49.4853342 247.251998,49.568 247.636,49.568 C248.020002,49.568 248.379998,49.4853342 248.716,49.32 C249.052002,49.1546658 249.339999,48.9226682 249.58,48.624 C249.820001,48.3253318 250.009333,47.9680021 250.148,47.552 C250.286667,47.1359979 250.356,46.6773358 250.356,46.176 C250.356,45.6639974 250.286667,45.2000021 250.148,44.784 C250.009333,44.3679979 249.820001,44.0080015 249.58,43.704 C249.339999,43.3999985 249.052002,43.1653342 248.716,43 C248.379998,42.8346658 248.020002,42.752 247.636,42.752 C247.251998,42.752 246.894668,42.8346658 246.564,43 C246.233332,43.1653342 245.948001,43.3999985 245.708,43.704 C245.467999,44.0080015 245.278667,44.3679979 245.14,44.784 C245.001333,45.2000021 244.932,45.6639974 244.932,46.176 L244.932,46.176 Z M253.396,42.32 L254.004,42.32 L254.068,43.504 L254.116,43.504 C254.510669,43.1093314 254.915998,42.7813346 255.332,42.52 C255.748002,42.2586654 256.222664,42.128 256.756,42.128 C257.556004,42.128 258.142665,42.3679976 258.516,42.848 C258.889335,43.3280024 259.076,44.0693283 259.076,45.072 L259.076,50 L258.372,50 L258.372,45.168 C258.372,44.3466626 258.236001,43.7413353 257.964,43.352 C257.691999,42.9626647 257.241336,42.768 256.612,42.768 C256.153331,42.768 255.737335,42.8879988 255.364,43.128 C254.990665,43.3680012 254.569336,43.7279976 254.1,44.208 L254.1,50 L253.396,50 L253.396,42.32 Z M264.836,48.096 C265.220002,48.5333355 265.678664,48.8799987 266.212,49.136 C266.745336,49.3920013 267.315997,49.52 267.924,49.52 C268.734671,49.52 269.374664,49.3253353 269.844,48.936 C270.313336,48.5466647 270.548,48.0373365 270.548,47.408 C270.548,47.0773317 270.497334,46.8000011 270.396,46.576 C270.294666,46.3519989 270.158668,46.1573342 269.988,45.992 C269.817332,45.8266658 269.617334,45.6826673 269.388,45.56 C269.158666,45.4373327 268.916001,45.3173339 268.66,45.2 L267.06,44.48 C266.825332,44.3839995 266.582668,44.2666674 266.332,44.128 C266.081332,43.9893326 265.852001,43.816001 265.644,43.608 C265.435999,43.399999 265.262667,43.1546681 265.124,42.872 C264.985333,42.5893319 264.916,42.2506686 264.916,41.856 C264.916,41.4719981 264.993333,41.1226682 265.148,40.808 C265.302667,40.4933318 265.515999,40.2213345 265.788,39.992 C266.060001,39.7626655 266.385331,39.5840006 266.764,39.456 C267.142669,39.3279994 267.550664,39.264 267.988,39.264 C268.628003,39.264 269.195998,39.3893321 269.692,39.64 C270.188002,39.8906679 270.595998,40.186665 270.916,40.528 L270.5,41.024 C270.190665,40.6933317 269.828002,40.4293343 269.412,40.232 C268.995998,40.0346657 268.521336,39.936 267.988,39.936 C267.283996,39.936 266.718669,40.106665 266.292,40.448 C265.865331,40.789335 265.652,41.2479971 265.652,41.824 C265.652,42.1333349 265.710666,42.3946656 265.828,42.608 C265.945334,42.8213344 266.094666,43.0053326 266.276,43.16 C266.457334,43.3146674 266.654666,43.4479994 266.868,43.56 C267.081334,43.6720006 267.283999,43.7706662 267.476,43.856 L269.076,44.56 C269.374668,44.6880006 269.657332,44.8319992 269.924,44.992 C270.190668,45.1520008 270.425332,45.3386656 270.628,45.552 C270.830668,45.7653344 270.993333,46.0186652 271.116,46.312 C271.238667,46.6053348 271.3,46.9546646 271.3,47.36 C271.3,47.7653354 271.220001,48.1413316 271.06,48.488 C270.899999,48.8346684 270.673335,49.1333321 270.38,49.384 C270.086665,49.6346679 269.732002,49.8319993 269.316,49.976 C268.899998,50.1200007 268.436003,50.192 267.924,50.192 C267.155996,50.192 266.473336,50.0453348 265.876,49.752 C265.278664,49.4586652 264.772002,49.0773357 264.356,48.608 L264.836,48.096 Z M273.796,40.464 C273.614666,40.464 273.462667,40.4053339 273.34,40.288 C273.217333,40.1706661 273.156,40.0213342 273.156,39.84 C273.156,39.6373323 273.217333,39.4800006 273.34,39.368 C273.462667,39.2559994 273.614666,39.2 273.796,39.2 C273.977334,39.2 274.129333,39.2559994 274.252,39.368 C274.374667,39.4800006 274.436,39.6373323 274.436,39.84 C274.436,40.0213342 274.374667,40.1706661 274.252,40.288 C274.129333,40.4053339 273.977334,40.464 273.796,40.464 L273.796,40.464 Z M273.428,42.32 L274.132,42.32 L274.132,50 L273.428,50 L273.428,42.32 Z M277.092,42.32 L277.7,42.32 L277.764,43.504 L277.812,43.504 C278.153335,43.1093314 278.534665,42.7813346 278.956,42.52 C279.377335,42.2586654 279.801331,42.128 280.228,42.128 C280.84667,42.128 281.321332,42.2693319 281.652,42.552 C281.982668,42.8346681 282.217333,43.2159976 282.356,43.696 C282.804002,43.2159976 283.238665,42.8346681 283.66,42.552 C284.081335,42.2693319 284.515998,42.128 284.964,42.128 C286.500008,42.128 287.268,43.1093235 287.268,45.072 L287.268,50 L286.548,50 L286.548,45.168 C286.548,44.3466626 286.409335,43.7413353 286.132,43.352 C285.854665,42.9626647 285.42267,42.768 284.836,42.768 C284.142663,42.768 283.374671,43.2479952 282.532,44.208 L282.532,50 L281.828,50 L281.828,45.168 C281.828,44.3466626 281.689335,43.7413353 281.412,43.352 C281.134665,42.9626647 280.697336,42.768 280.1,42.768 C279.406663,42.768 278.638671,43.2479952 277.796,44.208 L277.796,50 L277.092,50 L277.092,42.32 Z M290.788,50.672 L290.788,53.472 L290.084,53.472 L290.084,42.32 L290.692,42.32 L290.756,43.28 L290.804,43.28 C291.177335,42.9813318 291.585331,42.7146678 292.028,42.48 C292.470669,42.2453322 292.931998,42.128 293.412,42.128 C294.436005,42.128 295.203997,42.4826631 295.716,43.192 C296.228003,43.9013369 296.484,44.8533274 296.484,46.048 C296.484,46.6986699 296.393334,47.2799974 296.212,47.792 C296.030666,48.3040026 295.782668,48.7386649 295.468,49.096 C295.153332,49.4533351 294.790669,49.7253324 294.38,49.912 C293.969331,50.0986676 293.540002,50.192 293.092,50.192 C292.729332,50.192 292.356002,50.1093342 291.972,49.944 C291.587998,49.7786658 291.193335,49.5466682 290.788,49.248 L290.788,50.672 Z M290.788,48.576 C291.236002,48.9386685 291.651998,49.1946659 292.036,49.344 C292.420002,49.4933341 292.761332,49.568 293.06,49.568 C293.444002,49.568 293.801332,49.4826675 294.132,49.312 C294.462668,49.1413325 294.745332,48.9013349 294.98,48.592 C295.214668,48.2826651 295.398666,47.9120022 295.532,47.48 C295.665334,47.0479978 295.732,46.5706693 295.732,46.048 C295.732,45.5786643 295.686667,45.1413354 295.596,44.736 C295.505333,44.3306646 295.364001,43.9813348 295.172,43.688 C294.979999,43.3946652 294.729335,43.1653342 294.42,43 C294.110665,42.8346658 293.737336,42.752 293.3,42.752 C292.915998,42.752 292.518669,42.8613322 292.108,43.08 C291.697331,43.2986678 291.257336,43.6106646 290.788,44.016 L290.788,48.576 Z M298.788,38.496 L299.492,38.496 L299.492,49.072 C299.492,49.2426675 299.524,49.3679996 299.588,49.448 C299.652,49.5280004 299.732,49.568 299.828,49.568 L299.932,49.568 C299.969334,49.568 300.030666,49.5573334 300.116,49.536 L300.244,50.112 C300.169333,50.1333334 300.094667,50.1519999 300.02,50.168 C299.945333,50.1840001 299.849334,50.192 299.732,50.192 C299.102664,50.192 298.788,49.7866707 298.788,48.976 L298.788,38.496 Z M302.948,40.464 C302.766666,40.464 302.614667,40.4053339 302.492,40.288 C302.369333,40.1706661 302.308,40.0213342 302.308,39.84 C302.308,39.6373323 302.369333,39.4800006 302.492,39.368 C302.614667,39.2559994 302.766666,39.2 302.948,39.2 C303.129334,39.2 303.281333,39.2559994 303.404,39.368 C303.526667,39.4800006 303.588,39.6373323 303.588,39.84 C303.588,40.0213342 303.526667,40.1706661 303.404,40.288 C303.281333,40.4053339 303.129334,40.464 302.948,40.464 L302.948,40.464 Z M302.58,42.32 L303.284,42.32 L303.284,50 L302.58,50 L302.58,42.32 Z M309.188,39.136 C309.027999,39.0506662 308.870667,38.9920002 308.716,38.96 C308.561333,38.9279998 308.409334,38.912 308.26,38.912 C307.854665,38.912 307.553334,39.0639985 307.356,39.368 C307.158666,39.6720015 307.06,40.1013306 307.06,40.656 L307.06,42.32 L308.836,42.32 L308.836,42.928 L307.06,42.928 L307.06,50 L306.356,50 L306.356,42.928 L305.3,42.928 L305.3,42.384 L306.356,42.32 L306.356,40.608 C306.356,39.8399962 306.521332,39.2640019 306.852,38.88 C307.182668,38.4959981 307.651997,38.304 308.26,38.304 C308.633335,38.304 309.006665,38.3893325 309.38,38.56 L309.188,39.136 Z M310.82,40.464 C310.638666,40.464 310.486667,40.4053339 310.364,40.288 C310.241333,40.1706661 310.18,40.0213342 310.18,39.84 C310.18,39.6373323 310.241333,39.4800006 310.364,39.368 C310.486667,39.2559994 310.638666,39.2 310.82,39.2 C311.001334,39.2 311.153333,39.2559994 311.276,39.368 C311.398667,39.4800006 311.46,39.6373323 311.46,39.84 C311.46,40.0213342 311.398667,40.1706661 311.276,40.288 C311.153333,40.4053339 311.001334,40.464 310.82,40.464 L310.82,40.464 Z M310.452,42.32 L311.156,42.32 L311.156,50 L310.452,50 L310.452,42.32 Z M313.476,46.176 C313.476,45.5466635 313.569332,44.9813358 313.756,44.48 C313.942668,43.9786642 314.193332,43.5546684 314.508,43.208 C314.822668,42.8613316 315.179998,42.5946676 315.58,42.408 C315.980002,42.2213324 316.393331,42.128 316.82,42.128 C317.737338,42.128 318.457331,42.4373302 318.98,43.056 C319.502669,43.6746698 319.764,44.5493277 319.764,45.68 L319.764,45.968 C319.764,46.0640005 319.753333,46.1599995 319.732,46.256 L314.196,46.256 C314.206667,46.7360024 314.281333,47.1813313 314.42,47.592 C314.558667,48.0026687 314.753332,48.3546652 315.004,48.648 C315.254668,48.9413348 315.555998,49.1706658 315.908,49.336 C316.260002,49.5013342 316.654664,49.584 317.092,49.584 C317.508002,49.584 317.883998,49.5226673 318.22,49.4 C318.556002,49.2773327 318.867999,49.1093344 319.156,48.896 L319.444,49.44 C319.134665,49.6213342 318.796002,49.7919992 318.428,49.952 C318.059998,50.1120008 317.593336,50.192 317.028,50.192 C316.537331,50.192 316.076002,50.1013342 315.644,49.92 C315.211998,49.7386658 314.836002,49.4746684 314.516,49.128 C314.195998,48.7813316 313.942668,48.3600025 313.756,47.864 C313.569332,47.3679975 313.476,46.8053365 313.476,46.176 L313.476,46.176 Z M319.092,45.712 C319.092,44.719995 318.889335,43.9760025 318.484,43.48 C318.078665,42.9839975 317.529337,42.736 316.836,42.736 C316.505332,42.736 316.190668,42.8053326 315.892,42.944 C315.593332,43.0826674 315.324001,43.2799987 315.084,43.536 C314.843999,43.7920013 314.646667,44.1039982 314.492,44.472 C314.337333,44.8400018 314.238667,45.253331 314.196,45.712 L319.092,45.712 Z M321.204,46.176 C321.204,45.5573302 321.294666,44.9973358 321.476,44.496 C321.657334,43.9946642 321.905332,43.5680018 322.22,43.216 C322.534668,42.8639982 322.897331,42.5946676 323.308,42.408 C323.718669,42.2213324 324.153331,42.128 324.612,42.128 C325.081336,42.128 325.489332,42.2106658 325.836,42.376 C326.182668,42.5413342 326.547998,42.7733318 326.932,43.072 L326.9,41.664 L326.9,38.496 L327.604,38.496 L327.604,50 L326.996,50 L326.932,49.008 L326.884,49.008 C326.574665,49.3173349 326.209335,49.5919988 325.788,49.832 C325.366665,50.0720012 324.900003,50.192 324.388,50.192 C323.417328,50.192 322.644003,49.8480034 322.068,49.16 C321.491997,48.4719966 321.204,47.4773398 321.204,46.176 L321.204,46.176 Z M321.956,46.176 C321.956,46.6880026 322.011999,47.1519979 322.124,47.568 C322.236001,47.9840021 322.398666,48.3386652 322.612,48.632 C322.825334,48.9253348 323.089332,49.1546658 323.404,49.32 C323.718668,49.4853342 324.078665,49.568 324.484,49.568 C324.910669,49.568 325.318665,49.4586678 325.708,49.24 C326.097335,49.0213322 326.494665,48.7093354 326.9,48.304 L326.9,43.744 C326.494665,43.3813315 326.113335,43.1253341 325.756,42.976 C325.398665,42.8266659 325.033335,42.752 324.66,42.752 C324.275998,42.752 323.918668,42.8399991 323.588,43.016 C323.257332,43.1920009 322.972001,43.4319985 322.732,43.736 C322.491999,44.0400015 322.302667,44.4026646 322.164,44.824 C322.025333,45.2453354 321.956,45.6959976 321.956,46.176 L321.956,46.176 Z" id="Blockchain-Transacti" fill="#4A4A4A"></path>
                </g>
            </g>
        </g>
    </g>
</svg>