<?xml version="1.0" encoding="UTF-8"?>
<svg width="264px" height="38px" viewBox="0 0 264 38" version="1.1" xmlns="http://www.w3.org/2000/svg" xmlns:xlink="http://www.w3.org/1999/xlink">
    <!-- Generator: Sketch 39.1 (31720) - http://www.bohemiancoding.com/sketch -->
    <title>Group 14</title>
    <desc>Created with Sketch.</desc>
    <defs></defs>
    <g id="logo" stroke="none" stroke-width="1" fill="none" fill-rule="evenodd">
        <g id="Group-14">
            <g id="Group-13">
                <path d="M61.6569824,37.3333333 L61.6569824,37.1883138 C61.7668463,37.1619465 61.8408201,37.1212975 61.8789062,37.0663656 C61.9169924,37.0114336 61.9360352,36.9261073 61.9360352,36.8103841 L61.9360352,31.8533529 C61.9360352,31.7361648 61.9169924,31.6504723 61.8789062,31.5962728 C61.8408201,31.5420733 61.7668463,31.5017905 61.6569824,31.4754232 L61.6569824,31.3304036 L65.2297363,31.3304036 C65.5417496,31.3304036 65.8197009,31.3545733 66.0635986,31.4029134 C66.3074963,31.4512535 66.5246573,31.5471998 66.7150879,31.6907552 C66.9069834,31.8328458 67.0552973,32.0130197 67.1600342,32.2312826 C67.264771,32.4495454 67.3171387,32.6802559 67.3171387,32.9234212 C67.3171387,33.5181508 67.0351591,33.9473457 66.4711914,34.2110189 C66.8051775,34.3252773 67.0644522,34.5047188 67.2490234,34.749349 C67.4335947,34.9939791 67.5258789,35.2913394 67.5258789,35.6414388 C67.5258789,35.8977877 67.4738775,36.1431466 67.369873,36.3775228 C67.2658686,36.611899 67.1135264,36.8015943 66.9128418,36.9466146 C66.6828602,37.1092131 66.4283461,37.2143145 66.149292,37.2619222 C65.8702379,37.3095299 65.536623,37.3333333 65.1484375,37.3333333 L61.6569824,37.3333333 Z M62.6281738,33.9231771 L64.9418945,33.9231771 C65.4824246,33.9231771 65.8786608,33.8748377 66.1306152,33.7781576 C66.2932137,33.7063798 66.4221187,33.5976163 66.517334,33.4518636 C66.6125493,33.3061109 66.6601562,33.1446135 66.6601562,32.9673665 C66.6601562,32.775471 66.6147465,32.5989591 66.5239258,32.4378255 C66.433105,32.2766919 66.3020028,32.1565759 66.1306152,32.077474 C65.8728014,31.9632156 65.4619169,31.9060872 64.8979492,31.9060872 L62.6281738,31.9060872 L62.6281738,33.9231771 Z M62.6281738,36.7664388 L65.0319824,36.7664388 C65.6018095,36.7664388 66.0156237,36.7093105 66.2734375,36.5950521 C66.4492196,36.5144853 66.5861811,36.3932707 66.6843262,36.2314046 C66.7824712,36.0695386 66.831543,35.8911956 66.831543,35.6963704 C66.831543,35.4766428 66.7846684,35.2766936 66.690918,35.0965169 C66.5971675,34.9163402 66.4580087,34.7801111 66.2734375,34.6878255 C66.0947257,34.5984696 65.9094248,34.5431723 65.7175293,34.521932 C65.5256338,34.5006916 65.2824722,34.4900716 64.9880371,34.4900716 L62.6281738,34.4900716 L62.6281738,36.7664388 Z M70.4418945,36.8477376 L73.4477539,36.8477376 C73.564942,36.8477376 73.6506345,36.8286949 73.704834,36.7906087 C73.7590335,36.7525226 73.7993163,36.6785487 73.8256836,36.5686849 L73.9443359,36.5686849 L73.9443359,37.6123861 L73.8256836,37.6123861 C73.7993163,37.5025222 73.7590335,37.4285484 73.704834,37.3904622 C73.6506345,37.3523761 73.564942,37.3333333 73.4477539,37.3333333 L69.5344238,37.3333333 L69.5344238,37.2080892 C69.6442877,37.180257 69.7182615,37.1392418 69.7563477,37.0850423 C69.7944338,37.0308428 69.8134766,36.9458827 69.8134766,36.8301595 L69.8134766,32.9058431 C69.8134766,32.788655 69.7944338,32.7029625 69.7563477,32.648763 C69.7182615,32.5945635 69.6442877,32.5542807 69.5344238,32.5279134 L69.5344238,32.4092611 L70.7297363,32.4092611 L70.7297363,32.5279134 C70.6184076,32.5542807 70.5426027,32.5945635 70.5023193,32.648763 C70.4620359,32.7029625 70.4418945,32.788655 70.4418945,32.9058431 L70.4418945,36.8477376 Z M80.8395996,34.8767904 C80.8395996,35.2371437 80.7652595,35.5824772 80.6165771,35.9128011 C80.4678948,36.243125 80.2573256,36.5247384 79.9848633,36.7576497 C79.4443332,37.2132184 78.7419477,37.4409993 77.8776855,37.4409993 C77.007564,37.4409993 76.3029812,37.2132184 75.763916,36.7576497 C75.4929186,36.5262033 75.2823494,36.2449561 75.1322021,35.9138997 C74.9820549,35.5828434 74.9069824,35.2371437 74.9069824,34.8767904 C74.9069824,34.5135073 74.9820549,34.166709 75.1322021,33.8363851 C75.2823494,33.5060612 75.4929186,33.2259126 75.763916,32.995931 C76.0407729,32.76009 76.360838,32.5868739 76.7241211,32.4762777 C77.0874042,32.3656814 77.4719218,32.3103841 77.8776855,32.3103841 C78.7419477,32.3103841 79.4443332,32.5388975 79.9848633,32.995931 C80.2573256,33.2273775 80.4678948,33.5078922 80.6165771,33.8374837 C80.7652595,34.1670752 80.8395996,34.5135073 80.8395996,34.8767904 L80.8395996,34.8767904 Z M80.1826172,34.8767904 C80.1826172,34.4622375 80.0775157,34.0989599 79.8673096,33.7869466 C79.6571034,33.4749333 79.3751238,33.2365324 79.0213623,33.0717367 C78.6676008,32.9069409 78.286379,32.8245443 77.8776855,32.8245443 C77.4660624,32.8245443 77.0826434,32.9069409 76.727417,33.0717367 C76.3721906,33.2365324 76.0894786,33.4749333 75.8792725,33.7869466 C75.6690663,34.0989599 75.5639648,34.4622375 75.5639648,34.8767904 C75.5639648,35.2913432 75.6690663,35.6546208 75.8792725,35.9666341 C76.0894786,36.2786474 76.3721906,36.5170483 76.727417,36.6818441 C77.0826434,36.8466398 77.4660624,36.9290365 77.8776855,36.9290365 C78.286379,36.9290365 78.6676008,36.8466398 79.0213623,36.6818441 C79.3751238,36.5170483 79.6571034,36.2786474 79.8673096,35.9666341 C80.0775157,35.6546208 80.1826172,35.2913432 80.1826172,34.8767904 L80.1826172,34.8767904 Z M88.0314941,32.7784017 L87.4821777,33.7254232 L87.3745117,33.6617025 C87.3979493,33.5767411 87.409668,33.5284018 87.409668,33.5166829 C87.409668,33.4331864 87.3734134,33.3661705 87.3009033,33.3156331 C87.2283932,33.2650958 87.1269538,33.2061364 86.996582,33.1387533 C86.5761698,32.9292796 86.1052272,32.8245443 85.5837402,32.8245443 C84.9538543,32.8245443 84.428713,32.9951969 84.0083008,33.3365072 C83.5395484,33.721763 83.3051758,34.2498339 83.3051758,34.9207357 C83.3051758,35.2137059 83.37622,35.4960517 83.5183105,35.7677816 C83.6604011,36.0395114 83.8508289,36.2676586 84.0895996,36.4522298 C84.4909688,36.7701025 84.9919404,36.9290365 85.5925293,36.9290365 C85.881105,36.9290365 86.1682115,36.8803309 86.4538574,36.7829183 C86.7395034,36.6855057 86.9921864,36.548178 87.2119141,36.370931 C87.2573244,36.3387043 87.2987059,36.3075766 87.3360596,36.2775472 C87.3734133,36.2475178 87.4085692,36.2127281 87.4415283,36.1731771 C87.4744875,36.1336261 87.4909668,36.0940757 87.4909668,36.0545247 C87.4909668,36.0252277 87.4799806,35.9831139 87.4580078,35.928182 C87.436035,35.8732501 87.4199219,35.8406576 87.409668,35.8304036 L87.5085449,35.7666829 L88.2028809,36.6411947 L88.112793,36.7202962 C88.0205074,36.6309403 87.9479983,36.586263 87.8952637,36.586263 C87.8630369,36.586263 87.824219,36.6045734 87.7788086,36.6411947 C87.4565414,36.8990085 87.1035175,37.0967604 86.7197266,37.2344564 C86.3359356,37.3721524 85.9389669,37.4409993 85.5288086,37.4409993 C84.7202108,37.4409993 84.0603053,37.2307964 83.5490723,36.8103841 C83.2707506,36.5818673 83.0510262,36.2998877 82.8898926,35.9644368 C82.728759,35.628986 82.6481934,35.281089 82.6481934,34.9207357 C82.6481934,34.5120422 82.7239983,34.1454687 82.8756104,33.8210042 C83.0272224,33.4965397 83.2374254,33.2215181 83.5062256,32.995931 C83.7750258,32.7703439 84.0841047,32.5996913 84.4334717,32.4839681 C84.7828387,32.3682449 85.1567363,32.3103841 85.5551758,32.3103841 C86.2700231,32.3103841 86.948239,32.4846988 87.5898438,32.8333333 C87.6674809,32.8626304 87.7121581,32.8772786 87.723877,32.8772786 C87.7707522,32.8772786 87.8374019,32.826742 87.9238281,32.7256673 L88.0314941,32.7784017 Z M91.0288086,35.4348958 L91.0288086,36.8389486 C91.0288086,36.953207 91.0485838,37.036336 91.0881348,37.0883382 C91.1276857,37.1403404 91.2038569,37.1831867 91.3166504,37.2168783 L91.3166504,37.3333333 L90.1213379,37.3333333 L90.1213379,37.2168783 C90.2326666,37.1846515 90.3070066,37.1425377 90.3443604,37.0905355 C90.3817141,37.0385333 90.4003906,36.9546718 90.4003906,36.8389486 L90.4003906,32.9146322 C90.4003906,32.7974441 90.3813478,32.7117516 90.3432617,32.6575521 C90.3051756,32.6033526 90.2312017,32.5630698 90.1213379,32.5367025 L90.1213379,32.4092611 L91.3166504,32.4092611 L91.3166504,32.5367025 C91.2053217,32.5630698 91.1295168,32.6033526 91.0892334,32.6575521 C91.04895,32.7117516 91.0288086,32.7974441 91.0288086,32.9146322 L91.0288086,34.8504232 L93.3886719,33.0222982 C93.4428714,32.9798175 93.4967038,32.9373375 93.5501709,32.8948568 C93.603638,32.8523761 93.6497801,32.8106285 93.6885986,32.7696126 C93.7274172,32.7285968 93.7468262,32.6956381 93.7468262,32.6707357 C93.7468262,32.5930986 93.6933599,32.5484213 93.5864258,32.5367025 L93.5864258,32.4092611 L94.9707031,32.4092611 L94.9707031,32.5367025 C94.9106442,32.5367025 94.8505862,32.5506184 94.7905273,32.5784505 C94.7304684,32.6062827 94.6759036,32.6370441 94.6268311,32.6707357 C94.5777585,32.7044273 94.5429689,32.7285969 94.5224609,32.7432454 L92.5603027,34.2725423 L94.737793,37.0367025 C94.8242192,37.149496 94.9348138,37.209554 95.0695801,37.2168783 L95.0695801,37.3333333 L93.7666016,37.3333333 L93.7666016,37.2168783 C93.7900392,37.2110189 93.8167723,37.2033285 93.8468018,37.193807 C93.8768312,37.1842854 93.9024657,37.1722006 93.9237061,37.1575521 C93.9449464,37.1429036 93.9555664,37.1238608 93.9555664,37.1004232 C93.9555664,37.0550128 93.9042974,36.9707851 93.8017578,36.8477376 L92.0922852,34.6328939 L91.0288086,35.4348958 Z M101.479248,32.7784017 L100.929932,33.7254232 L100.822266,33.6617025 C100.845703,33.5767411 100.857422,33.5284018 100.857422,33.5166829 C100.857422,33.4331864 100.821167,33.3661705 100.748657,33.3156331 C100.676147,33.2650958 100.574708,33.2061364 100.444336,33.1387533 C100.023924,32.9292796 99.5529811,32.8245443 99.0314941,32.8245443 C98.4016082,32.8245443 97.8764669,32.9951969 97.4560547,33.3365072 C96.9873023,33.721763 96.7529297,34.2498339 96.7529297,34.9207357 C96.7529297,35.2137059 96.8239739,35.4960517 96.9660645,35.7677816 C97.108155,36.0395114 97.2985828,36.2676586 97.5373535,36.4522298 C97.9387227,36.7701025 98.4396943,36.9290365 99.0402832,36.9290365 C99.3288589,36.9290365 99.6159654,36.8803309 99.9016113,36.7829183 C100.187257,36.6855057 100.43994,36.548178 100.659668,36.370931 C100.705078,36.3387043 100.74646,36.3075766 100.783813,36.2775472 C100.821167,36.2475178 100.856323,36.2127281 100.889282,36.1731771 C100.922241,36.1336261 100.938721,36.0940757 100.938721,36.0545247 C100.938721,36.0252277 100.927734,35.9831139 100.905762,35.928182 C100.883789,35.8732501 100.867676,35.8406576 100.857422,35.8304036 L100.956299,35.7666829 L101.650635,36.6411947 L101.560547,36.7202962 C101.468261,36.6309403 101.395752,36.586263 101.343018,36.586263 C101.310791,36.586263 101.271973,36.6045734 101.226562,36.6411947 C100.904295,36.8990085 100.551271,37.0967604 100.16748,37.2344564 C99.7836895,37.3721524 99.3867208,37.4409993 98.9765625,37.4409993 C98.1679647,37.4409993 97.5080592,37.2307964 96.9968262,36.8103841 C96.7185045,36.5818673 96.4987801,36.2998877 96.3376465,35.9644368 C96.1765129,35.628986 96.0959473,35.281089 96.0959473,34.9207357 C96.0959473,34.5120422 96.1717522,34.1454687 96.3233643,33.8210042 C96.4749763,33.4965397 96.6851793,33.2215181 96.9539795,32.995931 C97.2227797,32.7703439 97.5318586,32.5996913 97.8812256,32.4839681 C98.2305926,32.3682449 98.6044902,32.3103841 99.0029297,32.3103841 C99.717777,32.3103841 100.395993,32.4846988 101.037598,32.8333333 C101.115235,32.8626304 101.159912,32.8772786 101.171631,32.8772786 C101.218506,32.8772786 101.285156,32.826742 101.371582,32.7256673 L101.479248,32.7784017 Z M107.70874,35.039388 L104.467773,35.039388 L104.467773,36.8389486 C104.467773,36.953207 104.487549,37.036336 104.5271,37.0883382 C104.566651,37.1403404 104.642822,37.1831867 104.755615,37.2168783 L104.755615,37.3333333 L103.560303,37.3333333 L103.560303,37.2168783 C103.671631,37.1846515 103.745971,37.1425377 103.783325,37.0905355 C103.820679,37.0385333 103.839355,36.9546718 103.839355,36.8389486 L103.839355,32.9146322 C103.839355,32.7974441 103.820313,32.7117516 103.782227,32.6575521 C103.74414,32.6033526 103.670167,32.5630698 103.560303,32.5367025 L103.560303,32.4092611 L104.755615,32.4092611 L104.755615,32.5367025 C104.644287,32.5630698 104.568482,32.6033526 104.528198,32.6575521 C104.487915,32.7117516 104.467773,32.7974441 104.467773,32.9146322 L104.467773,34.5603841 L107.70874,34.5603841 L107.70874,32.9146322 C107.70874,32.7974441 107.689697,32.7117516 107.651611,32.6575521 C107.613525,32.6033526 107.539551,32.5630698 107.429688,32.5367025 L107.429688,32.4092611 L108.627197,32.4092611 L108.627197,32.5367025 C108.515869,32.5630698 108.440064,32.6033526 108.39978,32.6575521 C108.359497,32.7117516 108.339355,32.7974441 108.339355,32.9146322 L108.339355,36.8389486 C108.339355,36.953207 108.359131,37.036336 108.398682,37.0883382 C108.438233,37.1403404 108.514404,37.1831867 108.627197,37.2168783 L108.627197,37.3333333 L107.429688,37.3333333 L107.429688,37.2168783 C107.541016,37.1846515 107.615356,37.1425377 107.65271,37.0905355 C107.690064,37.0385333 107.70874,36.9546718 107.70874,36.8389486 L107.70874,35.039388 Z M114.19751,35.9468587 L111.615723,35.9468587 L111.237793,36.7752279 C111.195312,36.8675135 111.174072,36.9517412 111.174072,37.0279134 C111.181397,37.1128748 111.256103,37.1758624 111.398193,37.2168783 L111.398193,37.3333333 L110.183105,37.3333333 L110.183105,37.2168783 C110.373536,37.1758624 110.520751,37.0469575 110.624756,36.8301595 L112.325439,33.1211751 C112.41626,32.9146311 112.46167,32.7740075 112.46167,32.6993001 C112.46167,32.60262 112.386231,32.5484213 112.235352,32.5367025 L112.235352,32.4092611 L113.665771,32.4092611 L113.665771,32.5367025 C113.522216,32.5616049 113.450439,32.6216629 113.450439,32.7168783 C113.450439,32.7652183 113.459595,32.8153887 113.477905,32.867391 C113.496216,32.9193932 113.520019,32.9746905 113.549316,33.0332845 C113.578613,33.0918785 113.605713,33.1453448 113.630615,33.1936849 L115.188477,36.5950521 C115.282227,36.792807 115.365722,36.9407547 115.438965,37.0388997 C115.512207,37.1370448 115.617675,37.1963703 115.755371,37.2168783 L115.755371,37.3333333 L114.467773,37.3333333 L114.467773,37.2168783 C114.605469,37.1905109 114.674316,37.1363123 114.674316,37.0542806 C114.674316,37.0352375 114.672119,37.0194906 114.667725,37.0070394 C114.66333,36.9945882 114.658569,36.9825033 114.653442,36.9707845 C114.648315,36.9590657 114.643555,36.9480795 114.63916,36.9378255 L114.19751,35.9468587 Z M113.982178,35.4700521 L112.909912,33.0574544 L111.822266,35.4700521 L113.982178,35.4700521 Z M118.445068,37.2168783 L118.445068,37.3333333 L117.249756,37.3333333 L117.249756,37.2168783 C117.361085,37.1846515 117.435425,37.1425377 117.472778,37.0905355 C117.510132,37.0385333 117.528809,36.9546718 117.528809,36.8389486 L117.528809,32.9146322 C117.528809,32.7974441 117.509766,32.7117516 117.47168,32.6575521 C117.433594,32.6033526 117.35962,32.5630698 117.249756,32.5367025 L117.249756,32.4092611 L118.445068,32.4092611 L118.445068,32.5367025 C118.33374,32.5630698 118.257935,32.6033526 118.217651,32.6575521 C118.177368,32.7117516 118.157227,32.7974441 118.157227,32.9146322 L118.157227,36.8389486 C118.157227,36.953207 118.177002,37.036336 118.216553,37.0883382 C118.256104,37.1403404 118.332275,37.1831867 118.445068,37.2168783 L118.445068,37.2168783 Z M121.30835,33.1848958 L121.30835,36.8389486 C121.30835,36.9546718 121.327026,37.0385333 121.36438,37.0905355 C121.401734,37.1425377 121.476074,37.1846515 121.587402,37.2168783 L121.587402,37.3333333 L120.499756,37.3333333 L120.499756,37.2168783 C120.611085,37.1846515 120.685425,37.1425377 120.722778,37.0905355 C120.760132,37.0385333 120.778809,36.9546718 120.778809,36.8389486 L120.778809,32.9146322 C120.778809,32.7974441 120.759766,32.7117516 120.72168,32.6575521 C120.683594,32.6033526 120.60962,32.5630698 120.499756,32.5367025 L120.499756,32.4092611 L122.101562,32.4092611 L122.101562,32.5367025 C121.944823,32.5747886 121.866455,32.6436356 121.866455,32.7432454 C121.866455,32.8399256 121.923583,32.9512526 122.037842,33.0772298 L124.936035,36.3247884 L124.936035,32.9146322 C124.936035,32.7974441 124.916992,32.7117516 124.878906,32.6575521 C124.84082,32.6033526 124.766846,32.5630698 124.656982,32.5367025 L124.656982,32.4092611 L125.746826,32.4092611 L125.746826,32.5367025 C125.636962,32.5630698 125.562988,32.6033526 125.524902,32.6575521 C125.486816,32.7117516 125.467773,32.7974441 125.467773,32.9146322 L125.467773,36.8389486 C125.467773,36.9546718 125.48645,37.0385333 125.523804,37.0905355 C125.561157,37.1425377 125.635497,37.1846515 125.746826,37.2168783 L125.746826,37.3333333 L124.459229,37.3333333 L124.459229,37.2168783 C124.542725,37.1890461 124.600952,37.1663412 124.633911,37.148763 C124.66687,37.1311848 124.68335,37.0967613 124.68335,37.0454915 C124.68335,36.9825029 124.666504,36.9297691 124.632812,36.8872884 C124.599121,36.8448077 124.54419,36.7832849 124.468018,36.7027181 L121.30835,33.1848958 Z M134.936279,31.9060872 L134.936279,36.8103841 C134.936279,36.9246425 134.956054,37.0096026 134.995605,37.0652669 C135.035156,37.1209313 135.108398,37.1619465 135.215332,37.1883138 L135.215332,37.3333333 L133.965088,37.3333333 L133.965088,37.1883138 C134.074952,37.1634113 134.148926,37.1231285 134.187012,37.0674642 C134.225098,37.0117999 134.244141,36.9261073 134.244141,36.8103841 L134.244141,31.9060872 L132.218262,31.9060872 C132.102538,31.9060872 132.017578,31.92513 131.963379,31.9632161 C131.909179,32.0013023 131.868164,32.0752761 131.840332,32.18514 L131.69751,32.18514 L131.69751,31.0513509 L131.840332,31.0513509 C131.868164,31.1612147 131.909179,31.2351886 131.963379,31.2732747 C132.017578,31.3113609 132.102538,31.3304036 132.218262,31.3304036 L136.970947,31.3304036 C137.083741,31.3304036 137.168335,31.3113609 137.224731,31.2732747 C137.281128,31.2351886 137.32251,31.1612147 137.348877,31.0513509 L137.485107,31.0513509 L137.485107,32.18514 L137.348877,32.18514 C137.32251,32.0752761 137.281128,32.0013023 137.224731,31.9632161 C137.168335,31.92513 137.083741,31.9060872 136.970947,31.9060872 L134.936279,31.9060872 Z M139.465088,35.1097005 L139.465088,36.8389486 C139.465088,36.953207 139.484863,37.036336 139.524414,37.0883382 C139.563965,37.1403404 139.640136,37.1831867 139.75293,37.2168783 L139.75293,37.3333333 L138.557617,37.3333333 L138.557617,37.2168783 C138.668946,37.1846515 138.743286,37.1425377 138.78064,37.0905355 C138.817993,37.0385333 138.83667,36.9546718 138.83667,36.8389486 L138.83667,32.9146322 C138.83667,32.7974441 138.817627,32.7117516 138.779541,32.6575521 C138.741455,32.6033526 138.667481,32.5630698 138.557617,32.5367025 L138.557617,32.4092611 L141.482178,32.4092611 C141.773683,32.4092611 142.029296,32.4294025 142.249023,32.4696859 C142.468751,32.5099693 142.665771,32.5952956 142.840088,32.7256673 C143.004151,32.8428554 143.130859,32.9915356 143.220215,33.1717122 C143.309571,33.3518889 143.354248,33.5452464 143.354248,33.7517904 C143.354248,34.5310911 142.886235,34.969075 141.950195,35.0657552 L143.182861,37.0191243 C143.251709,37.1289882 143.368896,37.1978351 143.534424,37.2256673 L143.534424,37.3333333 L142.319336,37.3333333 L142.319336,37.2168783 C142.433594,37.1846515 142.490723,37.1487632 142.490723,37.1092122 C142.490723,37.0843098 142.457764,37.0118007 142.391846,36.8916829 L141.255859,35.1097005 L139.465088,35.1097005 Z M139.465088,34.6241048 L141.345947,34.6241048 C141.795657,34.6241048 142.142089,34.5764979 142.385254,34.4812826 C142.628419,34.3860672 142.75,34.1516946 142.75,33.7781576 C142.75,33.6477858 142.721802,33.5218105 142.665405,33.4002279 C142.609009,33.2786452 142.529542,33.1797693 142.427002,33.103597 C142.220458,32.965901 141.88135,32.897054 141.409668,32.897054 L139.465088,32.897054 L139.465088,34.6241048 Z M148.816895,35.9468587 L146.235107,35.9468587 L145.857178,36.7752279 C145.814697,36.8675135 145.793457,36.9517412 145.793457,37.0279134 C145.800781,37.1128748 145.875488,37.1758624 146.017578,37.2168783 L146.017578,37.3333333 L144.80249,37.3333333 L144.80249,37.2168783 C144.992921,37.1758624 145.140136,37.0469575 145.244141,36.8301595 L146.944824,33.1211751 C147.035645,32.9146311 147.081055,32.7740075 147.081055,32.6993001 C147.081055,32.60262 147.005616,32.5484213 146.854736,32.5367025 L146.854736,32.4092611 L148.285156,32.4092611 L148.285156,32.5367025 C148.141601,32.5616049 148.069824,32.6216629 148.069824,32.7168783 C148.069824,32.7652183 148.078979,32.8153887 148.09729,32.867391 C148.115601,32.9193932 148.139404,32.9746905 148.168701,33.0332845 C148.197998,33.0918785 148.225098,33.1453448 148.25,33.1936849 L149.807861,36.5950521 C149.901612,36.792807 149.985107,36.9407547 150.05835,37.0388997 C150.131592,37.1370448 150.23706,37.1963703 150.374756,37.2168783 L150.374756,37.3333333 L149.087158,37.3333333 L149.087158,37.2168783 C149.224854,37.1905109 149.293701,37.1363123 149.293701,37.0542806 C149.293701,37.0352375 149.291504,37.0194906 149.287109,37.0070394 C149.282715,36.9945882 149.277954,36.9825033 149.272827,36.9707845 C149.2677,36.9590657 149.262939,36.9480795 149.258545,36.9378255 L148.816895,35.9468587 Z M148.601562,35.4700521 L147.529297,33.0574544 L146.44165,35.4700521 L148.601562,35.4700521 Z M152.677734,33.1848958 L152.677734,36.8389486 C152.677734,36.9546718 152.696411,37.0385333 152.733765,37.0905355 C152.771118,37.1425377 152.845458,37.1846515 152.956787,37.2168783 L152.956787,37.3333333 L151.869141,37.3333333 L151.869141,37.2168783 C151.980469,37.1846515 152.054809,37.1425377 152.092163,37.0905355 C152.129517,37.0385333 152.148193,36.9546718 152.148193,36.8389486 L152.148193,32.9146322 C152.148193,32.7974441 152.129151,32.7117516 152.091064,32.6575521 C152.052978,32.6033526 151.979004,32.5630698 151.869141,32.5367025 L151.869141,32.4092611 L153.470947,32.4092611 L153.470947,32.5367025 C153.314208,32.5747886 153.23584,32.6436356 153.23584,32.7432454 C153.23584,32.8399256 153.292968,32.9512526 153.407227,33.0772298 L156.30542,36.3247884 L156.30542,32.9146322 C156.30542,32.7974441 156.286377,32.7117516 156.248291,32.6575521 C156.210205,32.6033526 156.136231,32.5630698 156.026367,32.5367025 L156.026367,32.4092611 L157.116211,32.4092611 L157.116211,32.5367025 C157.006347,32.5630698 156.932373,32.6033526 156.894287,32.6575521 C156.856201,32.7117516 156.837158,32.7974441 156.837158,32.9146322 L156.837158,36.8389486 C156.837158,36.9546718 156.855835,37.0385333 156.893188,37.0905355 C156.930542,37.1425377 157.004882,37.1846515 157.116211,37.2168783 L157.116211,37.3333333 L155.828613,37.3333333 L155.828613,37.2168783 C155.91211,37.1890461 155.970337,37.1663412 156.003296,37.148763 C156.036255,37.1311848 156.052734,37.0967613 156.052734,37.0454915 C156.052734,36.9825029 156.035889,36.9297691 156.002197,36.8872884 C155.968506,36.8448077 155.913575,36.7832849 155.837402,36.7027181 L152.677734,33.1848958 Z M163.84668,32.6707357 L163.369873,33.624349 L163.262207,33.5804036 C163.273926,33.4954423 163.279785,33.4324546 163.279785,33.3914388 C163.279785,33.3387042 163.251953,33.2936607 163.196289,33.256307 C163.140625,33.2189533 163.07544,33.1826987 163.000732,33.1475423 C162.602293,32.9322092 162.122561,32.8245443 161.561523,32.8245443 C161.141111,32.8245443 160.7511,32.8981519 160.391479,33.0453695 C160.031859,33.192587 159.852051,33.4456362 159.852051,33.8045247 C159.852051,33.9466153 159.891967,34.0744216 159.971802,34.1879476 C160.051636,34.3014735 160.161865,34.3838702 160.30249,34.43514 C160.460694,34.4864098 160.661376,34.5222981 160.904541,34.542806 C161.048096,34.5472005 161.205199,34.5537923 161.375854,34.5625814 C161.54651,34.5713705 161.683837,34.5772298 161.787842,34.5801595 C162.183352,34.5933432 162.496825,34.6149494 162.728271,34.6449788 C162.959718,34.6750083 163.173583,34.7464187 163.369873,34.8592122 C163.554444,34.9646815 163.693603,35.1107982 163.787354,35.2975667 C163.881104,35.4843352 163.927979,35.6890451 163.927979,35.9117025 C163.927979,36.2632667 163.810792,36.5536691 163.576416,36.7829183 C163.34204,37.0121675 163.050173,37.179158 162.700806,37.2838949 C162.351439,37.3886317 162.00757,37.4409993 161.669189,37.4409993 C161.084714,37.4409993 160.529544,37.3362641 160.003662,37.1267904 C159.748778,37.0242508 159.526856,36.9224452 159.337891,36.8213704 C159.296875,36.7906086 159.263916,36.7752279 159.239014,36.7752279 C159.197998,36.7752279 159.144532,36.8081865 159.078613,36.8741048 L159.032471,36.9290365 L158.933594,36.8653158 L159.491699,35.9292806 L159.599365,35.9842122 C159.570068,36.0135093 159.55542,36.0764969 159.55542,36.1731771 C159.55542,36.203939 159.573364,36.2379962 159.609253,36.2753499 C159.645142,36.3127036 159.690185,36.3489582 159.744385,36.3841146 C159.798584,36.419271 159.850952,36.4500324 159.901489,36.4763997 C159.952027,36.5027671 159.986084,36.5210774 160.003662,36.5313314 C160.507571,36.7964694 161.053952,36.9290365 161.642822,36.9290365 C161.885988,36.9290365 162.136473,36.8971764 162.394287,36.8334554 C162.652101,36.7697344 162.871825,36.6620694 163.053467,36.5104574 C163.235108,36.3588453 163.325928,36.1592623 163.325928,35.9117025 C163.325928,35.7754713 163.286744,35.6498622 163.208374,35.5348714 C163.130004,35.4198806 163.027833,35.3382164 162.901855,35.2898763 C162.777343,35.2488605 162.647706,35.2195639 162.512939,35.2019857 C162.378173,35.1844075 162.204957,35.1723226 161.993286,35.1657308 C161.781615,35.159139 161.670654,35.1558431 161.6604,35.1558431 C161.231199,35.1353352 160.917359,35.11556 160.718872,35.0965169 C160.520385,35.0774739 160.301027,35.0273035 160.060791,34.9460042 C159.820555,34.864705 159.625001,34.7347014 159.474121,34.5559896 C159.323241,34.3772778 159.247803,34.1363134 159.247803,33.8330892 C159.247803,33.4815249 159.364257,33.191855 159.597168,32.9640706 C159.830079,32.7362863 160.119383,32.5703944 160.465088,32.46639 C160.810793,32.3623855 161.152098,32.3103841 161.489014,32.3103841 C162.156986,32.3103841 162.799313,32.4488105 163.416016,32.7256673 C163.503907,32.7608237 163.555176,32.7784017 163.569824,32.7784017 C163.628418,32.7784017 163.684814,32.7249354 163.739014,32.6180013 L163.84668,32.6707357 Z M169.256592,35.9468587 L166.674805,35.9468587 L166.296875,36.7752279 C166.254394,36.8675135 166.233154,36.9517412 166.233154,37.0279134 C166.240479,37.1128748 166.315185,37.1758624 166.457275,37.2168783 L166.457275,37.3333333 L165.242188,37.3333333 L165.242188,37.2168783 C165.432618,37.1758624 165.579833,37.0469575 165.683838,36.8301595 L167.384521,33.1211751 C167.475342,32.9146311 167.520752,32.7740075 167.520752,32.6993001 C167.520752,32.60262 167.445313,32.5484213 167.294434,32.5367025 L167.294434,32.4092611 L168.724854,32.4092611 L168.724854,32.5367025 C168.581298,32.5616049 168.509521,32.6216629 168.509521,32.7168783 C168.509521,32.7652183 168.518677,32.8153887 168.536987,32.867391 C168.555298,32.9193932 168.579101,32.9746905 168.608398,33.0332845 C168.637695,33.0918785 168.664795,33.1453448 168.689697,33.1936849 L170.247559,36.5950521 C170.341309,36.792807 170.424804,36.9407547 170.498047,37.0388997 C170.571289,37.1370448 170.676757,37.1963703 170.814453,37.2168783 L170.814453,37.3333333 L169.526855,37.3333333 L169.526855,37.2168783 C169.664551,37.1905109 169.733398,37.1363123 169.733398,37.0542806 C169.733398,37.0352375 169.731201,37.0194906 169.726807,37.0070394 C169.722412,36.9945882 169.717651,36.9825033 169.712524,36.9707845 C169.707397,36.9590657 169.702637,36.9480795 169.698242,36.9378255 L169.256592,35.9468587 Z M169.04126,35.4700521 L167.968994,33.0574544 L166.881348,35.4700521 L169.04126,35.4700521 Z M177.213135,32.7784017 L176.663818,33.7254232 L176.556152,33.6617025 C176.57959,33.5767411 176.591309,33.5284018 176.591309,33.5166829 C176.591309,33.4331864 176.555054,33.3661705 176.482544,33.3156331 C176.410034,33.2650958 176.308594,33.2061364 176.178223,33.1387533 C175.75781,32.9292796 175.286868,32.8245443 174.765381,32.8245443 C174.135495,32.8245443 173.610354,32.9951969 173.189941,33.3365072 C172.721189,33.721763 172.486816,34.2498339 172.486816,34.9207357 C172.486816,35.2137059 172.557861,35.4960517 172.699951,35.7677816 C172.842042,36.0395114 173.03247,36.2676586 173.27124,36.4522298 C173.672609,36.7701025 174.173581,36.9290365 174.77417,36.9290365 C175.062746,36.9290365 175.349852,36.8803309 175.635498,36.7829183 C175.921144,36.6855057 176.173827,36.548178 176.393555,36.370931 C176.438965,36.3387043 176.480346,36.3075766 176.5177,36.2775472 C176.555054,36.2475178 176.59021,36.2127281 176.623169,36.1731771 C176.656128,36.1336261 176.672607,36.0940757 176.672607,36.0545247 C176.672607,36.0252277 176.661621,35.9831139 176.639648,35.928182 C176.617676,35.8732501 176.601563,35.8406576 176.591309,35.8304036 L176.690186,35.7666829 L177.384521,36.6411947 L177.294434,36.7202962 C177.202148,36.6309403 177.129639,36.586263 177.076904,36.586263 C177.044678,36.586263 177.00586,36.6045734 176.960449,36.6411947 C176.638182,36.8990085 176.285158,37.0967604 175.901367,37.2344564 C175.517576,37.3721524 175.120608,37.4409993 174.710449,37.4409993 C173.901851,37.4409993 173.241946,37.2307964 172.730713,36.8103841 C172.452391,36.5818673 172.232667,36.2998877 172.071533,35.9644368 C171.9104,35.628986 171.829834,35.281089 171.829834,34.9207357 C171.829834,34.5120422 171.905639,34.1454687 172.057251,33.8210042 C172.208863,33.4965397 172.419066,33.2215181 172.687866,32.995931 C172.956666,32.7703439 173.265745,32.5996913 173.615112,32.4839681 C173.964479,32.3682449 174.338377,32.3103841 174.736816,32.3103841 C175.451664,32.3103841 176.12988,32.4846988 176.771484,32.8333333 C176.849121,32.8626304 176.893799,32.8772786 176.905518,32.8772786 C176.952393,32.8772786 177.019043,32.826742 177.105469,32.7256673 L177.213135,32.7784017 Z M181.660645,32.888265 L181.660645,36.8389486 C181.660645,36.953207 181.68042,37.036336 181.719971,37.0883382 C181.759522,37.1403404 181.835693,37.1831867 181.948486,37.2168783 L181.948486,37.3333333 L180.750977,37.3333333 L180.750977,37.2168783 C180.862305,37.1846515 180.936645,37.1425377 180.973999,37.0905355 C181.011353,37.0385333 181.030029,36.9546718 181.030029,36.8389486 L181.030029,32.888265 L179.428223,32.888265 C179.312499,32.888265 179.227539,32.9084064 179.17334,32.9486898 C179.11914,32.9889732 179.078125,33.0647781 179.050293,33.1761068 L178.933838,33.1761068 L178.933838,32.1324056 L179.050293,32.1324056 C179.078125,32.2378749 179.119507,32.3103839 179.174438,32.3499349 C179.22937,32.3894859 179.313964,32.4092611 179.428223,32.4092611 L183.27124,32.4092611 C183.384034,32.4092611 183.467529,32.3891197 183.521729,32.3488363 C183.575928,32.3085529 183.615478,32.23641 183.640381,32.1324056 L183.765625,32.1324056 L183.765625,33.1761068 L183.640381,33.1761068 C183.615478,33.0662429 183.575196,32.9908042 183.519531,32.9497884 C183.463867,32.9087726 183.378174,32.888265 183.262451,32.888265 L181.660645,32.888265 Z M186.646484,37.2168783 L186.646484,37.3333333 L185.451172,37.3333333 L185.451172,37.2168783 C185.562501,37.1846515 185.636841,37.1425377 185.674194,37.0905355 C185.711548,37.0385333 185.730225,36.9546718 185.730225,36.8389486 L185.730225,32.9146322 C185.730225,32.7974441 185.711182,32.7117516 185.673096,32.6575521 C185.63501,32.6033526 185.561036,32.5630698 185.451172,32.5367025 L185.451172,32.4092611 L186.646484,32.4092611 L186.646484,32.5367025 C186.535156,32.5630698 186.459351,32.6033526 186.419067,32.6575521 C186.378784,32.7117516 186.358643,32.7974441 186.358643,32.9146322 L186.358643,36.8389486 C186.358643,36.953207 186.378418,37.036336 186.417969,37.0883382 C186.45752,37.1403404 186.533691,37.1831867 186.646484,37.2168783 L186.646484,37.2168783 Z M194.523926,34.8767904 C194.523926,35.2371437 194.449586,35.5824772 194.300903,35.9128011 C194.152221,36.243125 193.941652,36.5247384 193.669189,36.7576497 C193.128659,37.2132184 192.426274,37.4409993 191.562012,37.4409993 C190.69189,37.4409993 189.987307,37.2132184 189.448242,36.7576497 C189.177245,36.5262033 188.966676,36.2449561 188.816528,35.9138997 C188.666381,35.5828434 188.591309,35.2371437 188.591309,34.8767904 C188.591309,34.5135073 188.666381,34.166709 188.816528,33.8363851 C188.966676,33.5060612 189.177245,33.2259126 189.448242,32.995931 C189.725099,32.76009 190.045164,32.5868739 190.408447,32.4762777 C190.77173,32.3656814 191.156248,32.3103841 191.562012,32.3103841 C192.426274,32.3103841 193.128659,32.5388975 193.669189,32.995931 C193.941652,33.2273775 194.152221,33.5078922 194.300903,33.8374837 C194.449586,34.1670752 194.523926,34.5135073 194.523926,34.8767904 L194.523926,34.8767904 Z M193.866943,34.8767904 C193.866943,34.4622375 193.761842,34.0989599 193.551636,33.7869466 C193.34143,33.4749333 193.05945,33.2365324 192.705688,33.0717367 C192.351927,32.9069409 191.970705,32.8245443 191.562012,32.8245443 C191.150389,32.8245443 190.76697,32.9069409 190.411743,33.0717367 C190.056517,33.2365324 189.773805,33.4749333 189.563599,33.7869466 C189.353393,34.0989599 189.248291,34.4622375 189.248291,34.8767904 C189.248291,35.2913432 189.353393,35.6546208 189.563599,35.9666341 C189.773805,36.2786474 190.056517,36.5170483 190.411743,36.6818441 C190.76697,36.8466398 191.150389,36.9290365 191.562012,36.9290365 C191.970705,36.9290365 192.351927,36.8466398 192.705688,36.6818441 C193.05945,36.5170483 193.34143,36.2786474 193.551636,35.9666341 C193.761842,35.6546208 193.866943,35.2913432 193.866943,34.8767904 L193.866943,34.8767904 Z M197.259766,33.1848958 L197.259766,36.8389486 C197.259766,36.9546718 197.278442,37.0385333 197.315796,37.0905355 C197.35315,37.1425377 197.42749,37.1846515 197.538818,37.2168783 L197.538818,37.3333333 L196.451172,37.3333333 L196.451172,37.2168783 C196.562501,37.1846515 196.636841,37.1425377 196.674194,37.0905355 C196.711548,37.0385333 196.730225,36.9546718 196.730225,36.8389486 L196.730225,32.9146322 C196.730225,32.7974441 196.711182,32.7117516 196.673096,32.6575521 C196.63501,32.6033526 196.561036,32.5630698 196.451172,32.5367025 L196.451172,32.4092611 L198.052979,32.4092611 L198.052979,32.5367025 C197.896239,32.5747886 197.817871,32.6436356 197.817871,32.7432454 C197.817871,32.8399256 197.874999,32.9512526 197.989258,33.0772298 L200.887451,36.3247884 L200.887451,32.9146322 C200.887451,32.7974441 200.868408,32.7117516 200.830322,32.6575521 C200.792236,32.6033526 200.718262,32.5630698 200.608398,32.5367025 L200.608398,32.4092611 L201.698242,32.4092611 L201.698242,32.5367025 C201.588378,32.5630698 201.514404,32.6033526 201.476318,32.6575521 C201.438232,32.7117516 201.419189,32.7974441 201.419189,32.9146322 L201.419189,36.8389486 C201.419189,36.9546718 201.437866,37.0385333 201.47522,37.0905355 C201.512573,37.1425377 201.586914,37.1846515 201.698242,37.2168783 L201.698242,37.3333333 L200.410645,37.3333333 L200.410645,37.2168783 C200.494141,37.1890461 200.552368,37.1663412 200.585327,37.148763 C200.618286,37.1311848 200.634766,37.0967613 200.634766,37.0454915 C200.634766,36.9825029 200.61792,36.9297691 200.584229,36.8872884 C200.550537,36.8448077 200.495606,36.7832849 200.419434,36.7027181 L197.259766,33.1848958 Z M213.759521,31.7083333 L213.128906,32.8421224 L213.003662,32.7696126 C213.052002,32.6729325 213.076172,32.5952965 213.076172,32.5367025 C213.076172,32.4414872 212.967775,32.3455408 212.750977,32.2488607 C212.160642,31.9720038 211.557864,31.8335775 210.942627,31.8335775 C210.362546,31.8335775 209.870363,31.9331859 209.466064,32.1324056 C209.290282,32.2188318 209.141602,32.3389478 209.02002,32.4927572 C208.898437,32.6465665 208.837646,32.8142895 208.837646,32.995931 C208.837646,33.1512052 208.880859,33.2954909 208.967285,33.4287923 C209.053711,33.5620938 209.169433,33.6609697 209.314453,33.7254232 C209.515138,33.8147791 209.724608,33.8682454 209.942871,33.8858236 C210.073243,33.9004721 210.403562,33.9217121 210.933838,33.9495443 C211.588626,33.9612631 212.077879,33.9912921 212.401611,34.0396322 C212.849856,34.1128747 213.201781,34.2784004 213.457397,34.5362142 C213.713014,34.794028 213.84082,35.1441221 213.84082,35.5865072 C213.84082,35.7505705 213.81189,35.9117017 213.754028,36.0699056 C213.696167,36.2281095 213.617066,36.3742262 213.516724,36.5082601 C213.416381,36.642294 213.299561,36.7613113 213.16626,36.8653158 C212.649167,37.2491067 211.959233,37.4409993 211.096436,37.4409993 C210.220455,37.4409993 209.416263,37.2491067 208.683838,36.8653158 C208.408446,36.7027173 208.234131,36.6214193 208.160889,36.6214193 C208.119873,36.6214193 208.048096,36.6726883 207.945557,36.7752279 L207.829102,36.7027181 L208.486084,35.6062826 L208.611328,35.667806 C208.557129,35.7791347 208.530029,35.8604327 208.530029,35.9117025 C208.530029,35.9629723 208.564819,36.0168047 208.634399,36.0732015 C208.70398,36.1295983 208.78894,36.1845294 208.889282,36.2379964 C208.989625,36.2914635 209.055908,36.3262532 209.088135,36.3423665 C209.429445,36.5196135 209.741454,36.6426592 210.02417,36.7115072 C210.318605,36.7964685 210.669432,36.8389486 211.07666,36.8389486 C211.822269,36.8389486 212.386961,36.677085 212.770752,36.3533529 C213.022706,36.1336252 213.148682,35.8846043 213.148682,35.6062826 C213.148682,35.0071585 212.662358,34.6856285 211.689697,34.6416829 L210.77124,34.6065267 C210.336179,34.5948079 209.968507,34.5655113 209.668213,34.5186361 C209.367918,34.4717608 209.087404,34.3750821 208.82666,34.228597 C208.617186,34.1070144 208.452393,33.9396576 208.332275,33.7265218 C208.212158,33.513386 208.1521,33.2874361 208.1521,33.0486654 C208.1521,32.6136046 208.297484,32.2598484 208.588257,31.9873861 C208.87903,31.7149238 209.237913,31.5208339 209.664917,31.4051107 C210.091921,31.2893874 210.52075,31.2315267 210.951416,31.2315267 C211.70142,31.2315267 212.463863,31.4051089 213.23877,31.7522786 C213.338379,31.7947593 213.397705,31.8159993 213.416748,31.8159993 C213.457764,31.8159993 213.530273,31.758871 213.634277,31.6446126 L213.759521,31.7083333 Z M216.919434,37.2168783 L216.919434,37.3333333 L215.724121,37.3333333 L215.724121,37.2168783 C215.83545,37.1846515 215.90979,37.1425377 215.947144,37.0905355 C215.984497,37.0385333 216.003174,36.9546718 216.003174,36.8389486 L216.003174,32.9146322 C216.003174,32.7974441 215.984131,32.7117516 215.946045,32.6575521 C215.907959,32.6033526 215.833985,32.5630698 215.724121,32.5367025 L215.724121,32.4092611 L216.919434,32.4092611 L216.919434,32.5367025 C216.808105,32.5630698 216.7323,32.6033526 216.692017,32.6575521 C216.651733,32.7117516 216.631592,32.7974441 216.631592,32.9146322 L216.631592,36.8389486 C216.631592,36.953207 216.651367,37.036336 216.690918,37.0883382 C216.730469,37.1403404 216.80664,37.1831867 216.919434,37.2168783 L216.919434,37.2168783 Z M221.881104,37.3333333 L219.791504,33.1848958 L219.791504,36.8389486 C219.791504,36.9546718 219.81018,37.0385333 219.847534,37.0905355 C219.884888,37.1425377 219.959228,37.1846515 220.070557,37.2168783 L220.070557,37.3333333 L218.98291,37.3333333 L218.98291,37.2168783 C219.094239,37.1846515 219.168579,37.1425377 219.205933,37.0905355 C219.243286,37.0385333 219.261963,36.9546718 219.261963,36.8389486 L219.261963,32.9146322 C219.261963,32.7974441 219.24292,32.7117516 219.204834,32.6575521 C219.166748,32.6033526 219.092774,32.5630698 218.98291,32.5367025 L218.98291,32.4092611 L220.48584,32.4092611 L220.48584,32.5367025 C220.33496,32.5659995 220.259521,32.6201982 220.259521,32.6993001 C220.259521,32.7564293 220.29541,32.8582349 220.367188,33.0047201 L221.925049,36.1446126 L223.48291,33.0047201 C223.554688,32.8714186 223.590576,32.7754723 223.590576,32.7168783 C223.590576,32.6289872 223.5188,32.5689292 223.375244,32.5367025 L223.375244,32.4092611 L224.878174,32.4092611 L224.878174,32.5367025 C224.77124,32.5630698 224.697998,32.6037188 224.658447,32.6586507 C224.618896,32.7135826 224.599121,32.7989089 224.599121,32.9146322 L224.599121,36.8389486 C224.599121,36.9517421 224.61853,37.0345049 224.657349,37.0872396 C224.696167,37.1399742 224.769775,37.1831867 224.878174,37.2168783 L224.878174,37.3333333 L223.689453,37.3333333 L223.689453,37.2168783 C223.799317,37.1831867 223.873291,37.1403404 223.911377,37.0883382 C223.949463,37.036336 223.968506,36.953207 223.968506,36.8389486 L223.968506,33.1848958 L221.881104,37.3333333 Z M227.846924,35.1184896 L227.846924,36.8741048 C227.846924,37.0337736 227.937011,37.1385089 228.117188,37.1883138 L228.117188,37.3333333 L226.939453,37.3333333 L226.939453,37.1883138 C227.125489,37.137044 227.218506,37.0323087 227.218506,36.8741048 L227.218506,32.8421224 C227.218506,32.6868482 227.125489,32.5879722 226.939453,32.5454915 L226.939453,32.4092611 L229.66626,32.4092611 C229.969484,32.4092611 230.224364,32.4228107 230.430908,32.4499105 C230.637452,32.4770102 230.826415,32.5418289 230.997803,32.6443685 C231.182374,32.7630214 231.324462,32.9226878 231.424072,33.1233724 C231.523682,33.324057 231.573486,33.5393869 231.573486,33.7693685 C231.573486,34.000815 231.524048,34.2168773 231.425171,34.4175618 C231.326293,34.6182464 231.180909,34.7742507 230.989014,34.8855794 C230.811767,34.9866542 230.623536,35.0507404 230.424316,35.0778402 C230.225097,35.1049399 229.972414,35.1184896 229.66626,35.1184896 L227.846924,35.1184896 Z M227.846924,34.6416829 L229.584961,34.6416829 C229.88672,34.6416829 230.129516,34.6266684 230.313354,34.596639 C230.497193,34.5666096 230.652831,34.487875 230.780273,34.3604329 C230.907715,34.2329909 230.971436,34.0359714 230.971436,33.7693685 C230.971436,33.5027656 230.907715,33.3057461 230.780273,33.178304 C230.652831,33.050862 230.497193,32.9721274 230.313354,32.942098 C230.129516,32.9120685 229.88672,32.897054 229.584961,32.897054 L227.846924,32.897054 L227.846924,34.6416829 Z M234.247803,36.8477376 L237.253662,36.8477376 C237.37085,36.8477376 237.456543,36.8286949 237.510742,36.7906087 C237.564942,36.7525226 237.605224,36.6785487 237.631592,36.5686849 L237.750244,36.5686849 L237.750244,37.6123861 L237.631592,37.6123861 C237.605224,37.5025222 237.564942,37.4285484 237.510742,37.3904622 C237.456543,37.3523761 237.37085,37.3333333 237.253662,37.3333333 L233.340332,37.3333333 L233.340332,37.2080892 C233.450196,37.180257 233.52417,37.1392418 233.562256,37.0850423 C233.600342,37.0308428 233.619385,36.9458827 233.619385,36.8301595 L233.619385,32.9058431 C233.619385,32.788655 233.600342,32.7029625 233.562256,32.648763 C233.52417,32.5945635 233.450196,32.5542807 233.340332,32.5279134 L233.340332,32.4092611 L234.535645,32.4092611 L234.535645,32.5279134 C234.424316,32.5542807 234.348511,32.5945635 234.308228,32.648763 C234.267944,32.7029625 234.247803,32.788655 234.247803,32.9058431 L234.247803,36.8477376 Z M240.558594,37.2168783 L240.558594,37.3333333 L239.363281,37.3333333 L239.363281,37.2168783 C239.47461,37.1846515 239.54895,37.1425377 239.586304,37.0905355 C239.623657,37.0385333 239.642334,36.9546718 239.642334,36.8389486 L239.642334,32.9146322 C239.642334,32.7974441 239.623291,32.7117516 239.585205,32.6575521 C239.547119,32.6033526 239.473145,32.5630698 239.363281,32.5367025 L239.363281,32.4092611 L240.558594,32.4092611 L240.558594,32.5367025 C240.447265,32.5630698 240.37146,32.6033526 240.331177,32.6575521 C240.290893,32.7117516 240.270752,32.7974441 240.270752,32.9146322 L240.270752,36.8389486 C240.270752,36.953207 240.290527,37.036336 240.330078,37.0883382 C240.369629,37.1403404 240.4458,37.1831867 240.558594,37.2168783 L240.558594,37.2168783 Z M243.529541,35.0284017 L243.529541,36.8389486 C243.529541,36.953207 243.549316,37.036336 243.588867,37.0883382 C243.628418,37.1403404 243.704589,37.1831867 243.817383,37.2168783 L243.817383,37.3333333 L242.62207,37.3333333 L242.62207,37.2168783 C242.733399,37.1846515 242.807739,37.1425377 242.845093,37.0905355 C242.882446,37.0385333 242.901123,36.9546718 242.901123,36.8389486 L242.901123,32.9146322 C242.901123,32.7974441 242.88208,32.7117516 242.843994,32.6575521 C242.805908,32.6033526 242.731934,32.5630698 242.62207,32.5367025 L242.62207,32.4092611 L246.616699,32.4092611 C246.733887,32.4092611 246.819946,32.3902183 246.874878,32.3521322 C246.92981,32.314046 246.969726,32.2408046 246.994629,32.1324056 L247.113281,32.1324056 L247.113281,33.1761068 L246.994629,33.1761068 C246.969726,33.0662429 246.92981,32.9922691 246.874878,32.9541829 C246.819946,32.9160968 246.733887,32.897054 246.616699,32.897054 L243.529541,32.897054 L243.529541,34.542806 L245.537842,34.542806 C245.653565,34.542806 245.739258,34.523397 245.794922,34.4845785 C245.850586,34.4457599 245.890869,34.3721522 245.915771,34.2637533 L246.032227,34.2637533 L246.032227,35.3074544 L245.915771,35.3074544 C245.890869,35.1990554 245.850586,35.1254478 245.794922,35.0866292 C245.739258,35.0478107 245.653565,35.0284017 245.537842,35.0284017 L243.529541,35.0284017 Z M250.119385,37.2168783 L250.119385,37.3333333 L248.924072,37.3333333 L248.924072,37.2168783 C249.035401,37.1846515 249.109741,37.1425377 249.147095,37.0905355 C249.184448,37.0385333 249.203125,36.9546718 249.203125,36.8389486 L249.203125,32.9146322 C249.203125,32.7974441 249.184082,32.7117516 249.145996,32.6575521 C249.10791,32.6033526 249.033936,32.5630698 248.924072,32.5367025 L248.924072,32.4092611 L250.119385,32.4092611 L250.119385,32.5367025 C250.008056,32.5630698 249.932251,32.6033526 249.891968,32.6575521 C249.851684,32.7117516 249.831543,32.7974441 249.831543,32.9146322 L249.831543,36.8389486 C249.831543,36.953207 249.851318,37.036336 249.890869,37.0883382 C249.93042,37.1403404 250.006591,37.1831867 250.119385,37.2168783 L250.119385,37.2168783 Z M253.081543,35.0284017 L253.081543,36.8477376 L256.124756,36.8477376 C256.240479,36.8477376 256.326172,36.8283286 256.381836,36.7895101 C256.4375,36.7506915 256.477783,36.6770839 256.502686,36.5686849 L256.62793,36.5686849 L256.62793,37.6123861 L256.502686,37.6123861 C256.477783,37.5039871 256.4375,37.4303794 256.381836,37.3915609 C256.326172,37.3527423 256.240479,37.3333333 256.124756,37.3333333 L252.174072,37.3333333 L252.174072,37.2080892 C252.283936,37.180257 252.35791,37.1392418 252.395996,37.0850423 C252.434082,37.0308428 252.453125,36.9458827 252.453125,36.8301595 L252.453125,32.9058431 C252.453125,32.788655 252.434082,32.7029625 252.395996,32.648763 C252.35791,32.5945635 252.283936,32.5542807 252.174072,32.5279134 L252.174072,32.4092611 L256.096191,32.4092611 C256.211915,32.4092611 256.297241,32.3891197 256.352173,32.3488363 C256.407105,32.3085529 256.447754,32.23641 256.474121,32.1324056 L256.592773,32.1324056 L256.592773,33.1761068 L256.474121,33.1761068 C256.449219,33.0662429 256.409302,32.9908042 256.35437,32.9497884 C256.299438,32.9087726 256.213379,32.888265 256.096191,32.888265 L253.081543,32.888265 L253.081543,34.5515951 L254.999756,34.5515951 C255.115479,34.5515951 255.200805,34.5310874 255.255737,34.4900716 C255.310669,34.4490558 255.351318,34.3736171 255.377686,34.2637533 L255.50293,34.2637533 L255.50293,35.3074544 L255.377686,35.3074544 C255.351318,35.2019851 255.310669,35.1291099 255.255737,35.0888265 C255.200805,35.0485431 255.115479,35.0284017 254.999756,35.0284017 L253.081543,35.0284017 Z M258.546387,37.3333333 L258.546387,37.2168783 C258.657715,37.1846515 258.732055,37.1425377 258.769409,37.0905355 C258.806763,37.0385333 258.825439,36.9546718 258.825439,36.8389486 L258.825439,32.9146322 C258.825439,32.7974441 258.806397,32.7117516 258.768311,32.6575521 C258.730224,32.6033526 258.656251,32.5630698 258.546387,32.5367025 L258.546387,32.4092611 L261.038086,32.4092611 C261.313478,32.4092611 261.561766,32.4224445 261.782959,32.4488118 C262.004151,32.4751792 262.22058,32.5301103 262.432251,32.6136068 C262.643922,32.6971033 262.833251,32.8186841 263.000244,32.9783529 C263.164307,33.1350919 263.303832,33.3167307 263.418823,33.5232747 C263.533814,33.7298187 263.620239,33.9484445 263.678101,34.1791585 C263.735962,34.4098726 263.764893,34.6424142 263.764893,34.8767904 C263.764893,35.2356789 263.699341,35.5835758 263.568237,35.9204915 C263.437133,36.2574073 263.247804,36.5393869 263.000244,36.7664388 C262.74536,36.9993501 262.464113,37.1520586 262.156494,37.2245687 C261.848875,37.2970788 261.476076,37.3333333 261.038086,37.3333333 L258.546387,37.3333333 Z M259.453857,36.8565267 L261.00293,36.8565267 C261.235841,36.8565267 261.447875,36.8433432 261.639038,36.8169759 C261.830201,36.7906086 262.013305,36.7371423 262.188354,36.6565755 C262.363404,36.5760087 262.513915,36.4595548 262.639893,36.3072103 C262.951906,35.9380678 263.10791,35.4612659 263.10791,34.8767904 C263.10791,34.270342 262.951906,33.7898781 262.639893,33.4353841 C262.449462,33.2156565 262.222047,33.0710046 261.957642,33.0014242 C261.693236,32.9318437 261.375002,32.897054 261.00293,32.897054 L259.453857,32.897054 L259.453857,36.8565267 Z" id="Blockchain-Transacti" fill="#7F7F7F"></path>
                <path d="M71.75,20.82 C72.8300054,20.82 73.5899978,20.6850014 74.03,20.415 C74.4700022,20.1449987 74.69,19.6800033 74.69,19.02 C74.69,18.3599967 74.4700022,17.8950014 74.03,17.625 C73.5899978,17.3549987 72.8300054,17.22 71.75,17.22 L66.65,17.22 L66.65,20.82 L71.75,20.82 Z M70.73,14.16 C71.3700032,14.16 71.8999979,14.1450002 72.32,14.115 C72.7400021,14.0849999 73.0699988,14.0200005 73.31,13.92 C73.5500012,13.8199995 73.7199995,13.6800009 73.82,13.5 C73.9200005,13.3199991 73.97,13.0800015 73.97,12.78 C73.97,12.4799985 73.9200005,12.2400009 73.82,12.06 C73.7199995,11.8799991 73.5500012,11.7400005 73.31,11.64 C73.0699988,11.5399995 72.7400021,11.4750002 72.32,11.445 C71.8999979,11.4149999 71.3700032,11.4 70.73,11.4 L66.65,11.4 L66.65,14.16 L70.73,14.16 Z M62.15,9.12 C62.15,8.9799993 62.1050005,8.86500045 62.015,8.775 C61.9249995,8.68499955 61.6900019,8.6200002 61.31,8.58 L61.31,8.22 L72.74,8.22 C73.5600041,8.22 74.3099966,8.2999992 74.99,8.46 C75.6700034,8.6200008 76.2599975,8.86499835 76.76,9.195 C77.2600025,9.52500165 77.6499986,9.95499735 77.93,10.485 C78.2100014,11.0150027 78.35,11.6499963 78.35,12.39 C78.35,13.2900045 78.0800027,14.0149973 77.54,14.565 C76.9999973,15.1150028 76.3100042,15.4799991 75.47,15.66 L75.47,15.72 C76.4900051,16.0000014 77.3249967,16.4299971 77.975,17.01 C78.6250032,17.5900029 78.95,18.4399944 78.95,19.56 C78.95,20.160003 78.8350011,20.7299973 78.605,21.27 C78.3749988,21.8100027 78.0150024,22.279998 77.525,22.68 C77.0349975,23.080002 76.4050038,23.3999988 75.635,23.64 C74.8649961,23.8800012 73.9500053,24 72.89,24 L61.31,24 L61.31,23.64 C61.6900019,23.5999998 61.9249995,23.5350005 62.015,23.445 C62.1050005,23.3549996 62.15,23.2400007 62.15,23.1 L62.15,9.12 Z M81.7400005,11.7 C81.7400005,11.4799989 81.6600013,11.3400003 81.5000005,11.28 C81.3399997,11.2199997 81.1500016,11.1800001 80.9300005,11.16 L80.9300005,10.8 L86.5400005,10.8 L86.5400005,11.16 C86.3199994,11.1800001 86.1350012,11.2199997 85.9850005,11.28 C85.8349997,11.3400003 85.7600005,11.4799989 85.7600005,11.7 L85.7600005,20.94 L93.9800005,20.94 C94.1000011,20.94 94.2199999,20.8950005 94.3400005,20.805 C94.4600011,20.7149996 94.5200005,20.5100016 94.5200005,20.19 L94.8800005,20.19 L94.8800005,24.66 L94.5200005,24.66 C94.5200005,24.3399984 94.4600011,24.1500003 94.3400005,24.09 C94.2199999,24.0299997 94.1000011,24 93.9800005,24 L80.9300005,24 L80.9300005,23.64 C81.1500016,23.6199999 81.3399997,23.5800003 81.5000005,23.52 C81.6600013,23.4599997 81.7400005,23.3200011 81.7400005,23.1 L81.7400005,11.7 Z M103.490001,13.8 C102.929998,13.8 102.400003,13.8849992 101.900001,14.055 C101.399998,14.2250009 100.960003,14.4649985 100.580001,14.775 C100.199999,15.0850016 99.905002,15.4599978 99.695001,15.9 C99.4849999,16.3400022 99.380001,16.8399972 99.380001,17.4 C99.380001,17.9600028 99.4849999,18.4599978 99.695001,18.9 C99.905002,19.3400022 100.199999,19.7149985 100.580001,20.025 C100.960003,20.3350016 101.399998,20.5749992 101.900001,20.745 C102.400003,20.9150009 102.929998,21 103.490001,21 C104.070004,21 104.604999,20.9150009 105.095001,20.745 C105.585003,20.5749992 106.019999,20.3350016 106.400001,20.025 C106.780003,19.7149985 107.075,19.3400022 107.285001,18.9 C107.495002,18.4599978 107.600001,17.9600028 107.600001,17.4 C107.600001,16.8399972 107.495002,16.3400022 107.285001,15.9 C107.075,15.4599978 106.780003,15.0850016 106.400001,14.775 C106.019999,14.4649985 105.585003,14.2250009 105.095001,14.055 C104.604999,13.8849992 104.070004,13.8 103.490001,13.8 L103.490001,13.8 Z M103.490001,10.62 C104.430006,10.62 105.374996,10.7499987 106.325001,11.01 C107.275006,11.2700013 108.134997,11.6749973 108.905001,12.225 C109.675005,12.7750028 110.299999,13.4799957 110.780001,14.34 C111.260003,15.2000043 111.500001,16.2199941 111.500001,17.4 C111.500001,18.600006 111.260003,19.6249958 110.780001,20.475 C110.299999,21.3250043 109.675005,22.0199973 108.905001,22.56 C108.134997,23.1000027 107.275006,23.4899988 106.325001,23.73 C105.374996,23.9700012 104.430006,24.09 103.490001,24.09 C102.549996,24.09 101.605006,23.9700012 100.655001,23.73 C99.7049962,23.4899988 98.8450048,23.1000027 98.075001,22.56 C97.3049971,22.0199973 96.6800034,21.3250043 96.200001,20.475 C95.7199986,19.6249958 95.480001,18.600006 95.480001,17.4 C95.480001,16.2199941 95.7199986,15.2000043 96.200001,14.34 C96.6800034,13.4799957 97.3049971,12.7750028 98.075001,12.225 C98.8450048,11.6749973 99.7049962,11.2700013 100.655001,11.01 C101.605006,10.7499987 102.549996,10.62 103.490001,10.62 L103.490001,10.62 Z M125.510001,15.87 L125.090001,15.66 C125.110002,15.5799996 125.135001,15.5000004 125.165001,15.42 C125.195002,15.3399996 125.210001,15.2500005 125.210001,15.15 C125.210001,15.0299994 125.085003,14.8900008 124.835001,14.73 C124.585,14.5699992 124.265003,14.4250007 123.875001,14.295 C123.484999,14.1649994 123.045004,14.0500005 122.555001,13.95 C122.064999,13.8499995 121.570004,13.8 121.070001,13.8 C120.509999,13.8 119.940004,13.8699993 119.360001,14.01 C118.779999,14.1500007 118.260004,14.3649986 117.800001,14.655 C117.339999,14.9450015 116.960003,15.3149978 116.660001,15.765 C116.36,16.2150023 116.210001,16.7599968 116.210001,17.4 C116.210001,18.0200031 116.36,18.5599977 116.660001,19.02 C116.960003,19.4800023 117.339999,19.8549986 117.800001,20.145 C118.260004,20.4350015 118.779999,20.6499993 119.360001,20.79 C119.940004,20.9300007 120.509999,21 121.070001,21 C121.670004,21 122.234999,20.9250008 122.765001,20.775 C123.295004,20.6249993 123.764999,20.4450011 124.175001,20.235 C124.585003,20.024999 124.905,19.8150011 125.135001,19.605 C125.365003,19.394999 125.480001,19.2400005 125.480001,19.14 L125.480001,18.87 C125.480001,18.7499994 125.470002,18.6600003 125.450001,18.6 L125.780001,18.39 L128.630001,22.5 L128.270001,22.71 C128.090001,22.4899989 127.930002,22.38 127.790001,22.38 C127.710001,22.38 127.495003,22.4699991 127.145001,22.65 C126.795,22.8300009 126.330004,23.0349989 125.750001,23.265 C125.169999,23.4950012 124.485005,23.6899992 123.695001,23.85 C122.904997,24.0100008 122.030006,24.09 121.070001,24.09 C119.969996,24.09 118.895007,23.9800011 117.845001,23.76 C116.794996,23.5399989 115.860006,23.1650027 115.040001,22.635 C114.219997,22.1049974 113.560004,21.4100043 113.060001,20.55 C112.559999,19.6899957 112.310001,18.6400062 112.310001,17.4 C112.310001,16.1799939 112.559999,15.1400043 113.060001,14.28 C113.560004,13.4199957 114.219997,12.7200027 115.040001,12.18 C115.860006,11.6399973 116.794996,11.2450013 117.845001,10.995 C118.895007,10.7449988 119.969996,10.62 121.070001,10.62 C121.730005,10.62 122.369998,10.6749995 122.990001,10.785 C123.610005,10.8950006 124.179999,11.0099994 124.700001,11.13 C125.220004,11.2500006 125.67,11.3649995 126.050001,11.475 C126.430003,11.5850006 126.700001,11.64 126.860001,11.64 C126.960002,11.64 127.050001,11.6100003 127.130001,11.55 C127.210002,11.4899997 127.270001,11.4300003 127.310001,11.37 L127.670001,11.49 L125.510001,15.87 Z M139.400002,23.64 C139.540003,23.64 139.715001,23.6100003 139.925002,23.55 C140.135003,23.4899997 140.240002,23.3500011 140.240002,23.13 C140.240002,23.0699997 140.170003,22.9250012 140.030002,22.695 C139.890001,22.4649989 139.715003,22.1900016 139.505002,21.87 C139.295001,21.5499984 139.060003,21.195002 138.800002,20.805 C138.540001,20.4149981 138.290003,20.0450018 138.050002,19.695 C137.810001,19.3449983 137.595003,19.0300014 137.405002,18.75 C137.215001,18.4699986 137.080002,18.2600007 137.000002,18.12 L134.390002,20.64 L134.390002,23.1 C134.390002,23.3200011 134.480001,23.4599997 134.660002,23.52 C134.840003,23.5800003 135.030001,23.6199999 135.230002,23.64 L135.230002,24 L129.620002,24 L129.620002,23.64 C129.800003,23.6600001 129.970001,23.6300004 130.130002,23.55 C130.290003,23.4699996 130.370002,23.3200011 130.370002,23.1 L130.370002,11.7 C130.370002,11.4799989 130.290003,11.3300004 130.130002,11.25 C129.970001,11.1699996 129.800003,11.1399999 129.620002,11.16 L129.620002,10.8 L135.230002,10.8 L135.230002,11.16 C135.030001,11.1800001 134.840003,11.2199997 134.660002,11.28 C134.480001,11.3400003 134.390002,11.4799989 134.390002,11.7 L134.390002,17.22 C134.690003,16.9599987 135.045,16.6500018 135.455002,16.29 C135.865004,15.9299982 136.295,15.555002 136.745002,15.165 C137.195004,14.7749981 137.64,14.3900019 138.080002,14.01 C138.520004,13.6299981 138.915,13.2750017 139.265002,12.945 C139.615004,12.6149984 139.895001,12.3400011 140.105002,12.12 C140.315003,11.8999989 140.420002,11.7600003 140.420002,11.7 C140.420002,11.4799989 140.335003,11.3400003 140.165002,11.28 C139.995001,11.2199997 139.830003,11.1800001 139.670002,11.16 L139.670002,10.8 L145.520002,10.8 L145.520002,11.16 C145.22,11.2000002 144.830004,11.4099981 144.350002,11.79 C143.87,12.1700019 143.360005,12.6049976 142.820002,13.095 C142.279999,13.5850025 141.745005,14.0849975 141.215002,14.595 C140.684999,15.1050026 140.230004,15.5099985 139.850002,15.81 L144.830002,23.19 C144.930002,23.3500008 145.035001,23.4599997 145.145002,23.52 C145.255002,23.5800003 145.380001,23.6199999 145.520002,23.64 L145.520002,24 L139.400002,24 L139.400002,23.64 Z" id="Block" fill="#000000"></path>
                <g id="Group" transform="translate(0.000000, 8.000000)" fill="#4A4A4A">
                    <polygon id="Rectangle" points="22 0 32 0 32 10 22 9.99999996"></polygon>
                    <polygon id="Rectangle-Copy-5" points="5 22.0645161 5 10 15 10 15 22.0645161 20.0640698 22.1011783 9.73262032 29 2.5381155e-09 22.0645161"></polygon>
                    <polygon id="Rectangle-Copy-2" points="5 -1.9226718e-09 21 -1.9226718e-09 21 9.99999995 5 10"></polygon>
                </g>
                <g id="Group-Copy" transform="translate(31.971696, 14.610558) rotate(-180.000000) translate(-31.971696, -14.610558) translate(15.971696, 0.110558)" fill="#37D4B1">
                    <polygon id="Rectangle" points="22 -3.55271368e-15 32 -3.55271368e-15 32 10 22 9.99999996"></polygon>
                    <polygon id="Rectangle-Copy-5" points="5 22.0645161 5 10 15 10 15 22.0645161 20.0640698 22.1011783 9.73262032 29 2.53816523e-09 22.0645161"></polygon>
                    <polygon id="Rectangle-Copy-2" points="5 -1.92267535e-09 21 -1.92267535e-09 21 9.99999995 5 10"></polygon>
                </g>
            </g>
            <path d="M155,23.34 C155,23.4400005 155.035,23.5149998 155.105,23.565 C155.175,23.6150003 155.319999,23.64 155.54,23.64 L155.54,24 L150.23,24 L150.23,23.64 C150.450001,23.5999998 150.61,23.5350005 150.71,23.445 C150.810001,23.3549996 150.91,23.1900012 151.01,22.95 C151.05,22.8499995 151.149999,22.5800022 151.31,22.14 C151.470001,21.6999978 151.679999,21.1450034 151.94,20.475 C152.200001,19.8049967 152.489998,19.0600041 152.81,18.24 C153.130002,17.4199959 153.449998,16.5850043 153.77,15.735 C154.090002,14.8849958 154.404998,14.0550041 154.715,13.245 C155.025002,12.434996 155.299999,11.7100032 155.54,11.07 C155.780001,10.4299968 155.974999,9.910002 156.125,9.51 C156.275001,9.109998 156.35,8.9000001 156.35,8.88 C156.35,8.7799995 156.285001,8.7100002 156.155,8.67 C156.024999,8.6299998 155.890001,8.6000001 155.75,8.58 L155.75,8.22 L163.58,8.22 L163.58,8.58 C163.419999,8.6000001 163.290001,8.6299998 163.19,8.67 C163.09,8.7100002 163.04,8.8099992 163.04,8.97 C163.04,9.0100002 163.134999,9.2699976 163.325,9.75 C163.515001,10.2300024 163.759999,10.8549962 164.06,11.625 C164.360002,12.3950039 164.704998,13.2649952 165.095,14.235 C165.485002,15.2050049 165.889998,16.194995 166.31,17.205 C166.730002,18.2150051 167.134998,19.1999952 167.525,20.16 C167.915002,21.1200048 168.269998,21.9799962 168.59,22.74 C168.750001,23.1000018 168.884999,23.3399994 168.995,23.46 C169.105001,23.5800006 169.249999,23.64 169.43,23.64 L169.43,24 L163.52,24 L163.52,23.64 C163.900002,23.6199999 164.09,23.5000011 164.09,23.28 C164.09,23.2599999 164.040001,23.1250013 163.94,22.875 C163.84,22.6249988 163.730001,22.3450016 163.61,22.035 C163.489999,21.7249985 163.375001,21.4300014 163.265,21.15 C163.154999,20.8699986 163.09,20.6800005 163.07,20.58 L155.96,20.58 C155.759999,21.1200027 155.600001,21.5599983 155.48,21.9 C155.359999,22.2400017 155.265,22.509999 155.195,22.71 C155.125,22.910001 155.075,23.0549996 155.045,23.145 C155.015,23.2350005 155,23.2999998 155,23.34 L155,23.34 Z M162.29,18.18 L159.38,11.04 L156.71,18.18 L162.29,18.18 Z M183.5,15.87 L183.08,15.66 C183.100001,15.5799996 183.125,15.5000004 183.155,15.42 C183.185001,15.3399996 183.2,15.2500005 183.2,15.15 C183.2,15.0299994 183.075002,14.8900008 182.825,14.73 C182.574999,14.5699992 182.255002,14.4250007 181.865,14.295 C181.474999,14.1649994 181.035003,14.0500005 180.545,13.95 C180.054998,13.8499995 179.560003,13.8 179.06,13.8 C178.499998,13.8 177.930003,13.8699993 177.35,14.01 C176.769998,14.1500007 176.250003,14.3649986 175.79,14.655 C175.329998,14.9450015 174.950002,15.3149978 174.65,15.765 C174.349999,16.2150023 174.2,16.7599968 174.2,17.4 C174.2,18.0200031 174.349999,18.5599977 174.65,19.02 C174.950002,19.4800023 175.329998,19.8549986 175.79,20.145 C176.250003,20.4350015 176.769998,20.6499993 177.35,20.79 C177.930003,20.9300007 178.499998,21 179.06,21 C179.660003,21 180.224998,20.9250008 180.755,20.775 C181.285003,20.6249993 181.754998,20.4450011 182.165,20.235 C182.575003,20.024999 182.894999,19.8150011 183.125,19.605 C183.355002,19.394999 183.47,19.2400005 183.47,19.14 L183.47,18.87 C183.47,18.7499994 183.460001,18.6600003 183.44,18.6 L183.77,18.39 L186.62,22.5 L186.26,22.71 C186.08,22.4899989 185.920001,22.38 185.78,22.38 C185.7,22.38 185.485002,22.4699991 185.135,22.65 C184.784999,22.8300009 184.320003,23.0349989 183.74,23.265 C183.159998,23.4950012 182.475004,23.6899992 181.685,23.85 C180.894997,24.0100008 180.020005,24.09 179.06,24.09 C177.959995,24.09 176.885006,23.9800011 175.835,23.76 C174.784995,23.5399989 173.850005,23.1650027 173.03,22.635 C172.209996,22.1049974 171.550003,21.4100043 171.05,20.55 C170.549998,19.6899957 170.3,18.6400062 170.3,17.4 C170.3,16.1799939 170.549998,15.1400043 171.05,14.28 C171.550003,13.4199957 172.209996,12.7200027 173.03,12.18 C173.850005,11.6399973 174.784995,11.2450013 175.835,10.995 C176.885006,10.7449988 177.959995,10.62 179.06,10.62 C179.720004,10.62 180.359997,10.6749995 180.98,10.785 C181.600004,10.8950006 182.169998,11.0099994 182.69,11.13 C183.210003,11.2500006 183.659999,11.3649995 184.04,11.475 C184.420002,11.5850006 184.69,11.64 184.85,11.64 C184.950001,11.64 185.04,11.6100003 185.12,11.55 C185.200001,11.4899997 185.26,11.4300003 185.3,11.37 L185.66,11.49 L183.5,15.87 Z M200.630001,10.8 C200.750002,10.8 200.87,10.7600004 200.990001,10.68 C201.110002,10.5999996 201.170001,10.4200014 201.170001,10.14 L201.530001,10.14 L201.530001,14.52 L201.170001,14.52 C201.170001,14.2399986 201.110002,14.0600004 200.990001,13.98 C200.87,13.8999996 200.750002,13.86 200.630001,13.86 L196.340001,13.86 L196.340001,23.1 C196.340001,23.3200011 196.415,23.4599997 196.565001,23.52 C196.715002,23.5800003 196.87,23.6199999 197.030001,23.64 L197.030001,24 L191.630001,24 L191.630001,23.64 C191.790002,23.6199999 191.945,23.5800003 192.095001,23.52 C192.245002,23.4599997 192.320001,23.3200011 192.320001,23.1 L192.320001,13.86 L188.030001,13.86 C187.91,13.86 187.790002,13.8999996 187.670001,13.98 C187.55,14.0600004 187.490001,14.2399986 187.490001,14.52 L187.130001,14.52 L187.130001,10.14 L187.490001,10.14 C187.490001,10.4200014 187.55,10.5999996 187.670001,10.68 C187.790002,10.7600004 187.91,10.8 188.030001,10.8 L200.630001,10.8 Z M209.150001,11.16 C208.85,11.1800001 208.615002,11.2199997 208.445001,11.28 C208.275001,11.3400003 208.190001,11.4799989 208.190001,11.7 L208.190001,23.1 C208.190001,23.3200011 208.275001,23.4599997 208.445001,23.52 C208.615002,23.5800003 208.85,23.6199999 209.150001,23.64 L209.150001,24 L203.210001,24 L203.210001,23.64 C203.510003,23.6199999 203.745001,23.5800003 203.915001,23.52 C204.085002,23.4599997 204.170001,23.3200011 204.170001,23.1 L204.170001,11.7 C204.170001,11.4799989 204.085002,11.3400003 203.915001,11.28 C203.745001,11.2199997 203.510003,11.1800001 203.210001,11.16 L203.210001,10.8 L209.150001,10.8 L209.150001,11.16 Z M218.810002,13.8 C218.249999,13.8 217.720004,13.8849992 217.220002,14.055 C216.719999,14.2250009 216.280004,14.4649985 215.900002,14.775 C215.52,15.0850016 215.225003,15.4599978 215.015002,15.9 C214.805001,16.3400022 214.700002,16.8399972 214.700002,17.4 C214.700002,17.9600028 214.805001,18.4599978 215.015002,18.9 C215.225003,19.3400022 215.52,19.7149985 215.900002,20.025 C216.280004,20.3350016 216.719999,20.5749992 217.220002,20.745 C217.720004,20.9150009 218.249999,21 218.810002,21 C219.390005,21 219.924999,20.9150009 220.415002,20.745 C220.905004,20.5749992 221.34,20.3350016 221.720002,20.025 C222.100004,19.7149985 222.395001,19.3400022 222.605002,18.9 C222.815003,18.4599978 222.920002,17.9600028 222.920002,17.4 C222.920002,16.8399972 222.815003,16.3400022 222.605002,15.9 C222.395001,15.4599978 222.100004,15.0850016 221.720002,14.775 C221.34,14.4649985 220.905004,14.2250009 220.415002,14.055 C219.924999,13.8849992 219.390005,13.8 218.810002,13.8 L218.810002,13.8 Z M218.810002,10.62 C219.750007,10.62 220.694997,10.7499987 221.645002,11.01 C222.595007,11.2700013 223.454998,11.6749973 224.225002,12.225 C224.995006,12.7750028 225.62,13.4799957 226.100002,14.34 C226.580004,15.2000043 226.820002,16.2199941 226.820002,17.4 C226.820002,18.600006 226.580004,19.6249958 226.100002,20.475 C225.62,21.3250043 224.995006,22.0199973 224.225002,22.56 C223.454998,23.1000027 222.595007,23.4899988 221.645002,23.73 C220.694997,23.9700012 219.750007,24.09 218.810002,24.09 C217.869997,24.09 216.925007,23.9700012 215.975002,23.73 C215.024997,23.4899988 214.165006,23.1000027 213.395002,22.56 C212.624998,22.0199973 212.000004,21.3250043 211.520002,20.475 C211.04,19.6249958 210.800002,18.600006 210.800002,17.4 C210.800002,16.2199941 211.04,15.2000043 211.520002,14.34 C212.000004,13.4799957 212.624998,12.7750028 213.395002,12.225 C214.165006,11.6749973 215.024997,11.2700013 215.975002,11.01 C216.925007,10.7499987 217.869997,10.62 218.810002,10.62 L218.810002,10.62 Z M243.860002,23.1 C243.860002,23.3200011 243.940002,23.4599997 244.100002,23.52 C244.260003,23.5800003 244.460001,23.6199999 244.700002,23.64 L244.700002,24 L239.150002,24 L239.150002,23.64 C239.310003,23.64 239.495001,23.6200002 239.705002,23.58 C239.915003,23.5399998 240.020002,23.4300009 240.020002,23.25 C240.020002,23.0699991 239.800005,22.7350025 239.360002,22.245 C238.92,21.7549976 238.355006,21.1500036 237.665002,20.43 C236.974999,19.7099964 236.200007,18.9050045 235.340002,18.015 C234.479998,17.1249956 233.630007,16.180005 232.790002,15.18 L232.730002,15.24 L232.730002,23.1 C232.730002,23.3200011 232.805002,23.4599997 232.955002,23.52 C233.105003,23.5800003 233.290001,23.6199999 233.510002,23.64 L233.510002,24 L228.380002,24 L228.380002,23.64 C228.580003,23.6199999 228.755002,23.5800003 228.905002,23.52 C229.055003,23.4599997 229.130002,23.3200011 229.130002,23.1 L229.130002,11.7 C229.130002,11.4799989 229.050003,11.3400003 228.890002,11.28 C228.730002,11.2199997 228.540003,11.1800001 228.320002,11.16 L228.320002,10.8 L235.460002,10.8 L235.460002,11.16 C235.320002,11.1800001 235.180003,11.2199997 235.040002,11.28 C234.900002,11.3400003 234.830002,11.4799989 234.830002,11.7 C234.830002,11.7400002 234.995001,11.9449982 235.325002,12.315 C235.655004,12.6850019 236.08,13.1499972 236.600002,13.71 C237.120005,14.2700028 237.699999,14.8899966 238.340002,15.57 C238.980006,16.2500034 239.619999,16.9299966 240.260002,17.61 L240.260002,11.7 C240.260002,11.4799989 240.180003,11.3400003 240.020002,11.28 C239.860002,11.2199997 239.660004,11.1800001 239.420002,11.16 L239.420002,10.8 L244.700002,10.8 L244.700002,11.16 C244.460001,11.1800001 244.260003,11.2199997 244.100002,11.28 C243.940002,11.3400003 243.860002,11.4799989 243.860002,11.7 L243.860002,23.1 Z" id="Action" fill="#37D4B1"></path>
        </g>
    </g>
</svg>