<?xml version="1.0" encoding="UTF-8"?>
<svg width="285px" height="43px" viewBox="0 0 285 43" version="1.1" xmlns="http://www.w3.org/2000/svg" xmlns:xlink="http://www.w3.org/1999/xlink">
    <!-- Generator: Sketch 39.1 (31720) - http://www.bohemiancoding.com/sketch -->
    <title>Group 14</title>
    <desc>Created with Sketch.</desc>
    <defs></defs>
    <g id="home" stroke="none" stroke-width="1" fill="none" fill-rule="evenodd">
        <g id="Desktop-HD" transform="translate(-167.000000, -68.000000)">
            <g id="Group-16" transform="translate(167.000000, 68.000000)">
                <g id="Group-14">
                    <g id="Group-13">
                        <path d="M82.6569824,36.3333333 L82.6569824,36.1883138 C82.7668463,36.1619465 82.8408201,36.1212975 82.8789062,36.0663656 C82.9169924,36.0114336 82.9360352,35.9261073 82.9360352,35.8103841 L82.9360352,30.8533529 C82.9360352,30.7361648 82.9169924,30.6504723 82.8789062,30.5962728 C82.8408201,30.5420733 82.7668463,30.5017905 82.6569824,30.4754232 L82.6569824,30.3304036 L86.2297363,30.3304036 C86.5417496,30.3304036 86.8197009,30.3545733 87.0635986,30.4029134 C87.3074963,30.4512535 87.5246573,30.5471998 87.7150879,30.6907552 C87.9069834,30.8328458 88.0552973,31.0130197 88.1600342,31.2312826 C88.264771,31.4495454 88.3171387,31.6802559 88.3171387,31.9234212 C88.3171387,32.5181508 88.0351591,32.9473457 87.4711914,33.2110189 C87.8051775,33.3252773 88.0644522,33.5047188 88.2490234,33.749349 C88.4335947,33.9939791 88.5258789,34.2913394 88.5258789,34.6414388 C88.5258789,34.8977877 88.4738775,35.1431466 88.369873,35.3775228 C88.2658686,35.611899 88.1135264,35.8015943 87.9128418,35.9466146 C87.6828602,36.1092131 87.4283461,36.2143145 87.149292,36.2619222 C86.8702379,36.3095299 86.536623,36.3333333 86.1484375,36.3333333 L82.6569824,36.3333333 Z M83.6281738,32.9231771 L85.9418945,32.9231771 C86.4824246,32.9231771 86.8786608,32.8748377 87.1306152,32.7781576 C87.2932137,32.7063798 87.4221187,32.5976163 87.517334,32.4518636 C87.6125493,32.3061109 87.6601562,32.1446135 87.6601562,31.9673665 C87.6601562,31.775471 87.6147465,31.5989591 87.5239258,31.4378255 C87.433105,31.2766919 87.3020028,31.1565759 87.1306152,31.077474 C86.8728014,30.9632156 86.4619169,30.9060872 85.8979492,30.9060872 L83.6281738,30.9060872 L83.6281738,32.9231771 Z M83.6281738,35.7664388 L86.0319824,35.7664388 C86.6018095,35.7664388 87.0156237,35.7093105 87.2734375,35.5950521 C87.4492196,35.5144853 87.5861811,35.3932707 87.6843262,35.2314046 C87.7824712,35.0695386 87.831543,34.8911956 87.831543,34.6963704 C87.831543,34.4766428 87.7846684,34.2766936 87.690918,34.0965169 C87.5971675,33.9163402 87.4580087,33.7801111 87.2734375,33.6878255 C87.0947257,33.5984696 86.9094248,33.5431723 86.7175293,33.521932 C86.5256338,33.5006916 86.2824722,33.4900716 85.9880371,33.4900716 L83.6281738,33.4900716 L83.6281738,35.7664388 Z M91.4418945,35.8477376 L94.4477539,35.8477376 C94.564942,35.8477376 94.6506345,35.8286949 94.704834,35.7906087 C94.7590335,35.7525226 94.7993163,35.6785487 94.8256836,35.5686849 L94.9443359,35.5686849 L94.9443359,36.6123861 L94.8256836,36.6123861 C94.7993163,36.5025222 94.7590335,36.4285484 94.704834,36.3904622 C94.6506345,36.3523761 94.564942,36.3333333 94.4477539,36.3333333 L90.5344238,36.3333333 L90.5344238,36.2080892 C90.6442877,36.180257 90.7182615,36.1392418 90.7563477,36.0850423 C90.7944338,36.0308428 90.8134766,35.9458827 90.8134766,35.8301595 L90.8134766,31.9058431 C90.8134766,31.788655 90.7944338,31.7029625 90.7563477,31.648763 C90.7182615,31.5945635 90.6442877,31.5542807 90.5344238,31.5279134 L90.5344238,31.4092611 L91.7297363,31.4092611 L91.7297363,31.5279134 C91.6184076,31.5542807 91.5426027,31.5945635 91.5023193,31.648763 C91.4620359,31.7029625 91.4418945,31.788655 91.4418945,31.9058431 L91.4418945,35.8477376 Z M101.8396,33.8767904 C101.8396,34.2371437 101.76526,34.5824772 101.616577,34.9128011 C101.467895,35.243125 101.257326,35.5247384 100.984863,35.7576497 C100.444333,36.2132184 99.7419477,36.4409993 98.8776855,36.4409993 C98.007564,36.4409993 97.3029812,36.2132184 96.763916,35.7576497 C96.4929186,35.5262033 96.2823494,35.2449561 96.1322021,34.9138997 C95.9820549,34.5828434 95.9069824,34.2371437 95.9069824,33.8767904 C95.9069824,33.5135073 95.9820549,33.166709 96.1322021,32.8363851 C96.2823494,32.5060612 96.4929186,32.2259126 96.763916,31.995931 C97.0407729,31.76009 97.360838,31.5868739 97.7241211,31.4762777 C98.0874042,31.3656814 98.4719218,31.3103841 98.8776855,31.3103841 C99.7419477,31.3103841 100.444333,31.5388975 100.984863,31.995931 C101.257326,32.2273775 101.467895,32.5078922 101.616577,32.8374837 C101.76526,33.1670752 101.8396,33.5135073 101.8396,33.8767904 L101.8396,33.8767904 Z M101.182617,33.8767904 C101.182617,33.4622375 101.077516,33.0989599 100.86731,32.7869466 C100.657103,32.4749333 100.375124,32.2365324 100.021362,32.0717367 C99.6676008,31.9069409 99.286379,31.8245443 98.8776855,31.8245443 C98.4660624,31.8245443 98.0826434,31.9069409 97.727417,32.0717367 C97.3721906,32.2365324 97.0894786,32.4749333 96.8792725,32.7869466 C96.6690663,33.0989599 96.5639648,33.4622375 96.5639648,33.8767904 C96.5639648,34.2913432 96.6690663,34.6546208 96.8792725,34.9666341 C97.0894786,35.2786474 97.3721906,35.5170483 97.727417,35.6818441 C98.0826434,35.8466398 98.4660624,35.9290365 98.8776855,35.9290365 C99.286379,35.9290365 99.6676008,35.8466398 100.021362,35.6818441 C100.375124,35.5170483 100.657103,35.2786474 100.86731,34.9666341 C101.077516,34.6546208 101.182617,34.2913432 101.182617,33.8767904 L101.182617,33.8767904 Z M109.031494,31.7784017 L108.482178,32.7254232 L108.374512,32.6617025 C108.397949,32.5767411 108.409668,32.5284018 108.409668,32.5166829 C108.409668,32.4331864 108.373413,32.3661705 108.300903,32.3156331 C108.228393,32.2650958 108.126954,32.2061364 107.996582,32.1387533 C107.57617,31.9292796 107.105227,31.8245443 106.58374,31.8245443 C105.953854,31.8245443 105.428713,31.9951969 105.008301,32.3365072 C104.539548,32.721763 104.305176,33.2498339 104.305176,33.9207357 C104.305176,34.2137059 104.37622,34.4960517 104.518311,34.7677816 C104.660401,35.0395114 104.850829,35.2676586 105.0896,35.4522298 C105.490969,35.7701025 105.99194,35.9290365 106.592529,35.9290365 C106.881105,35.9290365 107.168211,35.8803309 107.453857,35.7829183 C107.739503,35.6855057 107.992186,35.548178 108.211914,35.370931 C108.257324,35.3387043 108.298706,35.3075766 108.33606,35.2775472 C108.373413,35.2475178 108.408569,35.2127281 108.441528,35.1731771 C108.474487,35.1336261 108.490967,35.0940757 108.490967,35.0545247 C108.490967,35.0252277 108.479981,34.9831139 108.458008,34.928182 C108.436035,34.8732501 108.419922,34.8406576 108.409668,34.8304036 L108.508545,34.7666829 L109.202881,35.6411947 L109.112793,35.7202962 C109.020507,35.6309403 108.947998,35.586263 108.895264,35.586263 C108.863037,35.586263 108.824219,35.6045734 108.778809,35.6411947 C108.456541,35.8990085 108.103518,36.0967604 107.719727,36.2344564 C107.335936,36.3721524 106.938967,36.4409993 106.528809,36.4409993 C105.720211,36.4409993 105.060305,36.2307964 104.549072,35.8103841 C104.270751,35.5818673 104.051026,35.2998877 103.889893,34.9644368 C103.728759,34.628986 103.648193,34.281089 103.648193,33.9207357 C103.648193,33.5120422 103.723998,33.1454687 103.87561,32.8210042 C104.027222,32.4965397 104.237425,32.2215181 104.506226,31.995931 C104.775026,31.7703439 105.084105,31.5996913 105.433472,31.4839681 C105.782839,31.3682449 106.156736,31.3103841 106.555176,31.3103841 C107.270023,31.3103841 107.948239,31.4846988 108.589844,31.8333333 C108.667481,31.8626304 108.712158,31.8772786 108.723877,31.8772786 C108.770752,31.8772786 108.837402,31.826742 108.923828,31.7256673 L109.031494,31.7784017 Z M112.028809,34.4348958 L112.028809,35.8389486 C112.028809,35.953207 112.048584,36.036336 112.088135,36.0883382 C112.127686,36.1403404 112.203857,36.1831867 112.31665,36.2168783 L112.31665,36.3333333 L111.121338,36.3333333 L111.121338,36.2168783 C111.232667,36.1846515 111.307007,36.1425377 111.34436,36.0905355 C111.381714,36.0385333 111.400391,35.9546718 111.400391,35.8389486 L111.400391,31.9146322 C111.400391,31.7974441 111.381348,31.7117516 111.343262,31.6575521 C111.305176,31.6033526 111.231202,31.5630698 111.121338,31.5367025 L111.121338,31.4092611 L112.31665,31.4092611 L112.31665,31.5367025 C112.205322,31.5630698 112.129517,31.6033526 112.089233,31.6575521 C112.04895,31.7117516 112.028809,31.7974441 112.028809,31.9146322 L112.028809,33.8504232 L114.388672,32.0222982 C114.442871,31.9798175 114.496704,31.9373375 114.550171,31.8948568 C114.603638,31.8523761 114.64978,31.8106285 114.688599,31.7696126 C114.727417,31.7285968 114.746826,31.6956381 114.746826,31.6707357 C114.746826,31.5930986 114.69336,31.5484213 114.586426,31.5367025 L114.586426,31.4092611 L115.970703,31.4092611 L115.970703,31.5367025 C115.910644,31.5367025 115.850586,31.5506184 115.790527,31.5784505 C115.730468,31.6062827 115.675904,31.6370441 115.626831,31.6707357 C115.577759,31.7044273 115.542969,31.7285969 115.522461,31.7432454 L113.560303,33.2725423 L115.737793,36.0367025 C115.824219,36.149496 115.934814,36.209554 116.06958,36.2168783 L116.06958,36.3333333 L114.766602,36.3333333 L114.766602,36.2168783 C114.790039,36.2110189 114.816772,36.2033285 114.846802,36.193807 C114.876831,36.1842854 114.902466,36.1722006 114.923706,36.1575521 C114.944946,36.1429036 114.955566,36.1238608 114.955566,36.1004232 C114.955566,36.0550128 114.904297,35.9707851 114.801758,35.8477376 L113.092285,33.6328939 L112.028809,34.4348958 Z M122.479248,31.7784017 L121.929932,32.7254232 L121.822266,32.6617025 C121.845703,32.5767411 121.857422,32.5284018 121.857422,32.5166829 C121.857422,32.4331864 121.821167,32.3661705 121.748657,32.3156331 C121.676147,32.2650958 121.574708,32.2061364 121.444336,32.1387533 C121.023924,31.9292796 120.552981,31.8245443 120.031494,31.8245443 C119.401608,31.8245443 118.876467,31.9951969 118.456055,32.3365072 C117.987302,32.721763 117.75293,33.2498339 117.75293,33.9207357 C117.75293,34.2137059 117.823974,34.4960517 117.966064,34.7677816 C118.108155,35.0395114 118.298583,35.2676586 118.537354,35.4522298 C118.938723,35.7701025 119.439694,35.9290365 120.040283,35.9290365 C120.328859,35.9290365 120.615965,35.8803309 120.901611,35.7829183 C121.187257,35.6855057 121.43994,35.548178 121.659668,35.370931 C121.705078,35.3387043 121.74646,35.3075766 121.783813,35.2775472 C121.821167,35.2475178 121.856323,35.2127281 121.889282,35.1731771 C121.922241,35.1336261 121.938721,35.0940757 121.938721,35.0545247 C121.938721,35.0252277 121.927734,34.9831139 121.905762,34.928182 C121.883789,34.8732501 121.867676,34.8406576 121.857422,34.8304036 L121.956299,34.7666829 L122.650635,35.6411947 L122.560547,35.7202962 C122.468261,35.6309403 122.395752,35.586263 122.343018,35.586263 C122.310791,35.586263 122.271973,35.6045734 122.226562,35.6411947 C121.904295,35.8990085 121.551271,36.0967604 121.16748,36.2344564 C120.783689,36.3721524 120.386721,36.4409993 119.976562,36.4409993 C119.167965,36.4409993 118.508059,36.2307964 117.996826,35.8103841 C117.718504,35.5818673 117.49878,35.2998877 117.337646,34.9644368 C117.176513,34.628986 117.095947,34.281089 117.095947,33.9207357 C117.095947,33.5120422 117.171752,33.1454687 117.323364,32.8210042 C117.474976,32.4965397 117.685179,32.2215181 117.953979,31.995931 C118.22278,31.7703439 118.531859,31.5996913 118.881226,31.4839681 C119.230593,31.3682449 119.60449,31.3103841 120.00293,31.3103841 C120.717777,31.3103841 121.395993,31.4846988 122.037598,31.8333333 C122.115235,31.8626304 122.159912,31.8772786 122.171631,31.8772786 C122.218506,31.8772786 122.285156,31.826742 122.371582,31.7256673 L122.479248,31.7784017 Z M128.70874,34.039388 L125.467773,34.039388 L125.467773,35.8389486 C125.467773,35.953207 125.487549,36.036336 125.5271,36.0883382 C125.566651,36.1403404 125.642822,36.1831867 125.755615,36.2168783 L125.755615,36.3333333 L124.560303,36.3333333 L124.560303,36.2168783 C124.671631,36.1846515 124.745971,36.1425377 124.783325,36.0905355 C124.820679,36.0385333 124.839355,35.9546718 124.839355,35.8389486 L124.839355,31.9146322 C124.839355,31.7974441 124.820313,31.7117516 124.782227,31.6575521 C124.74414,31.6033526 124.670167,31.5630698 124.560303,31.5367025 L124.560303,31.4092611 L125.755615,31.4092611 L125.755615,31.5367025 C125.644287,31.5630698 125.568482,31.6033526 125.528198,31.6575521 C125.487915,31.7117516 125.467773,31.7974441 125.467773,31.9146322 L125.467773,33.5603841 L128.70874,33.5603841 L128.70874,31.9146322 C128.70874,31.7974441 128.689697,31.7117516 128.651611,31.6575521 C128.613525,31.6033526 128.539551,31.5630698 128.429688,31.5367025 L128.429688,31.4092611 L129.627197,31.4092611 L129.627197,31.5367025 C129.515869,31.5630698 129.440064,31.6033526 129.39978,31.6575521 C129.359497,31.7117516 129.339355,31.7974441 129.339355,31.9146322 L129.339355,35.8389486 C129.339355,35.953207 129.359131,36.036336 129.398682,36.0883382 C129.438233,36.1403404 129.514404,36.1831867 129.627197,36.2168783 L129.627197,36.3333333 L128.429688,36.3333333 L128.429688,36.2168783 C128.541016,36.1846515 128.615356,36.1425377 128.65271,36.0905355 C128.690064,36.0385333 128.70874,35.9546718 128.70874,35.8389486 L128.70874,34.039388 Z M135.19751,34.9468587 L132.615723,34.9468587 L132.237793,35.7752279 C132.195312,35.8675135 132.174072,35.9517412 132.174072,36.0279134 C132.181397,36.1128748 132.256103,36.1758624 132.398193,36.2168783 L132.398193,36.3333333 L131.183105,36.3333333 L131.183105,36.2168783 C131.373536,36.1758624 131.520751,36.0469575 131.624756,35.8301595 L133.325439,32.1211751 C133.41626,31.9146311 133.46167,31.7740075 133.46167,31.6993001 C133.46167,31.60262 133.386231,31.5484213 133.235352,31.5367025 L133.235352,31.4092611 L134.665771,31.4092611 L134.665771,31.5367025 C134.522216,31.5616049 134.450439,31.6216629 134.450439,31.7168783 C134.450439,31.7652183 134.459595,31.8153887 134.477905,31.867391 C134.496216,31.9193932 134.520019,31.9746905 134.549316,32.0332845 C134.578613,32.0918785 134.605713,32.1453448 134.630615,32.1936849 L136.188477,35.5950521 C136.282227,35.792807 136.365722,35.9407547 136.438965,36.0388997 C136.512207,36.1370448 136.617675,36.1963703 136.755371,36.2168783 L136.755371,36.3333333 L135.467773,36.3333333 L135.467773,36.2168783 C135.605469,36.1905109 135.674316,36.1363123 135.674316,36.0542806 C135.674316,36.0352375 135.672119,36.0194906 135.667725,36.0070394 C135.66333,35.9945882 135.658569,35.9825033 135.653442,35.9707845 C135.648315,35.9590657 135.643555,35.9480795 135.63916,35.9378255 L135.19751,34.9468587 Z M134.982178,34.4700521 L133.909912,32.0574544 L132.822266,34.4700521 L134.982178,34.4700521 Z M139.445068,36.2168783 L139.445068,36.3333333 L138.249756,36.3333333 L138.249756,36.2168783 C138.361085,36.1846515 138.435425,36.1425377 138.472778,36.0905355 C138.510132,36.0385333 138.528809,35.9546718 138.528809,35.8389486 L138.528809,31.9146322 C138.528809,31.7974441 138.509766,31.7117516 138.47168,31.6575521 C138.433594,31.6033526 138.35962,31.5630698 138.249756,31.5367025 L138.249756,31.4092611 L139.445068,31.4092611 L139.445068,31.5367025 C139.33374,31.5630698 139.257935,31.6033526 139.217651,31.6575521 C139.177368,31.7117516 139.157227,31.7974441 139.157227,31.9146322 L139.157227,35.8389486 C139.157227,35.953207 139.177002,36.036336 139.216553,36.0883382 C139.256104,36.1403404 139.332275,36.1831867 139.445068,36.2168783 L139.445068,36.2168783 Z M142.30835,32.1848958 L142.30835,35.8389486 C142.30835,35.9546718 142.327026,36.0385333 142.36438,36.0905355 C142.401734,36.1425377 142.476074,36.1846515 142.587402,36.2168783 L142.587402,36.3333333 L141.499756,36.3333333 L141.499756,36.2168783 C141.611085,36.1846515 141.685425,36.1425377 141.722778,36.0905355 C141.760132,36.0385333 141.778809,35.9546718 141.778809,35.8389486 L141.778809,31.9146322 C141.778809,31.7974441 141.759766,31.7117516 141.72168,31.6575521 C141.683594,31.6033526 141.60962,31.5630698 141.499756,31.5367025 L141.499756,31.4092611 L143.101562,31.4092611 L143.101562,31.5367025 C142.944823,31.5747886 142.866455,31.6436356 142.866455,31.7432454 C142.866455,31.8399256 142.923583,31.9512526 143.037842,32.0772298 L145.936035,35.3247884 L145.936035,31.9146322 C145.936035,31.7974441 145.916992,31.7117516 145.878906,31.6575521 C145.84082,31.6033526 145.766846,31.5630698 145.656982,31.5367025 L145.656982,31.4092611 L146.746826,31.4092611 L146.746826,31.5367025 C146.636962,31.5630698 146.562988,31.6033526 146.524902,31.6575521 C146.486816,31.7117516 146.467773,31.7974441 146.467773,31.9146322 L146.467773,35.8389486 C146.467773,35.9546718 146.48645,36.0385333 146.523804,36.0905355 C146.561157,36.1425377 146.635497,36.1846515 146.746826,36.2168783 L146.746826,36.3333333 L145.459229,36.3333333 L145.459229,36.2168783 C145.542725,36.1890461 145.600952,36.1663412 145.633911,36.148763 C145.66687,36.1311848 145.68335,36.0967613 145.68335,36.0454915 C145.68335,35.9825029 145.666504,35.9297691 145.632812,35.8872884 C145.599121,35.8448077 145.54419,35.7832849 145.468018,35.7027181 L142.30835,32.1848958 Z M155.936279,30.9060872 L155.936279,35.8103841 C155.936279,35.9246425 155.956054,36.0096026 155.995605,36.0652669 C156.035156,36.1209313 156.108398,36.1619465 156.215332,36.1883138 L156.215332,36.3333333 L154.965088,36.3333333 L154.965088,36.1883138 C155.074952,36.1634113 155.148926,36.1231285 155.187012,36.0674642 C155.225098,36.0117999 155.244141,35.9261073 155.244141,35.8103841 L155.244141,30.9060872 L153.218262,30.9060872 C153.102538,30.9060872 153.017578,30.92513 152.963379,30.9632161 C152.909179,31.0013023 152.868164,31.0752761 152.840332,31.18514 L152.69751,31.18514 L152.69751,30.0513509 L152.840332,30.0513509 C152.868164,30.1612147 152.909179,30.2351886 152.963379,30.2732747 C153.017578,30.3113609 153.102538,30.3304036 153.218262,30.3304036 L157.970947,30.3304036 C158.083741,30.3304036 158.168335,30.3113609 158.224731,30.2732747 C158.281128,30.2351886 158.32251,30.1612147 158.348877,30.0513509 L158.485107,30.0513509 L158.485107,31.18514 L158.348877,31.18514 C158.32251,31.0752761 158.281128,31.0013023 158.224731,30.9632161 C158.168335,30.92513 158.083741,30.9060872 157.970947,30.9060872 L155.936279,30.9060872 Z M160.465088,34.1097005 L160.465088,35.8389486 C160.465088,35.953207 160.484863,36.036336 160.524414,36.0883382 C160.563965,36.1403404 160.640136,36.1831867 160.75293,36.2168783 L160.75293,36.3333333 L159.557617,36.3333333 L159.557617,36.2168783 C159.668946,36.1846515 159.743286,36.1425377 159.78064,36.0905355 C159.817993,36.0385333 159.83667,35.9546718 159.83667,35.8389486 L159.83667,31.9146322 C159.83667,31.7974441 159.817627,31.7117516 159.779541,31.6575521 C159.741455,31.6033526 159.667481,31.5630698 159.557617,31.5367025 L159.557617,31.4092611 L162.482178,31.4092611 C162.773683,31.4092611 163.029296,31.4294025 163.249023,31.4696859 C163.468751,31.5099693 163.665771,31.5952956 163.840088,31.7256673 C164.004151,31.8428554 164.130859,31.9915356 164.220215,32.1717122 C164.309571,32.3518889 164.354248,32.5452464 164.354248,32.7517904 C164.354248,33.5310911 163.886235,33.969075 162.950195,34.0657552 L164.182861,36.0191243 C164.251709,36.1289882 164.368896,36.1978351 164.534424,36.2256673 L164.534424,36.3333333 L163.319336,36.3333333 L163.319336,36.2168783 C163.433594,36.1846515 163.490723,36.1487632 163.490723,36.1092122 C163.490723,36.0843098 163.457764,36.0118007 163.391846,35.8916829 L162.255859,34.1097005 L160.465088,34.1097005 Z M160.465088,33.6241048 L162.345947,33.6241048 C162.795657,33.6241048 163.142089,33.5764979 163.385254,33.4812826 C163.628419,33.3860672 163.75,33.1516946 163.75,32.7781576 C163.75,32.6477858 163.721802,32.5218105 163.665405,32.4002279 C163.609009,32.2786452 163.529542,32.1797693 163.427002,32.103597 C163.220458,31.965901 162.88135,31.897054 162.409668,31.897054 L160.465088,31.897054 L160.465088,33.6241048 Z M169.816895,34.9468587 L167.235107,34.9468587 L166.857178,35.7752279 C166.814697,35.8675135 166.793457,35.9517412 166.793457,36.0279134 C166.800781,36.1128748 166.875488,36.1758624 167.017578,36.2168783 L167.017578,36.3333333 L165.80249,36.3333333 L165.80249,36.2168783 C165.992921,36.1758624 166.140136,36.0469575 166.244141,35.8301595 L167.944824,32.1211751 C168.035645,31.9146311 168.081055,31.7740075 168.081055,31.6993001 C168.081055,31.60262 168.005616,31.5484213 167.854736,31.5367025 L167.854736,31.4092611 L169.285156,31.4092611 L169.285156,31.5367025 C169.141601,31.5616049 169.069824,31.6216629 169.069824,31.7168783 C169.069824,31.7652183 169.078979,31.8153887 169.09729,31.867391 C169.115601,31.9193932 169.139404,31.9746905 169.168701,32.0332845 C169.197998,32.0918785 169.225098,32.1453448 169.25,32.1936849 L170.807861,35.5950521 C170.901612,35.792807 170.985107,35.9407547 171.05835,36.0388997 C171.131592,36.1370448 171.23706,36.1963703 171.374756,36.2168783 L171.374756,36.3333333 L170.087158,36.3333333 L170.087158,36.2168783 C170.224854,36.1905109 170.293701,36.1363123 170.293701,36.0542806 C170.293701,36.0352375 170.291504,36.0194906 170.287109,36.0070394 C170.282715,35.9945882 170.277954,35.9825033 170.272827,35.9707845 C170.2677,35.9590657 170.262939,35.9480795 170.258545,35.9378255 L169.816895,34.9468587 Z M169.601562,34.4700521 L168.529297,32.0574544 L167.44165,34.4700521 L169.601562,34.4700521 Z M173.677734,32.1848958 L173.677734,35.8389486 C173.677734,35.9546718 173.696411,36.0385333 173.733765,36.0905355 C173.771118,36.1425377 173.845458,36.1846515 173.956787,36.2168783 L173.956787,36.3333333 L172.869141,36.3333333 L172.869141,36.2168783 C172.980469,36.1846515 173.054809,36.1425377 173.092163,36.0905355 C173.129517,36.0385333 173.148193,35.9546718 173.148193,35.8389486 L173.148193,31.9146322 C173.148193,31.7974441 173.129151,31.7117516 173.091064,31.6575521 C173.052978,31.6033526 172.979004,31.5630698 172.869141,31.5367025 L172.869141,31.4092611 L174.470947,31.4092611 L174.470947,31.5367025 C174.314208,31.5747886 174.23584,31.6436356 174.23584,31.7432454 C174.23584,31.8399256 174.292968,31.9512526 174.407227,32.0772298 L177.30542,35.3247884 L177.30542,31.9146322 C177.30542,31.7974441 177.286377,31.7117516 177.248291,31.6575521 C177.210205,31.6033526 177.136231,31.5630698 177.026367,31.5367025 L177.026367,31.4092611 L178.116211,31.4092611 L178.116211,31.5367025 C178.006347,31.5630698 177.932373,31.6033526 177.894287,31.6575521 C177.856201,31.7117516 177.837158,31.7974441 177.837158,31.9146322 L177.837158,35.8389486 C177.837158,35.9546718 177.855835,36.0385333 177.893188,36.0905355 C177.930542,36.1425377 178.004882,36.1846515 178.116211,36.2168783 L178.116211,36.3333333 L176.828613,36.3333333 L176.828613,36.2168783 C176.91211,36.1890461 176.970337,36.1663412 177.003296,36.148763 C177.036255,36.1311848 177.052734,36.0967613 177.052734,36.0454915 C177.052734,35.9825029 177.035889,35.9297691 177.002197,35.8872884 C176.968506,35.8448077 176.913575,35.7832849 176.837402,35.7027181 L173.677734,32.1848958 Z M184.84668,31.6707357 L184.369873,32.624349 L184.262207,32.5804036 C184.273926,32.4954423 184.279785,32.4324546 184.279785,32.3914388 C184.279785,32.3387042 184.251953,32.2936607 184.196289,32.256307 C184.140625,32.2189533 184.07544,32.1826987 184.000732,32.1475423 C183.602293,31.9322092 183.122561,31.8245443 182.561523,31.8245443 C182.141111,31.8245443 181.7511,31.8981519 181.391479,32.0453695 C181.031859,32.192587 180.852051,32.4456362 180.852051,32.8045247 C180.852051,32.9466153 180.891967,33.0744216 180.971802,33.1879476 C181.051636,33.3014735 181.161865,33.3838702 181.30249,33.43514 C181.460694,33.4864098 181.661376,33.5222981 181.904541,33.542806 C182.048096,33.5472005 182.205199,33.5537923 182.375854,33.5625814 C182.54651,33.5713705 182.683837,33.5772298 182.787842,33.5801595 C183.183352,33.5933432 183.496825,33.6149494 183.728271,33.6449788 C183.959718,33.6750083 184.173583,33.7464187 184.369873,33.8592122 C184.554444,33.9646815 184.693603,34.1107982 184.787354,34.2975667 C184.881104,34.4843352 184.927979,34.6890451 184.927979,34.9117025 C184.927979,35.2632667 184.810792,35.5536691 184.576416,35.7829183 C184.34204,36.0121675 184.050173,36.179158 183.700806,36.2838949 C183.351439,36.3886317 183.00757,36.4409993 182.669189,36.4409993 C182.084714,36.4409993 181.529544,36.3362641 181.003662,36.1267904 C180.748778,36.0242508 180.526856,35.9224452 180.337891,35.8213704 C180.296875,35.7906086 180.263916,35.7752279 180.239014,35.7752279 C180.197998,35.7752279 180.144532,35.8081865 180.078613,35.8741048 L180.032471,35.9290365 L179.933594,35.8653158 L180.491699,34.9292806 L180.599365,34.9842122 C180.570068,35.0135093 180.55542,35.0764969 180.55542,35.1731771 C180.55542,35.203939 180.573364,35.2379962 180.609253,35.2753499 C180.645142,35.3127036 180.690185,35.3489582 180.744385,35.3841146 C180.798584,35.419271 180.850952,35.4500324 180.901489,35.4763997 C180.952027,35.5027671 180.986084,35.5210774 181.003662,35.5313314 C181.507571,35.7964694 182.053952,35.9290365 182.642822,35.9290365 C182.885988,35.9290365 183.136473,35.8971764 183.394287,35.8334554 C183.652101,35.7697344 183.871825,35.6620694 184.053467,35.5104574 C184.235108,35.3588453 184.325928,35.1592623 184.325928,34.9117025 C184.325928,34.7754713 184.286744,34.6498622 184.208374,34.5348714 C184.130004,34.4198806 184.027833,34.3382164 183.901855,34.2898763 C183.777343,34.2488605 183.647706,34.2195639 183.512939,34.2019857 C183.378173,34.1844075 183.204957,34.1723226 182.993286,34.1657308 C182.781615,34.159139 182.670654,34.1558431 182.6604,34.1558431 C182.231199,34.1353352 181.917359,34.11556 181.718872,34.0965169 C181.520385,34.0774739 181.301027,34.0273035 181.060791,33.9460042 C180.820555,33.864705 180.625001,33.7347014 180.474121,33.5559896 C180.323241,33.3772778 180.247803,33.1363134 180.247803,32.8330892 C180.247803,32.4815249 180.364257,32.191855 180.597168,31.9640706 C180.830079,31.7362863 181.119383,31.5703944 181.465088,31.46639 C181.810793,31.3623855 182.152098,31.3103841 182.489014,31.3103841 C183.156986,31.3103841 183.799313,31.4488105 184.416016,31.7256673 C184.503907,31.7608237 184.555176,31.7784017 184.569824,31.7784017 C184.628418,31.7784017 184.684814,31.7249354 184.739014,31.6180013 L184.84668,31.6707357 Z M190.256592,34.9468587 L187.674805,34.9468587 L187.296875,35.7752279 C187.254394,35.8675135 187.233154,35.9517412 187.233154,36.0279134 C187.240479,36.1128748 187.315185,36.1758624 187.457275,36.2168783 L187.457275,36.3333333 L186.242188,36.3333333 L186.242188,36.2168783 C186.432618,36.1758624 186.579833,36.0469575 186.683838,35.8301595 L188.384521,32.1211751 C188.475342,31.9146311 188.520752,31.7740075 188.520752,31.6993001 C188.520752,31.60262 188.445313,31.5484213 188.294434,31.5367025 L188.294434,31.4092611 L189.724854,31.4092611 L189.724854,31.5367025 C189.581298,31.5616049 189.509521,31.6216629 189.509521,31.7168783 C189.509521,31.7652183 189.518677,31.8153887 189.536987,31.867391 C189.555298,31.9193932 189.579101,31.9746905 189.608398,32.0332845 C189.637695,32.0918785 189.664795,32.1453448 189.689697,32.1936849 L191.247559,35.5950521 C191.341309,35.792807 191.424804,35.9407547 191.498047,36.0388997 C191.571289,36.1370448 191.676757,36.1963703 191.814453,36.2168783 L191.814453,36.3333333 L190.526855,36.3333333 L190.526855,36.2168783 C190.664551,36.1905109 190.733398,36.1363123 190.733398,36.0542806 C190.733398,36.0352375 190.731201,36.0194906 190.726807,36.0070394 C190.722412,35.9945882 190.717651,35.9825033 190.712524,35.9707845 C190.707397,35.9590657 190.702637,35.9480795 190.698242,35.9378255 L190.256592,34.9468587 Z M190.04126,34.4700521 L188.968994,32.0574544 L187.881348,34.4700521 L190.04126,34.4700521 Z M198.213135,31.7784017 L197.663818,32.7254232 L197.556152,32.6617025 C197.57959,32.5767411 197.591309,32.5284018 197.591309,32.5166829 C197.591309,32.4331864 197.555054,32.3661705 197.482544,32.3156331 C197.410034,32.2650958 197.308594,32.2061364 197.178223,32.1387533 C196.75781,31.9292796 196.286868,31.8245443 195.765381,31.8245443 C195.135495,31.8245443 194.610354,31.9951969 194.189941,32.3365072 C193.721189,32.721763 193.486816,33.2498339 193.486816,33.9207357 C193.486816,34.2137059 193.557861,34.4960517 193.699951,34.7677816 C193.842042,35.0395114 194.03247,35.2676586 194.27124,35.4522298 C194.672609,35.7701025 195.173581,35.9290365 195.77417,35.9290365 C196.062746,35.9290365 196.349852,35.8803309 196.635498,35.7829183 C196.921144,35.6855057 197.173827,35.548178 197.393555,35.370931 C197.438965,35.3387043 197.480346,35.3075766 197.5177,35.2775472 C197.555054,35.2475178 197.59021,35.2127281 197.623169,35.1731771 C197.656128,35.1336261 197.672607,35.0940757 197.672607,35.0545247 C197.672607,35.0252277 197.661621,34.9831139 197.639648,34.928182 C197.617676,34.8732501 197.601563,34.8406576 197.591309,34.8304036 L197.690186,34.7666829 L198.384521,35.6411947 L198.294434,35.7202962 C198.202148,35.6309403 198.129639,35.586263 198.076904,35.586263 C198.044678,35.586263 198.00586,35.6045734 197.960449,35.6411947 C197.638182,35.8990085 197.285158,36.0967604 196.901367,36.2344564 C196.517576,36.3721524 196.120608,36.4409993 195.710449,36.4409993 C194.901851,36.4409993 194.241946,36.2307964 193.730713,35.8103841 C193.452391,35.5818673 193.232667,35.2998877 193.071533,34.9644368 C192.9104,34.628986 192.829834,34.281089 192.829834,33.9207357 C192.829834,33.5120422 192.905639,33.1454687 193.057251,32.8210042 C193.208863,32.4965397 193.419066,32.2215181 193.687866,31.995931 C193.956666,31.7703439 194.265745,31.5996913 194.615112,31.4839681 C194.964479,31.3682449 195.338377,31.3103841 195.736816,31.3103841 C196.451664,31.3103841 197.12988,31.4846988 197.771484,31.8333333 C197.849121,31.8626304 197.893799,31.8772786 197.905518,31.8772786 C197.952393,31.8772786 198.019043,31.826742 198.105469,31.7256673 L198.213135,31.7784017 Z M202.660645,31.888265 L202.660645,35.8389486 C202.660645,35.953207 202.68042,36.036336 202.719971,36.0883382 C202.759522,36.1403404 202.835693,36.1831867 202.948486,36.2168783 L202.948486,36.3333333 L201.750977,36.3333333 L201.750977,36.2168783 C201.862305,36.1846515 201.936645,36.1425377 201.973999,36.0905355 C202.011353,36.0385333 202.030029,35.9546718 202.030029,35.8389486 L202.030029,31.888265 L200.428223,31.888265 C200.312499,31.888265 200.227539,31.9084064 200.17334,31.9486898 C200.11914,31.9889732 200.078125,32.0647781 200.050293,32.1761068 L199.933838,32.1761068 L199.933838,31.1324056 L200.050293,31.1324056 C200.078125,31.2378749 200.119507,31.3103839 200.174438,31.3499349 C200.22937,31.3894859 200.313964,31.4092611 200.428223,31.4092611 L204.27124,31.4092611 C204.384034,31.4092611 204.467529,31.3891197 204.521729,31.3488363 C204.575928,31.3085529 204.615478,31.23641 204.640381,31.1324056 L204.765625,31.1324056 L204.765625,32.1761068 L204.640381,32.1761068 C204.615478,32.0662429 204.575196,31.9908042 204.519531,31.9497884 C204.463867,31.9087726 204.378174,31.888265 204.262451,31.888265 L202.660645,31.888265 Z M207.646484,36.2168783 L207.646484,36.3333333 L206.451172,36.3333333 L206.451172,36.2168783 C206.562501,36.1846515 206.636841,36.1425377 206.674194,36.0905355 C206.711548,36.0385333 206.730225,35.9546718 206.730225,35.8389486 L206.730225,31.9146322 C206.730225,31.7974441 206.711182,31.7117516 206.673096,31.6575521 C206.63501,31.6033526 206.561036,31.5630698 206.451172,31.5367025 L206.451172,31.4092611 L207.646484,31.4092611 L207.646484,31.5367025 C207.535156,31.5630698 207.459351,31.6033526 207.419067,31.6575521 C207.378784,31.7117516 207.358643,31.7974441 207.358643,31.9146322 L207.358643,35.8389486 C207.358643,35.953207 207.378418,36.036336 207.417969,36.0883382 C207.45752,36.1403404 207.533691,36.1831867 207.646484,36.2168783 L207.646484,36.2168783 Z M215.523926,33.8767904 C215.523926,34.2371437 215.449586,34.5824772 215.300903,34.9128011 C215.152221,35.243125 214.941652,35.5247384 214.669189,35.7576497 C214.128659,36.2132184 213.426274,36.4409993 212.562012,36.4409993 C211.69189,36.4409993 210.987307,36.2132184 210.448242,35.7576497 C210.177245,35.5262033 209.966676,35.2449561 209.816528,34.9138997 C209.666381,34.5828434 209.591309,34.2371437 209.591309,33.8767904 C209.591309,33.5135073 209.666381,33.166709 209.816528,32.8363851 C209.966676,32.5060612 210.177245,32.2259126 210.448242,31.995931 C210.725099,31.76009 211.045164,31.5868739 211.408447,31.4762777 C211.77173,31.3656814 212.156248,31.3103841 212.562012,31.3103841 C213.426274,31.3103841 214.128659,31.5388975 214.669189,31.995931 C214.941652,32.2273775 215.152221,32.5078922 215.300903,32.8374837 C215.449586,33.1670752 215.523926,33.5135073 215.523926,33.8767904 L215.523926,33.8767904 Z M214.866943,33.8767904 C214.866943,33.4622375 214.761842,33.0989599 214.551636,32.7869466 C214.34143,32.4749333 214.05945,32.2365324 213.705688,32.0717367 C213.351927,31.9069409 212.970705,31.8245443 212.562012,31.8245443 C212.150389,31.8245443 211.76697,31.9069409 211.411743,32.0717367 C211.056517,32.2365324 210.773805,32.4749333 210.563599,32.7869466 C210.353393,33.0989599 210.248291,33.4622375 210.248291,33.8767904 C210.248291,34.2913432 210.353393,34.6546208 210.563599,34.9666341 C210.773805,35.2786474 211.056517,35.5170483 211.411743,35.6818441 C211.76697,35.8466398 212.150389,35.9290365 212.562012,35.9290365 C212.970705,35.9290365 213.351927,35.8466398 213.705688,35.6818441 C214.05945,35.5170483 214.34143,35.2786474 214.551636,34.9666341 C214.761842,34.6546208 214.866943,34.2913432 214.866943,33.8767904 L214.866943,33.8767904 Z M218.259766,32.1848958 L218.259766,35.8389486 C218.259766,35.9546718 218.278442,36.0385333 218.315796,36.0905355 C218.35315,36.1425377 218.42749,36.1846515 218.538818,36.2168783 L218.538818,36.3333333 L217.451172,36.3333333 L217.451172,36.2168783 C217.562501,36.1846515 217.636841,36.1425377 217.674194,36.0905355 C217.711548,36.0385333 217.730225,35.9546718 217.730225,35.8389486 L217.730225,31.9146322 C217.730225,31.7974441 217.711182,31.7117516 217.673096,31.6575521 C217.63501,31.6033526 217.561036,31.5630698 217.451172,31.5367025 L217.451172,31.4092611 L219.052979,31.4092611 L219.052979,31.5367025 C218.896239,31.5747886 218.817871,31.6436356 218.817871,31.7432454 C218.817871,31.8399256 218.874999,31.9512526 218.989258,32.0772298 L221.887451,35.3247884 L221.887451,31.9146322 C221.887451,31.7974441 221.868408,31.7117516 221.830322,31.6575521 C221.792236,31.6033526 221.718262,31.5630698 221.608398,31.5367025 L221.608398,31.4092611 L222.698242,31.4092611 L222.698242,31.5367025 C222.588378,31.5630698 222.514404,31.6033526 222.476318,31.6575521 C222.438232,31.7117516 222.419189,31.7974441 222.419189,31.9146322 L222.419189,35.8389486 C222.419189,35.9546718 222.437866,36.0385333 222.47522,36.0905355 C222.512573,36.1425377 222.586914,36.1846515 222.698242,36.2168783 L222.698242,36.3333333 L221.410645,36.3333333 L221.410645,36.2168783 C221.494141,36.1890461 221.552368,36.1663412 221.585327,36.148763 C221.618286,36.1311848 221.634766,36.0967613 221.634766,36.0454915 C221.634766,35.9825029 221.61792,35.9297691 221.584229,35.8872884 C221.550537,35.8448077 221.495606,35.7832849 221.419434,35.7027181 L218.259766,32.1848958 Z M234.759521,30.7083333 L234.128906,31.8421224 L234.003662,31.7696126 C234.052002,31.6729325 234.076172,31.5952965 234.076172,31.5367025 C234.076172,31.4414872 233.967775,31.3455408 233.750977,31.2488607 C233.160642,30.9720038 232.557864,30.8335775 231.942627,30.8335775 C231.362546,30.8335775 230.870363,30.9331859 230.466064,31.1324056 C230.290282,31.2188318 230.141602,31.3389478 230.02002,31.4927572 C229.898437,31.6465665 229.837646,31.8142895 229.837646,31.995931 C229.837646,32.1512052 229.880859,32.2954909 229.967285,32.4287923 C230.053711,32.5620938 230.169433,32.6609697 230.314453,32.7254232 C230.515138,32.8147791 230.724608,32.8682454 230.942871,32.8858236 C231.073243,32.9004721 231.403562,32.9217121 231.933838,32.9495443 C232.588626,32.9612631 233.077879,32.9912921 233.401611,33.0396322 C233.849856,33.1128747 234.201781,33.2784004 234.457397,33.5362142 C234.713014,33.794028 234.84082,34.1441221 234.84082,34.5865072 C234.84082,34.7505705 234.81189,34.9117017 234.754028,35.0699056 C234.696167,35.2281095 234.617066,35.3742262 234.516724,35.5082601 C234.416381,35.642294 234.299561,35.7613113 234.16626,35.8653158 C233.649167,36.2491067 232.959233,36.4409993 232.096436,36.4409993 C231.220455,36.4409993 230.416263,36.2491067 229.683838,35.8653158 C229.408446,35.7027173 229.234131,35.6214193 229.160889,35.6214193 C229.119873,35.6214193 229.048096,35.6726883 228.945557,35.7752279 L228.829102,35.7027181 L229.486084,34.6062826 L229.611328,34.667806 C229.557129,34.7791347 229.530029,34.8604327 229.530029,34.9117025 C229.530029,34.9629723 229.564819,35.0168047 229.634399,35.0732015 C229.70398,35.1295983 229.78894,35.1845294 229.889282,35.2379964 C229.989625,35.2914635 230.055908,35.3262532 230.088135,35.3423665 C230.429445,35.5196135 230.741454,35.6426592 231.02417,35.7115072 C231.318605,35.7964685 231.669432,35.8389486 232.07666,35.8389486 C232.822269,35.8389486 233.386961,35.677085 233.770752,35.3533529 C234.022706,35.1336252 234.148682,34.8846043 234.148682,34.6062826 C234.148682,34.0071585 233.662358,33.6856285 232.689697,33.6416829 L231.77124,33.6065267 C231.336179,33.5948079 230.968507,33.5655113 230.668213,33.5186361 C230.367918,33.4717608 230.087404,33.3750821 229.82666,33.228597 C229.617186,33.1070144 229.452393,32.9396576 229.332275,32.7265218 C229.212158,32.513386 229.1521,32.2874361 229.1521,32.0486654 C229.1521,31.6136046 229.297484,31.2598484 229.588257,30.9873861 C229.87903,30.7149238 230.237913,30.5208339 230.664917,30.4051107 C231.091921,30.2893874 231.52075,30.2315267 231.951416,30.2315267 C232.70142,30.2315267 233.463863,30.4051089 234.23877,30.7522786 C234.338379,30.7947593 234.397705,30.8159993 234.416748,30.8159993 C234.457764,30.8159993 234.530273,30.758871 234.634277,30.6446126 L234.759521,30.7083333 Z M237.919434,36.2168783 L237.919434,36.3333333 L236.724121,36.3333333 L236.724121,36.2168783 C236.83545,36.1846515 236.90979,36.1425377 236.947144,36.0905355 C236.984497,36.0385333 237.003174,35.9546718 237.003174,35.8389486 L237.003174,31.9146322 C237.003174,31.7974441 236.984131,31.7117516 236.946045,31.6575521 C236.907959,31.6033526 236.833985,31.5630698 236.724121,31.5367025 L236.724121,31.4092611 L237.919434,31.4092611 L237.919434,31.5367025 C237.808105,31.5630698 237.7323,31.6033526 237.692017,31.6575521 C237.651733,31.7117516 237.631592,31.7974441 237.631592,31.9146322 L237.631592,35.8389486 C237.631592,35.953207 237.651367,36.036336 237.690918,36.0883382 C237.730469,36.1403404 237.80664,36.1831867 237.919434,36.2168783 L237.919434,36.2168783 Z M242.881104,36.3333333 L240.791504,32.1848958 L240.791504,35.8389486 C240.791504,35.9546718 240.81018,36.0385333 240.847534,36.0905355 C240.884888,36.1425377 240.959228,36.1846515 241.070557,36.2168783 L241.070557,36.3333333 L239.98291,36.3333333 L239.98291,36.2168783 C240.094239,36.1846515 240.168579,36.1425377 240.205933,36.0905355 C240.243286,36.0385333 240.261963,35.9546718 240.261963,35.8389486 L240.261963,31.9146322 C240.261963,31.7974441 240.24292,31.7117516 240.204834,31.6575521 C240.166748,31.6033526 240.092774,31.5630698 239.98291,31.5367025 L239.98291,31.4092611 L241.48584,31.4092611 L241.48584,31.5367025 C241.33496,31.5659995 241.259521,31.6201982 241.259521,31.6993001 C241.259521,31.7564293 241.29541,31.8582349 241.367188,32.0047201 L242.925049,35.1446126 L244.48291,32.0047201 C244.554688,31.8714186 244.590576,31.7754723 244.590576,31.7168783 C244.590576,31.6289872 244.5188,31.5689292 244.375244,31.5367025 L244.375244,31.4092611 L245.878174,31.4092611 L245.878174,31.5367025 C245.77124,31.5630698 245.697998,31.6037188 245.658447,31.6586507 C245.618896,31.7135826 245.599121,31.7989089 245.599121,31.9146322 L245.599121,35.8389486 C245.599121,35.9517421 245.61853,36.0345049 245.657349,36.0872396 C245.696167,36.1399742 245.769775,36.1831867 245.878174,36.2168783 L245.878174,36.3333333 L244.689453,36.3333333 L244.689453,36.2168783 C244.799317,36.1831867 244.873291,36.1403404 244.911377,36.0883382 C244.949463,36.036336 244.968506,35.953207 244.968506,35.8389486 L244.968506,32.1848958 L242.881104,36.3333333 Z M248.846924,34.1184896 L248.846924,35.8741048 C248.846924,36.0337736 248.937011,36.1385089 249.117188,36.1883138 L249.117188,36.3333333 L247.939453,36.3333333 L247.939453,36.1883138 C248.125489,36.137044 248.218506,36.0323087 248.218506,35.8741048 L248.218506,31.8421224 C248.218506,31.6868482 248.125489,31.5879722 247.939453,31.5454915 L247.939453,31.4092611 L250.66626,31.4092611 C250.969484,31.4092611 251.224364,31.4228107 251.430908,31.4499105 C251.637452,31.4770102 251.826415,31.5418289 251.997803,31.6443685 C252.182374,31.7630214 252.324462,31.9226878 252.424072,32.1233724 C252.523682,32.324057 252.573486,32.5393869 252.573486,32.7693685 C252.573486,33.000815 252.524048,33.2168773 252.425171,33.4175618 C252.326293,33.6182464 252.180909,33.7742507 251.989014,33.8855794 C251.811767,33.9866542 251.623536,34.0507404 251.424316,34.0778402 C251.225097,34.1049399 250.972414,34.1184896 250.66626,34.1184896 L248.846924,34.1184896 Z M248.846924,33.6416829 L250.584961,33.6416829 C250.88672,33.6416829 251.129516,33.6266684 251.313354,33.596639 C251.497193,33.5666096 251.652831,33.487875 251.780273,33.3604329 C251.907715,33.2329909 251.971436,33.0359714 251.971436,32.7693685 C251.971436,32.5027656 251.907715,32.3057461 251.780273,32.178304 C251.652831,32.050862 251.497193,31.9721274 251.313354,31.942098 C251.129516,31.9120685 250.88672,31.897054 250.584961,31.897054 L248.846924,31.897054 L248.846924,33.6416829 Z M255.247803,35.8477376 L258.253662,35.8477376 C258.37085,35.8477376 258.456543,35.8286949 258.510742,35.7906087 C258.564942,35.7525226 258.605224,35.6785487 258.631592,35.5686849 L258.750244,35.5686849 L258.750244,36.6123861 L258.631592,36.6123861 C258.605224,36.5025222 258.564942,36.4285484 258.510742,36.3904622 C258.456543,36.3523761 258.37085,36.3333333 258.253662,36.3333333 L254.340332,36.3333333 L254.340332,36.2080892 C254.450196,36.180257 254.52417,36.1392418 254.562256,36.0850423 C254.600342,36.0308428 254.619385,35.9458827 254.619385,35.8301595 L254.619385,31.9058431 C254.619385,31.788655 254.600342,31.7029625 254.562256,31.648763 C254.52417,31.5945635 254.450196,31.5542807 254.340332,31.5279134 L254.340332,31.4092611 L255.535645,31.4092611 L255.535645,31.5279134 C255.424316,31.5542807 255.348511,31.5945635 255.308228,31.648763 C255.267944,31.7029625 255.247803,31.788655 255.247803,31.9058431 L255.247803,35.8477376 Z M261.558594,36.2168783 L261.558594,36.3333333 L260.363281,36.3333333 L260.363281,36.2168783 C260.47461,36.1846515 260.54895,36.1425377 260.586304,36.0905355 C260.623657,36.0385333 260.642334,35.9546718 260.642334,35.8389486 L260.642334,31.9146322 C260.642334,31.7974441 260.623291,31.7117516 260.585205,31.6575521 C260.547119,31.6033526 260.473145,31.5630698 260.363281,31.5367025 L260.363281,31.4092611 L261.558594,31.4092611 L261.558594,31.5367025 C261.447265,31.5630698 261.37146,31.6033526 261.331177,31.6575521 C261.290893,31.7117516 261.270752,31.7974441 261.270752,31.9146322 L261.270752,35.8389486 C261.270752,35.953207 261.290527,36.036336 261.330078,36.0883382 C261.369629,36.1403404 261.4458,36.1831867 261.558594,36.2168783 L261.558594,36.2168783 Z M264.529541,34.0284017 L264.529541,35.8389486 C264.529541,35.953207 264.549316,36.036336 264.588867,36.0883382 C264.628418,36.1403404 264.704589,36.1831867 264.817383,36.2168783 L264.817383,36.3333333 L263.62207,36.3333333 L263.62207,36.2168783 C263.733399,36.1846515 263.807739,36.1425377 263.845093,36.0905355 C263.882446,36.0385333 263.901123,35.9546718 263.901123,35.8389486 L263.901123,31.9146322 C263.901123,31.7974441 263.88208,31.7117516 263.843994,31.6575521 C263.805908,31.6033526 263.731934,31.5630698 263.62207,31.5367025 L263.62207,31.4092611 L267.616699,31.4092611 C267.733887,31.4092611 267.819946,31.3902183 267.874878,31.3521322 C267.92981,31.314046 267.969726,31.2408046 267.994629,31.1324056 L268.113281,31.1324056 L268.113281,32.1761068 L267.994629,32.1761068 C267.969726,32.0662429 267.92981,31.9922691 267.874878,31.9541829 C267.819946,31.9160968 267.733887,31.897054 267.616699,31.897054 L264.529541,31.897054 L264.529541,33.542806 L266.537842,33.542806 C266.653565,33.542806 266.739258,33.523397 266.794922,33.4845785 C266.850586,33.4457599 266.890869,33.3721522 266.915771,33.2637533 L267.032227,33.2637533 L267.032227,34.3074544 L266.915771,34.3074544 C266.890869,34.1990554 266.850586,34.1254478 266.794922,34.0866292 C266.739258,34.0478107 266.653565,34.0284017 266.537842,34.0284017 L264.529541,34.0284017 Z M271.119385,36.2168783 L271.119385,36.3333333 L269.924072,36.3333333 L269.924072,36.2168783 C270.035401,36.1846515 270.109741,36.1425377 270.147095,36.0905355 C270.184448,36.0385333 270.203125,35.9546718 270.203125,35.8389486 L270.203125,31.9146322 C270.203125,31.7974441 270.184082,31.7117516 270.145996,31.6575521 C270.10791,31.6033526 270.033936,31.5630698 269.924072,31.5367025 L269.924072,31.4092611 L271.119385,31.4092611 L271.119385,31.5367025 C271.008056,31.5630698 270.932251,31.6033526 270.891968,31.6575521 C270.851684,31.7117516 270.831543,31.7974441 270.831543,31.9146322 L270.831543,35.8389486 C270.831543,35.953207 270.851318,36.036336 270.890869,36.0883382 C270.93042,36.1403404 271.006591,36.1831867 271.119385,36.2168783 L271.119385,36.2168783 Z M274.081543,34.0284017 L274.081543,35.8477376 L277.124756,35.8477376 C277.240479,35.8477376 277.326172,35.8283286 277.381836,35.7895101 C277.4375,35.7506915 277.477783,35.6770839 277.502686,35.5686849 L277.62793,35.5686849 L277.62793,36.6123861 L277.502686,36.6123861 C277.477783,36.5039871 277.4375,36.4303794 277.381836,36.3915609 C277.326172,36.3527423 277.240479,36.3333333 277.124756,36.3333333 L273.174072,36.3333333 L273.174072,36.2080892 C273.283936,36.180257 273.35791,36.1392418 273.395996,36.0850423 C273.434082,36.0308428 273.453125,35.9458827 273.453125,35.8301595 L273.453125,31.9058431 C273.453125,31.788655 273.434082,31.7029625 273.395996,31.648763 C273.35791,31.5945635 273.283936,31.5542807 273.174072,31.5279134 L273.174072,31.4092611 L277.096191,31.4092611 C277.211915,31.4092611 277.297241,31.3891197 277.352173,31.3488363 C277.407105,31.3085529 277.447754,31.23641 277.474121,31.1324056 L277.592773,31.1324056 L277.592773,32.1761068 L277.474121,32.1761068 C277.449219,32.0662429 277.409302,31.9908042 277.35437,31.9497884 C277.299438,31.9087726 277.213379,31.888265 277.096191,31.888265 L274.081543,31.888265 L274.081543,33.5515951 L275.999756,33.5515951 C276.115479,33.5515951 276.200805,33.5310874 276.255737,33.4900716 C276.310669,33.4490558 276.351318,33.3736171 276.377686,33.2637533 L276.50293,33.2637533 L276.50293,34.3074544 L276.377686,34.3074544 C276.351318,34.2019851 276.310669,34.1291099 276.255737,34.0888265 C276.200805,34.0485431 276.115479,34.0284017 275.999756,34.0284017 L274.081543,34.0284017 Z M279.546387,36.3333333 L279.546387,36.2168783 C279.657715,36.1846515 279.732055,36.1425377 279.769409,36.0905355 C279.806763,36.0385333 279.825439,35.9546718 279.825439,35.8389486 L279.825439,31.9146322 C279.825439,31.7974441 279.806397,31.7117516 279.768311,31.6575521 C279.730224,31.6033526 279.656251,31.5630698 279.546387,31.5367025 L279.546387,31.4092611 L282.038086,31.4092611 C282.313478,31.4092611 282.561766,31.4224445 282.782959,31.4488118 C283.004151,31.4751792 283.22058,31.5301103 283.432251,31.6136068 C283.643922,31.6971033 283.833251,31.8186841 284.000244,31.9783529 C284.164307,32.1350919 284.303832,32.3167307 284.418823,32.5232747 C284.533814,32.7298187 284.620239,32.9484445 284.678101,33.1791585 C284.735962,33.4098726 284.764893,33.6424142 284.764893,33.8767904 C284.764893,34.2356789 284.699341,34.5835758 284.568237,34.9204915 C284.437133,35.2574073 284.247804,35.5393869 284.000244,35.7664388 C283.74536,35.9993501 283.464113,36.1520586 283.156494,36.2245687 C282.848875,36.2970788 282.476076,36.3333333 282.038086,36.3333333 L279.546387,36.3333333 Z M280.453857,35.8565267 L282.00293,35.8565267 C282.235841,35.8565267 282.447875,35.8433432 282.639038,35.8169759 C282.830201,35.7906086 283.013305,35.7371423 283.188354,35.6565755 C283.363404,35.5760087 283.513915,35.4595548 283.639893,35.3072103 C283.951906,34.9380678 284.10791,34.4612659 284.10791,33.8767904 C284.10791,33.270342 283.951906,32.7898781 283.639893,32.4353841 C283.449462,32.2156565 283.222047,32.0710046 282.957642,32.0014242 C282.693236,31.9318437 282.375002,31.897054 282.00293,31.897054 L280.453857,31.897054 L280.453857,35.8565267 Z" id="Blockchain-Transacti" fill="#7F7F7F"></path>
                        <path d="M92.75,19.82 C93.8300054,19.82 94.5899978,19.6850014 95.03,19.415 C95.4700022,19.1449987 95.69,18.6800033 95.69,18.02 C95.69,17.3599967 95.4700022,16.8950014 95.03,16.625 C94.5899978,16.3549987 93.8300054,16.22 92.75,16.22 L87.65,16.22 L87.65,19.82 L92.75,19.82 Z M91.73,13.16 C92.3700032,13.16 92.8999979,13.1450002 93.32,13.115 C93.7400021,13.0849999 94.0699988,13.0200005 94.31,12.92 C94.5500012,12.8199995 94.7199995,12.6800009 94.82,12.5 C94.9200005,12.3199991 94.97,12.0800015 94.97,11.78 C94.97,11.4799985 94.9200005,11.2400009 94.82,11.06 C94.7199995,10.8799991 94.5500012,10.7400005 94.31,10.64 C94.0699988,10.5399995 93.7400021,10.4750002 93.32,10.445 C92.8999979,10.4149999 92.3700032,10.4 91.73,10.4 L87.65,10.4 L87.65,13.16 L91.73,13.16 Z M83.15,8.12 C83.15,7.9799993 83.1050005,7.86500045 83.015,7.775 C82.9249995,7.68499955 82.6900019,7.6200002 82.31,7.58 L82.31,7.22 L93.74,7.22 C94.5600041,7.22 95.3099966,7.2999992 95.99,7.46 C96.6700034,7.6200008 97.2599975,7.86499835 97.76,8.195 C98.2600025,8.52500165 98.6499986,8.95499735 98.93,9.485 C99.2100014,10.0150027 99.35,10.6499963 99.35,11.39 C99.35,12.2900045 99.0800027,13.0149973 98.54,13.565 C97.9999973,14.1150028 97.3100042,14.4799991 96.47,14.66 L96.47,14.72 C97.4900051,15.0000014 98.3249967,15.4299971 98.975,16.01 C99.6250032,16.5900029 99.95,17.4399944 99.95,18.56 C99.95,19.160003 99.8350011,19.7299973 99.605,20.27 C99.3749988,20.8100027 99.0150024,21.279998 98.525,21.68 C98.0349975,22.080002 97.4050038,22.3999988 96.635,22.64 C95.8649961,22.8800012 94.9500053,23 93.89,23 L82.31,23 L82.31,22.64 C82.6900019,22.5999998 82.9249995,22.5350005 83.015,22.445 C83.1050005,22.3549996 83.15,22.2400007 83.15,22.1 L83.15,8.12 Z M102.74,10.7 C102.74,10.4799989 102.660001,10.3400003 102.5,10.28 C102.34,10.2199997 102.150002,10.1800001 101.93,10.16 L101.93,9.8 L107.54,9.8 L107.54,10.16 C107.319999,10.1800001 107.135001,10.2199997 106.985,10.28 C106.835,10.3400003 106.76,10.4799989 106.76,10.7 L106.76,19.94 L114.98,19.94 C115.100001,19.94 115.22,19.8950005 115.34,19.805 C115.460001,19.7149996 115.52,19.5100016 115.52,19.19 L115.88,19.19 L115.88,23.66 L115.52,23.66 C115.52,23.3399984 115.460001,23.1500003 115.34,23.09 C115.22,23.0299997 115.100001,23 114.98,23 L101.93,23 L101.93,22.64 C102.150002,22.6199999 102.34,22.5800003 102.5,22.52 C102.660001,22.4599997 102.74,22.3200011 102.74,22.1 L102.74,10.7 Z M124.490001,12.8 C123.929998,12.8 123.400003,12.8849992 122.900001,13.055 C122.399998,13.2250009 121.960003,13.4649985 121.580001,13.775 C121.199999,14.0850016 120.905002,14.4599978 120.695001,14.9 C120.485,15.3400022 120.380001,15.8399972 120.380001,16.4 C120.380001,16.9600028 120.485,17.4599978 120.695001,17.9 C120.905002,18.3400022 121.199999,18.7149985 121.580001,19.025 C121.960003,19.3350016 122.399998,19.5749992 122.900001,19.745 C123.400003,19.9150009 123.929998,20 124.490001,20 C125.070004,20 125.604999,19.9150009 126.095001,19.745 C126.585003,19.5749992 127.019999,19.3350016 127.400001,19.025 C127.780003,18.7149985 128.075,18.3400022 128.285001,17.9 C128.495002,17.4599978 128.600001,16.9600028 128.600001,16.4 C128.600001,15.8399972 128.495002,15.3400022 128.285001,14.9 C128.075,14.4599978 127.780003,14.0850016 127.400001,13.775 C127.019999,13.4649985 126.585003,13.2250009 126.095001,13.055 C125.604999,12.8849992 125.070004,12.8 124.490001,12.8 L124.490001,12.8 Z M124.490001,9.62 C125.430006,9.62 126.374996,9.7499987 127.325001,10.01 C128.275006,10.2700013 129.134997,10.6749973 129.905001,11.225 C130.675005,11.7750028 131.299999,12.4799957 131.780001,13.34 C132.260003,14.2000043 132.500001,15.2199941 132.500001,16.4 C132.500001,17.600006 132.260003,18.6249958 131.780001,19.475 C131.299999,20.3250043 130.675005,21.0199973 129.905001,21.56 C129.134997,22.1000027 128.275006,22.4899988 127.325001,22.73 C126.374996,22.9700012 125.430006,23.09 124.490001,23.09 C123.549996,23.09 122.605006,22.9700012 121.655001,22.73 C120.704996,22.4899988 119.845005,22.1000027 119.075001,21.56 C118.304997,21.0199973 117.680003,20.3250043 117.200001,19.475 C116.719999,18.6249958 116.480001,17.600006 116.480001,16.4 C116.480001,15.2199941 116.719999,14.2000043 117.200001,13.34 C117.680003,12.4799957 118.304997,11.7750028 119.075001,11.225 C119.845005,10.6749973 120.704996,10.2700013 121.655001,10.01 C122.605006,9.7499987 123.549996,9.62 124.490001,9.62 L124.490001,9.62 Z M146.510001,14.87 L146.090001,14.66 C146.110002,14.5799996 146.135001,14.5000004 146.165001,14.42 C146.195002,14.3399996 146.210001,14.2500005 146.210001,14.15 C146.210001,14.0299994 146.085003,13.8900008 145.835001,13.73 C145.585,13.5699992 145.265003,13.4250007 144.875001,13.295 C144.484999,13.1649994 144.045004,13.0500005 143.555001,12.95 C143.064999,12.8499995 142.570004,12.8 142.070001,12.8 C141.509999,12.8 140.940004,12.8699993 140.360001,13.01 C139.779999,13.1500007 139.260004,13.3649986 138.800001,13.655 C138.339999,13.9450015 137.960003,14.3149978 137.660001,14.765 C137.36,15.2150023 137.210001,15.7599968 137.210001,16.4 C137.210001,17.0200031 137.36,17.5599977 137.660001,18.02 C137.960003,18.4800023 138.339999,18.8549986 138.800001,19.145 C139.260004,19.4350015 139.779999,19.6499993 140.360001,19.79 C140.940004,19.9300007 141.509999,20 142.070001,20 C142.670004,20 143.234999,19.9250008 143.765001,19.775 C144.295004,19.6249993 144.764999,19.4450011 145.175001,19.235 C145.585003,19.024999 145.905,18.8150011 146.135001,18.605 C146.365003,18.394999 146.480001,18.2400005 146.480001,18.14 L146.480001,17.87 C146.480001,17.7499994 146.470002,17.6600003 146.450001,17.6 L146.780001,17.39 L149.630001,21.5 L149.270001,21.71 C149.090001,21.4899989 148.930002,21.38 148.790001,21.38 C148.710001,21.38 148.495003,21.4699991 148.145001,21.65 C147.795,21.8300009 147.330004,22.0349989 146.750001,22.265 C146.169999,22.4950012 145.485005,22.6899992 144.695001,22.85 C143.904997,23.0100008 143.030006,23.09 142.070001,23.09 C140.969996,23.09 139.895007,22.9800011 138.845001,22.76 C137.794996,22.5399989 136.860006,22.1650027 136.040001,21.635 C135.219997,21.1049974 134.560004,20.4100043 134.060001,19.55 C133.559999,18.6899957 133.310001,17.6400062 133.310001,16.4 C133.310001,15.1799939 133.559999,14.1400043 134.060001,13.28 C134.560004,12.4199957 135.219997,11.7200027 136.040001,11.18 C136.860006,10.6399973 137.794996,10.2450013 138.845001,9.995 C139.895007,9.74499875 140.969996,9.62 142.070001,9.62 C142.730005,9.62 143.369998,9.67499945 143.990001,9.785 C144.610005,9.89500055 145.179999,10.0099994 145.700001,10.13 C146.220004,10.2500006 146.67,10.3649995 147.050001,10.475 C147.430003,10.5850006 147.700001,10.64 147.860001,10.64 C147.960002,10.64 148.050001,10.6100003 148.130001,10.55 C148.210002,10.4899997 148.270001,10.4300003 148.310001,10.37 L148.670001,10.49 L146.510001,14.87 Z M160.400002,22.64 C160.540003,22.64 160.715001,22.6100003 160.925002,22.55 C161.135003,22.4899997 161.240002,22.3500011 161.240002,22.13 C161.240002,22.0699997 161.170003,21.9250012 161.030002,21.695 C160.890001,21.4649989 160.715003,21.1900016 160.505002,20.87 C160.295001,20.5499984 160.060003,20.195002 159.800002,19.805 C159.540001,19.4149981 159.290003,19.0450018 159.050002,18.695 C158.810001,18.3449983 158.595003,18.0300014 158.405002,17.75 C158.215001,17.4699986 158.080002,17.2600007 158.000002,17.12 L155.390002,19.64 L155.390002,22.1 C155.390002,22.3200011 155.480001,22.4599997 155.660002,22.52 C155.840003,22.5800003 156.030001,22.6199999 156.230002,22.64 L156.230002,23 L150.620002,23 L150.620002,22.64 C150.800003,22.6600001 150.970001,22.6300004 151.130002,22.55 C151.290003,22.4699996 151.370002,22.3200011 151.370002,22.1 L151.370002,10.7 C151.370002,10.4799989 151.290003,10.3300004 151.130002,10.25 C150.970001,10.1699996 150.800003,10.1399999 150.620002,10.16 L150.620002,9.8 L156.230002,9.8 L156.230002,10.16 C156.030001,10.1800001 155.840003,10.2199997 155.660002,10.28 C155.480001,10.3400003 155.390002,10.4799989 155.390002,10.7 L155.390002,16.22 C155.690003,15.9599987 156.045,15.6500018 156.455002,15.29 C156.865004,14.9299982 157.295,14.555002 157.745002,14.165 C158.195004,13.7749981 158.64,13.3900019 159.080002,13.01 C159.520004,12.6299981 159.915,12.2750017 160.265002,11.945 C160.615004,11.6149984 160.895001,11.3400011 161.105002,11.12 C161.315003,10.8999989 161.420002,10.7600003 161.420002,10.7 C161.420002,10.4799989 161.335003,10.3400003 161.165002,10.28 C160.995001,10.2199997 160.830003,10.1800001 160.670002,10.16 L160.670002,9.8 L166.520002,9.8 L166.520002,10.16 C166.22,10.2000002 165.830004,10.4099981 165.350002,10.79 C164.87,11.1700019 164.360005,11.6049976 163.820002,12.095 C163.279999,12.5850025 162.745005,13.0849975 162.215002,13.595 C161.684999,14.1050026 161.230004,14.5099985 160.850002,14.81 L165.830002,22.19 C165.930002,22.3500008 166.035001,22.4599997 166.145002,22.52 C166.255002,22.5800003 166.380001,22.6199999 166.520002,22.64 L166.520002,23 L160.400002,23 L160.400002,22.64 Z" id="Block" fill="#000000"></path>
                        <g id="Group">
                            <rect id="Rectangle" fill="#4A4A4A" x="26.0695187" y="6.93548387" width="12.8609626" height="12.8306452"></rect>
                            <polygon id="Rectangle-Copy-5" fill="#4A4A4A" points="3.47593583 36.0645161 3.47593583 19.766129 16.3368984 19.766129 16.3368984 36.0645161 21.0640698 36.1011783 9.73262032 43 0 36.0645161"></polygon>
                            <rect id="Rectangle-Copy-2" fill="#4A4A4A" x="3.47593583" y="6.93548387" width="20.855615" height="12.8306452"></rect>
                            <rect id="Rectangle-Copy" fill="#37D4B1" x="26.0695187" y="23.233871" width="12.8609626" height="12.8306452"></rect>
                            <polygon id="Rectangle-Copy-4" fill="#37D4B1" points="48.6631016 6.93548387 44.8395722 6.93548387 55.2673797 0 65 6.93548387 61.5240642 6.93548387 61.5240642 23.233871 48.6631016 23.233871"></polygon>
                            <polygon id="Rectangle-Copy-3" fill="#37D4B1" points="40.6684492 23.233871 61.5240642 23.233871 61.5240642 29.4758065 61.5240642 36.0645161 40.6684492 36.0645161"></polygon>
                        </g>
                    </g>
                    <path d="M176,22.34 C176,22.4400005 176.035,22.5149998 176.105,22.565 C176.175,22.6150003 176.319999,22.64 176.54,22.64 L176.54,23 L171.23,23 L171.23,22.64 C171.450001,22.5999998 171.61,22.5350005 171.71,22.445 C171.810001,22.3549996 171.91,22.1900012 172.01,21.95 C172.05,21.8499995 172.149999,21.5800022 172.31,21.14 C172.470001,20.6999978 172.679999,20.1450034 172.94,19.475 C173.200001,18.8049967 173.489998,18.0600041 173.81,17.24 C174.130002,16.4199959 174.449998,15.5850043 174.77,14.735 C175.090002,13.8849958 175.404998,13.0550041 175.715,12.245 C176.025002,11.434996 176.299999,10.7100032 176.54,10.07 C176.780001,9.4299968 176.974999,8.910002 177.125,8.51 C177.275001,8.109998 177.35,7.9000001 177.35,7.88 C177.35,7.7799995 177.285001,7.7100002 177.155,7.67 C177.024999,7.6299998 176.890001,7.6000001 176.75,7.58 L176.75,7.22 L184.58,7.22 L184.58,7.58 C184.419999,7.6000001 184.290001,7.6299998 184.19,7.67 C184.09,7.7100002 184.04,7.8099992 184.04,7.97 C184.04,8.0100002 184.134999,8.2699976 184.325,8.75 C184.515001,9.2300024 184.759999,9.85499615 185.06,10.625 C185.360002,11.3950039 185.704998,12.2649952 186.095,13.235 C186.485002,14.2050049 186.889998,15.194995 187.31,16.205 C187.730002,17.2150051 188.134998,18.1999952 188.525,19.16 C188.915002,20.1200048 189.269998,20.9799962 189.59,21.74 C189.750001,22.1000018 189.884999,22.3399994 189.995,22.46 C190.105001,22.5800006 190.249999,22.64 190.43,22.64 L190.43,23 L184.52,23 L184.52,22.64 C184.900002,22.6199999 185.09,22.5000011 185.09,22.28 C185.09,22.2599999 185.040001,22.1250013 184.94,21.875 C184.84,21.6249988 184.730001,21.3450016 184.61,21.035 C184.489999,20.7249985 184.375001,20.4300014 184.265,20.15 C184.154999,19.8699986 184.09,19.6800005 184.07,19.58 L176.96,19.58 C176.759999,20.1200027 176.600001,20.5599983 176.48,20.9 C176.359999,21.2400017 176.265,21.509999 176.195,21.71 C176.125,21.910001 176.075,22.0549996 176.045,22.145 C176.015,22.2350005 176,22.2999998 176,22.34 L176,22.34 Z M183.29,17.18 L180.38,10.04 L177.71,17.18 L183.29,17.18 Z M204.5,14.87 L204.08,14.66 C204.100001,14.5799996 204.125,14.5000004 204.155,14.42 C204.185001,14.3399996 204.2,14.2500005 204.2,14.15 C204.2,14.0299994 204.075002,13.8900008 203.825,13.73 C203.574999,13.5699992 203.255002,13.4250007 202.865,13.295 C202.474999,13.1649994 202.035003,13.0500005 201.545,12.95 C201.054998,12.8499995 200.560003,12.8 200.06,12.8 C199.499998,12.8 198.930003,12.8699993 198.35,13.01 C197.769998,13.1500007 197.250003,13.3649986 196.79,13.655 C196.329998,13.9450015 195.950002,14.3149978 195.65,14.765 C195.349999,15.2150023 195.2,15.7599968 195.2,16.4 C195.2,17.0200031 195.349999,17.5599977 195.65,18.02 C195.950002,18.4800023 196.329998,18.8549986 196.79,19.145 C197.250003,19.4350015 197.769998,19.6499993 198.35,19.79 C198.930003,19.9300007 199.499998,20 200.06,20 C200.660003,20 201.224998,19.9250008 201.755,19.775 C202.285003,19.6249993 202.754998,19.4450011 203.165,19.235 C203.575003,19.024999 203.894999,18.8150011 204.125,18.605 C204.355002,18.394999 204.47,18.2400005 204.47,18.14 L204.47,17.87 C204.47,17.7499994 204.460001,17.6600003 204.44,17.6 L204.77,17.39 L207.62,21.5 L207.26,21.71 C207.08,21.4899989 206.920001,21.38 206.78,21.38 C206.7,21.38 206.485002,21.4699991 206.135,21.65 C205.784999,21.8300009 205.320003,22.0349989 204.74,22.265 C204.159998,22.4950012 203.475004,22.6899992 202.685,22.85 C201.894997,23.0100008 201.020005,23.09 200.06,23.09 C198.959995,23.09 197.885006,22.9800011 196.835,22.76 C195.784995,22.5399989 194.850005,22.1650027 194.03,21.635 C193.209996,21.1049974 192.550003,20.4100043 192.05,19.55 C191.549998,18.6899957 191.3,17.6400062 191.3,16.4 C191.3,15.1799939 191.549998,14.1400043 192.05,13.28 C192.550003,12.4199957 193.209996,11.7200027 194.03,11.18 C194.850005,10.6399973 195.784995,10.2450013 196.835,9.995 C197.885006,9.74499875 198.959995,9.62 200.06,9.62 C200.720004,9.62 201.359997,9.67499945 201.98,9.785 C202.600004,9.89500055 203.169998,10.0099994 203.69,10.13 C204.210003,10.2500006 204.659999,10.3649995 205.04,10.475 C205.420002,10.5850006 205.69,10.64 205.85,10.64 C205.950001,10.64 206.04,10.6100003 206.12,10.55 C206.200001,10.4899997 206.26,10.4300003 206.3,10.37 L206.66,10.49 L204.5,14.87 Z M221.630001,9.8 C221.750002,9.8 221.87,9.7600004 221.990001,9.68 C222.110002,9.5999996 222.170001,9.4200014 222.170001,9.14 L222.530001,9.14 L222.530001,13.52 L222.170001,13.52 C222.170001,13.2399986 222.110002,13.0600004 221.990001,12.98 C221.87,12.8999996 221.750002,12.86 221.630001,12.86 L217.340001,12.86 L217.340001,22.1 C217.340001,22.3200011 217.415,22.4599997 217.565001,22.52 C217.715002,22.5800003 217.87,22.6199999 218.030001,22.64 L218.030001,23 L212.630001,23 L212.630001,22.64 C212.790002,22.6199999 212.945,22.5800003 213.095001,22.52 C213.245002,22.4599997 213.320001,22.3200011 213.320001,22.1 L213.320001,12.86 L209.030001,12.86 C208.91,12.86 208.790002,12.8999996 208.670001,12.98 C208.55,13.0600004 208.490001,13.2399986 208.490001,13.52 L208.130001,13.52 L208.130001,9.14 L208.490001,9.14 C208.490001,9.4200014 208.55,9.5999996 208.670001,9.68 C208.790002,9.7600004 208.91,9.8 209.030001,9.8 L221.630001,9.8 Z M230.150001,10.16 C229.85,10.1800001 229.615002,10.2199997 229.445001,10.28 C229.275001,10.3400003 229.190001,10.4799989 229.190001,10.7 L229.190001,22.1 C229.190001,22.3200011 229.275001,22.4599997 229.445001,22.52 C229.615002,22.5800003 229.85,22.6199999 230.150001,22.64 L230.150001,23 L224.210001,23 L224.210001,22.64 C224.510003,22.6199999 224.745001,22.5800003 224.915001,22.52 C225.085002,22.4599997 225.170001,22.3200011 225.170001,22.1 L225.170001,10.7 C225.170001,10.4799989 225.085002,10.3400003 224.915001,10.28 C224.745001,10.2199997 224.510003,10.1800001 224.210001,10.16 L224.210001,9.8 L230.150001,9.8 L230.150001,10.16 Z M239.810002,12.8 C239.249999,12.8 238.720004,12.8849992 238.220002,13.055 C237.719999,13.2250009 237.280004,13.4649985 236.900002,13.775 C236.52,14.0850016 236.225003,14.4599978 236.015002,14.9 C235.805001,15.3400022 235.700002,15.8399972 235.700002,16.4 C235.700002,16.9600028 235.805001,17.4599978 236.015002,17.9 C236.225003,18.3400022 236.52,18.7149985 236.900002,19.025 C237.280004,19.3350016 237.719999,19.5749992 238.220002,19.745 C238.720004,19.9150009 239.249999,20 239.810002,20 C240.390005,20 240.924999,19.9150009 241.415002,19.745 C241.905004,19.5749992 242.34,19.3350016 242.720002,19.025 C243.100004,18.7149985 243.395001,18.3400022 243.605002,17.9 C243.815003,17.4599978 243.920002,16.9600028 243.920002,16.4 C243.920002,15.8399972 243.815003,15.3400022 243.605002,14.9 C243.395001,14.4599978 243.100004,14.0850016 242.720002,13.775 C242.34,13.4649985 241.905004,13.2250009 241.415002,13.055 C240.924999,12.8849992 240.390005,12.8 239.810002,12.8 L239.810002,12.8 Z M239.810002,9.62 C240.750007,9.62 241.694997,9.7499987 242.645002,10.01 C243.595007,10.2700013 244.454998,10.6749973 245.225002,11.225 C245.995006,11.7750028 246.62,12.4799957 247.100002,13.34 C247.580004,14.2000043 247.820002,15.2199941 247.820002,16.4 C247.820002,17.600006 247.580004,18.6249958 247.100002,19.475 C246.62,20.3250043 245.995006,21.0199973 245.225002,21.56 C244.454998,22.1000027 243.595007,22.4899988 242.645002,22.73 C241.694997,22.9700012 240.750007,23.09 239.810002,23.09 C238.869997,23.09 237.925007,22.9700012 236.975002,22.73 C236.024997,22.4899988 235.165006,22.1000027 234.395002,21.56 C233.624998,21.0199973 233.000004,20.3250043 232.520002,19.475 C232.04,18.6249958 231.800002,17.600006 231.800002,16.4 C231.800002,15.2199941 232.04,14.2000043 232.520002,13.34 C233.000004,12.4799957 233.624998,11.7750028 234.395002,11.225 C235.165006,10.6749973 236.024997,10.2700013 236.975002,10.01 C237.925007,9.7499987 238.869997,9.62 239.810002,9.62 L239.810002,9.62 Z M264.860002,22.1 C264.860002,22.3200011 264.940002,22.4599997 265.100002,22.52 C265.260003,22.5800003 265.460001,22.6199999 265.700002,22.64 L265.700002,23 L260.150002,23 L260.150002,22.64 C260.310003,22.64 260.495001,22.6200002 260.705002,22.58 C260.915003,22.5399998 261.020002,22.4300009 261.020002,22.25 C261.020002,22.0699991 260.800005,21.7350025 260.360002,21.245 C259.92,20.7549976 259.355006,20.1500036 258.665002,19.43 C257.974999,18.7099964 257.200007,17.9050045 256.340002,17.015 C255.479998,16.1249956 254.630007,15.180005 253.790002,14.18 L253.730002,14.24 L253.730002,22.1 C253.730002,22.3200011 253.805002,22.4599997 253.955002,22.52 C254.105003,22.5800003 254.290001,22.6199999 254.510002,22.64 L254.510002,23 L249.380002,23 L249.380002,22.64 C249.580003,22.6199999 249.755002,22.5800003 249.905002,22.52 C250.055003,22.4599997 250.130002,22.3200011 250.130002,22.1 L250.130002,10.7 C250.130002,10.4799989 250.050003,10.3400003 249.890002,10.28 C249.730002,10.2199997 249.540003,10.1800001 249.320002,10.16 L249.320002,9.8 L256.460002,9.8 L256.460002,10.16 C256.320002,10.1800001 256.180003,10.2199997 256.040002,10.28 C255.900002,10.3400003 255.830002,10.4799989 255.830002,10.7 C255.830002,10.7400002 255.995001,10.9449982 256.325002,11.315 C256.655004,11.6850019 257.08,12.1499972 257.600002,12.71 C258.120005,13.2700028 258.699999,13.8899966 259.340002,14.57 C259.980006,15.2500034 260.619999,15.9299966 261.260002,16.61 L261.260002,10.7 C261.260002,10.4799989 261.180003,10.3400003 261.020002,10.28 C260.860002,10.2199997 260.660004,10.1800001 260.420002,10.16 L260.420002,9.8 L265.700002,9.8 L265.700002,10.16 C265.460001,10.1800001 265.260003,10.2199997 265.100002,10.28 C264.940002,10.3400003 264.860002,10.4799989 264.860002,10.7 L264.860002,22.1 Z" id="Action" fill="#50E3C2"></path>
                </g>
            </g>
        </g>
    </g>
</svg>