<?xml version="1.0" encoding="UTF-8"?>
<svg width="1551px" height="806px" viewBox="0 0 1551 806" version="1.1" xmlns="http://www.w3.org/2000/svg" xmlns:xlink="http://www.w3.org/1999/xlink">
    <!-- Generator: Sketch 39.1 (31720) - http://www.bohemiancoding.com/sketch -->
    <title>network</title>
    <desc>Created with Sketch.</desc>
    <defs></defs>
    <g id="home" stroke="none" stroke-width="1" fill="none" fill-rule="evenodd">
        <g id="Desktop-HD" fill="#CCFFF5">
            <g id="network" transform="translate(-298.000000, -426.000000)">
                <rect id="Rectangle-path" transform="translate(1307.112726, 662.507120) rotate(79.653129) translate(-1307.112726, -662.507120) " x="1306.42719" y="544.964212" width="1.37108255" height="235.085815"></rect>
                <rect id="Rectangle-path" transform="translate(1307.112726, 662.507120) rotate(79.653129) translate(-1307.112726, -662.507120) " x="1306.42719" y="544.964212" width="1.37108255" height="235.085815"></rect>
                <rect id="Rectangle-path" transform="translate(1425.748776, 593.522342) rotate(3.577407) translate(-1425.748776, -593.522342) " x="1425.06317" y="545.511045" width="1.37120288" height="96.0225955"></rect>
                <rect id="Rectangle-path" transform="translate(1310.081332, 614.577320) rotate(59.727065) translate(-1310.081332, -614.577320) " x="1309.39579" y="477.293571" width="1.3710825" height="274.567497"></rect>
                <rect id="Rectangle-path" transform="translate(1310.081332, 614.577320) rotate(59.727065) translate(-1310.081332, -614.577320) " x="1309.39579" y="477.293571" width="1.3710825" height="274.567497"></rect>
                <rect id="Rectangle-path" transform="translate(571.706105, 735.367658) rotate(53.330637) translate(-571.706105, -735.367658) " x="412.077459" y="734.684828" width="319.257292" height="1.36565995"></rect>
                <rect id="Rectangle-path" transform="translate(360.861558, 643.444543) rotate(72.699293) translate(-360.861558, -643.444543) " x="360.175959" y="522.417149" width="1.37119769" height="242.054787"></rect>
                <polygon id="Shape" points="180.857885 751.887178 476.705186 607.967245 476.10737 606.733223 180.857885 750.362475"></polygon>
                <rect id="Rectangle-path" transform="translate(472.490713, 608.494446) rotate(73.685477) translate(-472.490713, -608.494446) " x="471.805169" y="604.392152" width="1.37108739" height="8.20458692"></rect>
                <rect id="Rectangle-path" transform="translate(567.786104, 736.531967) rotate(51.961197) translate(-567.786104, -736.531967) " x="406.690015" y="735.846394" width="322.192178" height="1.37114724"></rect>
                <rect id="Rectangle-path" transform="translate(356.923128, 644.599615) rotate(72.699293) translate(-356.923128, -644.599615) " x="356.237529" y="527.674845" width="1.37119769" height="233.84954"></rect>
                <polygon id="Shape" points="180.857885 751.717157 468.840349 610.276239 468.231564 609.042216 180.857885 750.186969"></polygon>
                <rect id="Rectangle-path" transform="translate(567.352188, 785.834305) rotate(60.717779) translate(-567.352188, -785.834305) " x="365.364038" y="785.148754" width="403.976299" height="1.37110298"></rect>
                <rect id="Rectangle-path" transform="translate(571.250730, 784.710664) rotate(61.856401) translate(-571.250730, -784.710664) " x="370.130714" y="784.025071" width="402.240033" height="1.37118558"></rect>
                <rect id="Rectangle-path" x="665.916487" y="863.409907" width="1.37113613" height="98.6121106"></rect>
                <rect id="Rectangle-path" transform="translate(1391.389874, 571.491242) rotate(55.194324) translate(-1391.389874, -571.491242) " x="1390.7043" y="526.089777" width="1.37114837" height="90.8029296"></rect>
                <rect id="Rectangle-path" transform="translate(1388.380426, 619.397682) rotate(32.711128) translate(-1388.380426, -619.397682) " x="1347.67168" y="618.714861" width="81.4174985" height="1.36564211"></rect>
                <rect id="Rectangle-path" transform="translate(1272.843866, 640.543186) rotate(62.030645) translate(-1272.843866, -640.543186) " x="1272.1583" y="548.432854" width="1.37113835" height="184.220665"></rect>
                <rect id="Rectangle-path" transform="translate(1272.843866, 640.543186) rotate(62.030645) translate(-1272.843866, -640.543186) " x="1272.1583" y="548.432854" width="1.37113835" height="184.220665"></rect>
                <rect id="Rectangle-path" transform="translate(676.936999, 787.887286) rotate(3.577407) translate(-676.936999, -787.887286) " x="676.251398" y="613.357841" width="1.37120288" height="349.058891"></rect>
                <rect id="Rectangle-path" transform="translate(578.135749, 611.633923) rotate(1.042877) translate(-578.135749, -611.633923) " x="468.517182" y="610.948378" width="219.237134" height="1.37108902"></rect>
                <rect id="Rectangle-path" transform="translate(582.098055, 610.523307) rotate(1.707592) translate(-582.098055, -610.523307) " x="476.378797" y="609.837709" width="211.438515" height="1.3711966"></rect>
                <rect id="Rectangle-path" transform="translate(677.377427, 738.523223) rotate(4.709397) translate(-677.377427, -738.523223) " x="676.691875" y="613.220843" width="1.3711032" height="250.604759"></rect>
                <rect id="Rectangle-path" transform="translate(809.236042, 772.527042) rotate(52.585809) translate(-809.236042, -772.527042) " x="609.26601" y="771.838701" width="399.940064" height="1.37668279"></rect>
                <rect id="Rectangle-path" transform="translate(798.421695, 946.670054) rotate(83.263720) translate(-798.421695, -946.670054) " x="797.736125" y="813.485657" width="1.37114086" height="266.368793"></rect>
                <rect id="Rectangle-path" transform="translate(798.905523, 897.359093) rotate(14.442018) translate(-798.905523, -897.359093) " x="662.787428" y="896.676268" width="272.23619" height="1.36565085"></rect>
                <rect id="Rectangle-path" transform="translate(1061.098354, 807.526671) rotate(46.734232) translate(-1061.098354, -807.526671) " x="1060.41003" y="627.744435" width="1.37665399" height="359.564471"></rect>
                <rect id="Rectangle-path" transform="translate(1061.098354, 807.526671) rotate(46.734232) translate(-1061.098354, -807.526671) " x="1060.41003" y="627.744435" width="1.37665399" height="359.564471"></rect>
                <rect id="Rectangle-path" transform="translate(955.029968, 795.880008) rotate(10.125477) translate(-955.029968, -795.880008) " x="954.344417" y="658.303716" width="1.37110117" height="275.152582"></rect>
                <rect id="Rectangle-path" transform="translate(833.512580, 637.060960) rotate(9.126035) translate(-833.512580, -637.060960) " x="685.825539" y="636.375421" width="295.374082" height="1.37107803"></rect>
                <rect id="Rectangle-path" transform="translate(1166.750920, 628.979524) rotate(80.317274) translate(-1166.750920, -628.979524) " x="1166.06532" y="438.9422" width="1.37119981" height="380.074647"></rect>
                <rect id="Rectangle-path" transform="translate(823.206324, 761.938956) rotate(57.118809) translate(-823.206324, -761.938956) " x="822.520755" y="575.713574" width="1.37113918" height="372.450763"></rect>
                <rect id="Rectangle-path" transform="translate(1085.417655, 672.133067) rotate(6.245919) translate(-1085.417655, -672.133067) " x="978.769576" y="671.447475" width="213.296157" height="1.37118566"></rect>
                <rect id="Rectangle-path" transform="translate(1085.417655, 672.133067) rotate(6.245919) translate(-1085.417655, -672.133067) " x="978.769576" y="671.447475" width="213.296157" height="1.37118566"></rect>
                <rect id="Rectangle-path" transform="translate(1379.440707, 763.111530) rotate(81.355339) translate(-1379.440707, -763.111530) " x="1211.79585" y="762.423247" width="335.28971" height="1.37656564"></rect>
                <rect id="Rectangle-path" transform="translate(1416.614593, 737.163458) rotate(3.589201) translate(-1416.614593, -737.163458) " x="1415.92905" y="545.129548" width="1.37108318" height="384.06782"></rect>
                <rect id="Rectangle-path" transform="translate(1413.593690, 785.077176) rotate(3.589201) translate(-1413.593690, -785.077176) " x="1412.90815" y="641.050372" width="1.37108318" height="288.053607"></rect>
                <rect id="Rectangle-path" transform="translate(1297.972275, 806.225482) rotate(49.002192) translate(-1297.972275, -806.225482) " x="1135.54124" y="805.539945" width="324.862065" height="1.37107312"></rect>
                <rect id="Rectangle-path" transform="translate(1297.972275, 806.225482) rotate(49.002192) translate(-1297.972275, -806.225482) " x="1135.54124" y="805.539945" width="324.862065" height="1.37107312"></rect>
                <rect id="Rectangle-path" transform="translate(755.917084, 991.183289) rotate(70.997928) translate(-755.917084, -991.183289) " x="755.234263" y="806.421282" width="1.36564176" height="369.524013"></rect>
                <rect id="Rectangle-path" transform="translate(623.666897, 1006.610458) rotate(43.731830) translate(-623.666897, -1006.610458) " x="622.981313" y="945.047758" width="1.37116798" height="123.1254"></rect>
                <rect id="Rectangle-path" transform="translate(624.152546, 957.298638) rotate(24.663496) translate(-624.152546, -957.298638) " x="623.466958" y="854.076582" width="1.37117502" height="206.444112"></rect>
                <rect id="Rectangle-path" transform="translate(399.185557, 1057.522720) rotate(87.988538) translate(-399.185557, -1057.522720) " x="398.499978" y="875.46306" width="1.37115832" height="364.11932"></rect>
                <rect id="Rectangle-path" transform="translate(441.961507, 933.874119) rotate(40.112210) translate(-441.961507, -933.874119) " x="259.936663" y="933.188537" width="364.049687" height="1.3711646"></rect>
                <rect id="Rectangle-path" transform="translate(484.458403, 889.304174) rotate(21.814177) translate(-484.458403, -889.304174) " x="288.749375" y="888.61586" width="391.418057" height="1.37662971"></rect>
                <rect id="Rectangle-path" transform="translate(385.640121, 713.135990) rotate(38.658913) translate(-385.640121, -713.135990) " x="384.954534" y="580.565425" width="1.37117377" height="265.141129"></rect>
                <rect id="Rectangle-path" transform="translate(389.590318, 711.925399) rotate(39.920751) translate(-389.590318, -711.925399) " x="388.90478" y="575.983063" width="1.37107751" height="271.884671"></rect>
                <rect id="Rectangle-path" transform="translate(484.935297, 839.954228) rotate(7.325432) translate(-484.935297, -839.954228) " x="301.275896" y="839.268686" width="367.318802" height="1.37108368"></rect>
                <rect id="Rectangle-path" transform="translate(274.081652, 748.071420) rotate(67.281409) translate(-274.081652, -748.071420) " x="199.794529" y="747.385862" width="148.574246" height="1.37111707"></rect>
                <rect id="Rectangle-path" transform="translate(260.018993, 940.269528) rotate(19.141597) translate(-260.018993, -940.269528) " x="259.333433" y="809.382411" width="1.37112002" height="261.774234"></rect>
                <polygon id="Shape" points="180.857885 779.671881 180.857885 781.097862 302.548959 817.219073 302.938362 815.908267"></polygon>
                <rect id="Rectangle-path" transform="translate(1306.387104, 951.335057) rotate(77.156117) translate(-1306.387104, -951.335057) " x="1305.70152" y="850.650402" width="1.37116512" height="201.36931"></rect>
                <rect id="Rectangle-path" transform="translate(1093.780482, 817.127428) rotate(53.850888) translate(-1093.780482, -817.127428) " x="899.807628" y="816.441847" width="387.945709" height="1.37116236"></rect>
                <rect id="Rectangle-path" transform="translate(1069.498649, 952.481560) rotate(8.690839) translate(-1069.498649, -952.481560) " x="929.121554" y="951.796005" width="280.754189" height="1.37111108"></rect>
                <rect id="Rectangle-path" transform="translate(1281.205401, 785.504886) rotate(21.260889) translate(-1281.205401, -785.504886) " x="1280.51986" y="583.684829" width="1.3710788" height="403.640113"></rect>
                <rect id="Rectangle-path" transform="translate(1315.504816, 807.547502) rotate(32.881191) translate(-1315.504816, -807.547502) " x="1314.81925" y="609.785355" width="1.37113918" height="395.524293"></rect>
                <rect id="Rectangle-path" transform="translate(1199.833208, 828.671399) rotate(86.680644) translate(-1199.833208, -828.671399) " x="1054.57007" y="827.985846" width="290.526284" height="1.37110549"></rect>
                <rect id="Rectangle-path" transform="translate(1199.833208, 828.671399) rotate(86.680644) translate(-1199.833208, -828.671399) " x="1054.57007" y="827.985846" width="290.526284" height="1.37110549"></rect>
                <polygon id="Shape" points="1891.94802 669.481897 1629.50708 528.80333 1628.86539 530.009929 1891.94802 671.039507"></polygon>
                <rect id="Rectangle-path" transform="translate(1491.646599, 563.419671) rotate(76.019340) translate(-1491.646599, -563.419671) " x="1490.95827" y="421.76703" width="1.37665283" height="283.305281"></rect>
                <rect id="Rectangle-path" transform="translate(1529.003076, 537.461672) rotate(85.290603) translate(-1529.003076, -537.461672) " x="1528.31752" y="436.907706" width="1.3711032" height="201.107933"></rect>
                <rect id="Rectangle-path" transform="translate(1525.974981, 585.436906) rotate(61.530833) translate(-1525.974981, -585.436906) " x="1525.28939" y="467.976395" width="1.37117706" height="234.921023"></rect>
                <rect id="Rectangle-path" transform="translate(1514.542415, 954.261643) rotate(12.985598) translate(-1514.542415, -954.261643) " x="1401.59404" y="953.578835" width="225.896743" height="1.36561434"></rect>
                <rect id="Rectangle-path" transform="translate(1523.625081, 810.545604) rotate(59.157102) translate(-1523.625081, -810.545604) " x="1326.634" y="809.860017" width="393.98217" height="1.37117401"></rect>
                <rect id="Rectangle-path" transform="translate(1661.740675, 887.518077) rotate(22.135492) translate(-1661.740675, -887.518077) " x="1661.05785" y="788.222648" width="1.36565837" height="198.590859"></rect>
                <rect id="Rectangle-path" transform="translate(1664.052503, 662.389393) rotate(75.332845) translate(-1664.052503, -662.389393) " x="1526.58425" y="661.703835" width="274.936505" height="1.37111762"></rect>
                <polygon id="Shape" points="1891.94802 734.863152 1698.59041 794.73244 1698.99626 796.048731 1891.94802 736.300103"></polygon>
                <rect id="Rectangle-path" transform="translate(1551.670276, 862.208382) rotate(65.444143) translate(-1551.670276, -862.208382) " x="1550.98742" y="700.645181" width="1.36571681" height="323.126403"></rect>
                <rect id="Rectangle-path" transform="translate(1526.512303, 696.428495) rotate(29.879904) translate(-1526.512303, -696.428495) " x="1327.77879" y="695.742904" width="397.467019" height="1.37118114"></rect>
                <rect id="Rectangle-path" transform="translate(1563.794786, 670.526095) rotate(42.771244) translate(-1563.794786, -670.526095) " x="1379.83584" y="669.8405" width="367.917893" height="1.37119072"></rect>
                <rect id="Rectangle-path" transform="translate(1560.695061, 718.343836) rotate(29.151440) translate(-1560.695061, -718.343836) " x="1402.62315" y="717.658295" width="316.143812" height="1.37108081"></rect>
                <polygon id="Shape" points="1891.94802 845.321879 1698.96884 794.726956 1698.62331 796.054215 1891.94802 846.742376"></polygon>
                <polygon id="Shape" points="1891.94802 956.976236 1774.4636 994.753779 1774.88042 996.059101 1891.94802 958.418671"></polygon>
                <rect id="Rectangle-path" transform="translate(1736.735599, 895.432763) rotate(69.225344) translate(-1736.735599, -895.432763) " x="1629.76854" y="894.74444" width="213.934111" height="1.37664621"></rect>
                <rect id="Rectangle-path" transform="translate(1699.617846, 987.577914) rotate(6.009906) translate(-1699.617846, -987.577914) " x="1624.20565" y="986.892349" width="150.824397" height="1.37113088"></rect>
                <polygon id="Shape" points="1891.94802 823.120443 1774.1071 995.017037 1775.23692 995.790358 1891.94802 825.544611"></polygon>
                <rect id="Rectangle-path" transform="translate(1589.590726, 962.102768) rotate(10.189538) translate(-1589.590726, -962.102768) " x="1401.57216" y="961.417219" width="376.037125" height="1.37109723"></rect>
                <ellipse id="Oval" cx="1191.42361" cy="683.686867" rx="4.10243931" ry="4.10243931"></ellipse>
                <ellipse id="Oval" cx="1422.68491" cy="641.39006" rx="4.10243931" ry="4.10243931"></ellipse>
                <ellipse id="Oval" cx="1191.42361" cy="683.686867" rx="4.10243931" ry="4.10243931"></ellipse>
                <ellipse id="Oval" cx="1422.68491" cy="641.39006" rx="4.10243931" ry="4.10243931"></ellipse>
                <ellipse id="Oval" cx="1422.68491" cy="641.39006" rx="4.10243931" ry="4.10243931"></ellipse>
                <ellipse id="Oval" cx="1428.72339" cy="545.558613" rx="4.10243931" ry="4.10243931"></ellipse>
                <ellipse id="Oval" cx="1191.42361" cy="683.686867" rx="4.10243931" ry="4.10243931"></ellipse>
                <ellipse id="Oval" cx="1428.72339" cy="545.558613" rx="4.10243931" ry="4.10243931"></ellipse>
                <ellipse id="Oval" cx="1191.42361" cy="683.686867" rx="4.10243931" ry="4.10243931"></ellipse>
                <ellipse id="Oval" cx="1428.72339" cy="545.558613" rx="4.10243931" ry="4.10243931"></ellipse>
                <ellipse id="Oval" cx="667.079211" cy="863.409907" rx="4.10243931" ry="4.10243931"></ellipse>
                <ellipse id="Oval" cx="476.403536" cy="607.347492" rx="4.10243931" ry="4.10243931"></ellipse>
                <ellipse id="Oval" cx="476.403536" cy="607.347492" rx="4.10243931" ry="4.10243931"></ellipse>
                <ellipse id="Oval" cx="476.403536" cy="607.347492" rx="4.10243931" ry="4.10243931"></ellipse>
                <ellipse id="Oval" cx="476.403536" cy="607.347492" rx="4.10243931" ry="4.10243931"></ellipse>
                <circle id="Oval" cx="468.533214" cy="609.66197" r="4.10243931"></circle>
                <ellipse id="Oval" cx="667.079211" cy="863.409907" rx="4.10243931" ry="4.10243931"></ellipse>
                <circle id="Oval" cx="468.533214" cy="609.66197" r="4.10243931"></circle>
                <circle id="Oval" cx="468.533214" cy="609.66197" r="4.10243931"></circle>
                <circle id="Oval" cx="468.533214" cy="609.66197" r="4.10243931"></circle>
                <circle id="Oval" cx="468.533214" cy="609.66197" r="4.10243931"></circle>
                <ellipse id="Oval" cx="666.1249" cy="962.022017" rx="4.10243931" ry="4.10243931"></ellipse>
                <ellipse id="Oval" cx="476.403536" cy="607.347492" rx="4.10243931" ry="4.10243931"></ellipse>
                <ellipse id="Oval" cx="666.1249" cy="962.022017" rx="4.10243931" ry="4.10243931"></ellipse>
                <ellipse id="Oval" cx="667.079211" cy="863.409907" rx="4.10243931" ry="4.10243931"></ellipse>
                <ellipse id="Oval" cx="666.1249" cy="962.022017" rx="4.10243931" ry="4.10243931"></ellipse>
                <ellipse id="Oval" cx="1428.72339" cy="545.558613" rx="4.10243931" ry="4.10243931"></ellipse>
                <ellipse id="Oval" cx="1354.17746" cy="597.387559" rx="4.10243931" ry="4.10243931"></ellipse>
                <ellipse id="Oval" cx="1422.68491" cy="641.39006" rx="4.10243931" ry="4.10243931"></ellipse>
                <ellipse id="Oval" cx="1354.17746" cy="597.387559" rx="4.10243931" ry="4.10243931"></ellipse>
                <ellipse id="Oval" cx="1191.42361" cy="683.686867" rx="4.10243931" ry="4.10243931"></ellipse>
                <ellipse id="Oval" cx="1354.17746" cy="597.387559" rx="4.10243931" ry="4.10243931"></ellipse>
                <ellipse id="Oval" cx="1191.42361" cy="683.686867" rx="4.10243931" ry="4.10243931"></ellipse>
                <ellipse id="Oval" cx="1354.17746" cy="597.387559" rx="4.10243931" ry="4.10243931"></ellipse>
                <ellipse id="Oval" cx="666.1249" cy="962.022017" rx="4.10243931" ry="4.10243931"></ellipse>
                <ellipse id="Oval" cx="687.744975" cy="613.649233" rx="4.10243931" ry="4.10243931"></ellipse>
                <circle id="Oval" cx="468.533214" cy="609.66197" r="4.10243931"></circle>
                <ellipse id="Oval" cx="687.744975" cy="613.649233" rx="4.10243931" ry="4.10243931"></ellipse>
                <ellipse id="Oval" cx="476.403536" cy="607.347492" rx="4.10243931" ry="4.10243931"></ellipse>
                <ellipse id="Oval" cx="687.744975" cy="613.649233" rx="4.10243931" ry="4.10243931"></ellipse>
                <ellipse id="Oval" cx="667.079211" cy="863.409907" rx="4.10243931" ry="4.10243931"></ellipse>
                <ellipse id="Oval" cx="687.744975" cy="613.649233" rx="4.10243931" ry="4.10243931"></ellipse>
                <ellipse id="Oval" cx="687.744975" cy="613.649233" rx="4.10243931" ry="4.10243931"></ellipse>
                <ellipse id="Oval" cx="930.710297" cy="931.303083" rx="4.10243931" ry="4.10243931"></ellipse>
                <ellipse id="Oval" cx="666.1249" cy="962.022017" rx="4.10243931" ry="4.10243931"></ellipse>
                <ellipse id="Oval" cx="930.710297" cy="931.303083" rx="4.10243931" ry="4.10243931"></ellipse>
                <ellipse id="Oval" cx="667.079211" cy="863.409907" rx="4.10243931" ry="4.10243931"></ellipse>
                <ellipse id="Oval" cx="930.710297" cy="931.303083" rx="4.10243931" ry="4.10243931"></ellipse>
                <ellipse id="Oval" cx="1191.42361" cy="683.686867" rx="4.10243931" ry="4.10243931"></ellipse>
                <ellipse id="Oval" cx="930.710297" cy="931.303083" rx="4.10243931" ry="4.10243931"></ellipse>
                <ellipse id="Oval" cx="1191.42361" cy="683.686867" rx="4.10243931" ry="4.10243931"></ellipse>
                <ellipse id="Oval" cx="930.710297" cy="931.303083" rx="4.10243931" ry="4.10243931"></ellipse>
                <ellipse id="Oval" cx="930.710297" cy="931.303083" rx="4.10243931" ry="4.10243931"></ellipse>
                <ellipse id="Oval" cx="979.396599" cy="660.487244" rx="4.10243931" ry="4.10243931"></ellipse>
                <ellipse id="Oval" cx="687.744975" cy="613.649233" rx="4.10243931" ry="4.10243931"></ellipse>
                <ellipse id="Oval" cx="979.396599" cy="660.487244" rx="4.10243931" ry="4.10243931"></ellipse>
                <ellipse id="Oval" cx="1354.17746" cy="597.387559" rx="4.10243931" ry="4.10243931"></ellipse>
                <ellipse id="Oval" cx="979.396599" cy="660.487244" rx="4.10243931" ry="4.10243931"></ellipse>
                <ellipse id="Oval" cx="667.079211" cy="863.409907" rx="4.10243931" ry="4.10243931"></ellipse>
                <ellipse id="Oval" cx="979.396599" cy="660.487244" rx="4.10243931" ry="4.10243931"></ellipse>
                <ellipse id="Oval" cx="1191.42361" cy="683.686867" rx="4.10243931" ry="4.10243931"></ellipse>
                <ellipse id="Oval" cx="979.396599" cy="660.487244" rx="4.10243931" ry="4.10243931"></ellipse>
                <ellipse id="Oval" cx="1191.42361" cy="683.686867" rx="4.10243931" ry="4.10243931"></ellipse>
                <ellipse id="Oval" cx="979.396599" cy="660.487244" rx="4.10243931" ry="4.10243931"></ellipse>
                <ellipse id="Oval" cx="1354.17746" cy="597.387559" rx="4.10243931" ry="4.10243931"></ellipse>
                <ellipse id="Oval" cx="1404.55301" cy="928.878915" rx="4.10243931" ry="4.10243931"></ellipse>
                <ellipse id="Oval" cx="1428.72339" cy="545.558613" rx="4.10243931" ry="4.10243931"></ellipse>
                <ellipse id="Oval" cx="1404.55301" cy="928.878915" rx="4.10243931" ry="4.10243931"></ellipse>
                <ellipse id="Oval" cx="1422.68491" cy="641.39006" rx="4.10243931" ry="4.10243931"></ellipse>
                <ellipse id="Oval" cx="1404.55301" cy="928.878915" rx="4.10243931" ry="4.10243931"></ellipse>
                <ellipse id="Oval" cx="1191.42361" cy="683.686867" rx="4.10243931" ry="4.10243931"></ellipse>
                <ellipse id="Oval" cx="1404.55301" cy="928.878915" rx="4.10243931" ry="4.10243931"></ellipse>
                <ellipse id="Oval" cx="1191.42361" cy="683.686867" rx="4.10243931" ry="4.10243931"></ellipse>
                <ellipse id="Oval" cx="1404.55301" cy="928.878915" rx="4.10243931" ry="4.10243931"></ellipse>
                <ellipse id="Oval" cx="930.710297" cy="931.303083" rx="4.10243931" ry="4.10243931"></ellipse>
                <ellipse id="Oval" cx="581.147367" cy="1051.11844" rx="4.10243931" ry="4.10243931"></ellipse>
                <ellipse id="Oval" cx="666.1249" cy="962.022017" rx="4.10243931" ry="4.10243931"></ellipse>
                <ellipse id="Oval" cx="581.147367" cy="1051.11844" rx="4.10243931" ry="4.10243931"></ellipse>
                <ellipse id="Oval" cx="667.079211" cy="863.409907" rx="4.10243931" ry="4.10243931"></ellipse>
                <ellipse id="Oval" cx="581.147367" cy="1051.11844" rx="4.10243931" ry="4.10243931"></ellipse>
                <ellipse id="Oval" cx="581.147367" cy="1051.11844" rx="4.10243931" ry="4.10243931"></ellipse>
                <ellipse id="Oval" cx="581.147367" cy="1051.11844" rx="4.10243931" ry="4.10243931"></ellipse>
                <ellipse id="Oval" cx="302.740918" cy="816.560927" rx="4.10243931" ry="4.10243931"></ellipse>
                <ellipse id="Oval" cx="666.1249" cy="962.022017" rx="4.10243931" ry="4.10243931"></ellipse>
                <ellipse id="Oval" cx="302.740918" cy="816.560927" rx="4.10243931" ry="4.10243931"></ellipse>
                <circle id="Oval" cx="468.533214" cy="609.66197" r="4.10243931"></circle>
                <ellipse id="Oval" cx="302.740918" cy="816.560927" rx="4.10243931" ry="4.10243931"></ellipse>
                <ellipse id="Oval" cx="476.403536" cy="607.347492" rx="4.10243931" ry="4.10243931"></ellipse>
                <ellipse id="Oval" cx="302.740918" cy="816.560927" rx="4.10243931" ry="4.10243931"></ellipse>
                <ellipse id="Oval" cx="667.079211" cy="863.409907" rx="4.10243931" ry="4.10243931"></ellipse>
                <ellipse id="Oval" cx="302.740918" cy="816.560927" rx="4.10243931" ry="4.10243931"></ellipse>
                <ellipse id="Oval" cx="302.740918" cy="816.560927" rx="4.10243931" ry="4.10243931"></ellipse>
                <ellipse id="Oval" cx="302.740918" cy="816.560927" rx="4.10243931" ry="4.10243931"></ellipse>
                <ellipse id="Oval" cx="302.740918" cy="816.560927" rx="4.10243931" ry="4.10243931"></ellipse>
                <ellipse id="Oval" cx="1404.55301" cy="928.878915" rx="4.10243931" ry="4.10243931"></ellipse>
                <ellipse id="Oval" cx="1208.25019" cy="973.737004" rx="4.10243931" ry="4.10243931"></ellipse>
                <ellipse id="Oval" cx="979.396599" cy="660.487244" rx="4.10243931" ry="4.10243931"></ellipse>
                <ellipse id="Oval" cx="1208.25019" cy="973.737004" rx="4.10243931" ry="4.10243931"></ellipse>
                <ellipse id="Oval" cx="930.710297" cy="931.303083" rx="4.10243931" ry="4.10243931"></ellipse>
                <ellipse id="Oval" cx="1208.25019" cy="973.737004" rx="4.10243931" ry="4.10243931"></ellipse>
                <ellipse id="Oval" cx="1354.17746" cy="597.387559" rx="4.10243931" ry="4.10243931"></ellipse>
                <ellipse id="Oval" cx="1208.25019" cy="973.737004" rx="4.10243931" ry="4.10243931"></ellipse>
                <ellipse id="Oval" cx="1422.68491" cy="641.39006" rx="4.10243931" ry="4.10243931"></ellipse>
                <ellipse id="Oval" cx="1208.25019" cy="973.737004" rx="4.10243931" ry="4.10243931"></ellipse>
                <ellipse id="Oval" cx="1191.42361" cy="683.686867" rx="4.10243931" ry="4.10243931"></ellipse>
                <ellipse id="Oval" cx="1208.25019" cy="973.737004" rx="4.10243931" ry="4.10243931"></ellipse>
                <ellipse id="Oval" cx="1191.42361" cy="683.686867" rx="4.10243931" ry="4.10243931"></ellipse>
                <ellipse id="Oval" cx="1208.25019" cy="973.737004" rx="4.10243931" ry="4.10243931"></ellipse>
                <ellipse id="Oval" cx="1629.18898" cy="529.40663" rx="4.10243931" ry="4.10243931"></ellipse>
                <ellipse id="Oval" cx="1354.17746" cy="597.387559" rx="4.10243931" ry="4.10243931"></ellipse>
                <ellipse id="Oval" cx="1629.18898" cy="529.40663" rx="4.10243931" ry="4.10243931"></ellipse>
                <ellipse id="Oval" cx="1428.72339" cy="545.558613" rx="4.10243931" ry="4.10243931"></ellipse>
                <ellipse id="Oval" cx="1629.18898" cy="529.40663" rx="4.10243931" ry="4.10243931"></ellipse>
                <ellipse id="Oval" cx="1422.68491" cy="641.39006" rx="4.10243931" ry="4.10243931"></ellipse>
                <ellipse id="Oval" cx="1629.18898" cy="529.40663" rx="4.10243931" ry="4.10243931"></ellipse>
                <ellipse id="Oval" cx="1404.55301" cy="928.878915" rx="4.10243931" ry="4.10243931"></ellipse>
                <ellipse id="Oval" cx="1624.68069" cy="979.627405" rx="4.10243931" ry="4.10243931"></ellipse>
                <ellipse id="Oval" cx="1422.68491" cy="641.39006" rx="4.10243931" ry="4.10243931"></ellipse>
                <ellipse id="Oval" cx="1624.68069" cy="979.627405" rx="4.10243931" ry="4.10243931"></ellipse>
                <ellipse id="Oval" cx="1624.68069" cy="979.627405" rx="4.10243931" ry="4.10243931"></ellipse>
                <circle id="Oval" cx="1698.79334" cy="795.390585" r="4.10243931"></circle>
                <ellipse id="Oval" cx="1629.18898" cy="529.40663" rx="4.10243931" ry="4.10243931"></ellipse>
                <circle id="Oval" cx="1698.79334" cy="795.390585" r="4.10243931"></circle>
                <circle id="Oval" cx="1698.79334" cy="795.390585" r="4.10243931"></circle>
                <ellipse id="Oval" cx="1404.55301" cy="928.878915" rx="4.10243931" ry="4.10243931"></ellipse>
                <circle id="Oval" cx="1698.79334" cy="795.390585" r="4.10243931"></circle>
                <ellipse id="Oval" cx="1354.17746" cy="597.387559" rx="4.10243931" ry="4.10243931"></ellipse>
                <circle id="Oval" cx="1698.79334" cy="795.390585" r="4.10243931"></circle>
                <ellipse id="Oval" cx="1428.72339" cy="545.558613" rx="4.10243931" ry="4.10243931"></ellipse>
                <circle id="Oval" cx="1698.79334" cy="795.390585" r="4.10243931"></circle>
                <ellipse id="Oval" cx="1422.68491" cy="641.39006" rx="4.10243931" ry="4.10243931"></ellipse>
                <circle id="Oval" cx="1698.79334" cy="795.390585" r="4.10243931"></circle>
                <circle id="Oval" cx="1698.79334" cy="795.390585" r="4.10243931"></circle>
                <ellipse id="Oval" cx="1774.66652" cy="995.411924" rx="4.10243931" ry="4.10243931"></ellipse>
                <circle id="Oval" cx="1698.79334" cy="795.390585" r="4.10243931"></circle>
                <ellipse id="Oval" cx="1774.66652" cy="995.411924" rx="4.10243931" ry="4.10243931"></ellipse>
                <ellipse id="Oval" cx="1624.68069" cy="979.627405" rx="4.10243931" ry="4.10243931"></ellipse>
                <ellipse id="Oval" cx="1774.66652" cy="995.411924" rx="4.10243931" ry="4.10243931"></ellipse>
                <ellipse id="Oval" cx="1774.66652" cy="995.411924" rx="4.10243931" ry="4.10243931"></ellipse>
                <ellipse id="Oval" cx="1404.55301" cy="928.878915" rx="4.10243931" ry="4.10243931"></ellipse>
                <ellipse id="Oval" cx="1774.66652" cy="995.411924" rx="4.10243931" ry="4.10243931"></ellipse>
                <ellipse id="Oval" cx="574.831923" cy="764.15062" rx="11.9782452" ry="11.9782452"></ellipse>
                <path d="M384.008166,820.175242 C384.101403,823.800526 381.243955,826.811541 377.624156,826.904778 C373.993387,826.992531 371.00431,824.11863 370.911073,820.504315 C370.817836,816.884515 373.664315,813.868016 377.289599,813.780263 C380.920367,813.687026 383.920413,816.555443 384.008166,820.175242 L384.008166,820.175242 Z" id="Shape"></path>
                <ellipse id="Oval" cx="321.775039" cy="790.915197" rx="7.80450686" ry="7.80450686"></ellipse>
                <ellipse id="Oval" cx="562.310708" cy="840.056716" rx="12.1208434" ry="12.1208434"></ellipse>
                <circle id="Oval" cx="555.586657" cy="679.600881" r="11.3200999"></circle>
                <polygon id="Shape" points="1891.94802 525.699077 1592.49738 580.473224 1592.74418 581.822422 1891.94802 527.092152"></polygon>
                <polygon id="Shape" points="1891.94802 525.699077 1592.49738 580.473224 1592.74418 581.822422 1891.94802 527.092152"></polygon>
                <polygon id="Shape" points="1891.94802 406.125038 1592.27251 580.560976 1592.96905 581.740153 1891.94802 407.710071"></polygon>
                <polygon id="Shape" points="1891.94802 406.125038 1592.27251 580.560976 1592.96905 581.740153 1891.94802 407.710071"></polygon>
                <rect id="Rectangle-path" transform="translate(510.345664, 671.413777) rotate(53.330637) translate(-510.345664, -671.413777) " x="231.564559" y="670.730947" width="557.562212" height="1.36565995"></rect>
                <polygon id="Shape" points="180.857885 499.461016 344.07793 448.47669 343.672074 447.171369 180.857885 498.024066"></polygon>
                <polygon id="Shape" points="180.857885 527.892895 344.176652 448.443783 343.578836 447.209761 180.857885 526.368192"></polygon>
                <rect id="Rectangle-path" transform="translate(337.023079, 449.839261) rotate(73.685477) translate(-337.023079, -449.839261) " x="336.337535" y="442.676701" width="1.37108739" height="14.325121"></rect>
                <rect id="Rectangle-path" transform="translate(503.483732, 673.434581) rotate(51.961197) translate(-503.483732, -673.434581) " x="222.135288" y="672.749007" width="562.696888" height="1.37114724"></rect>
                <polygon id="Shape" points="180.857885 499.301965 330.339146 452.513315 329.927805 451.207994 180.857885 497.865014"></polygon>
                <polygon id="Shape" points="180.857885 525.940397 330.432383 452.474923 329.834568 451.246385 180.857885 524.415694"></polygon>
                <rect id="Rectangle-path" transform="translate(502.690394, 759.538138) rotate(60.717779) translate(-502.690394, -759.538138) " x="149.930276" y="758.849845" width="705.520236" height="1.3765874"></rect>
                <rect id="Rectangle-path" transform="translate(509.535925, 757.567271) rotate(61.856401) translate(-509.535925, -757.567271) " x="158.284799" y="756.881679" width="702.502251" height="1.37118558"></rect>
                <rect id="Rectangle-path" x="675.360873" y="895.022821" width="1.37113613" height="172.231152"></rect>
                <rect id="Rectangle-path" transform="translate(1734.803005, 505.785513) rotate(62.030645) translate(-1734.803005, -505.785513) " x="1734.11744" y="344.923562" width="1.37113835" height="321.723903"></rect>
                <rect id="Rectangle-path" transform="translate(1734.803005, 505.785513) rotate(62.030645) translate(-1734.803005, -505.785513) " x="1734.11744" y="344.923562" width="1.37113835" height="321.723903"></rect>
                <rect id="Rectangle-path" transform="translate(694.094291, 763.088249) rotate(3.577407) translate(-694.094291, -763.088249) " x="693.408689" y="458.280818" width="1.37120288" height="609.614863"></rect>
                <rect id="Rectangle-path" transform="translate(521.549310, 455.330006) rotate(1.042877) translate(-521.549310, -455.330006) " x="330.106892" y="454.644462" width="382.884835" height="1.37108902"></rect>
                <rect id="Rectangle-path" transform="translate(528.439967, 453.346925) rotate(1.707592) translate(-528.439967, -453.346925) " x="343.802861" y="452.661327" width="369.274213" height="1.3711966"></rect>
                <rect id="Rectangle-path" transform="translate(694.918758, 676.934919) rotate(4.726528) translate(-694.918758, -676.934919) " x="694.235932" y="458.093222" width="1.36565249" height="437.683396"></rect>
                <rect id="Rectangle-path" transform="translate(925.156443, 736.264249) rotate(52.585809) translate(-925.156443, -736.264249) " x="575.917796" y="735.575907" width="698.477293" height="1.37668279"></rect>
                <rect id="Rectangle-path" transform="translate(906.260518, 1040.426886) rotate(83.263720) translate(-906.260518, -1040.426886) " x="905.574948" y="807.82655" width="1.37114086" height="465.200672"></rect>
                <rect id="Rectangle-path" transform="translate(907.064530, 954.318478) rotate(14.442018) translate(-907.064530, -954.318478) " x="669.337076" y="953.630168" width="475.454908" height="1.37661993"></rect>
                <rect id="Rectangle-path" transform="translate(1365.006526, 797.405487) rotate(46.734232) translate(-1365.006526, -797.405487) " x="1364.3182" y="483.424168" width="1.37665399" height="627.962637"></rect>
                <rect id="Rectangle-path" transform="translate(1365.006526, 797.405487) rotate(46.734232) translate(-1365.006526, -797.405487) " x="1364.3182" y="483.424168" width="1.37665399" height="627.962637"></rect>
                <rect id="Rectangle-path" transform="translate(1179.786249, 777.103528) rotate(10.125477) translate(-1179.786249, -777.103528) " x="1179.1007" y="536.837244" width="1.37110117" height="480.532568"></rect>
                <rect id="Rectangle-path" transform="translate(967.593095, 499.736866) rotate(9.126035) translate(-967.593095, -499.736866) " x="709.663154" y="499.051327" width="515.859882" height="1.37107803"></rect>
                <rect id="Rectangle-path" transform="translate(1549.564236, 485.590347) rotate(80.317274) translate(-1549.564236, -485.590347) " x="1548.87864" y="153.702404" width="1.37119981" height="663.775887"></rect>
                <rect id="Rectangle-path" transform="translate(949.596422, 717.879415) rotate(57.304705) translate(-949.596422, -717.879415) " x="948.91356" y="392.62859" width="1.36572437" height="650.50165"></rect>
                <rect id="Rectangle-path" transform="translate(1407.492862, 560.952710) rotate(6.245919) translate(-1407.492862, -560.952710) " x="1221.231" y="560.267117" width="372.523721" height="1.37118566"></rect>
                <rect id="Rectangle-path" transform="translate(1407.492862, 560.952710) rotate(6.245919) translate(-1407.492862, -560.952710) " x="1221.231" y="560.267117" width="372.523721" height="1.37118566"></rect>
                <polygon id="Shape" points="1891.94802 924.452887 1593.14455 580.69809 1592.10249 581.597555 1891.94802 926.547983"></polygon>
                <polygon id="Shape" points="1891.94802 924.452887 1593.14455 580.69809 1592.10249 581.597555 1891.94802 926.547983"></polygon>
                <rect id="Rectangle-path" transform="translate(832.057951, 1118.192089) rotate(71.070400) translate(-832.057951, -1118.192089) " x="831.372396" y="795.515015" width="1.3711102" height="645.354147"></rect>
                <rect id="Rectangle-path" transform="translate(601.038318, 1145.095885) rotate(43.731830) translate(-601.038318, -1145.095885) " x="600.352734" y="1037.5826" width="1.37116798" height="215.026562"></rect>
                <rect id="Rectangle-path" transform="translate(601.884051, 1058.970961) rotate(24.663496) translate(-601.884051, -1058.970961) " x="601.198463" y="878.699838" width="1.37117502" height="360.542245"></rect>
                <polygon id="Shape" points="180.857885 1235.77209 526.833923 1223.53607 526.784562 1222.16493 180.857885 1234.40095"></polygon>
                <polygon id="Shape" points="180.857885 930.491371 180.857885 932.284817 526.367736 1223.37702 527.250748 1222.32399"></polygon>
                <polygon id="Shape" points="180.857885 868.620224 180.857885 870.101051 674.965986 1067.8847 675.465079 1066.61228"></polygon>
                <polygon id="Shape" points="180.857885 639.251087 330.668219 452.288449 329.598732 451.43286 180.857885 637.057269"></polygon>
                <polygon id="Shape" points="180.857885 645.295055 344.401518 448.262793 343.35397 447.385266 180.857885 643.145114"></polygon>
                <polygon id="Shape" points="180.857885 830.557485 180.857885 831.93959 676.786855 895.702905 676.967845 894.348222"></polygon>
                <polygon id="Shape" points="1891.94802 1025.31915 1621.85066 1087.03673 1622.15779 1088.37495 1891.94802 1026.72867"></polygon>
                <rect id="Rectangle-path" transform="translate(1422.129020, 814.197103) rotate(53.850888) translate(-1422.129020, -814.197103) " x="1083.36416" y="813.511522" width="677.529715" height="1.37116236"></rect>
                <rect id="Rectangle-path" transform="translate(1379.692951, 1050.588763) rotate(8.690839) translate(-1379.692951, -1050.588763) " x="1134.53555" y="1049.90321" width="490.314807" height="1.37111108"></rect>
                <rect id="Rectangle-path" transform="translate(1749.426006, 759.041223) rotate(21.469449) translate(-1749.426006, -759.041223) " x="1748.73771" y="406.568129" width="1.37660165" height="704.946188"></rect>
                <polygon id="Shape" points="1891.94802 668.0614 1621.42835 1087.33838 1622.5801 1088.07879 1891.94802 670.589775"></polygon>
                <rect id="Rectangle-path" transform="translate(1607.334929, 834.404320) rotate(86.680644) translate(-1607.334929, -834.404320) " x="1353.6338" y="833.718767" width="507.402265" height="1.37110549"></rect>
                <rect id="Rectangle-path" transform="translate(1607.334929, 834.404320) rotate(86.680644) translate(-1607.334929, -834.404320) " x="1353.6338" y="833.718767" width="507.402265" height="1.37110549"></rect>
                <polygon id="Shape" points="1891.94802 525.699077 1592.49738 580.473224 1592.74418 581.822422 1891.94802 527.092152"></polygon>
                <polygon id="Shape" points="1891.94802 525.699077 1592.49738 580.473224 1592.74418 581.822422 1891.94802 527.092152"></polygon>
                <polygon id="Shape" points="1891.94802 406.125038 1592.27251 580.560976 1592.96905 581.740153 1891.94802 407.710071"></polygon>
                <polygon id="Shape" points="1891.94802 406.125038 1592.27251 580.560976 1592.96905 581.740153 1891.94802 407.710071"></polygon>
                <rect id="Rectangle-path" transform="translate(510.345664, 671.413777) rotate(53.330637) translate(-510.345664, -671.413777) " x="231.564559" y="670.730947" width="557.562212" height="1.36565995"></rect>
                <polygon id="Shape" points="180.857885 499.461016 344.07793 448.47669 343.672074 447.171369 180.857885 498.024066"></polygon>
                <polygon id="Shape" points="180.857885 527.892895 344.176652 448.443783 343.578836 447.209761 180.857885 526.368192"></polygon>
                <rect id="Rectangle-path" transform="translate(337.023079, 449.839261) rotate(73.685477) translate(-337.023079, -449.839261) " x="336.337535" y="442.676701" width="1.37108739" height="14.325121"></rect>
                <rect id="Rectangle-path" transform="translate(503.483732, 673.434581) rotate(51.961197) translate(-503.483732, -673.434581) " x="222.135288" y="672.749007" width="562.696888" height="1.37114724"></rect>
                <polygon id="Shape" points="180.857885 499.301965 330.339146 452.513315 329.927805 451.207994 180.857885 497.865014"></polygon>
                <polygon id="Shape" points="180.857885 525.940397 330.432383 452.474923 329.834568 451.246385 180.857885 524.415694"></polygon>
                <rect id="Rectangle-path" transform="translate(502.690394, 759.538138) rotate(60.717779) translate(-502.690394, -759.538138) " x="149.930276" y="758.849845" width="705.520236" height="1.3765874"></rect>
                <rect id="Rectangle-path" transform="translate(509.535925, 757.567271) rotate(61.856401) translate(-509.535925, -757.567271) " x="158.284799" y="756.881679" width="702.502251" height="1.37118558"></rect>
                <rect id="Rectangle-path" x="675.360873" y="895.022821" width="1.37113613" height="172.231152"></rect>
                <rect id="Rectangle-path" transform="translate(1734.803005, 505.785513) rotate(62.030645) translate(-1734.803005, -505.785513) " x="1734.11744" y="344.923562" width="1.37113835" height="321.723903"></rect>
                <rect id="Rectangle-path" transform="translate(1734.803005, 505.785513) rotate(62.030645) translate(-1734.803005, -505.785513) " x="1734.11744" y="344.923562" width="1.37113835" height="321.723903"></rect>
                <rect id="Rectangle-path" transform="translate(694.094291, 763.088249) rotate(3.577407) translate(-694.094291, -763.088249) " x="693.408689" y="458.280818" width="1.37120288" height="609.614863"></rect>
                <rect id="Rectangle-path" transform="translate(521.549310, 455.330006) rotate(1.042877) translate(-521.549310, -455.330006) " x="330.106892" y="454.644462" width="382.884835" height="1.37108902"></rect>
                <rect id="Rectangle-path" transform="translate(528.439967, 453.346925) rotate(1.707592) translate(-528.439967, -453.346925) " x="343.802861" y="452.661327" width="369.274213" height="1.3711966"></rect>
                <rect id="Rectangle-path" transform="translate(694.918758, 676.934919) rotate(4.726528) translate(-694.918758, -676.934919) " x="694.235932" y="458.093222" width="1.36565249" height="437.683396"></rect>
                <rect id="Rectangle-path" transform="translate(925.156443, 736.264249) rotate(52.585809) translate(-925.156443, -736.264249) " x="575.917796" y="735.575907" width="698.477293" height="1.37668279"></rect>
                <rect id="Rectangle-path" transform="translate(906.260518, 1040.426886) rotate(83.263720) translate(-906.260518, -1040.426886) " x="905.574948" y="807.82655" width="1.37114086" height="465.200672"></rect>
                <rect id="Rectangle-path" transform="translate(907.064530, 954.318478) rotate(14.442018) translate(-907.064530, -954.318478) " x="669.337076" y="953.630168" width="475.454908" height="1.37661993"></rect>
                <rect id="Rectangle-path" transform="translate(1365.006526, 797.405487) rotate(46.734232) translate(-1365.006526, -797.405487) " x="1364.3182" y="483.424168" width="1.37665399" height="627.962637"></rect>
                <rect id="Rectangle-path" transform="translate(1365.006526, 797.405487) rotate(46.734232) translate(-1365.006526, -797.405487) " x="1364.3182" y="483.424168" width="1.37665399" height="627.962637"></rect>
                <rect id="Rectangle-path" transform="translate(1179.786249, 777.103528) rotate(10.125477) translate(-1179.786249, -777.103528) " x="1179.1007" y="536.837244" width="1.37110117" height="480.532568"></rect>
                <rect id="Rectangle-path" transform="translate(967.593095, 499.736866) rotate(9.126035) translate(-967.593095, -499.736866) " x="709.663154" y="499.051327" width="515.859882" height="1.37107803"></rect>
                <rect id="Rectangle-path" transform="translate(1549.564236, 485.590347) rotate(80.317274) translate(-1549.564236, -485.590347) " x="1548.87864" y="153.702404" width="1.37119981" height="663.775887"></rect>
                <rect id="Rectangle-path" transform="translate(949.596422, 717.879415) rotate(57.304705) translate(-949.596422, -717.879415) " x="948.91356" y="392.62859" width="1.36572437" height="650.50165"></rect>
                <rect id="Rectangle-path" transform="translate(1407.492862, 560.952710) rotate(6.245919) translate(-1407.492862, -560.952710) " x="1221.231" y="560.267117" width="372.523721" height="1.37118566"></rect>
                <rect id="Rectangle-path" transform="translate(1407.492862, 560.952710) rotate(6.245919) translate(-1407.492862, -560.952710) " x="1221.231" y="560.267117" width="372.523721" height="1.37118566"></rect>
                <polygon id="Shape" points="1891.94802 924.452887 1593.14455 580.69809 1592.10249 581.597555 1891.94802 926.547983"></polygon>
                <polygon id="Shape" points="1891.94802 924.452887 1593.14455 580.69809 1592.10249 581.597555 1891.94802 926.547983"></polygon>
                <rect id="Rectangle-path" transform="translate(832.057951, 1118.192089) rotate(71.070400) translate(-832.057951, -1118.192089) " x="831.372396" y="795.515015" width="1.3711102" height="645.354147"></rect>
                <rect id="Rectangle-path" transform="translate(601.038318, 1145.095885) rotate(43.731830) translate(-601.038318, -1145.095885) " x="600.352734" y="1037.5826" width="1.37116798" height="215.026562"></rect>
                <rect id="Rectangle-path" transform="translate(601.884051, 1058.970961) rotate(24.663496) translate(-601.884051, -1058.970961) " x="601.198463" y="878.699838" width="1.37117502" height="360.542245"></rect>
                <polygon id="Shape" points="180.857885 1235.77209 526.833923 1223.53607 526.784562 1222.16493 180.857885 1234.40095"></polygon>
                <polygon id="Shape" points="180.857885 930.491371 180.857885 932.284817 526.367736 1223.37702 527.250748 1222.32399"></polygon>
                <polygon id="Shape" points="180.857885 868.620224 180.857885 870.101051 674.965986 1067.8847 675.465079 1066.61228"></polygon>
                <polygon id="Shape" points="180.857885 639.251087 330.668219 452.288449 329.598732 451.43286 180.857885 637.057269"></polygon>
                <polygon id="Shape" points="180.857885 645.295055 344.401518 448.262793 343.35397 447.385266 180.857885 643.145114"></polygon>
                <polygon id="Shape" points="180.857885 830.557485 180.857885 831.93959 676.786855 895.702905 676.967845 894.348222"></polygon>
                <polygon id="Shape" points="1891.94802 1025.31915 1621.85066 1087.03673 1622.15779 1088.37495 1891.94802 1026.72867"></polygon>
                <rect id="Rectangle-path" transform="translate(1422.129020, 814.197103) rotate(53.850888) translate(-1422.129020, -814.197103) " x="1083.36416" y="813.511522" width="677.529715" height="1.37116236"></rect>
                <rect id="Rectangle-path" transform="translate(1379.692951, 1050.588763) rotate(8.690839) translate(-1379.692951, -1050.588763) " x="1134.53555" y="1049.90321" width="490.314807" height="1.37111108"></rect>
                <rect id="Rectangle-path" transform="translate(1749.426006, 759.041223) rotate(21.469449) translate(-1749.426006, -759.041223) " x="1748.73771" y="406.568129" width="1.37660165" height="704.946188"></rect>
                <polygon id="Shape" points="1891.94802 668.0614 1621.42835 1087.33838 1622.5801 1088.07879 1891.94802 670.589775"></polygon>
                <rect id="Rectangle-path" transform="translate(1607.334929, 834.404320) rotate(86.680644) translate(-1607.334929, -834.404320) " x="1353.6338" y="833.718767" width="507.402265" height="1.37110549"></rect>
                <rect id="Rectangle-path" transform="translate(1607.334929, 834.404320) rotate(86.680644) translate(-1607.334929, -834.404320) " x="1353.6338" y="833.718767" width="507.402265" height="1.37110549"></rect>
                <ellipse id="Oval" cx="1592.62352" cy="581.147823" rx="7.15733061" ry="7.15733061"></ellipse>
                <ellipse id="Oval" cx="1592.62352" cy="581.147823" rx="7.15733061" ry="7.15733061"></ellipse>
                <ellipse id="Oval" cx="1592.62352" cy="581.147823" rx="7.15733061" ry="7.15733061"></ellipse>
                <ellipse id="Oval" cx="1592.62352" cy="581.147823" rx="7.15733061" ry="7.15733061"></ellipse>
                <ellipse id="Oval" cx="676.874607" cy="895.028306" rx="7.16281515" ry="7.16281515"></ellipse>
                <ellipse id="Oval" cx="343.869517" cy="447.829514" rx="7.1682997" ry="7.1682997"></ellipse>
                <ellipse id="Oval" cx="343.869517" cy="447.829514" rx="7.1682997" ry="7.1682997"></ellipse>
                <ellipse id="Oval" cx="343.869517" cy="447.829514" rx="7.1682997" ry="7.1682997"></ellipse>
                <ellipse id="Oval" cx="343.869517" cy="447.829514" rx="7.1682997" ry="7.1682997"></ellipse>
                <ellipse id="Oval" cx="330.130733" cy="451.866139" rx="7.16281515" ry="7.16281515"></ellipse>
                <ellipse id="Oval" cx="676.874607" cy="895.028306" rx="7.16281515" ry="7.16281515"></ellipse>
                <ellipse id="Oval" cx="330.130733" cy="451.866139" rx="7.16281515" ry="7.16281515"></ellipse>
                <ellipse id="Oval" cx="330.130733" cy="451.866139" rx="7.16281515" ry="7.16281515"></ellipse>
                <ellipse id="Oval" cx="330.130733" cy="451.866139" rx="7.16281515" ry="7.16281515"></ellipse>
                <ellipse id="Oval" cx="330.130733" cy="451.866139" rx="7.16281515" ry="7.16281515"></ellipse>
                <ellipse id="Oval" cx="675.218275" cy="1067.24849" rx="7.16281515" ry="7.16281515"></ellipse>
                <ellipse id="Oval" cx="343.869517" cy="447.829514" rx="7.1682997" ry="7.1682997"></ellipse>
                <ellipse id="Oval" cx="675.218275" cy="1067.24849" rx="7.16281515" ry="7.16281515"></ellipse>
                <ellipse id="Oval" cx="676.874607" cy="895.028306" rx="7.16281515" ry="7.16281515"></ellipse>
                <ellipse id="Oval" cx="675.218275" cy="1067.24849" rx="7.16281515" ry="7.16281515"></ellipse>
                <ellipse id="Oval" cx="1592.62352" cy="581.147823" rx="7.15733061" ry="7.15733061"></ellipse>
                <ellipse id="Oval" cx="1592.62352" cy="581.147823" rx="7.15733061" ry="7.15733061"></ellipse>
                <ellipse id="Oval" cx="675.218275" cy="1067.24849" rx="7.16281515" ry="7.16281515"></ellipse>
                <ellipse id="Oval" cx="712.973879" cy="458.831511" rx="7.16281515" ry="7.16281515"></ellipse>
                <ellipse id="Oval" cx="330.130733" cy="451.866139" rx="7.16281515" ry="7.16281515"></ellipse>
                <ellipse id="Oval" cx="712.973879" cy="458.831511" rx="7.16281515" ry="7.16281515"></ellipse>
                <ellipse id="Oval" cx="343.869517" cy="447.829514" rx="7.1682997" ry="7.1682997"></ellipse>
                <ellipse id="Oval" cx="712.973879" cy="458.831511" rx="7.16281515" ry="7.16281515"></ellipse>
                <ellipse id="Oval" cx="676.874607" cy="895.028306" rx="7.16281515" ry="7.16281515"></ellipse>
                <ellipse id="Oval" cx="712.973879" cy="458.831511" rx="7.16281515" ry="7.16281515"></ellipse>
                <ellipse id="Oval" cx="712.973879" cy="458.831511" rx="7.16281515" ry="7.16281515"></ellipse>
                <ellipse id="Oval" cx="1137.3076" cy="1013.60416" rx="7.16281515" ry="7.16281515"></ellipse>
                <ellipse id="Oval" cx="675.218275" cy="1067.24849" rx="7.16281515" ry="7.16281515"></ellipse>
                <ellipse id="Oval" cx="1137.3076" cy="1013.60416" rx="7.16281515" ry="7.16281515"></ellipse>
                <ellipse id="Oval" cx="676.874607" cy="895.028306" rx="7.16281515" ry="7.16281515"></ellipse>
                <ellipse id="Oval" cx="1137.3076" cy="1013.60416" rx="7.16281515" ry="7.16281515"></ellipse>
                <ellipse id="Oval" cx="1592.62352" cy="581.147823" rx="7.15733061" ry="7.15733061"></ellipse>
                <ellipse id="Oval" cx="1137.3076" cy="1013.60416" rx="7.16281515" ry="7.16281515"></ellipse>
                <ellipse id="Oval" cx="1592.62352" cy="581.147823" rx="7.15733061" ry="7.15733061"></ellipse>
                <ellipse id="Oval" cx="1137.3076" cy="1013.60416" rx="7.16281515" ry="7.16281515"></ellipse>
                <ellipse id="Oval" cx="1137.3076" cy="1013.60416" rx="7.16281515" ry="7.16281515"></ellipse>
                <ellipse id="Oval" cx="1222.32353" cy="540.628008" rx="7.1682997" ry="7.1682997"></ellipse>
                <ellipse id="Oval" cx="712.973879" cy="458.831511" rx="7.16281515" ry="7.16281515"></ellipse>
                <ellipse id="Oval" cx="1222.32353" cy="540.628008" rx="7.1682997" ry="7.1682997"></ellipse>
                <ellipse id="Oval" cx="1222.32353" cy="540.628008" rx="7.1682997" ry="7.1682997"></ellipse>
                <ellipse id="Oval" cx="676.874607" cy="895.028306" rx="7.16281515" ry="7.16281515"></ellipse>
                <ellipse id="Oval" cx="1222.32353" cy="540.628008" rx="7.1682997" ry="7.1682997"></ellipse>
                <ellipse id="Oval" cx="1592.62352" cy="581.147823" rx="7.15733061" ry="7.15733061"></ellipse>
                <ellipse id="Oval" cx="1222.32353" cy="540.628008" rx="7.1682997" ry="7.1682997"></ellipse>
                <ellipse id="Oval" cx="1592.62352" cy="581.147823" rx="7.15733061" ry="7.15733061"></ellipse>
                <ellipse id="Oval" cx="1222.32353" cy="540.628008" rx="7.1682997" ry="7.1682997"></ellipse>
                <ellipse id="Oval" cx="1592.62352" cy="581.147823" rx="7.15733061" ry="7.15733061"></ellipse>
                <ellipse id="Oval" cx="1592.62352" cy="581.147823" rx="7.15733061" ry="7.15733061"></ellipse>
                <ellipse id="Oval" cx="1137.3076" cy="1013.60416" rx="7.16281515" ry="7.16281515"></ellipse>
                <ellipse id="Oval" cx="526.811985" cy="1222.8505" rx="7.16281515" ry="7.16281515"></ellipse>
                <ellipse id="Oval" cx="675.218275" cy="1067.24849" rx="7.16281515" ry="7.16281515"></ellipse>
                <ellipse id="Oval" cx="526.811985" cy="1222.8505" rx="7.16281515" ry="7.16281515"></ellipse>
                <ellipse id="Oval" cx="676.874607" cy="895.028306" rx="7.16281515" ry="7.16281515"></ellipse>
                <ellipse id="Oval" cx="526.811985" cy="1222.8505" rx="7.16281515" ry="7.16281515"></ellipse>
                <ellipse id="Oval" cx="526.811985" cy="1222.8505" rx="7.16281515" ry="7.16281515"></ellipse>
                <ellipse id="Oval" cx="526.811985" cy="1222.8505" rx="7.16281515" ry="7.16281515"></ellipse>
                <ellipse id="Oval" cx="675.218275" cy="1067.24849" rx="7.16281515" ry="7.16281515"></ellipse>
                <ellipse id="Oval" cx="330.130733" cy="451.866139" rx="7.16281515" ry="7.16281515"></ellipse>
                <ellipse id="Oval" cx="343.869517" cy="447.829514" rx="7.1682997" ry="7.1682997"></ellipse>
                <ellipse id="Oval" cx="676.874607" cy="895.028306" rx="7.16281515" ry="7.16281515"></ellipse>
                <ellipse id="Oval" cx="1622.00423" cy="1087.70584" rx="7.16281515" ry="7.16281515"></ellipse>
                <ellipse id="Oval" cx="1222.32353" cy="540.628008" rx="7.1682997" ry="7.1682997"></ellipse>
                <ellipse id="Oval" cx="1622.00423" cy="1087.70584" rx="7.16281515" ry="7.16281515"></ellipse>
                <ellipse id="Oval" cx="1137.3076" cy="1013.60416" rx="7.16281515" ry="7.16281515"></ellipse>
                <ellipse id="Oval" cx="1622.00423" cy="1087.70584" rx="7.16281515" ry="7.16281515"></ellipse>
                <ellipse id="Oval" cx="1622.00423" cy="1087.70584" rx="7.16281515" ry="7.16281515"></ellipse>
                <ellipse id="Oval" cx="1622.00423" cy="1087.70584" rx="7.16281515" ry="7.16281515"></ellipse>
                <ellipse id="Oval" cx="1592.62352" cy="581.147823" rx="7.15733061" ry="7.15733061"></ellipse>
                <ellipse id="Oval" cx="1622.00423" cy="1087.70584" rx="7.16281515" ry="7.16281515"></ellipse>
                <ellipse id="Oval" cx="1592.62352" cy="581.147823" rx="7.15733061" ry="7.15733061"></ellipse>
                <ellipse id="Oval" cx="1622.00423" cy="1087.70584" rx="7.16281515" ry="7.16281515"></ellipse>
                <rect id="Rectangle-path" transform="translate(814.575337, 530.175202) rotate(79.653129) translate(-814.575337, -530.175202) " x="813.889796" y="324.888495" width="1.37108255" height="410.573413"></rect>
                <rect id="Rectangle-path" transform="translate(814.575337, 530.175202) rotate(79.653129) translate(-814.575337, -530.175202) " x="813.889796" y="324.888495" width="1.37108255" height="410.573413"></rect>
                <rect id="Rectangle-path" transform="translate(1021.734272, 409.534763) rotate(3.589201) translate(-1021.734272, -409.534763) " x="1021.04873" y="325.693026" width="1.37108318" height="167.683473"></rect>
                <rect id="Rectangle-path" transform="translate(819.814758, 446.479075) rotate(59.727065) translate(-819.814758, -446.479075) " x="819.129216" y="206.72062" width="1.3710825" height="479.516909"></rect>
                <rect id="Rectangle-path" transform="translate(819.814758, 446.479075) rotate(59.727065) translate(-819.814758, -446.479075) " x="819.129216" y="206.72062" width="1.3710825" height="479.516909"></rect>
                <rect id="Rectangle-path" transform="translate(956.643873, 454.767695) rotate(32.706307) translate(-956.643873, -454.767695) " x="885.549315" y="454.084911" width="142.189115" height="1.36556831"></rect>
                <rect id="Rectangle-path" transform="translate(754.730603, 491.774563) rotate(62.030645) translate(-754.730603, -491.774563) " x="754.045034" y="330.912612" width="1.37113835" height="321.723903"></rect>
                <rect id="Rectangle-path" transform="translate(754.730603, 491.774563) rotate(62.030645) translate(-754.730603, -491.774563) " x="754.045034" y="330.912612" width="1.37113835" height="321.723903"></rect>
                <polygon id="Shape" points="180.857885 978.12464 613.056447 567.622936 612.11859 566.624749 180.857885 976.232472"></polygon>
                <polygon id="Shape" points="180.857885 978.12464 613.056447 567.622936 612.11859 566.624749 180.857885 976.232472"></polygon>
                <rect id="Rectangle-path" transform="translate(569.537147, 471.518248) rotate(80.317274) translate(-569.537147, -471.518248) " x="568.851547" y="139.627562" width="1.37119981" height="663.781372"></rect>
                <rect id="Rectangle-path" transform="translate(427.426559, 546.892311) rotate(6.245919) translate(-427.426559, -546.892311) " x="241.167441" y="546.206718" width="372.518236" height="1.37118566"></rect>
                <rect id="Rectangle-path" transform="translate(427.426559, 546.892311) rotate(6.245919) translate(-427.426559, -546.892311) " x="241.167441" y="546.206718" width="372.518236" height="1.37118566"></rect>
                <rect id="Rectangle-path" transform="translate(940.875936, 705.863982) rotate(81.355339) translate(-940.875936, -705.863982) " x="648.095231" y="705.1757" width="585.56141" height="1.37656564"></rect>
                <rect id="Rectangle-path" transform="translate(1005.894985, 660.640866) rotate(3.801498) translate(-1005.894985, -660.640866) " x="1005.20667" y="325.24991" width="1.37662104" height="670.781912"></rect>
                <rect id="Rectangle-path" transform="translate(1000.674256, 744.290955) rotate(3.812931) translate(-1000.674256, -744.290955) " x="999.988679" y="492.741656" width="1.3711547" height="503.098599"></rect>
                <rect id="Rectangle-path" transform="translate(798.701873, 781.191462) rotate(49.002192) translate(-798.701873, -781.191462) " x="515.024102" y="780.505925" width="567.355541" height="1.37107312"></rect>
                <rect id="Rectangle-path" transform="translate(798.701873, 781.191462) rotate(49.002192) translate(-798.701873, -781.191462) " x="515.024102" y="780.505925" width="567.355541" height="1.37107312"></rect>
                <rect id="Rectangle-path" transform="translate(813.418898, 1034.561586) rotate(77.420233) translate(-813.418898, -1034.561586) " x="812.730583" y="858.720475" width="1.37662951" height="351.682222"></rect>
                <rect id="Rectangle-path" transform="translate(442.101478, 800.141563) rotate(53.850888) translate(-442.101478, -800.141563) " x="103.33662" y="799.45324" width="677.529715" height="1.37664701"></rect>
                <polygon id="Shape" points="180.857885 1002.48699 180.857885 1003.87458 641.861275 1074.36194 642.075172 1073.00726"></polygon>
                <rect id="Rectangle-path" transform="translate(769.396900, 745.001418) rotate(21.181082) translate(-769.396900, -745.001418) " x="768.708622" y="392.537022" width="1.37655697" height="704.928792"></rect>
                <rect id="Rectangle-path" transform="translate(829.172963, 783.473385) rotate(32.765176) translate(-829.172963, -783.473385) " x="828.484649" y="438.085166" width="1.37662773" height="690.776439"></rect>
                <rect id="Rectangle-path" transform="translate(627.292745, 820.388695) rotate(86.680644) translate(-627.292745, -820.388695) " x="373.594355" y="819.703142" width="507.396781" height="1.37110549"></rect>
                <rect id="Rectangle-path" transform="translate(627.292745, 820.388695) rotate(86.680644) translate(-627.292745, -820.388695) " x="373.594355" y="819.703142" width="507.396781" height="1.37110549"></rect>
                <polygon id="Shape" points="1891.94802 572.877129 1377.44839 297.075839 1376.80121 298.282439 1891.94802 574.43474"></polygon>
                <rect id="Rectangle-path" transform="translate(1196.835441, 395.487900) rotate(61.530833) translate(-1196.835441, -395.487900) " x="1196.14985" y="190.351585" width="1.37117706" height="410.27263"></rect>
                <rect id="Rectangle-path" transform="translate(1176.948147, 1039.654621) rotate(12.985598) translate(-1176.948147, -1039.654621) " x="979.696399" y="1038.96907" width="394.503496" height="1.37109873"></rect>
                <rect id="Rectangle-path" transform="translate(1192.807509, 788.632404) rotate(59.157102) translate(-1192.807509, -788.632404) " x="848.771723" y="787.946817" width="688.071572" height="1.37117401"></rect>
                <rect id="Rectangle-path" transform="translate(1433.940486, 923.025410) rotate(22.173814) translate(-1433.940486, -923.025410) " x="1433.25221" y="749.623166" width="1.3765565" height="346.804489"></rect>
                <rect id="Rectangle-path" transform="translate(1437.941183, 529.931375) rotate(75.332845) translate(-1437.941183, -529.931375) " x="1197.85849" y="529.245817" width="480.165391" height="1.37111762"></rect>
                <polygon id="Shape" points="1891.94802 639.722758 1498.49228 761.550946 1498.89814 762.861752 1891.94802 641.159709"></polygon>
                <rect id="Rectangle-path" transform="translate(1241.781233, 878.743049) rotate(65.536603) translate(-1241.781233, -878.743049) " x="1241.09568" y="596.606945" width="1.37109695" height="564.272208"></rect>
                <rect id="Rectangle-path" transform="translate(1197.767510, 589.339796) rotate(29.879904) translate(-1197.767510, -589.339796) " x="850.688655" y="588.654206" width="694.157709" height="1.37118114"></rect>
                <rect id="Rectangle-path" transform="translate(1262.873463, 544.089159) rotate(42.771244) translate(-1262.873463, -544.089159) " x="941.597994" y="543.403564" width="642.550939" height="1.37119072"></rect>
                <rect id="Rectangle-path" transform="translate(1257.561665, 627.685680) rotate(29.151440) translate(-1257.561665, -627.685680) " x="981.494545" y="626.997398" width="552.13424" height="1.37656513"></rect>
                <polygon id="Shape" points="1891.94802 864.600053 1498.86523 761.545461 1498.51971 762.872721 1891.94802 866.015065"></polygon>
                <polygon id="Shape" points="1891.94802 1026.96999 1630.99888 1110.87256 1631.41571 1112.17788 1891.94802 1028.41243"></polygon>
                <rect id="Rectangle-path" transform="translate(1564.958904, 936.905033) rotate(69.225344) translate(-1564.958904, -936.905033) " x="1378.14911" y="936.219452" width="373.619586" height="1.37116156"></rect>
                <rect id="Rectangle-path" transform="translate(1500.205115, 1097.734398) rotate(6.004207) translate(-1500.205115, -1097.734398) " x="1368.50663" y="1097.04884" width="263.39697" height="1.37111653"></rect>
                <polygon id="Shape" points="1891.94802 729.965454 1630.64239 1111.13581 1631.7722 1111.90913 1891.94802 732.395107"></polygon>
                <rect id="Rectangle-path" transform="translate(1307.988709, 1053.397829) rotate(10.189538) translate(-1307.988709, -1053.397829) " x="979.624635" y="1052.71228" width="656.728149" height="1.37109723"></rect>
                <rect id="Rectangle-path" transform="translate(814.575337, 530.175202) rotate(79.653129) translate(-814.575337, -530.175202) " x="813.889796" y="324.888495" width="1.37108255" height="410.573413"></rect>
                <rect id="Rectangle-path" transform="translate(814.575337, 530.175202) rotate(79.653129) translate(-814.575337, -530.175202) " x="813.889796" y="324.888495" width="1.37108255" height="410.573413"></rect>
                <rect id="Rectangle-path" transform="translate(1021.734272, 409.534763) rotate(3.589201) translate(-1021.734272, -409.534763) " x="1021.04873" y="325.693026" width="1.37108318" height="167.683473"></rect>
                <rect id="Rectangle-path" transform="translate(819.814758, 446.479075) rotate(59.727065) translate(-819.814758, -446.479075) " x="819.129216" y="206.72062" width="1.3710825" height="479.516909"></rect>
                <rect id="Rectangle-path" transform="translate(819.814758, 446.479075) rotate(59.727065) translate(-819.814758, -446.479075) " x="819.129216" y="206.72062" width="1.3710825" height="479.516909"></rect>
                <rect id="Rectangle-path" transform="translate(956.643873, 454.767695) rotate(32.706307) translate(-956.643873, -454.767695) " x="885.549315" y="454.084911" width="142.189115" height="1.36556831"></rect>
                <rect id="Rectangle-path" transform="translate(754.730603, 491.774563) rotate(62.030645) translate(-754.730603, -491.774563) " x="754.045034" y="330.912612" width="1.37113835" height="321.723903"></rect>
                <rect id="Rectangle-path" transform="translate(754.730603, 491.774563) rotate(62.030645) translate(-754.730603, -491.774563) " x="754.045034" y="330.912612" width="1.37113835" height="321.723903"></rect>
                <polygon id="Shape" points="180.857885 978.12464 613.056447 567.622936 612.11859 566.624749 180.857885 976.232472"></polygon>
                <polygon id="Shape" points="180.857885 978.12464 613.056447 567.622936 612.11859 566.624749 180.857885 976.232472"></polygon>
                <rect id="Rectangle-path" transform="translate(569.537147, 471.518248) rotate(80.317274) translate(-569.537147, -471.518248) " x="568.851547" y="139.627562" width="1.37119981" height="663.781372"></rect>
                <rect id="Rectangle-path" transform="translate(427.426559, 546.892311) rotate(6.245919) translate(-427.426559, -546.892311) " x="241.167441" y="546.206718" width="372.518236" height="1.37118566"></rect>
                <rect id="Rectangle-path" transform="translate(427.426559, 546.892311) rotate(6.245919) translate(-427.426559, -546.892311) " x="241.167441" y="546.206718" width="372.518236" height="1.37118566"></rect>
                <rect id="Rectangle-path" transform="translate(940.875936, 705.863982) rotate(81.355339) translate(-940.875936, -705.863982) " x="648.095231" y="705.1757" width="585.56141" height="1.37656564"></rect>
                <rect id="Rectangle-path" transform="translate(1005.894985, 660.640866) rotate(3.801498) translate(-1005.894985, -660.640866) " x="1005.20667" y="325.24991" width="1.37662104" height="670.781912"></rect>
                <rect id="Rectangle-path" transform="translate(1000.674256, 744.290955) rotate(3.812931) translate(-1000.674256, -744.290955) " x="999.988679" y="492.741656" width="1.3711547" height="503.098599"></rect>
                <rect id="Rectangle-path" transform="translate(798.701873, 781.191462) rotate(49.002192) translate(-798.701873, -781.191462) " x="515.024102" y="780.505925" width="567.355541" height="1.37107312"></rect>
                <rect id="Rectangle-path" transform="translate(798.701873, 781.191462) rotate(49.002192) translate(-798.701873, -781.191462) " x="515.024102" y="780.505925" width="567.355541" height="1.37107312"></rect>
                <rect id="Rectangle-path" transform="translate(813.418898, 1034.561586) rotate(77.420233) translate(-813.418898, -1034.561586) " x="812.730583" y="858.720475" width="1.37662951" height="351.682222"></rect>
                <rect id="Rectangle-path" transform="translate(442.101478, 800.141563) rotate(53.850888) translate(-442.101478, -800.141563) " x="103.33662" y="799.45324" width="677.529715" height="1.37664701"></rect>
                <polygon id="Shape" points="180.857885 1002.48699 180.857885 1003.87458 641.861275 1074.36194 642.075172 1073.00726"></polygon>
                <rect id="Rectangle-path" transform="translate(769.396900, 745.001418) rotate(21.181082) translate(-769.396900, -745.001418) " x="768.708622" y="392.537022" width="1.37655697" height="704.928792"></rect>
                <rect id="Rectangle-path" transform="translate(829.172963, 783.473385) rotate(32.765176) translate(-829.172963, -783.473385) " x="828.484649" y="438.085166" width="1.37662773" height="690.776439"></rect>
                <rect id="Rectangle-path" transform="translate(627.292745, 820.388695) rotate(86.680644) translate(-627.292745, -820.388695) " x="373.594355" y="819.703142" width="507.396781" height="1.37110549"></rect>
                <rect id="Rectangle-path" transform="translate(627.292745, 820.388695) rotate(86.680644) translate(-627.292745, -820.388695) " x="373.594355" y="819.703142" width="507.396781" height="1.37110549"></rect>
                <polygon id="Shape" points="1891.94802 572.877129 1377.44839 297.075839 1376.80121 298.282439 1891.94802 574.43474"></polygon>
                <rect id="Rectangle-path" transform="translate(1196.835441, 395.487900) rotate(61.530833) translate(-1196.835441, -395.487900) " x="1196.14985" y="190.351585" width="1.37117706" height="410.27263"></rect>
                <rect id="Rectangle-path" transform="translate(1176.948147, 1039.654621) rotate(12.985598) translate(-1176.948147, -1039.654621) " x="979.696399" y="1038.96907" width="394.503496" height="1.37109873"></rect>
                <rect id="Rectangle-path" transform="translate(1192.807509, 788.632404) rotate(59.157102) translate(-1192.807509, -788.632404) " x="848.771723" y="787.946817" width="688.071572" height="1.37117401"></rect>
                <rect id="Rectangle-path" transform="translate(1433.940486, 923.025410) rotate(22.173814) translate(-1433.940486, -923.025410) " x="1433.25221" y="749.623166" width="1.3765565" height="346.804489"></rect>
                <rect id="Rectangle-path" transform="translate(1437.941183, 529.931375) rotate(75.332845) translate(-1437.941183, -529.931375) " x="1197.85849" y="529.245817" width="480.165391" height="1.37111762"></rect>
                <polygon id="Shape" points="1891.94802 639.722758 1498.49228 761.550946 1498.89814 762.861752 1891.94802 641.159709"></polygon>
                <rect id="Rectangle-path" transform="translate(1241.781233, 878.743049) rotate(65.536603) translate(-1241.781233, -878.743049) " x="1241.09568" y="596.606945" width="1.37109695" height="564.272208"></rect>
                <rect id="Rectangle-path" transform="translate(1197.767510, 589.339796) rotate(29.879904) translate(-1197.767510, -589.339796) " x="850.688655" y="588.654206" width="694.157709" height="1.37118114"></rect>
                <rect id="Rectangle-path" transform="translate(1262.873463, 544.089159) rotate(42.771244) translate(-1262.873463, -544.089159) " x="941.597994" y="543.403564" width="642.550939" height="1.37119072"></rect>
                <rect id="Rectangle-path" transform="translate(1257.561665, 627.685680) rotate(29.151440) translate(-1257.561665, -627.685680) " x="981.494545" y="626.997398" width="552.13424" height="1.37656513"></rect>
                <polygon id="Shape" points="1891.94802 864.600053 1498.86523 761.545461 1498.51971 762.872721 1891.94802 866.015065"></polygon>
                <polygon id="Shape" points="1891.94802 1026.96999 1630.99888 1110.87256 1631.41571 1112.17788 1891.94802 1028.41243"></polygon>
                <rect id="Rectangle-path" transform="translate(1564.958904, 936.905033) rotate(69.225344) translate(-1564.958904, -936.905033) " x="1378.14911" y="936.219452" width="373.619586" height="1.37116156"></rect>
                <rect id="Rectangle-path" transform="translate(1500.205115, 1097.734398) rotate(6.004207) translate(-1500.205115, -1097.734398) " x="1368.50663" y="1097.04884" width="263.39697" height="1.37111653"></rect>
                <polygon id="Shape" points="1891.94802 729.965454 1630.64239 1111.13581 1631.7722 1111.90913 1891.94802 732.395107"></polygon>
                <rect id="Rectangle-path" transform="translate(1307.988709, 1053.397829) rotate(10.189538) translate(-1307.988709, -1053.397829) " x="979.624635" y="1052.71228" width="656.728149" height="1.37109723"></rect>
                <circle id="Oval" cx="612.590261" cy="567.123842" r="7.15733061"></circle>
                <ellipse id="Oval" cx="1016.47212" cy="493.252512" rx="7.16281515" ry="7.16281515"></ellipse>
                <circle id="Oval" cx="612.590261" cy="567.123842" r="7.15733061"></circle>
                <ellipse id="Oval" cx="1016.47212" cy="493.252512" rx="7.16281515" ry="7.16281515"></ellipse>
                <ellipse id="Oval" cx="1016.47212" cy="493.252512" rx="7.16281515" ry="7.16281515"></ellipse>
                <circle id="Oval" cx="612.590261" cy="567.123842" r="7.15733061"></circle>
                <circle id="Oval" cx="612.590261" cy="567.123842" r="7.15733061"></circle>
                <ellipse id="Oval" cx="1016.47212" cy="493.252512" rx="7.16281515" ry="7.16281515"></ellipse>
                <circle id="Oval" cx="612.590261" cy="567.123842" r="7.15733061"></circle>
                <circle id="Oval" cx="612.590261" cy="567.123842" r="7.15733061"></circle>
                <circle id="Oval" cx="612.590261" cy="567.123842" r="7.15733061"></circle>
                <circle id="Oval" cx="612.590261" cy="567.123842" r="7.15733061"></circle>
                <circle id="Oval" cx="612.590261" cy="567.123842" r="7.15733061"></circle>
                <circle id="Oval" cx="612.590261" cy="567.123842" r="7.15733061"></circle>
                <ellipse id="Oval" cx="984.809844" cy="995.340625" rx="7.1682997" ry="7.1682997"></ellipse>
                <ellipse id="Oval" cx="984.809844" cy="995.340625" rx="7.1682997" ry="7.1682997"></ellipse>
                <ellipse id="Oval" cx="1016.47212" cy="493.252512" rx="7.16281515" ry="7.16281515"></ellipse>
                <ellipse id="Oval" cx="984.809844" cy="995.340625" rx="7.1682997" ry="7.1682997"></ellipse>
                <circle id="Oval" cx="612.590261" cy="567.123842" r="7.15733061"></circle>
                <ellipse id="Oval" cx="984.809844" cy="995.340625" rx="7.1682997" ry="7.1682997"></ellipse>
                <circle id="Oval" cx="612.590261" cy="567.123842" r="7.15733061"></circle>
                <ellipse id="Oval" cx="984.809844" cy="995.340625" rx="7.1682997" ry="7.1682997"></ellipse>
                <ellipse id="Oval" cx="984.809844" cy="995.340625" rx="7.1682997" ry="7.1682997"></ellipse>
                <ellipse id="Oval" cx="641.976451" cy="1073.68186" rx="7.15733061" ry="7.15733061"></ellipse>
                <ellipse id="Oval" cx="641.976451" cy="1073.68186" rx="7.15733061" ry="7.15733061"></ellipse>
                <ellipse id="Oval" cx="641.976451" cy="1073.68186" rx="7.15733061" ry="7.15733061"></ellipse>
                <ellipse id="Oval" cx="641.976451" cy="1073.68186" rx="7.15733061" ry="7.15733061"></ellipse>
                <ellipse id="Oval" cx="1016.47212" cy="493.252512" rx="7.16281515" ry="7.16281515"></ellipse>
                <ellipse id="Oval" cx="641.976451" cy="1073.68186" rx="7.15733061" ry="7.15733061"></ellipse>
                <circle id="Oval" cx="612.590261" cy="567.123842" r="7.15733061"></circle>
                <ellipse id="Oval" cx="641.976451" cy="1073.68186" rx="7.15733061" ry="7.15733061"></ellipse>
                <circle id="Oval" cx="612.590261" cy="567.123842" r="7.15733061"></circle>
                <ellipse id="Oval" cx="641.976451" cy="1073.68186" rx="7.15733061" ry="7.15733061"></ellipse>
                <ellipse id="Oval" cx="1016.47212" cy="493.252512" rx="7.16281515" ry="7.16281515"></ellipse>
                <ellipse id="Oval" cx="984.809844" cy="995.340625" rx="7.1682997" ry="7.1682997"></ellipse>
                <ellipse id="Oval" cx="1369.24351" cy="1083.97635" rx="7.16281515" ry="7.16281515"></ellipse>
                <ellipse id="Oval" cx="1016.47212" cy="493.252512" rx="7.16281515" ry="7.16281515"></ellipse>
                <ellipse id="Oval" cx="1369.24351" cy="1083.97635" rx="7.16281515" ry="7.16281515"></ellipse>
                <ellipse id="Oval" cx="1369.24351" cy="1083.97635" rx="7.16281515" ry="7.16281515"></ellipse>
                <ellipse id="Oval" cx="1498.68973" cy="762.209091" rx="7.1682997" ry="7.1682997"></ellipse>
                <ellipse id="Oval" cx="1498.68973" cy="762.209091" rx="7.1682997" ry="7.1682997"></ellipse>
                <ellipse id="Oval" cx="1498.68973" cy="762.209091" rx="7.1682997" ry="7.1682997"></ellipse>
                <ellipse id="Oval" cx="984.809844" cy="995.340625" rx="7.1682997" ry="7.1682997"></ellipse>
                <ellipse id="Oval" cx="1498.68973" cy="762.209091" rx="7.1682997" ry="7.1682997"></ellipse>
                <ellipse id="Oval" cx="1498.68973" cy="762.209091" rx="7.1682997" ry="7.1682997"></ellipse>
                <ellipse id="Oval" cx="1498.68973" cy="762.209091" rx="7.1682997" ry="7.1682997"></ellipse>
                <ellipse id="Oval" cx="1016.47212" cy="493.252512" rx="7.16281515" ry="7.16281515"></ellipse>
                <ellipse id="Oval" cx="1498.68973" cy="762.209091" rx="7.1682997" ry="7.1682997"></ellipse>
                <ellipse id="Oval" cx="1498.68973" cy="762.209091" rx="7.1682997" ry="7.1682997"></ellipse>
                <circle id="Oval" cx="1631.20181" cy="1111.5307" r="7.16281515"></circle>
                <ellipse id="Oval" cx="1498.68973" cy="762.209091" rx="7.1682997" ry="7.1682997"></ellipse>
                <circle id="Oval" cx="1631.20181" cy="1111.5307" r="7.16281515"></circle>
                <ellipse id="Oval" cx="1369.24351" cy="1083.97635" rx="7.16281515" ry="7.16281515"></ellipse>
                <circle id="Oval" cx="1631.20181" cy="1111.5307" r="7.16281515"></circle>
                <circle id="Oval" cx="1631.20181" cy="1111.5307" r="7.16281515"></circle>
                <ellipse id="Oval" cx="984.809844" cy="995.340625" rx="7.1682997" ry="7.1682997"></ellipse>
                <circle id="Oval" cx="1631.20181" cy="1111.5307" r="7.16281515"></circle>
            </g>
        </g>
    </g>
</svg>