<?xml version="1.0" encoding="UTF-8"?>
<svg width="52px" height="40px" viewBox="0 0 52 40" version="1.1" xmlns="http://www.w3.org/2000/svg" xmlns:xlink="http://www.w3.org/1999/xlink">
    <!-- Generator: Sketch 39.1 (31720) - http://www.bohemiancoding.com/sketch -->
    <title>Group 3 Copy</title>
    <desc>Created with Sketch.</desc>
    <defs></defs>
    <g id="send-ether" stroke="none" stroke-width="1" fill="none" fill-rule="evenodd">
        <g id="Desktop-Landscape" transform="translate(-579.000000, -663.000000)">
            <g id="Group-3-Copy" transform="translate(580.000000, 663.000000)">
                <path d="M41.5958326,38.9263857 L7.26972547,38.9263857 C3.33904967,38.9263857 0.108357233,35.7522661 0.108357233,31.8312949 L0.108357233,7.71865533 C0.108357233,3.82435735 3.31212723,0.623564493 7.26972547,0.623564493 L41.5958326,0.623564493 C45.5265084,0.623564493 48.7572008,3.79768408 48.7572008,7.71865533 L48.7572008,31.8312949 C48.7572008,35.7522661 45.5534308,38.9263857 41.5958326,38.9263857 L41.5958326,38.9263857 Z" id="XMLID_907_" stroke="#4A4A4A" fill="#FFFFFF"></path>
                <path d="M37.0053142,13.5867756 C36.082631,13.5867756 35.3444844,14.5470134 35.3444844,15.7473108 L35.3444844,23.8026395 C35.3444844,25.0029368 36.082631,25.9631746 37.0053142,25.9631746 L48.528603,25.9631746 C49.4512862,25.9631746 50.1894328,25.0029368 50.1894328,23.8026395 L50.1894328,15.7473108 C50.1689288,14.5736867 49.4307822,13.5867756 48.528603,13.5867756 L37.0053142,13.5867756 Z" id="XMLID_2270_" stroke="#979797"></path>
                <path d="M48.528603,26.6566798 L37.0053142,26.6566798 C35.795574,26.6566798 34.8113785,25.3763626 34.8113785,23.8026395 L34.8113785,15.7473108 C34.8113785,14.1735876 35.795574,12.8932705 37.0053142,12.8932705 L48.528603,12.8932705 C49.7383433,12.8932705 50.7225387,14.1735876 50.7225387,15.7473108 L50.7225387,23.8026395 C50.7225387,25.3763626 49.7383433,26.6566798 48.528603,26.6566798 L48.528603,26.6566798 Z M36.9848102,14.306954 C36.369688,14.306954 35.8775903,14.9471125 35.8775903,15.7473108 L35.8775903,23.8026395 C35.8775903,24.6028377 36.369688,25.2429962 36.9848102,25.2429962 L48.5080989,25.2429962 C49.1232211,25.2429962 49.6153188,24.6028377 49.6153188,23.8026395 L49.6153188,15.7473108 C49.6153188,14.9471125 49.1232211,14.306954 48.5080989,14.306954 L36.9848102,14.306954 L36.9848102,14.306954 Z" id="XMLID_888_"></path>
                <path d="M40.3035556,22.6023421 C38.7151318,22.6023421 37.4497773,21.322025 37.4497773,19.7749751 C37.4497773,18.201252 38.7420543,16.9476081 40.3035556,16.9476081 C41.8919794,16.9476081 43.1573339,18.2279252 43.1573339,19.7749751 C43.1573339,21.3486983 41.865057,22.6023421 40.3035556,22.6023421 L40.3035556,22.6023421 Z" id="XMLID_885_" stroke="#4A4A4A" fill="#FFFFFF"></path>
            </g>
        </g>
    </g>
</svg>