<?xml version="1.0" encoding="UTF-8" standalone="no"?>
<!DOCTYPE svg PUBLIC "-//W3C//DTD SVG 1.1//EN"
 "http://www.w3.org/Graphics/SVG/1.1/DTD/svg11.dtd">
<!-- Generated by graphviz version 2.40.1 (20161225.0304)
 -->
<!-- Title: dependencies Pages: 1 -->
<svg width="1117pt" height="211pt"
 viewBox="0.00 0.00 1117.00 211.00" xmlns="http://www.w3.org/2000/svg" xmlns:xlink="http://www.w3.org/1999/xlink">
<g id="graph0" class="graph" transform="scale(1 1) rotate(0) translate(4 207)">
<title>dependencies</title>
<polygon fill="#ffffff" stroke="transparent" points="-4,4 -4,-207 1113,-207 1113,4 -4,4"/>
<text text-anchor="start" x="533.5091" y="-42.4" font-family="sans-serif" font-weight="bold" font-size="14.00" fill="#000000">Legend</text>
<polygon fill="#ffffb3" stroke="transparent" points="320.5,-10 320.5,-30 340.5,-30 340.5,-10 320.5,-10"/>
<text text-anchor="start" x="344.129" y="-15.4" font-family="sans-serif" font-size="14.00" fill="#000000"> &#160;Declarations</text>
<polygon fill="#8dd3c7" stroke="transparent" points="433.5,-10 433.5,-30 453.5,-30 453.5,-10 433.5,-10"/>
<text text-anchor="start" x="457.2251" y="-15.4" font-family="sans-serif" font-size="14.00" fill="#000000"> &#160;Module</text>
<polygon fill="#80b1d3" stroke="transparent" points="519.5,-10 519.5,-30 539.5,-30 539.5,-10 519.5,-10"/>
<text text-anchor="start" x="543.2812" y="-15.4" font-family="sans-serif" font-size="14.00" fill="#000000"> &#160;Bootstrap</text>
<polygon fill="#fdb462" stroke="transparent" points="616.5,-10 616.5,-30 636.5,-30 636.5,-10 616.5,-10"/>
<text text-anchor="start" x="640.1732" y="-15.4" font-family="sans-serif" font-size="14.00" fill="#000000"> &#160;Providers</text>
<polygon fill="#fb8072" stroke="transparent" points="712.5,-10 712.5,-30 732.5,-30 732.5,-10 712.5,-10"/>
<text text-anchor="start" x="736.2258" y="-15.4" font-family="sans-serif" font-size="14.00" fill="#000000"> &#160;Exports</text>
<g id="clust1" class="cluster">
<title>cluster_AuthModule</title>
<polygon fill="none" stroke="#000000" stroke-dasharray="1,5" points="8,-70 8,-195 1101,-195 1101,-70 8,-70"/>
</g>
<g id="clust2" class="cluster">
<title>cluster_AuthModule_declarations</title>
<polygon fill="none" stroke="#000000" points="817,-78 817,-130 1093,-130 1093,-78 817,-78"/>
</g>
<g id="clust5" class="cluster">
<title>cluster_AuthModule_imports</title>
<polygon fill="none" stroke="#000000" points="158,-78 158,-130 809,-130 809,-78 158,-78"/>
</g>
<g id="clust8" class="cluster">
<title>cluster_AuthModule_providers</title>
<polygon fill="none" stroke="#000000" points="16,-78 16,-130 150,-130 150,-78 16,-78"/>
</g>
<!-- LoginComponent -->
<g id="node1" class="node">
<title>LoginComponent</title>
<polygon fill="#ffffb3" stroke="#000000" points="1085.2758,-122 970.7242,-122 970.7242,-86 1085.2758,-86 1085.2758,-122"/>
<text text-anchor="middle" x="1028" y="-99.8" font-family="Times,serif" font-size="14.00" fill="#000000">LoginComponent</text>
</g>
<!-- AuthModule -->
<g id="node3" class="node">
<title>AuthModule</title>
<polygon fill="#8dd3c7" stroke="#000000" points="603.5482,-187 600.5482,-191 579.5482,-191 576.5482,-187 516.4518,-187 516.4518,-151 603.5482,-151 603.5482,-187"/>
<text text-anchor="middle" x="560" y="-164.8" font-family="Times,serif" font-size="14.00" fill="#000000">AuthModule</text>
</g>
<!-- LoginComponent&#45;&gt;AuthModule -->
<g id="edge1" class="edge">
<title>LoginComponent&#45;&gt;AuthModule</title>
<path fill="none" stroke="#000000" d="M1028,-122.2921C1028,-144.2057 1028,-178 1028,-178 1028,-178 613.608,-178 613.608,-178"/>
<polygon fill="#000000" stroke="#000000" points="613.6081,-174.5001 603.608,-178 613.608,-181.5001 613.6081,-174.5001"/>
</g>
<!-- RegisterComponent -->
<g id="node2" class="node">
<title>RegisterComponent</title>
<polygon fill="#ffffb3" stroke="#000000" points="952.9846,-122 825.0154,-122 825.0154,-86 952.9846,-86 952.9846,-122"/>
<text text-anchor="middle" x="889" y="-99.8" font-family="Times,serif" font-size="14.00" fill="#000000">RegisterComponent</text>
</g>
<!-- RegisterComponent&#45;&gt;AuthModule -->
<g id="edge2" class="edge">
<title>RegisterComponent&#45;&gt;AuthModule</title>
<path fill="none" stroke="#000000" d="M889,-122.1061C889,-141.3391 889,-169 889,-169 889,-169 613.6887,-169 613.6887,-169"/>
<polygon fill="#000000" stroke="#000000" points="613.6887,-165.5001 603.6887,-169 613.6886,-172.5001 613.6887,-165.5001"/>
</g>
<!-- BrowserModule -->
<g id="node4" class="node">
<title>BrowserModule</title>
<polygon fill="#8dd3c7" stroke="#000000" points="801.4734,-122 798.4734,-126 777.4734,-126 774.4734,-122 694.5266,-122 694.5266,-86 801.4734,-86 801.4734,-122"/>
<text text-anchor="middle" x="748" y="-99.8" font-family="Times,serif" font-size="14.00" fill="#000000">BrowserModule</text>
</g>
<!-- BrowserModule&#45;&gt;AuthModule -->
<g id="edge3" class="edge">
<title>BrowserModule&#45;&gt;AuthModule</title>
<path fill="none" stroke="#000000" d="M748,-122.027C748,-138.3976 748,-160 748,-160 748,-160 613.6035,-160 613.6035,-160"/>
<polygon fill="#000000" stroke="#000000" points="613.6036,-156.5001 603.6035,-160 613.6035,-163.5001 613.6036,-156.5001"/>
</g>
<!-- FormsModule -->
<g id="node5" class="node">
<title>FormsModule</title>
<polygon fill="#8dd3c7" stroke="#000000" points="676.8288,-122 673.8288,-126 652.8288,-126 649.8288,-122 581.1712,-122 581.1712,-86 676.8288,-86 676.8288,-122"/>
<text text-anchor="middle" x="629" y="-99.8" font-family="Times,serif" font-size="14.00" fill="#000000">FormsModule</text>
</g>
<!-- FormsModule&#45;&gt;AuthModule -->
<g id="edge4" class="edge">
<title>FormsModule&#45;&gt;AuthModule</title>
<path fill="none" stroke="#000000" d="M592.5547,-122.1061C592.5547,-122.1061 592.5547,-140.991 592.5547,-140.991"/>
<polygon fill="#000000" stroke="#000000" points="589.0548,-140.9909 592.5547,-150.991 596.0548,-140.991 589.0548,-140.9909"/>
</g>
<!-- ReactiveFormsModule -->
<g id="node6" class="node">
<title>ReactiveFormsModule</title>
<polygon fill="#8dd3c7" stroke="#000000" points="563.3047,-122 560.3047,-126 539.3047,-126 536.3047,-122 418.6953,-122 418.6953,-86 563.3047,-86 563.3047,-122"/>
<text text-anchor="middle" x="491" y="-99.8" font-family="Times,serif" font-size="14.00" fill="#000000">ReactiveFormsModule</text>
</g>
<!-- ReactiveFormsModule&#45;&gt;AuthModule -->
<g id="edge5" class="edge">
<title>ReactiveFormsModule&#45;&gt;AuthModule</title>
<path fill="none" stroke="#000000" d="M539.6894,-122.1061C539.6894,-122.1061 539.6894,-140.991 539.6894,-140.991"/>
<polygon fill="#000000" stroke="#000000" points="536.1894,-140.9909 539.6894,-150.991 543.1894,-140.991 536.1894,-140.9909"/>
</g>
<!-- HttpModule -->
<g id="node7" class="node">
<title>HttpModule</title>
<polygon fill="#8dd3c7" stroke="#000000" points="401.4387,-122 398.4387,-126 377.4387,-126 374.4387,-122 316.5613,-122 316.5613,-86 401.4387,-86 401.4387,-122"/>
<text text-anchor="middle" x="359" y="-99.8" font-family="Times,serif" font-size="14.00" fill="#000000">HttpModule</text>
</g>
<!-- HttpModule&#45;&gt;AuthModule -->
<g id="edge6" class="edge">
<title>HttpModule&#45;&gt;AuthModule</title>
<path fill="none" stroke="#000000" d="M359,-122.027C359,-138.3976 359,-160 359,-160 359,-160 506.386,-160 506.386,-160"/>
<polygon fill="#000000" stroke="#000000" points="506.386,-163.5001 516.386,-160 506.386,-156.5001 506.386,-163.5001"/>
</g>
<!-- AuthRoutingModule -->
<g id="node8" class="node">
<title>AuthRoutingModule</title>
<polygon fill="#8dd3c7" stroke="#000000" points="298.1652,-122 295.1652,-126 274.1652,-126 271.1652,-122 165.8348,-122 165.8348,-86 298.1652,-86 298.1652,-122"/>
<text text-anchor="middle" x="232" y="-99.8" font-family="Times,serif" font-size="14.00" fill="#000000">AuthRoutingModule</text>
</g>
<!-- AuthRoutingModule&#45;&gt;AuthModule -->
<g id="edge7" class="edge">
<title>AuthRoutingModule&#45;&gt;AuthModule</title>
<path fill="none" stroke="#000000" d="M232,-122.1061C232,-141.3391 232,-169 232,-169 232,-169 506.4441,-169 506.4441,-169"/>
<polygon fill="#000000" stroke="#000000" points="506.4442,-172.5001 516.4441,-169 506.4441,-165.5001 506.4442,-172.5001"/>
</g>
<!-- AuthService -->
<g id="node9" class="node">
<title>AuthService</title>
<ellipse fill="#fdb462" stroke="#000000" cx="83" cy="-104" rx="59.1083" ry="18"/>
<text text-anchor="middle" x="83" y="-99.8" font-family="Times,serif" font-size="14.00" fill="#000000">AuthService</text>
</g>
<!-- AuthService&#45;&gt;AuthModule -->
<g id="edge8" class="edge">
<title>AuthService&#45;&gt;AuthModule</title>
<path fill="none" stroke="#000000" d="M83,-122.2921C83,-144.2057 83,-178 83,-178 83,-178 506.4049,-178 506.4049,-178"/>
<polygon fill="#000000" stroke="#000000" points="506.405,-181.5001 516.4049,-178 506.4049,-174.5001 506.405,-181.5001"/>
</g>
</g>
</svg>
