<?xml version="1.0" encoding="UTF-8" standalone="no"?>
<!DOCTYPE svg PUBLIC "-//W3C//DTD SVG 1.1//EN"
 "http://www.w3.org/Graphics/SVG/1.1/DTD/svg11.dtd">
<!-- Generated by graphviz version 2.40.1 (20161225.0304)
 -->
<!-- Title: dependencies Pages: 1 -->
<svg width="941pt" height="284pt"
 viewBox="0.00 0.00 941.00 284.00" xmlns="http://www.w3.org/2000/svg" xmlns:xlink="http://www.w3.org/1999/xlink">
<g id="graph0" class="graph" transform="scale(1 1) rotate(0) translate(4 280)">
<title>dependencies</title>
<polygon fill="#ffffff" stroke="transparent" points="-4,4 -4,-280 937,-280 937,4 -4,4"/>
<text text-anchor="start" x="445.5091" y="-42.4" font-family="sans-serif" font-weight="bold" font-size="14.00" fill="#000000">Legend</text>
<polygon fill="#ffffb3" stroke="transparent" points="232.5,-10 232.5,-30 252.5,-30 252.5,-10 232.5,-10"/>
<text text-anchor="start" x="256.129" y="-15.4" font-family="sans-serif" font-size="14.00" fill="#000000"> &#160;Declarations</text>
<polygon fill="#8dd3c7" stroke="transparent" points="345.5,-10 345.5,-30 365.5,-30 365.5,-10 345.5,-10"/>
<text text-anchor="start" x="369.2251" y="-15.4" font-family="sans-serif" font-size="14.00" fill="#000000"> &#160;Module</text>
<polygon fill="#80b1d3" stroke="transparent" points="431.5,-10 431.5,-30 451.5,-30 451.5,-10 431.5,-10"/>
<text text-anchor="start" x="455.2812" y="-15.4" font-family="sans-serif" font-size="14.00" fill="#000000"> &#160;Bootstrap</text>
<polygon fill="#fdb462" stroke="transparent" points="528.5,-10 528.5,-30 548.5,-30 548.5,-10 528.5,-10"/>
<text text-anchor="start" x="552.1732" y="-15.4" font-family="sans-serif" font-size="14.00" fill="#000000"> &#160;Providers</text>
<polygon fill="#fb8072" stroke="transparent" points="624.5,-10 624.5,-30 644.5,-30 644.5,-10 624.5,-10"/>
<text text-anchor="start" x="648.2258" y="-15.4" font-family="sans-serif" font-size="14.00" fill="#000000"> &#160;Exports</text>
<g id="clust1" class="cluster">
<title>cluster_CoreModule</title>
<polygon fill="none" stroke="#000000" stroke-dasharray="1,5" points="8,-70 8,-268 925,-268 925,-70 8,-70"/>
</g>
<g id="clust2" class="cluster">
<title>cluster_CoreModule_declarations</title>
<polygon fill="none" stroke="#000000" points="797,-78 797,-130 917,-130 917,-78 797,-78"/>
</g>
<g id="clust4" class="cluster">
<title>cluster_CoreModule_imports</title>
<polygon fill="none" stroke="#000000" points="545,-78 545,-130 789,-130 789,-78 545,-78"/>
</g>
<g id="clust5" class="cluster">
<title>cluster_CoreModule_exports</title>
<polygon fill="none" stroke="#000000" points="416,-208 416,-260 660,-260 660,-208 416,-208"/>
</g>
<g id="clust7" class="cluster">
<title>cluster_CoreModule_providers</title>
<polygon fill="none" stroke="#000000" points="16,-78 16,-130 537,-130 537,-78 16,-78"/>
</g>
<!-- NavComponent -->
<g id="node1" class="node">
<title>NavComponent</title>
<polygon fill="#ffffb3" stroke="#000000" points="909.1542,-122 804.8458,-122 804.8458,-86 909.1542,-86 909.1542,-122"/>
<text text-anchor="middle" x="857" y="-99.8" font-family="Times,serif" font-size="14.00" fill="#000000">NavComponent</text>
</g>
<!-- CoreModule -->
<g id="node2" class="node">
<title>CoreModule</title>
<polygon fill="#8dd3c7" stroke="#000000" points="579.2619,-187 576.2619,-191 555.2619,-191 552.2619,-187 492.7381,-187 492.7381,-151 579.2619,-151 579.2619,-187"/>
<text text-anchor="middle" x="536" y="-164.8" font-family="Times,serif" font-size="14.00" fill="#000000">CoreModule</text>
</g>
<!-- NavComponent&#45;&gt;CoreModule -->
<g id="edge1" class="edge">
<title>NavComponent&#45;&gt;CoreModule</title>
<path fill="none" stroke="#000000" d="M857,-122.2843C857,-143.3211 857,-175 857,-175 857,-175 589.2915,-175 589.2915,-175"/>
<polygon fill="#000000" stroke="#000000" points="589.2915,-171.5001 579.2915,-175 589.2915,-178.5001 589.2915,-171.5001"/>
</g>
<!-- NavComponent  -->
<g id="node5" class="node">
<title>NavComponent </title>
<polygon fill="#fb8072" stroke="#000000" points="652.1537,-252 543.8463,-252 543.8463,-216 652.1537,-216 652.1537,-252"/>
<text text-anchor="middle" x="598" y="-229.8" font-family="Times,serif" font-size="14.00" fill="#000000">NavComponent </text>
</g>
<!-- CoreModule&#45;&gt;NavComponent  -->
<g id="edge4" class="edge">
<title>CoreModule&#45;&gt;NavComponent </title>
<path fill="none" stroke="#000000" stroke-dasharray="5,2" d="M561.652,-187.1061C561.652,-187.1061 561.652,-205.991 561.652,-205.991"/>
<polygon fill="#000000" stroke="#000000" points="558.1521,-205.9909 561.652,-215.991 565.1521,-205.991 558.1521,-205.9909"/>
</g>
<!-- RouterModule  -->
<g id="node6" class="node">
<title>RouterModule </title>
<polygon fill="#fb8072" stroke="#000000" points="525.6523,-252 424.3477,-252 424.3477,-216 525.6523,-216 525.6523,-252"/>
<text text-anchor="middle" x="475" y="-229.8" font-family="Times,serif" font-size="14.00" fill="#000000">RouterModule </text>
</g>
<!-- CoreModule&#45;&gt;RouterModule  -->
<g id="edge5" class="edge">
<title>CoreModule&#45;&gt;RouterModule </title>
<path fill="none" stroke="#000000" stroke-dasharray="5,2" d="M509.0977,-187.1061C509.0977,-187.1061 509.0977,-205.991 509.0977,-205.991"/>
<polygon fill="#000000" stroke="#000000" points="505.5977,-205.9909 509.0977,-215.991 512.5977,-205.991 505.5977,-205.9909"/>
</g>
<!-- CommonModule -->
<g id="node3" class="node">
<title>CommonModule</title>
<polygon fill="#8dd3c7" stroke="#000000" points="780.6681,-122 777.6681,-126 756.6681,-126 753.6681,-122 669.3319,-122 669.3319,-86 780.6681,-86 780.6681,-122"/>
<text text-anchor="middle" x="725" y="-99.8" font-family="Times,serif" font-size="14.00" fill="#000000">CommonModule</text>
</g>
<!-- CommonModule&#45;&gt;CoreModule -->
<g id="edge2" class="edge">
<title>CommonModule&#45;&gt;CoreModule</title>
<path fill="none" stroke="#000000" d="M725,-122.0225C725,-139.3734 725,-163 725,-163 725,-163 589.3604,-163 589.3604,-163"/>
<polygon fill="#000000" stroke="#000000" points="589.3605,-159.5001 579.3604,-163 589.3604,-166.5001 589.3605,-159.5001"/>
</g>
<!-- RouterModule -->
<g id="node4" class="node">
<title>RouterModule</title>
<polygon fill="#8dd3c7" stroke="#000000" points="650.6528,-122 647.6528,-126 626.6528,-126 623.6528,-122 553.3472,-122 553.3472,-86 650.6528,-86 650.6528,-122"/>
<text text-anchor="middle" x="602" y="-99.8" font-family="Times,serif" font-size="14.00" fill="#000000">RouterModule</text>
</g>
<!-- RouterModule&#45;&gt;CoreModule -->
<g id="edge3" class="edge">
<title>RouterModule&#45;&gt;CoreModule</title>
<path fill="none" stroke="#000000" d="M566.2774,-122.1061C566.2774,-122.1061 566.2774,-140.991 566.2774,-140.991"/>
<polygon fill="#000000" stroke="#000000" points="562.7774,-140.9909 566.2774,-150.991 569.7774,-140.991 562.7774,-140.9909"/>
</g>
<!-- AuthService -->
<g id="node7" class="node">
<title>AuthService</title>
<ellipse fill="#fdb462" stroke="#000000" cx="470" cy="-104" rx="59.1083" ry="18"/>
<text text-anchor="middle" x="470" y="-99.8" font-family="Times,serif" font-size="14.00" fill="#000000">AuthService</text>
</g>
<!-- AuthService&#45;&gt;CoreModule -->
<g id="edge6" class="edge">
<title>AuthService&#45;&gt;CoreModule</title>
<path fill="none" stroke="#000000" d="M510.9615,-117.1537C510.9615,-117.1537 510.9615,-140.6938 510.9615,-140.6938"/>
<polygon fill="#000000" stroke="#000000" points="507.4616,-140.6938 510.9615,-150.6938 514.4616,-140.6939 507.4616,-140.6938"/>
</g>
<!-- GoogleAnalyticsService -->
<g id="node8" class="node">
<title>GoogleAnalyticsService</title>
<ellipse fill="#fdb462" stroke="#000000" cx="287" cy="-104" rx="105.3547" ry="18"/>
<text text-anchor="middle" x="287" y="-99.8" font-family="Times,serif" font-size="14.00" fill="#000000">GoogleAnalyticsService</text>
</g>
<!-- GoogleAnalyticsService&#45;&gt;CoreModule -->
<g id="edge7" class="edge">
<title>GoogleAnalyticsService&#45;&gt;CoreModule</title>
<path fill="none" stroke="#000000" d="M287,-122.0225C287,-139.3734 287,-163 287,-163 287,-163 482.6275,-163 482.6275,-163"/>
<polygon fill="#000000" stroke="#000000" points="482.6275,-166.5001 492.6275,-163 482.6275,-159.5001 482.6275,-166.5001"/>
</g>
<!-- SpinnerService -->
<g id="node9" class="node">
<title>SpinnerService</title>
<ellipse fill="#fdb462" stroke="#000000" cx="94" cy="-104" rx="70.0616" ry="18"/>
<text text-anchor="middle" x="94" y="-99.8" font-family="Times,serif" font-size="14.00" fill="#000000">SpinnerService</text>
</g>
<!-- SpinnerService&#45;&gt;CoreModule -->
<g id="edge8" class="edge">
<title>SpinnerService&#45;&gt;CoreModule</title>
<path fill="none" stroke="#000000" d="M94,-122.2843C94,-143.3211 94,-175 94,-175 94,-175 482.4097,-175 482.4097,-175"/>
<polygon fill="#000000" stroke="#000000" points="482.4097,-178.5001 492.4097,-175 482.4097,-171.5001 482.4097,-178.5001"/>
</g>
</g>
</svg>
