<?xml version="1.0" encoding="UTF-8" standalone="no"?>
<!DOCTYPE svg PUBLIC "-//W3C//DTD SVG 1.1//EN"
 "http://www.w3.org/Graphics/SVG/1.1/DTD/svg11.dtd">
<!-- Generated by graphviz version 2.40.1 (20161225.0304)
 -->
<!-- Title: dependencies Pages: 1 -->
<svg width="783pt" height="284pt"
 viewBox="0.00 0.00 783.00 284.00" xmlns="http://www.w3.org/2000/svg" xmlns:xlink="http://www.w3.org/1999/xlink">
<g id="graph0" class="graph" transform="scale(1 1) rotate(0) translate(4 280)">
<title>dependencies</title>
<polygon fill="#ffffff" stroke="transparent" points="-4,4 -4,-280 779,-280 779,4 -4,4"/>
<text text-anchor="start" x="366.5091" y="-42.4" font-family="sans-serif" font-weight="bold" font-size="14.00" fill="#000000">Legend</text>
<polygon fill="#ffffb3" stroke="transparent" points="153.5,-10 153.5,-30 173.5,-30 173.5,-10 153.5,-10"/>
<text text-anchor="start" x="177.129" y="-15.4" font-family="sans-serif" font-size="14.00" fill="#000000"> &#160;Declarations</text>
<polygon fill="#8dd3c7" stroke="transparent" points="266.5,-10 266.5,-30 286.5,-30 286.5,-10 266.5,-10"/>
<text text-anchor="start" x="290.2251" y="-15.4" font-family="sans-serif" font-size="14.00" fill="#000000"> &#160;Module</text>
<polygon fill="#80b1d3" stroke="transparent" points="352.5,-10 352.5,-30 372.5,-30 372.5,-10 352.5,-10"/>
<text text-anchor="start" x="376.2812" y="-15.4" font-family="sans-serif" font-size="14.00" fill="#000000"> &#160;Bootstrap</text>
<polygon fill="#fdb462" stroke="transparent" points="449.5,-10 449.5,-30 469.5,-30 469.5,-10 449.5,-10"/>
<text text-anchor="start" x="473.1732" y="-15.4" font-family="sans-serif" font-size="14.00" fill="#000000"> &#160;Providers</text>
<polygon fill="#fb8072" stroke="transparent" points="545.5,-10 545.5,-30 565.5,-30 565.5,-10 545.5,-10"/>
<text text-anchor="start" x="569.2258" y="-15.4" font-family="sans-serif" font-size="14.00" fill="#000000"> &#160;Exports</text>
<g id="clust1" class="cluster">
<title>cluster_CoreModule</title>
<polygon fill="none" stroke="#000000" stroke-dasharray="1,5" points="8,-70 8,-268 767,-268 767,-70 8,-70"/>
</g>
<g id="clust2" class="cluster">
<title>cluster_CoreModule_declarations</title>
<polygon fill="none" stroke="#000000" points="639,-78 639,-130 759,-130 759,-78 639,-78"/>
</g>
<g id="clust4" class="cluster">
<title>cluster_CoreModule_imports</title>
<polygon fill="none" stroke="#000000" points="387,-78 387,-130 631,-130 631,-78 387,-78"/>
</g>
<g id="clust5" class="cluster">
<title>cluster_CoreModule_exports</title>
<polygon fill="none" stroke="#000000" points="324,-208 324,-260 568,-260 568,-208 324,-208"/>
</g>
<g id="clust7" class="cluster">
<title>cluster_CoreModule_providers</title>
<polygon fill="none" stroke="#000000" points="16,-78 16,-130 379,-130 379,-78 16,-78"/>
</g>
<!-- NavComponent -->
<g id="node1" class="node">
<title>NavComponent</title>
<polygon fill="#ffffb3" stroke="#000000" points="751.1542,-122 646.8458,-122 646.8458,-86 751.1542,-86 751.1542,-122"/>
<text text-anchor="middle" x="699" y="-99.8" font-family="Times,serif" font-size="14.00" fill="#000000">NavComponent</text>
</g>
<!-- CoreModule -->
<g id="node2" class="node">
<title>CoreModule</title>
<polygon fill="#8dd3c7" stroke="#000000" points="487.2619,-187 484.2619,-191 463.2619,-191 460.2619,-187 400.7381,-187 400.7381,-151 487.2619,-151 487.2619,-187"/>
<text text-anchor="middle" x="444" y="-164.8" font-family="Times,serif" font-size="14.00" fill="#000000">CoreModule</text>
</g>
<!-- NavComponent&#45;&gt;CoreModule -->
<g id="edge1" class="edge">
<title>NavComponent&#45;&gt;CoreModule</title>
<path fill="none" stroke="#000000" d="M699,-122.2843C699,-143.3211 699,-175 699,-175 699,-175 497.5463,-175 497.5463,-175"/>
<polygon fill="#000000" stroke="#000000" points="497.5464,-171.5001 487.5463,-175 497.5463,-178.5001 497.5464,-171.5001"/>
</g>
<!-- NavComponent  -->
<g id="node5" class="node">
<title>NavComponent </title>
<polygon fill="#fb8072" stroke="#000000" points="560.1537,-252 451.8463,-252 451.8463,-216 560.1537,-216 560.1537,-252"/>
<text text-anchor="middle" x="506" y="-229.8" font-family="Times,serif" font-size="14.00" fill="#000000">NavComponent </text>
</g>
<!-- CoreModule&#45;&gt;NavComponent  -->
<g id="edge4" class="edge">
<title>CoreModule&#45;&gt;NavComponent </title>
<path fill="none" stroke="#000000" stroke-dasharray="5,2" d="M469.652,-187.1061C469.652,-187.1061 469.652,-205.991 469.652,-205.991"/>
<polygon fill="#000000" stroke="#000000" points="466.1521,-205.9909 469.652,-215.991 473.1521,-205.991 466.1521,-205.9909"/>
</g>
<!-- RouterModule  -->
<g id="node6" class="node">
<title>RouterModule </title>
<polygon fill="#fb8072" stroke="#000000" points="433.6523,-252 332.3477,-252 332.3477,-216 433.6523,-216 433.6523,-252"/>
<text text-anchor="middle" x="383" y="-229.8" font-family="Times,serif" font-size="14.00" fill="#000000">RouterModule </text>
</g>
<!-- CoreModule&#45;&gt;RouterModule  -->
<g id="edge5" class="edge">
<title>CoreModule&#45;&gt;RouterModule </title>
<path fill="none" stroke="#000000" stroke-dasharray="5,2" d="M417.0977,-187.1061C417.0977,-187.1061 417.0977,-205.991 417.0977,-205.991"/>
<polygon fill="#000000" stroke="#000000" points="413.5977,-205.9909 417.0977,-215.991 420.5977,-205.991 413.5977,-205.9909"/>
</g>
<!-- CommonModule -->
<g id="node3" class="node">
<title>CommonModule</title>
<polygon fill="#8dd3c7" stroke="#000000" points="622.6681,-122 619.6681,-126 598.6681,-126 595.6681,-122 511.3319,-122 511.3319,-86 622.6681,-86 622.6681,-122"/>
<text text-anchor="middle" x="567" y="-99.8" font-family="Times,serif" font-size="14.00" fill="#000000">CommonModule</text>
</g>
<!-- CommonModule&#45;&gt;CoreModule -->
<g id="edge2" class="edge">
<title>CommonModule&#45;&gt;CoreModule</title>
<path fill="none" stroke="#000000" d="M535.6215,-122.0225C535.6215,-139.3734 535.6215,-163 535.6215,-163 535.6215,-163 497.3959,-163 497.3959,-163"/>
<polygon fill="#000000" stroke="#000000" points="497.396,-159.5001 487.3959,-163 497.3959,-166.5001 497.396,-159.5001"/>
</g>
<!-- RouterModule -->
<g id="node4" class="node">
<title>RouterModule</title>
<polygon fill="#8dd3c7" stroke="#000000" points="492.6528,-122 489.6528,-126 468.6528,-126 465.6528,-122 395.3472,-122 395.3472,-86 492.6528,-86 492.6528,-122"/>
<text text-anchor="middle" x="444" y="-99.8" font-family="Times,serif" font-size="14.00" fill="#000000">RouterModule</text>
</g>
<!-- RouterModule&#45;&gt;CoreModule -->
<g id="edge3" class="edge">
<title>RouterModule&#45;&gt;CoreModule</title>
<path fill="none" stroke="#000000" d="M444,-122.1061C444,-122.1061 444,-140.991 444,-140.991"/>
<polygon fill="#000000" stroke="#000000" points="440.5001,-140.9909 444,-150.991 447.5001,-140.991 440.5001,-140.9909"/>
</g>
<!-- AuthService -->
<g id="node7" class="node">
<title>AuthService</title>
<ellipse fill="#fdb462" stroke="#000000" cx="312" cy="-104" rx="59.1083" ry="18"/>
<text text-anchor="middle" x="312" y="-99.8" font-family="Times,serif" font-size="14.00" fill="#000000">AuthService</text>
</g>
<!-- AuthService&#45;&gt;CoreModule -->
<g id="edge6" class="edge">
<title>AuthService&#45;&gt;CoreModule</title>
<path fill="none" stroke="#000000" d="M351.8639,-117.388C351.8639,-134.7955 351.8639,-163 351.8639,-163 351.8639,-163 390.6299,-163 390.6299,-163"/>
<polygon fill="#000000" stroke="#000000" points="390.6299,-166.5001 400.6299,-163 390.6298,-159.5001 390.6299,-166.5001"/>
</g>
<!-- GoogleAnalyticsService -->
<g id="node8" class="node">
<title>GoogleAnalyticsService</title>
<ellipse fill="#fdb462" stroke="#000000" cx="129" cy="-104" rx="105.3547" ry="18"/>
<text text-anchor="middle" x="129" y="-99.8" font-family="Times,serif" font-size="14.00" fill="#000000">GoogleAnalyticsService</text>
</g>
<!-- GoogleAnalyticsService&#45;&gt;CoreModule -->
<g id="edge7" class="edge">
<title>GoogleAnalyticsService&#45;&gt;CoreModule</title>
<path fill="none" stroke="#000000" d="M129,-122.2843C129,-143.3211 129,-175 129,-175 129,-175 390.5313,-175 390.5313,-175"/>
<polygon fill="#000000" stroke="#000000" points="390.5314,-178.5001 400.5313,-175 390.5313,-171.5001 390.5314,-178.5001"/>
</g>
</g>
</svg>
